<?xml version="1.0" encoding="UTF-8"?>
<svg width="49px" height="48px" viewBox="0 0 49 48" version="1.1" xmlns="http://www.w3.org/2000/svg" xmlns:xlink="http://www.w3.org/1999/xlink">
    <!-- Generator: Sketch 56.3 (81716) - https://sketch.com -->
    <title>money</title>
    <desc>Created with Sketch.</desc>
    <g id="Flujos" stroke="none" stroke-width="1" fill="none" fill-rule="evenodd">
        <g id="04.Confirmación_pedido" transform="translate(-796.000000, -472.000000)">
            <g id="money" transform="translate(796.000000, 472.000000)">
                <rect id="Rectangle" fill="#78B928" x="1" y="28" width="12" height="19" rx="1"></rect>
                <path d="M43.7062322,17.293 C43.5203159,17.1069 43.2634315,17 42.9995502,17 C42.7366685,17 42.4787845,17.1069 42.2928682,17.293 C42.1070518,17.479 42,17.737 42,18 C42,18.263 42.1069519,18.521 42.2928682,18.7069 C42.4787845,18.8929 42.7366685,19 42.9995502,19 C43.2634315,19 43.5203159,18.893 43.7062322,18.7069 C43.8930481,18.521 44,18.263 44,18 C44,17.737 43.8930481,17.479 43.7062322,17.293 Z" id="Path" fill="#484D4F" fill-rule="nonzero"></path>
                <path d="M47.803372,0.274593214 C47.6274925,0.098812307 47.3889865,0 47.1402614,0 L24.0777383,0.00121874762 C23.5600377,0.00121874762 23.1403083,0.421030428 23.1403083,0.938716917 L23.1403083,3.61968043 L14.2536139,6.00083203 C13.7534449,6.13489427 13.4566249,6.64892451 13.5906908,7.14898604 L18.196464,24.337265 L14.2120816,28.3215384 C13.704975,27.5811024 12.8535158,27.0941658 11.8903976,27.0941658 L2.89045037,27.0941658 C1.33959849,27.0941658 0.0779727096,28.3558509 0.0779727096,29.9065666 L0.0779727096,45.1874117 C0.0779727096,46.7382212 1.33959849,48 2.89045037,48 L11.8904914,48 C13.2079936,48 14.3163342,47.089033 14.6200919,45.8642854 L15.7348077,46.8363773 C16.5953608,47.5867508 17.6978888,48 18.8396991,48 L47.1404489,48 C47.6581495,48 48.0779727,47.5801883 48.0779727,47.0625018 L48.0779727,0.937498169 C48.0779727,0.688873655 47.9791577,0.45037412 47.803372,0.274593214 Z M12.8279214,45.1875055 C12.8279214,45.7043482 12.4072545,46.1250037 11.8903039,46.1250037 L2.89035662,46.1250037 C2.37340599,46.1250037 1.95283281,45.704442 1.95283281,45.1875055 L1.95283281,29.9066603 C1.95283281,29.3897238 2.37340599,28.9691622 2.89035662,28.9691622 L6.45285332,28.9691622 L6.45285332,39.7686723 C6.45285332,40.2863588 6.87267648,40.7061705 7.39037713,40.7061705 C7.90807777,40.7061705 8.32790093,40.2863588 8.32790093,39.7686723 L8.32790093,28.9691622 L11.8903976,28.9691622 C12.4073483,28.9691622 12.8279214,29.3897238 12.8279214,29.9066603 M15.6444305,7.56926647 L23.1403083,5.56077039 L23.1403083,9.03466985 L22.5119798,9.20304453 C22.2716925,9.26745065 22.067031,9.42448159 21.9427154,9.63982492 C21.8183997,9.85516825 21.7846489,10.1110115 21.8490567,10.3511985 C22.2093471,11.6956647 21.4086081,13.0825057 20.0641052,13.4427862 C19.8236303,13.5072861 19.6185939,13.6645983 19.494372,13.8804104 C19.37015,14.0961287 19.3366805,14.3524407 19.4016508,14.5928152 L23.0560249,28.1244763 L21.1744146,28.1244763 L20.2047337,24.3309837 C20.1738892,24.210234 20.1198878,24.0989529 20.0476048,24.0022031 L15.6444305,7.56926647 Z M23.1403083,13.3339427 L23.1403083,21.244646 L21.4303586,14.9132521 C22.144658,14.5444403 22.7292041,13.9926289 23.1403083,13.3339427 Z M36.6091503,46.1249099 L18.8395116,46.1249099 L18.8395116,46.1249099 C18.1509003,46.1249099 17.4859147,45.8757229 16.9669015,45.4231925 L14.7028753,43.4487276 L14.7028753,30.4824717 L18.7959167,26.3895422 L19.5382481,29.2939115 C19.6443758,29.708942 20.0181665,29.9991914 20.4465211,29.9991914 L38.8786141,30.0003164 C39.6023825,30.0003164 40.1911475,30.5890653 40.1911475,31.3128138 C40.1911475,32.0365624 39.6023825,32.6253113 38.8786141,32.6253113 L29.4339993,32.6253113 C28.9162987,32.6253113 28.4964755,33.045123 28.4964755,33.5628094 C28.4964755,34.0804959 28.9162987,34.5003076 29.4339993,34.5003076 L41.8130636,34.5003076 C42.536832,34.5003076 43.125597,35.0890565 43.125597,35.8128051 C43.125597,36.5365536 42.536832,37.1253025 41.8130636,37.1253025 L29.4339993,37.1253025 C28.9162987,37.1253025 28.4964755,37.5451142 28.4964755,38.0628007 C28.4964755,38.5804871 28.9162987,39.0002988 29.4339993,39.0002988 L39.807044,39.0002988 C40.5308123,39.0002988 41.1195773,39.5890477 41.1195773,40.3127963 C41.1195773,41.0365449 40.5308123,41.6252937 39.807044,41.6252937 L29.4339993,41.6252937 C28.9162987,41.6252937 28.4964755,42.0451054 28.4964755,42.5627919 C28.4964755,43.0804784 28.9162987,43.50029 29.4339993,43.50029 L36.6091503,43.50029 C37.3329186,43.50029 37.9216836,44.0890389 37.9216836,44.8127875 C37.9215898,45.5361611 37.3328249,46.1249099 36.6091503,46.1249099 Z M46.2029251,46.1249099 L46.2029251,46.1249099 L39.5127552,46.1249099 C39.6945411,45.7243169 39.7966374,45.2802241 39.7966374,44.8124125 C39.7966374,44.3446009 39.6945411,43.900508 39.5127552,43.499915 L39.807044,43.499915 C41.5646198,43.499915 42.9945311,42.0700428 42.9945311,40.312515 C42.9945311,39.799891 42.8721843,39.3154857 42.6561788,38.8859241 C44.0058381,38.5152373 45.0004571,37.2782084 45.0004571,35.8126176 C45.0004571,35.1016189 44.7662636,34.444339 44.3712848,33.913715 L44.3712848,22.0318632 C44.3712848,21.5141767 43.9514617,21.0943651 43.433761,21.0943651 C42.9160604,21.0943651 42.4962372,21.5141767 42.4962372,22.0318632 L42.4962372,32.6998424 C42.2759191,32.6515612 42.0474446,32.6253113 41.8128761,32.6253113 L41.7821254,32.6253113 C41.9639112,32.2247183 42.0660076,31.7806254 42.0660076,31.3128138 C42.0660076,29.5551923 40.6360963,28.1254138 38.8785204,28.1254138 L37.3714509,28.1254138 C38.9717102,27.4391652 40.0956138,25.8486058 40.0956138,23.9999531 C40.0956138,21.5259892 38.0829377,19.5132744 35.6089061,19.5132744 C33.1349683,19.5132744 31.1221984,21.5259892 31.1221984,23.9999531 C31.1221984,25.8486058 32.2461957,27.4391652 33.8463614,28.1254138 L28.721575,28.1254138 L28.721575,10.2996361 C30.3963675,9.9346681 31.7179011,8.61326443 32.0827853,6.93842395 L39.1349331,6.93842395 C39.4998174,8.61326443 40.821351,9.9346681 42.4961435,10.2996361 L42.4961435,13.2143179 C42.4961435,13.7320044 42.9159666,14.1518161 43.4336673,14.1518161 C43.9513679,14.1518161 44.3711911,13.7320044 44.3711911,13.2143179 L44.3711911,9.46263777 C44.3711911,8.94495128 43.9513679,8.5251396 43.4336673,8.5251396 C42.0417257,8.5251396 40.9094782,7.39273556 40.9094782,6.00092578 C40.9094782,5.48323929 40.489655,5.06342761 39.9719544,5.06342761 L31.2458578,5.06342761 C30.7281572,5.06342761 30.308334,5.48323929 30.308334,6.00092578 C30.308334,7.39282931 29.1759928,8.5251396 27.7841449,8.5251396 C27.2664443,8.5251396 26.8466211,8.94495128 26.8466211,9.46263777 L26.8466211,28.1253201 L25.0154496,28.1253201 L25.0154496,1.87602759 L46.2029251,1.87499634 L46.2029251,46.1249099 Z M35.6090936,26.6116355 C34.1689633,26.6116355 32.9974336,25.4400441 32.9974336,24.0000469 C32.9974336,22.5600497 34.1690571,21.3883645 35.6090936,21.3883645 C37.0491302,21.3883645 38.2207537,22.5599559 38.2207537,23.9999531 C38.2207537,25.4399503 37.0492239,26.6116355 35.6090936,26.6116355 Z" id="Shape" fill="#484D4F" fill-rule="nonzero"></path>
            </g>
        </g>
    </g>
</svg>