<?xml version="1.0" encoding="UTF-8"?>
<svg width="10px" height="24px" viewBox="0 0 10 24" version="1.1" xmlns="http://www.w3.org/2000/svg" xmlns:xlink="http://www.w3.org/1999/xlink">
    <!-- Generator: Sketch 52.2 (67145) - http://www.bohemiancoding.com/sketch -->
    <title>Group</title>
    <desc>Created with Sketch.</desc>
    <g id="Symbols" stroke="none" stroke-width="1" fill="none" fill-rule="evenodd" opacity="0.65">
        <g id="product1" transform="translate(-598.000000, -18.000000)">
            <g id="Group-2">
                <g id="Group" transform="translate(597.000000, 15.000000)">
                    <g id="Group-57" transform="translate(0.000000, 18.000000)">
                        <rect id="Rectangle-36-Copy-6" x="0" y="0" width="12" height="12"></rect>
                        <g id="down" transform="translate(1.500000, 3.000000)" fill="#000000" fill-rule="nonzero">
                            <path d="M8.99648438,0.516796875 C8.99648438,0.629296875 8.95898438,0.74296875 8.88398438,0.837890625 L4.8890625,5.80429687 C4.79179688,5.925 4.6453125,5.9953125 4.48945313,5.9953125 C4.33476563,5.9953125 4.18710938,5.925 4.09101563,5.80429687 L0.1171875,0.858984375 C-0.059765625,0.638671875 -0.024609375,0.31640625 0.195703125,0.139453125 C0.416015625,-0.0375 0.73828125,-0.00234375 0.915234375,0.21796875 L4.490625,4.66640625 L8.0859375,0.195703125 C8.26289063,-0.024609375 8.58515625,-0.059765625 8.80546875,0.1171875 C8.93085938,0.219140625 8.99648438,0.366796875 8.99648438,0.516796875 Z" id="Shape"></path>
                        </g>
                    </g>
                    <g id="Group-65">
                        <rect id="Rectangle-36-Copy-3" x="0" y="0" width="12" height="12"></rect>
                        <g id="up" transform="translate(1.500000, 3.000000)" fill="#000000" fill-rule="nonzero">
                            <path d="M8.99648438,5.48320312 C8.99648438,5.37070312 8.95898438,5.25703125 8.88398438,5.16210937 L4.8890625,0.195703125 C4.79179688,0.075 4.6453125,0.0046875 4.48945313,0.0046875 C4.33476563,0.0046875 4.18710938,0.075 4.09101563,0.195703125 L0.1171875,5.14101562 C-0.059765625,5.36132812 -0.024609375,5.68359375 0.195703125,5.86054687 C0.416015625,6.0375 0.73828125,6.00234375 0.915234375,5.78203125 L4.490625,1.33359375 L8.0859375,5.80429687 C8.26289063,6.02460937 8.58515625,6.05976562 8.80546875,5.8828125 C8.93085938,5.78085937 8.99648438,5.63320312 8.99648438,5.48320312 Z" id="Shape"></path>
                        </g>
                    </g>
                </g>
            </g>
        </g>
    </g>
</svg>