<?xml version="1.0" encoding="UTF-8"?>
<svg width="15px" height="31px" viewBox="0 0 15 31" version="1.1" xmlns="http://www.w3.org/2000/svg" xmlns:xlink="http://www.w3.org/1999/xlink">
    <!-- Generator: Sketch 52.2 (67145) - http://www.bohemiancoding.com/sketch -->
    <title>Group 2</title>
    <desc>Created with Sketch.</desc>
    <g id="Page-1" stroke="none" stroke-width="1" fill="none" fill-rule="evenodd" opacity="0.65">
        <g id="Movil-Copy" transform="translate(-376.000000, -320.000000)">
            <g id="Group-3" transform="translate(10.000000, 232.000000)">
                <g id="Group-2" transform="translate(364.000000, 83.000000)">
                    <g id="Group-57" transform="translate(0.000000, 21.162162)">
                        <rect id="Rectangle-36-Copy-6" x="0" y="0" width="19" height="19.4108108"></rect>
                        <g id="down" transform="translate(2.375000, 4.852703)" fill="#000000" fill-rule="nonzero">
                            <path d="M14.2444336,0.835953864 C14.2444336,1.01793022 14.1850586,1.20180215 14.0663086,1.3553447 L7.74101563,9.38884238 C7.58701172,9.58408784 7.35507813,9.69782306 7.10830078,9.69782306 C6.86337891,9.69782306 6.62958984,9.58408784 6.47744141,9.38884238 L0.185546875,1.38946527 C-0.0946289062,1.03309491 -0.0389648437,0.511808488 0.309863281,0.225574852 C0.658691406,-0.0606587838 1.16894531,-0.00379117399 1.44912109,0.352579181 L7.11015625,7.54822741 L12.8027344,0.316563028 C13.0829102,-0.0398073269 13.5931641,-0.0966749367 13.9419922,0.189558699 C14.1405273,0.354474768 14.2444336,0.593318729 14.2444336,0.835953864 Z" id="Shape"></path>
                        </g>
                    </g>
                    <g id="Group-65" transform="translate(0.000000, 0.729730)">
                        <rect id="Rectangle-36-Copy-3" x="0" y="0" width="19" height="19.4108108"></rect>
                        <g id="up" transform="translate(2.375000, 4.852703)" fill="#000000" fill-rule="nonzero">
                            <path d="M14.2444336,8.86945154 C14.2444336,8.68747519 14.1850586,8.50360325 14.0663086,8.35006071 L7.74101563,0.316563028 C7.58701172,0.121317568 7.35507813,0.00758234797 7.10830078,0.00758234797 C6.86337891,0.00758234797 6.62958984,0.121317568 6.47744141,0.316563028 L0.185546875,8.31594014 C-0.0946289062,8.67231049 -0.0389648437,9.19359692 0.309863281,9.47983055 C0.658691406,9.76606419 1.16894531,9.70919658 1.44912109,9.35282622 L7.11015625,2.157178 L12.8027344,9.38884238 C13.0829102,9.74521273 13.5931641,9.80208034 13.9419922,9.51584671 C14.1405273,9.35093064 14.2444336,9.11208668 14.2444336,8.86945154 Z" id="Shape"></path>
                        </g>
                    </g>
                </g>
            </g>
        </g>
    </g>
</svg>