<?xml version="1.0" encoding="UTF-8"?>
<svg width="17px" height="9px" viewBox="0 0 17 9" version="1.1" xmlns="http://www.w3.org/2000/svg" xmlns:xlink="http://www.w3.org/1999/xlink">
    <!-- Generator: Sketch 60.1 (88133) - https://sketch.com -->
    <title>Fill 4</title>
    <desc>Created with Sketch.</desc>
    <g id="Flujos" stroke="none" stroke-width="1" fill="none" fill-rule="evenodd">
        <g id="01.Home_slider" transform="translate(-854.000000, -750.000000)" fill="#FFFFFF">
            <g id="Group-6" transform="translate(975.000000, 945.500000) rotate(-360.000000) translate(-975.000000, -945.500000) translate(854.000000, 750.000000)">
                <path d="M5.59010152,12.75 C5.26522843,12.75 4.77791878,12.75 4.61548223,12.4104775 C4.12817259,11.9011936 4.12817259,11.0523873 4.61548223,10.5431034 L9.48857868,5.45026525 C9.81345178,5.11074271 9.81345178,4.60145889 9.48857868,4.09217507 L4.61548223,-1.00066313 C4.12817259,-1.50994695 4.12817259,-2.35875332 4.61548223,-2.86803714 C5.10279188,-3.37732095 5.91497462,-3.37732095 6.40228426,-2.86803714 L11.2753807,2.22480106 C12.5748731,3.58289125 12.5748731,5.95954907 11.2753807,7.31763926 L6.40228426,12.4104775 C6.40228426,12.75 6.07741117,12.75 5.59010152,12.75" id="Fill-4" transform="translate(8.250000, 4.750000) rotate(-270.000000) translate(-8.250000, -4.750000) "></path>
            </g>
        </g>
    </g>
</svg>