<?xml version="1.0" encoding="UTF-8"?>
<svg width="591px" height="373px" viewBox="0 0 591 373" version="1.1" xmlns="http://www.w3.org/2000/svg" xmlns:xlink="http://www.w3.org/1999/xlink">
    <!-- Generator: Sketch 52.1 (67048) - http://www.bohemiancoding.com/sketch -->
    <title>Group 129</title>
    <desc>Created with Sketch.</desc>
    <g id="Page-1" stroke="none" stroke-width="1" fill="none" fill-rule="evenodd">
        <g id="Desktop---Pantalla-de-confirmación" transform="translate(-54.000000, -162.000000)">
            <g id="Group-129" transform="translate(350.000000, 348.500000) scale(-1, 1) translate(-350.000000, -348.500000) translate(55.000000, 162.000000)">
                <g id="Group-4" transform="translate(342.000000, 328.759000)">
                    <path d="M9.6657,11.7549 L18.6647,13.6049 C18.6647,13.6049 19.3627,4.8589 9.6067,1.9379 L0.599693002,0.0879 C0.599693002,0.0879 0.5467,10.4459 9.6657,11.7549" id="Fill-1" fill="#FFFFFF"></path>
                    <path d="M9.6657,11.7549 L18.6647,13.6049 C18.6647,13.6049 19.3627,4.8589 9.6067,1.9379 L0.599693002,0.0879 C0.599693002,0.0879 0.5467,10.4459 9.6657,11.7549" id="Stroke-3" stroke="#FFFFFF" stroke-width="1.548" stroke-linecap="round" stroke-linejoin="round"></path>
                </g>
                <path d="M395.4113,163.0525 C395.4113,164.0835 394.5753,164.9185 393.5443,164.9185 C392.5143,164.9185 391.6783,164.0835 391.6783,163.0525 C391.6783,162.0215 392.5143,161.1865 393.5443,161.1865 C394.5753,161.1865 395.4113,162.0215 395.4113,163.0525" id="Fill-5" fill="#FFFFFF"></path>
                <path d="M395.4113,163.0525 C395.4113,164.0835 394.5753,164.9185 393.5443,164.9185 C392.5143,164.9185 391.6783,164.0835 391.6783,163.0525 C391.6783,162.0215 392.5143,161.1865 393.5443,161.1865 C394.5753,161.1865 395.4113,162.0215 395.4113,163.0525 Z" id="Stroke-7" stroke="#FFFFFF"></path>
                <g id="Group-12" transform="translate(102.000000, 363.759000)">
                    <path d="M1.4719,0.1133 L1.4719,8.0653" id="Fill-9" fill="#FFFFFF"></path>
                    <path d="M1.4719,0.1133 L1.4719,8.0653" id="Stroke-11" stroke="#FFFFFF" stroke-width="1.869" stroke-linecap="round" stroke-linejoin="round"></path>
                </g>
                <g id="Group-16" transform="translate(99.000000, 366.759000)">
                    <path d="M0.4958,1.0894 L8.4478,1.0894" id="Fill-13" fill="#FFFFFF"></path>
                    <path d="M0.4958,1.0894 L8.4478,1.0894" id="Stroke-15" stroke="#FFFFFF" stroke-width="1.869" stroke-linecap="round" stroke-linejoin="round"></path>
                </g>
                <g id="Group-20" transform="translate(487.000000, 154.759000)">
                    <path d="M1.1272,0.2048 L1.1272,8.1568" id="Fill-17" fill="#FFFFFF"></path>
                    <path d="M1.1272,0.2048 L1.1272,8.1568" id="Stroke-19" stroke="#FFFFFF" stroke-width="1.869" stroke-linecap="round" stroke-linejoin="round"></path>
                </g>
                <g id="Group-24" transform="translate(484.000000, 157.759000)">
                    <path d="M0.1511,1.1809 L8.1031,1.1809" id="Fill-21" fill="#FFFFFF"></path>
                    <path d="M0.1511,1.1809 L8.1031,1.1809" id="Stroke-23" stroke="#FFFFFF" stroke-width="1.869" stroke-linecap="round" stroke-linejoin="round"></path>
                </g>
                <path d="M519.2551,352.4084 C519.2551,354.0654 517.9121,355.4084 516.2551,355.4084 C514.5981,355.4084 513.2551,354.0654 513.2551,352.4084 C513.2551,350.7514 514.5981,349.4084 516.2551,349.4084 C517.9121,349.4084 519.2551,350.7514 519.2551,352.4084" id="Fill-25" fill="#FFFFFF"></path>
                <path d="M519.2551,352.4084 C519.2551,354.0654 517.9121,355.4084 516.2551,355.4084 C514.5981,355.4084 513.2551,354.0654 513.2551,352.4084 C513.2551,350.7514 514.5981,349.4084 516.2551,349.4084 C517.9121,349.4084 519.2551,350.7514 519.2551,352.4084 Z" id="Stroke-27" stroke="#FFFFFF" stroke-width="1.548" stroke-linecap="round" stroke-linejoin="round"></path>
                <g id="Group-32" transform="translate(245.000000, 352.759000)">
                    <path d="M10.9143,0.6236 L0.8623,10.6766" id="Fill-29" fill="#FFFFFF"></path>
                    <path d="M10.9143,0.6236 L0.8623,10.6766" id="Stroke-31" stroke="#FFFFFF" stroke-width="1.548" stroke-linecap="round" stroke-linejoin="round"></path>
                </g>
                <g id="Group-36" transform="translate(245.000000, 352.759000)">
                    <path d="M0.862,0.6236 L10.914,10.6766" id="Fill-33" fill="#FFFFFF"></path>
                    <path d="M0.862,0.6236 L10.914,10.6766" id="Stroke-35" stroke="#FFFFFF" stroke-width="1.548" stroke-linecap="round" stroke-linejoin="round"></path>
                </g>
                <path d="M321.5593,174.9797 L318.5713,171.2987 C318.1773,170.8127 318.2513,170.1007 318.7363,169.7067 L320.9723,167.8917 C321.6623,167.3317 321.4663,166.2307 320.6253,165.9427 L307.8533,161.5677 C307.0623,161.2967 306.2613,161.9477 306.3643,162.7777 L308.0183,176.1757 C308.1273,177.0577 309.1643,177.4757 309.8543,176.9157 L312.0903,175.1007 C312.5763,174.7067 313.2883,174.7807 313.6823,175.2667 L316.6713,178.9477 C317.0643,179.4327 317.7773,179.5067 318.2633,179.1137 L321.3933,176.5717 C321.8793,176.1777 321.9533,175.4647 321.5593,174.9797" id="Fill-37" fill="#FFFFFF"></path>
                <path d="M321.5593,174.9797 L318.5713,171.2987 C318.1773,170.8127 318.2513,170.1007 318.7363,169.7067 L320.9723,167.8917 C321.6623,167.3317 321.4663,166.2307 320.6253,165.9427 L307.8533,161.5677 C307.0623,161.2967 306.2613,161.9477 306.3643,162.7777 L308.0183,176.1757 C308.1273,177.0577 309.1643,177.4757 309.8543,176.9157 L312.0903,175.1007 C312.5763,174.7067 313.2883,174.7807 313.6823,175.2667 L316.6713,178.9477 C317.0643,179.4327 317.7773,179.5067 318.2633,179.1137 L321.3933,176.5717 C321.8793,176.1777 321.9533,175.4647 321.5593,174.9797 Z" id="Stroke-39" stroke="#FFFFFF"></path>
                <path d="M162.7834,356.9524 L159.7954,353.2704 C159.4014,352.7854 159.4754,352.0734 159.9604,351.6794 L162.1964,349.8644 C162.8864,349.3044 162.6914,348.2024 161.8494,347.9144 L149.0774,343.5404 C148.2874,343.2694 147.4854,343.9204 147.5884,344.7494 L149.2424,358.1484 C149.3514,359.0304 150.3884,359.4484 151.0794,358.8884 L153.3144,357.0734 C153.8004,356.6794 154.5124,356.7534 154.9064,357.2394 L157.8954,360.9204 C158.2894,361.4054 159.0014,361.4794 159.4874,361.0854 L162.6174,358.5444 C163.1034,358.1504 163.1774,357.4374 162.7834,356.9524" id="Fill-41" fill="#FFFFFF"></path>
                <path d="M162.7834,356.9524 L159.7954,353.2704 C159.4014,352.7854 159.4754,352.0734 159.9604,351.6794 L162.1964,349.8644 C162.8864,349.3044 162.6914,348.2024 161.8494,347.9144 L149.0774,343.5404 C148.2874,343.2694 147.4854,343.9204 147.5884,344.7494 L149.2424,358.1484 C149.3514,359.0304 150.3884,359.4484 151.0794,358.8884 L153.3144,357.0734 C153.8004,356.6794 154.5124,356.7534 154.9064,357.2394 L157.8954,360.9204 C158.2894,361.4054 159.0014,361.4794 159.4874,361.0854 L162.6174,358.5444 C163.1034,358.1504 163.1774,357.4374 162.7834,356.9524 Z" id="Stroke-43" stroke="#FFFFFF"></path>
                <g id="Group-48" transform="translate(336.000000, 0.759000)">
                    <path d="M9.4524,11.6814 L18.4524,13.5314 C18.4524,13.5314 19.1504,4.7854 9.3934,1.8634 L0.386393002,0.0144 C0.386393002,0.0144 0.3334,10.3724 9.4524,11.6814" id="Fill-45" fill="#FFFFFF"></path>
                    <path d="M9.4524,11.6814 L18.4524,13.5314 C18.4524,13.5314 19.1504,4.7854 9.3934,1.8634 L0.386393002,0.0144 C0.386393002,0.0144 0.3334,10.3724 9.4524,11.6814" id="Stroke-47" stroke="#FFFFFF" stroke-width="1.548" stroke-linecap="round" stroke-linejoin="round"></path>
                </g>
                <g id="Group-52" transform="translate(194.000000, 145.759000)">
                    <path d="M9.8284,12.6651 L18.8284,14.5151 C18.8284,14.5151 19.5254,5.7691 9.7694,2.8471 L0.762393002,0.9981 C0.762393002,0.9981 0.7094,11.3561 9.8284,12.6651" id="Fill-49" fill="#FFFFFF"></path>
                    <path d="M9.8284,12.6651 L18.8284,14.5151 C18.8284,14.5151 19.5254,5.7691 9.7694,2.8471 L0.762393002,0.9981 C0.762393002,0.9981 0.7094,11.3561 9.8284,12.6651" id="Stroke-51" stroke="#FFFFFF" stroke-width="1.548" stroke-linecap="round" stroke-linejoin="round"></path>
                </g>
                <g id="Group-56" transform="translate(0.000000, 291.759000)">
                    <path d="M9.8406,11.7837 L18.8406,13.6337 C18.8406,13.6337 19.5386,4.8887 9.7816,1.9667 L0.774593002,0.1177 C0.774593002,0.1177 0.7216,10.4747 9.8406,11.7837" id="Fill-53" fill="#FFFFFF"></path>
                    <path d="M9.8406,11.7837 L18.8406,13.6337 C18.8406,13.6337 19.5386,4.8887 9.7816,1.9667 L0.774593002,0.1177 C0.774593002,0.1177 0.7216,10.4747 9.8406,11.7837" id="Stroke-55" stroke="#FFFFFF" stroke-width="1.548" stroke-linecap="round" stroke-linejoin="round"></path>
                </g>
                <path d="M351.1653,292.625 C351.1653,293.656 350.3303,294.491 349.2993,294.491 C348.2683,294.491 347.4323,293.656 347.4323,292.625 C347.4323,291.594 348.2683,290.759 349.2993,290.759 C350.3303,290.759 351.1653,291.594 351.1653,292.625" id="Fill-57" fill="#FFFFFF"></path>
                <path d="M351.1653,292.625 C351.1653,293.656 350.3303,294.491 349.2993,294.491 C348.2683,294.491 347.4323,293.656 347.4323,292.625 C347.4323,291.594 348.2683,290.759 349.2993,290.759 C350.3303,290.759 351.1653,291.594 351.1653,292.625 Z" id="Stroke-59" stroke="#FFFFFF"></path>
                <path d="M108.9538,108.3733 C108.9538,109.4043 108.1178,110.2393 107.0868,110.2393 C106.0568,110.2393 105.2208,109.4043 105.2208,108.3733 C105.2208,107.3423 106.0568,106.5073 107.0868,106.5073 C108.1178,106.5073 108.9538,107.3423 108.9538,108.3733" id="Fill-61" fill="#FFFFFF"></path>
                <path d="M108.9538,108.3733 C108.9538,109.4043 108.1178,110.2393 107.0868,110.2393 C106.0568,110.2393 105.2208,109.4043 105.2208,108.3733 C105.2208,107.3423 106.0568,106.5073 107.0868,106.5073 C108.1178,106.5073 108.9538,107.3423 108.9538,108.3733 Z" id="Stroke-63" stroke="#FFFFFF"></path>
                <path d="M110.8201,295.7785 C110.8201,296.8095 109.9851,297.6445 108.9541,297.6445 C107.9231,297.6445 107.0871,296.8095 107.0871,295.7785 C107.0871,294.7475 107.9231,293.9125 108.9541,293.9125 C109.9851,293.9125 110.8201,294.7475 110.8201,295.7785" id="Fill-65" fill="#FFFFFF"></path>
                <path d="M110.8201,295.7785 C110.8201,296.8095 109.9851,297.6445 108.9541,297.6445 C107.9231,297.6445 107.0871,296.8095 107.0871,295.7785 C107.0871,294.7475 107.9231,293.9125 108.9541,293.9125 C109.9851,293.9125 110.8201,294.7475 110.8201,295.7785 Z" id="Stroke-67" stroke="#FFFFFF"></path>
                <g id="Group-72" transform="translate(166.000000, 180.759000)">
                    <path d="M1.1892,0.3267 L1.1892,8.2787" id="Fill-69" fill="#FFFFFF"></path>
                    <path d="M1.1892,0.3267 L1.1892,8.2787" id="Stroke-71" stroke="#FFFFFF" stroke-width="1.869" stroke-linecap="round" stroke-linejoin="round"></path>
                </g>
                <g id="Group-76" transform="translate(163.000000, 183.759000)">
                    <path d="M0.2131,1.3027 L8.1651,1.3027" id="Fill-73" fill="#FFFFFF"></path>
                    <path d="M0.2131,1.3027 L8.1651,1.3027" id="Stroke-75" stroke="#FFFFFF" stroke-width="1.869" stroke-linecap="round" stroke-linejoin="round"></path>
                </g>
                <g id="Group-80" transform="translate(96.000000, 35.759000)">
                    <path d="M1.2585,0.0396 L1.2585,7.9916" id="Fill-77" fill="#FFFFFF"></path>
                    <path d="M1.2585,0.0396 L1.2585,7.9916" id="Stroke-79" stroke="#FFFFFF" stroke-width="1.869" stroke-linecap="round" stroke-linejoin="round"></path>
                </g>
                <g id="Group-84" transform="translate(93.000000, 38.759000)">
                    <path d="M0.2825,1.0157 L8.2345,1.0157" id="Fill-81" fill="#FFFFFF"></path>
                    <path d="M0.2825,1.0157 L8.2345,1.0157" id="Stroke-83" stroke="#FFFFFF" stroke-width="1.869" stroke-linecap="round" stroke-linejoin="round"></path>
                </g>
                <g id="Group-88" transform="translate(427.000000, 260.759000)">
                    <path d="M1.4231,0.272 L1.4231,8.224" id="Fill-85" fill="#FFFFFF"></path>
                    <path d="M1.4231,0.272 L1.4231,8.224" id="Stroke-87" stroke="#FFFFFF" stroke-width="1.869" stroke-linecap="round" stroke-linejoin="round"></path>
                </g>
                <g id="Group-92" transform="translate(424.000000, 263.759000)">
                    <path d="M0.447,1.2481 L8.399,1.2481" id="Fill-89" fill="#FFFFFF"></path>
                    <path d="M0.447,1.2481 L8.399,1.2481" id="Stroke-91" stroke="#FFFFFF" stroke-width="1.869" stroke-linecap="round" stroke-linejoin="round"></path>
                </g>
                <path d="M478.0036,27.335 C478.0036,28.992 476.6606,30.335 475.0036,30.335 C473.3466,30.335 472.0036,28.992 472.0036,27.335 C472.0036,25.678 473.3466,24.335 475.0036,24.335 C476.6606,24.335 478.0036,25.678 478.0036,27.335" id="Fill-93" fill="#FFFFFF"></path>
                <path d="M478.0036,27.335 C478.0036,28.992 476.6606,30.335 475.0036,30.335 C473.3466,30.335 472.0036,28.992 472.0036,27.335 C472.0036,25.678 473.3466,24.335 475.0036,24.335 C476.6606,24.335 478.0036,25.678 478.0036,27.335 Z" id="Stroke-95" stroke="#FFFFFF" stroke-width="1.548" stroke-linecap="round" stroke-linejoin="round"></path>
                <g id="Group-100" transform="translate(66.000000, 193.759000)">
                    <path d="M10.4348,0.0957 L0.3828,10.1487" id="Fill-97" fill="#FFFFFF"></path>
                    <path d="M10.4348,0.0957 L0.3828,10.1487" id="Stroke-99" stroke="#FFFFFF" stroke-width="1.548" stroke-linecap="round" stroke-linejoin="round"></path>
                </g>
                <g id="Group-104" transform="translate(66.000000, 193.759000)">
                    <path d="M0.3826,0.0957 L10.4346,10.1487" id="Fill-101" fill="#FFFFFF"></path>
                    <path d="M0.3826,0.0957 L10.4346,10.1487" id="Stroke-103" stroke="#FFFFFF" stroke-width="1.548" stroke-linecap="round" stroke-linejoin="round"></path>
                </g>
                <g id="Group-108" transform="translate(239.000000, 24.759000)">
                    <path d="M10.7014,0.5498 L0.6484,10.6028" id="Fill-105" fill="#FFFFFF"></path>
                    <path d="M10.7014,0.5498 L0.6484,10.6028" id="Stroke-107" stroke="#FFFFFF" stroke-width="1.548" stroke-linecap="round" stroke-linejoin="round"></path>
                </g>
                <g id="Group-112" transform="translate(239.000000, 24.759000)">
                    <path d="M0.6487,0.5498 L10.7017,10.6028" id="Fill-109" fill="#FFFFFF"></path>
                    <path d="M0.6487,0.5498 L10.7017,10.6028" id="Stroke-111" stroke="#FFFFFF" stroke-width="1.548" stroke-linecap="round" stroke-linejoin="round"></path>
                </g>
                <path d="M428.6804,58.9626 L425.6924,55.2816 C425.2984,54.7956 425.3724,54.0836 425.8574,53.6896 L428.0934,51.8746 C428.7834,51.3146 428.5874,50.2136 427.7464,49.9256 L414.9744,45.5506 C414.1844,45.2796 413.3824,45.9306 413.4854,46.7606 L415.1394,60.1586 C415.2484,61.0406 416.2854,61.4586 416.9764,60.8986 L419.2114,59.0836 C419.6974,58.6896 420.4094,58.7636 420.8044,59.2496 L423.7924,62.9306 C424.1864,63.4156 424.8984,63.4896 425.3844,63.0966 L428.5154,60.5546 C429.0004,60.1606 429.0744,59.4476 428.6804,58.9626" id="Fill-113" fill="#FFFFFF"></path>
                <path d="M428.6804,58.9626 L425.6924,55.2816 C425.2984,54.7956 425.3724,54.0836 425.8574,53.6896 L428.0934,51.8746 C428.7834,51.3146 428.5874,50.2136 427.7464,49.9256 L414.9744,45.5506 C414.1844,45.2796 413.3824,45.9306 413.4854,46.7606 L415.1394,60.1586 C415.2484,61.0406 416.2854,61.4586 416.9764,60.8986 L419.2114,59.0836 C419.6974,58.6896 420.4094,58.7636 420.8044,59.2496 L423.7924,62.9306 C424.1864,63.4156 424.8984,63.4896 425.3844,63.0966 L428.5154,60.5546 C429.0004,60.1606 429.0744,59.4476 428.6804,58.9626 Z" id="Stroke-115" stroke="#FFFFFF"></path>
                <path d="M236.9748,270.9968 L233.9858,267.3158 C233.5928,266.8298 233.6658,266.1178 234.1518,265.7238 L236.3878,263.9088 C237.0778,263.3488 236.8818,262.2478 236.0408,261.9598 L223.2688,257.5848 C222.4778,257.3138 221.6768,257.9648 221.7788,258.7948 L223.4338,272.1928 C223.5428,273.0748 224.5798,273.4928 225.2698,272.9328 L227.5058,271.1178 C227.9908,270.7238 228.7038,270.7978 229.0978,271.2838 L232.0858,274.9648 C232.4798,275.4498 233.1928,275.5238 233.6778,275.1308 L236.8088,272.5888 C237.2948,272.1948 237.3688,271.4818 236.9748,270.9968" id="Fill-117" fill="#FFFFFF"></path>
                <path d="M236.9748,270.9968 L233.9858,267.3158 C233.5928,266.8298 233.6658,266.1178 234.1518,265.7238 L236.3878,263.9088 C237.0778,263.3488 236.8818,262.2478 236.0408,261.9598 L223.2688,257.5848 C222.4778,257.3138 221.6768,257.9648 221.7788,258.7948 L223.4338,272.1928 C223.5428,273.0748 224.5798,273.4928 225.2698,272.9328 L227.5058,271.1178 C227.9908,270.7238 228.7038,270.7978 229.0978,271.2838 L232.0858,274.9648 C232.4798,275.4498 233.1928,275.5238 233.6778,275.1308 L236.8088,272.5888 C237.2948,272.1948 237.3688,271.4818 236.9748,270.9968 Z" id="Stroke-119" stroke="#FFFFFF"></path>
                <path d="M589.6682,321.0261 L586.6802,317.3451 C586.2862,316.8591 586.3602,316.1471 586.8452,315.7531 L589.0812,313.9381 C589.7712,313.3781 589.5762,312.2771 588.7342,311.9891 L575.9622,307.6141 C575.1722,307.3431 574.3702,307.9941 574.4732,308.8241 L576.1272,322.2221 C576.2362,323.1041 577.2732,323.5221 577.9642,322.9621 L580.2002,321.1471 C580.6852,320.7541 581.3972,320.8271 581.7922,321.3131 L584.7802,324.9941 C585.1742,325.4791 585.8862,325.5531 586.3722,325.1591 L589.5032,322.6181 C589.9882,322.2241 590.0622,321.5111 589.6682,321.0261" id="Fill-121" fill="#FFFFFF"></path>
                <path d="M589.6682,321.0261 L586.6802,317.3451 C586.2862,316.8591 586.3602,316.1471 586.8452,315.7531 L589.0812,313.9381 C589.7712,313.3781 589.5762,312.2771 588.7342,311.9891 L575.9622,307.6141 C575.1722,307.3431 574.3702,307.9941 574.4732,308.8241 L576.1272,322.2221 C576.2362,323.1041 577.2732,323.5221 577.9642,322.9621 L580.2002,321.1471 C580.6852,320.7541 581.3972,320.8271 581.7922,321.3131 L584.7802,324.9941 C585.1742,325.4791 585.8862,325.5531 586.3722,325.1591 L589.5032,322.6181 C589.9882,322.2241 590.0622,321.5111 589.6682,321.0261 Z" id="Stroke-123" stroke="#FFFFFF"></path>
                <path d="M156.5705,28.8787 L153.5825,25.1977 C153.1885,24.7117 153.2615,23.9997 153.7475,23.6057 L155.9835,21.7907 C156.6735,21.2307 156.4775,20.1297 155.6365,19.8417 L142.8645,15.4667 C142.0735,15.1957 141.2725,15.8467 141.3745,16.6767 L143.0295,30.0747 C143.1385,30.9567 144.1755,31.3747 144.8655,30.8147 L147.1015,28.9997 C147.5875,28.6057 148.2995,28.6797 148.6935,29.1647 L151.6815,32.8467 C152.0755,33.3317 152.7885,33.4057 153.2735,33.0117 L156.4045,30.4707 C156.8905,30.0767 156.9645,29.3637 156.5705,28.8787" id="Fill-125" fill="#FFFFFF"></path>
                <path d="M156.5705,28.8787 L153.5825,25.1977 C153.1885,24.7117 153.2615,23.9997 153.7475,23.6057 L155.9835,21.7907 C156.6735,21.2307 156.4775,20.1297 155.6365,19.8417 L142.8645,15.4667 C142.0735,15.1957 141.2725,15.8467 141.3745,16.6767 L143.0295,30.0747 C143.1385,30.9567 144.1755,31.3747 144.8655,30.8147 L147.1015,28.9997 C147.5875,28.6057 148.2995,28.6797 148.6935,29.1647 L151.6815,32.8467 C152.0755,33.3317 152.7885,33.4057 153.2735,33.0117 L156.4045,30.4707 C156.8905,30.0767 156.9645,29.3637 156.5705,28.8787 Z" id="Stroke-127" stroke="#FFFFFF"></path>
            </g>
        </g>
    </g>
</svg>