<?xml version="1.0" encoding="UTF-8"?>
<svg width="442px" height="280px" viewBox="0 0 442 280" version="1.1" xmlns="http://www.w3.org/2000/svg" xmlns:xlink="http://www.w3.org/1999/xlink">
    <!-- Generator: Sketch 52.1 (67048) - http://www.bohemiancoding.com/sketch -->
    <title>Group 129</title>
    <desc>Created with Sketch.</desc>
    <g id="Page-1" stroke="none" stroke-width="1" fill="none" fill-rule="evenodd">
        <g id="Desktop---Pantalla-de-confirmación" transform="translate(-747.000000, -175.000000)">
            <g id="Group-129" transform="translate(968.000000, 315.000000) scale(-1, 1) translate(-968.000000, -315.000000) translate(748.000000, 176.000000)">
                <g id="Group-4" transform="translate(255.050847, 245.026815)">
                    <path d="M7.20831864,8.76102466 L13.9194373,10.139845 C13.9194373,10.139845 14.4399797,3.62137855 7.16431864,1.44433298 L0.44722868,0.0655126005 C0.44722868,0.0655126005 0.407708475,7.78541609 7.20831864,8.76102466" id="Fill-1" fill="#FFFFFF"></path>
                    <path d="M7.20831864,8.76102466 L13.9194373,10.139845 C13.9194373,10.139845 14.4399797,3.62137855 7.16431864,1.44433298 L0.44722868,0.0655126005 C0.44722868,0.0655126005 0.407708475,7.78541609 7.20831864,8.76102466" id="Stroke-3" stroke="#FFFFFF" stroke-width="1.548" stroke-linecap="round" stroke-linejoin="round"></path>
                </g>
                <path d="M294.883003,121.524383 C294.883003,122.292796 294.259546,122.915129 293.490664,122.915129 C292.722529,122.915129 292.099071,122.292796 292.099071,121.524383 C292.099071,120.755971 292.722529,120.133638 293.490664,120.133638 C294.259546,120.133638 294.883003,120.755971 294.883003,121.524383" id="Fill-5" fill="#FFFFFF"></path>
                <path d="M294.883003,121.524383 C294.883003,122.292796 294.259546,122.915129 293.490664,122.915129 C292.722529,122.915129 292.099071,122.292796 292.099071,121.524383 C292.099071,120.755971 292.722529,120.133638 293.490664,120.133638 C294.259546,120.133638 294.883003,120.755971 294.883003,121.524383 Z" id="Stroke-7" stroke="#FFFFFF"></path>
                <g id="Group-12" transform="translate(76.067797, 271.112606)">
                    <path d="M1.09768814,0.0844434316 L1.09768814,6.01113512" id="Fill-9" fill="#FFFFFF"></path>
                    <path d="M1.09768814,0.0844434316 L1.09768814,6.01113512" id="Stroke-11" stroke="#FFFFFF" stroke-width="1.869" stroke-linecap="round" stroke-linejoin="round"></path>
                </g>
                <g id="Group-16" transform="translate(73.830508, 273.348531)">
                    <path d="M0.369749153,0.811938874 L6.30005424,0.811938874" id="Fill-13" fill="#FFFFFF"></path>
                    <path d="M0.369749153,0.811938874 L6.30005424,0.811938874" id="Stroke-15" stroke="#FFFFFF" stroke-width="1.869" stroke-linecap="round" stroke-linejoin="round"></path>
                </g>
                <g id="Group-20" transform="translate(363.186441, 115.343169)">
                    <path d="M0.840623729,0.152639142 L0.840623729,6.07933083" id="Fill-17" fill="#FFFFFF"></path>
                    <path d="M0.840623729,0.152639142 L0.840623729,6.07933083" id="Stroke-19" stroke="#FFFFFF" stroke-width="1.869" stroke-linecap="round" stroke-linejoin="round"></path>
                </g>
                <g id="Group-24" transform="translate(360.949153, 117.579094)">
                    <path d="M0.112684746,0.880134584 L6.04298983,0.880134584" id="Fill-21" fill="#FFFFFF"></path>
                    <path d="M0.112684746,0.880134584 L6.04298983,0.880134584" id="Stroke-23" stroke="#FFFFFF" stroke-width="1.869" stroke-linecap="round" stroke-linejoin="round"></path>
                </g>
                <path d="M387.241092,262.652909 C387.241092,263.887885 386.239532,264.888834 385.003803,264.888834 C383.768075,264.888834 382.766515,263.887885 382.766515,262.652909 C382.766515,261.417934 383.768075,260.416984 385.003803,260.416984 C386.239532,260.416984 387.241092,261.417934 387.241092,262.652909" id="Fill-25" fill="#FFFFFF"></path>
                <path d="M387.241092,262.652909 C387.241092,263.887885 386.239532,264.888834 385.003803,264.888834 C383.768075,264.888834 382.766515,263.887885 382.766515,262.652909 C382.766515,261.417934 383.768075,260.416984 385.003803,260.416984 C386.239532,260.416984 387.241092,261.417934 387.241092,262.652909 Z" id="Stroke-27" stroke="#FFFFFF" stroke-width="1.548" stroke-linecap="round" stroke-linejoin="round"></path>
                <g id="Group-32" transform="translate(182.711864, 262.914214)">
                    <path d="M8.13947797,0.464774263 L0.643071186,7.95735871" id="Fill-29" fill="#FFFFFF"></path>
                    <path d="M8.13947797,0.464774263 L0.643071186,7.95735871" id="Stroke-31" stroke="#FFFFFF" stroke-width="1.548" stroke-linecap="round" stroke-linejoin="round"></path>
                </g>
                <g id="Group-36" transform="translate(182.711864, 262.914214)">
                    <path d="M0.642847458,0.464774263 L8.13925424,7.95735871" id="Fill-33" fill="#FFFFFF"></path>
                    <path d="M0.642847458,0.464774263 L8.13925424,7.95735871" id="Stroke-35" stroke="#FFFFFF" stroke-width="1.548" stroke-linecap="round" stroke-linejoin="round"></path>
                </g>
                <path d="M239.806936,130.413825 L237.578597,127.670345 C237.284766,127.308125 237.339953,126.777465 237.701647,126.483814 L239.369173,125.131079 C239.883749,124.713707 239.73758,123.893122 239.110393,123.678473 L229.585512,120.41775 C228.995614,120.215771 228.398258,120.700967 228.475071,121.319573 L229.708563,131.305213 C229.789851,131.962575 230.563207,132.274114 231.077783,131.856742 L232.745308,130.504007 C233.107749,130.210355 233.638732,130.265508 233.932563,130.627728 L236.161647,133.371208 C236.454732,133.732683 236.986461,133.787835 237.348902,133.494929 L239.683139,131.600355 C240.04558,131.306704 240.100766,130.775299 239.806936,130.413825" id="Fill-37" fill="#FFFFFF"></path>
                <path d="M239.806936,130.413825 L237.578597,127.670345 C237.284766,127.308125 237.339953,126.777465 237.701647,126.483814 L239.369173,125.131079 C239.883749,124.713707 239.73758,123.893122 239.110393,123.678473 L229.585512,120.41775 C228.995614,120.215771 228.398258,120.700967 228.475071,121.319573 L229.708563,131.305213 C229.789851,131.962575 230.563207,132.274114 231.077783,131.856742 L232.745308,130.504007 C233.107749,130.210355 233.638732,130.265508 233.932563,130.627728 L236.161647,133.371208 C236.454732,133.732683 236.986461,133.787835 237.348902,133.494929 L239.683139,131.600355 C240.04558,131.306704 240.100766,130.775299 239.806936,130.413825 Z" id="Stroke-39" stroke="#FFFFFF"></path>
                <path d="M121.39779,266.03959 L119.169451,263.295365 C118.87562,262.933891 118.930807,262.403231 119.292502,262.10958 L120.960027,260.756845 C121.474603,260.339472 121.32918,259.518143 120.701247,259.303494 L111.176366,256.043515 C110.587214,255.841537 109.989112,256.326732 110.065925,256.944593 L111.299417,266.930979 C111.380705,267.588341 112.154061,267.89988 112.669383,267.482507 L114.336163,266.129773 C114.698603,265.836121 115.229586,265.891274 115.523417,266.253494 L117.752502,268.996974 C118.046332,269.358448 118.577315,269.413601 118.939756,269.11995 L121.273993,267.226121 C121.636434,266.93247 121.69162,266.401065 121.39779,266.03959" id="Fill-41" fill="#FFFFFF"></path>
                <path d="M121.39779,266.03959 L119.169451,263.295365 C118.87562,262.933891 118.930807,262.403231 119.292502,262.10958 L120.960027,260.756845 C121.474603,260.339472 121.32918,259.518143 120.701247,259.303494 L111.176366,256.043515 C110.587214,255.841537 109.989112,256.326732 110.065925,256.944593 L111.299417,266.930979 C111.380705,267.588341 112.154061,267.89988 112.669383,267.482507 L114.336163,266.129773 C114.698603,265.836121 115.229586,265.891274 115.523417,266.253494 L117.752502,268.996974 C118.046332,269.358448 118.577315,269.413601 118.939756,269.11995 L121.273993,267.226121 C121.636434,266.93247 121.69162,266.401065 121.39779,266.03959 Z" id="Stroke-43" stroke="#FFFFFF"></path>
                <g id="Group-48" transform="translate(250.576271, 0.565689)">
                    <path d="M7.04924746,8.7062445 L13.7611119,10.0850649 C13.7611119,10.0850649 14.2816542,3.56659839 7.00524746,1.38880751 L0.288157493,0.0107324397 C0.288157493,0.0107324397 0.248637288,7.73063592 7.04924746,8.7062445" id="Fill-45" fill="#FFFFFF"></path>
                    <path d="M7.04924746,8.7062445 L13.7611119,10.0850649 C13.7611119,10.0850649 14.2816542,3.56659839 7.00524746,1.38880751 L0.288157493,0.0107324397 C0.288157493,0.0107324397 0.248637288,7.73063592 7.04924746,8.7062445" id="Stroke-47" stroke="#FFFFFF" stroke-width="1.548" stroke-linecap="round" stroke-linejoin="round"></path>
                </g>
                <g id="Group-52" transform="translate(144.677966, 108.635394)">
                    <path d="M7.32965424,9.43940429 L14.0415186,10.8182247 C14.0415186,10.8182247 14.5613153,4.29975818 7.28565424,2.12196729 L0.568564273,0.743892225 C0.568564273,0.743892225 0.529044068,8.46379571 7.32965424,9.43940429" id="Fill-49" fill="#FFFFFF"></path>
                    <path d="M7.32965424,9.43940429 L14.0415186,10.8182247 C14.0415186,10.8182247 14.5613153,4.29975818 7.28565424,2.12196729 L0.568564273,0.743892225 C0.568564273,0.743892225 0.529044068,8.46379571 7.32965424,9.43940429" id="Stroke-51" stroke="#FFFFFF" stroke-width="1.548" stroke-linecap="round" stroke-linejoin="round"></path>
                </g>
                <g id="Group-56" transform="translate(0.000000, 217.450408)">
                    <path d="M7.33875254,8.78248954 L14.0506169,10.1613099 C14.0506169,10.1613099 14.5711593,3.64358874 7.29475254,1.46579786 L0.577662578,0.0877227882 C0.577662578,0.0877227882 0.538142373,7.80688097 7.33875254,8.78248954" id="Fill-53" fill="#FFFFFF"></path>
                    <path d="M7.33875254,8.78248954 L14.0506169,10.1613099 C14.0506169,10.1613099 14.5711593,3.64358874 7.29475254,1.46579786 L0.577662578,0.0877227882 C0.577662578,0.0877227882 0.538142373,7.80688097 7.33875254,8.78248954" id="Stroke-55" stroke="#FFFFFF" stroke-width="1.548" stroke-linecap="round" stroke-linejoin="round"></path>
                </g>
                <path d="M261.885986,218.095845 C261.885986,218.864257 261.263275,219.48659 260.494393,219.48659 C259.725512,219.48659 259.102054,218.864257 259.102054,218.095845 C259.102054,217.327432 259.725512,216.705099 260.494393,216.705099 C261.263275,216.705099 261.885986,217.327432 261.885986,218.095845" id="Fill-57" fill="#FFFFFF"></path>
                <path d="M261.885986,218.095845 C261.885986,218.864257 261.263275,219.48659 260.494393,219.48659 C259.725512,219.48659 259.102054,218.864257 259.102054,218.095845 C259.102054,217.327432 259.725512,216.705099 260.494393,216.705099 C261.263275,216.705099 261.885986,217.327432 261.885986,218.095845 Z" id="Stroke-59" stroke="#FFFFFF"></path>
                <path d="M81.2536814,80.7715212 C81.2536814,81.539934 80.6302237,82.1622665 79.8613424,82.1622665 C79.0932068,82.1622665 78.4697492,81.539934 78.4697492,80.7715212 C78.4697492,80.0031083 79.0932068,79.3807759 79.8613424,79.3807759 C80.6302237,79.3807759 81.2536814,80.0031083 81.2536814,80.7715212" id="Fill-61" fill="#FFFFFF"></path>
                <path d="M81.2536814,80.7715212 C81.2536814,81.539934 80.6302237,82.1622665 79.8613424,82.1622665 C79.0932068,82.1622665 78.4697492,81.539934 78.4697492,80.7715212 C78.4697492,80.0031083 79.0932068,79.3807759 79.8613424,79.3807759 C80.6302237,79.3807759 81.2536814,80.0031083 81.2536814,80.7715212 Z" id="Stroke-63" stroke="#FFFFFF"></path>
                <path d="M82.6454983,220.446174 C82.6454983,221.214587 82.0227864,221.83692 81.2539051,221.83692 C80.4850237,221.83692 79.8615661,221.214587 79.8615661,220.446174 C79.8615661,219.677761 80.4850237,219.055429 81.2539051,219.055429 C82.0227864,219.055429 82.6454983,219.677761 82.6454983,220.446174" id="Fill-65" fill="#FFFFFF"></path>
                <path d="M82.6454983,220.446174 C82.6454983,221.214587 82.0227864,221.83692 81.2539051,221.83692 C80.4850237,221.83692 79.8615661,221.214587 79.8615661,220.446174 C79.8615661,219.677761 80.4850237,219.055429 81.2539051,219.055429 C82.0227864,219.055429 82.6454983,219.677761 82.6454983,220.446174 Z" id="Stroke-67" stroke="#FFFFFF"></path>
                <g id="Group-72" transform="translate(123.796610, 134.721185)">
                    <path d="M0.886861017,0.243492225 L0.886861017,6.17018391" id="Fill-69" fill="#FFFFFF"></path>
                    <path d="M0.886861017,0.243492225 L0.886861017,6.17018391" id="Stroke-71" stroke="#FFFFFF" stroke-width="1.869" stroke-linecap="round" stroke-linejoin="round"></path>
                </g>
                <g id="Group-76" transform="translate(121.559322, 136.957110)">
                    <path d="M0.158922034,0.970913137 L6.08922712,0.970913137" id="Fill-73" fill="#FFFFFF"></path>
                    <path d="M0.158922034,0.970913137 L6.08922712,0.970913137" id="Stroke-75" stroke="#FFFFFF" stroke-width="1.869" stroke-linecap="round" stroke-linejoin="round"></path>
                </g>
                <g id="Group-80" transform="translate(71.593220, 26.651480)">
                    <path d="M0.938542373,0.0295142091 L0.938542373,5.9562059" id="Fill-77" fill="#FFFFFF"></path>
                    <path d="M0.938542373,0.0295142091 L0.938542373,5.9562059" id="Stroke-79" stroke="#FFFFFF" stroke-width="1.869" stroke-linecap="round" stroke-linejoin="round"></path>
                </g>
                <g id="Group-84" transform="translate(69.355932, 28.887405)">
                    <path d="M0.210677966,0.757009651 L6.14098305,0.757009651" id="Fill-81" fill="#FFFFFF"></path>
                    <path d="M0.210677966,0.757009651 L6.14098305,0.757009651" id="Stroke-83" stroke="#FFFFFF" stroke-width="1.869" stroke-linecap="round" stroke-linejoin="round"></path>
                </g>
                <g id="Group-88" transform="translate(318.440678, 194.345850)">
                    <path d="M1.06129492,0.202723861 L1.06129492,6.12941555" id="Fill-85" fill="#FFFFFF"></path>
                    <path d="M1.06129492,0.202723861 L1.06129492,6.12941555" id="Stroke-87" stroke="#FFFFFF" stroke-width="1.869" stroke-linecap="round" stroke-linejoin="round"></path>
                </g>
                <g id="Group-92" transform="translate(316.203390, 196.581775)">
                    <path d="M0.333355932,0.930219303 L6.26366102,0.930219303" id="Fill-89" fill="#FFFFFF"></path>
                    <path d="M0.333355932,0.930219303 L6.26366102,0.930219303" id="Stroke-91" stroke="#FFFFFF" stroke-width="1.869" stroke-linecap="round" stroke-linejoin="round"></path>
                </g>
                <path d="M356.477261,20.3730027 C356.477261,21.6079786 355.475702,22.6089276 354.239973,22.6089276 C353.004244,22.6089276 352.002685,21.6079786 352.002685,20.3730027 C352.002685,19.1380268 353.004244,18.1370777 354.239973,18.1370777 C355.475702,18.1370777 356.477261,19.1380268 356.477261,20.3730027" id="Fill-93" fill="#FFFFFF"></path>
                <path d="M356.477261,20.3730027 C356.477261,21.6079786 355.475702,22.6089276 354.239973,22.6089276 C353.004244,22.6089276 352.002685,21.6079786 352.002685,20.3730027 C352.002685,19.1380268 353.004244,18.1370777 354.239973,18.1370777 C355.475702,18.1370777 356.477261,19.1380268 356.477261,20.3730027 Z" id="Stroke-95" stroke="#FFFFFF" stroke-width="1.548" stroke-linecap="round" stroke-linejoin="round"></path>
                <g id="Group-100" transform="translate(49.220339, 144.410193)">
                    <path d="M7.78188475,0.0713260054 L0.285477966,7.56391046" id="Fill-97" fill="#FFFFFF"></path>
                    <path d="M7.78188475,0.0713260054 L0.285477966,7.56391046" id="Stroke-99" stroke="#FFFFFF" stroke-width="1.548" stroke-linecap="round" stroke-linejoin="round"></path>
                </g>
                <g id="Group-104" transform="translate(49.220339, 144.410193)">
                    <path d="M0.285328814,0.0713260054 L7.78173559,7.56391046" id="Fill-101" fill="#FFFFFF"></path>
                    <path d="M0.285328814,0.0713260054 L7.78173559,7.56391046" id="Stroke-103" stroke="#FFFFFF" stroke-width="1.548" stroke-linecap="round" stroke-linejoin="round"></path>
                </g>
                <g id="Group-108" transform="translate(178.237288, 18.453088)">
                    <path d="M7.98070508,0.409770509 L0.483552542,7.90235496" id="Fill-105" fill="#FFFFFF"></path>
                    <path d="M7.98070508,0.409770509 L0.483552542,7.90235496" id="Stroke-107" stroke="#FFFFFF" stroke-width="1.548" stroke-linecap="round" stroke-linejoin="round"></path>
                </g>
                <g id="Group-112" transform="translate(178.237288, 18.453088)">
                    <path d="M0.483776271,0.409770509 L7.98092881,7.90235496" id="Fill-109" fill="#FFFFFF"></path>
                    <path d="M0.483776271,0.409770509 L7.98092881,7.90235496" id="Stroke-111" stroke="#FFFFFF" stroke-width="1.548" stroke-linecap="round" stroke-linejoin="round"></path>
                </g>
                <path d="M319.693858,43.9453158 L317.465519,41.2018359 C317.171688,40.8396161 317.226875,40.3089566 317.588569,40.0153051 L319.256095,38.6625705 C319.770671,38.2451979 319.624502,37.4246134 318.997315,37.2099646 L309.472434,33.9492408 C308.883281,33.7472622 308.28518,34.2324579 308.361993,34.8510638 L309.595485,44.8367046 C309.676773,45.4940665 310.450129,45.8056054 310.965451,45.3882327 L312.632231,44.0354981 C312.994671,43.7418466 313.525654,43.7969995 313.820231,44.1592193 L316.048569,46.9026992 C316.3424,47.2641737 316.873383,47.3193265 317.235824,47.0264204 L319.570807,45.1318466 C319.932502,44.8381952 319.987688,44.3067903 319.693858,43.9453158" id="Fill-113" fill="#FFFFFF"></path>
                <path d="M319.693858,43.9453158 L317.465519,41.2018359 C317.171688,40.8396161 317.226875,40.3089566 317.588569,40.0153051 L319.256095,38.6625705 C319.770671,38.2451979 319.624502,37.4246134 318.997315,37.2099646 L309.472434,33.9492408 C308.883281,33.7472622 308.28518,34.2324579 308.361993,34.8510638 L309.595485,44.8367046 C309.676773,45.4940665 310.450129,45.8056054 310.965451,45.3882327 L312.632231,44.0354981 C312.994671,43.7418466 313.525654,43.7969995 313.820231,44.1592193 L316.048569,46.9026992 C316.3424,47.2641737 316.873383,47.3193265 317.235824,47.0264204 L319.570807,45.1318466 C319.932502,44.8381952 319.987688,44.3067903 319.693858,43.9453158 Z" id="Stroke-115" stroke="#FFFFFF"></path>
                <path d="M176.726969,201.976167 L174.497885,199.232687 C174.2048,198.870468 174.259241,198.339808 174.621681,198.046157 L176.289207,196.693422 C176.803783,196.276049 176.657614,195.455465 176.030427,195.240816 L166.505546,191.980092 C165.915647,191.778114 165.318292,192.263309 165.394359,192.881915 L166.628597,202.867556 C166.709885,203.524918 167.483241,203.836457 167.997817,203.419084 L169.665342,202.06635 C170.027037,201.772698 170.558766,201.827851 170.852597,202.190071 L173.080936,204.933551 C173.374766,205.295025 173.906495,205.350178 174.26819,205.057272 L176.603173,203.162698 C176.965614,202.869047 177.0208,202.337642 176.726969,201.976167" id="Fill-117" fill="#FFFFFF"></path>
                <path d="M176.726969,201.976167 L174.497885,199.232687 C174.2048,198.870468 174.259241,198.339808 174.621681,198.046157 L176.289207,196.693422 C176.803783,196.276049 176.657614,195.455465 176.030427,195.240816 L166.505546,191.980092 C165.915647,191.778114 165.318292,192.263309 165.394359,192.881915 L166.628597,202.867556 C166.709885,203.524918 167.483241,203.836457 167.997817,203.419084 L169.665342,202.06635 C170.027037,201.772698 170.558766,201.827851 170.852597,202.190071 L173.080936,204.933551 C173.374766,205.295025 173.906495,205.350178 174.26819,205.057272 L176.603173,203.162698 C176.965614,202.869047 177.0208,202.337642 176.726969,201.976167 Z" id="Stroke-119" stroke="#FFFFFF"></path>
                <path d="M439.752556,239.26342 L437.524217,236.51994 C437.230386,236.157721 437.285573,235.627061 437.647268,235.33341 L439.314793,233.980675 C439.829369,233.563302 439.683946,232.742718 439.056014,232.528069 L429.531132,229.267345 C428.94198,229.065367 428.343878,229.550562 428.420692,230.169168 L429.654183,240.154809 C429.735471,240.812171 430.508827,241.12371 431.024149,240.706337 L432.691675,239.353603 C433.053369,239.060697 433.584353,239.115104 433.878929,239.477324 L436.107268,242.220804 C436.401098,242.582278 436.932081,242.637431 437.294522,242.34378 L439.629505,240.449951 C439.9912,240.1563 440.046386,239.624895 439.752556,239.26342" id="Fill-121" fill="#FFFFFF"></path>
                <path d="M439.752556,239.26342 L437.524217,236.51994 C437.230386,236.157721 437.285573,235.627061 437.647268,235.33341 L439.314793,233.980675 C439.829369,233.563302 439.683946,232.742718 439.056014,232.528069 L429.531132,229.267345 C428.94198,229.065367 428.343878,229.550562 428.420692,230.169168 L429.654183,240.154809 C429.735471,240.812171 430.508827,241.12371 431.024149,240.706337 L432.691675,239.353603 C433.053369,239.060697 433.584353,239.115104 433.878929,239.477324 L436.107268,242.220804 C436.401098,242.582278 436.932081,242.637431 437.294522,242.34378 L439.629505,240.449951 C439.9912,240.1563 440.046386,239.624895 439.752556,239.26342 Z" id="Stroke-123" stroke="#FFFFFF"></path>
                <path d="M116.764441,21.5235351 L114.536102,18.7800552 C114.242271,18.4178354 114.296712,17.8871759 114.659153,17.5935244 L116.326678,16.2407898 C116.841254,15.8234172 116.695085,15.0028327 116.067898,14.7881839 L106.543017,11.5274601 C105.953119,11.3254815 105.355763,11.8106772 105.431831,12.4292831 L106.666068,22.4149239 C106.747356,23.0722858 107.520712,23.3838247 108.035288,22.966452 L109.702814,21.6137174 C110.065254,21.320066 110.596237,21.3752188 110.890068,21.7366933 L113.118407,24.4809185 C113.412237,24.842393 113.943966,24.8975458 114.305661,24.6038944 L116.640644,22.710066 C117.003085,22.4164145 117.058271,21.8850097 116.764441,21.5235351" id="Fill-125" fill="#FFFFFF"></path>
                <path d="M116.764441,21.5235351 L114.536102,18.7800552 C114.242271,18.4178354 114.296712,17.8871759 114.659153,17.5935244 L116.326678,16.2407898 C116.841254,15.8234172 116.695085,15.0028327 116.067898,14.7881839 L106.543017,11.5274601 C105.953119,11.3254815 105.355763,11.8106772 105.431831,12.4292831 L106.666068,22.4149239 C106.747356,23.0722858 107.520712,23.3838247 108.035288,22.966452 L109.702814,21.6137174 C110.065254,21.320066 110.596237,21.3752188 110.890068,21.7366933 L113.118407,24.4809185 C113.412237,24.842393 113.943966,24.8975458 114.305661,24.6038944 L116.640644,22.710066 C117.003085,22.4164145 117.058271,21.8850097 116.764441,21.5235351 Z" id="Stroke-127" stroke="#FFFFFF"></path>
            </g>
        </g>
    </g>
</svg>