<?xml version="1.0" encoding="UTF-8"?>
<svg width="540px" height="341px" viewBox="0 0 540 341" version="1.1" xmlns="http://www.w3.org/2000/svg" xmlns:xlink="http://www.w3.org/1999/xlink">
    <!-- Generator: Sketch 52.1 (67048) - http://www.bohemiancoding.com/sketch -->
    <title>Group 129</title>
    <desc>Created with Sketch.</desc>
    <g id="Page-1" stroke="none" stroke-width="1" fill="none" fill-rule="evenodd">
        <g id="Desktop---Pantalla-de-confirmación" transform="translate(-30.000000, -169.000000)">
            <g id="Group-129" transform="translate(300.000000, 340.000000) scale(-1, 1) translate(-300.000000, -340.000000) translate(31.000000, 170.000000)">
                <g id="Group-4" transform="translate(311.857627, 299.673083)">
                    <path d="M8.8138078,10.7149223 L17.0196756,12.4012493 C17.0196756,12.4012493 17.6561569,4.42902413 8.7600078,1.7664504 L0.546838704,0.0801233244 C0.546838704,0.0801233244 0.498516271,9.5217319 8.8138078,10.7149223" id="Fill-1" fill="#E6E6E6"></path>
                    <path d="M8.8138078,10.7149223 L17.0196756,12.4012493 C17.0196756,12.4012493 17.6561569,4.42902413 8.7600078,1.7664504 L0.546838704,0.0801233244 C0.546838704,0.0801233244 0.498516271,9.5217319 8.8138078,10.7149223" id="Stroke-3" stroke="#E6E6E6" stroke-width="1.548" stroke-linecap="round" stroke-linejoin="round"></path>
                </g>
                <path d="M360.561491,148.626944 C360.561491,149.566729 359.799172,150.327855 358.85904,150.327855 C357.919819,150.327855 357.157501,149.566729 357.157501,148.626944 C357.157501,147.687158 357.919819,146.926032 358.85904,146.926032 C359.799172,146.926032 360.561491,147.687158 360.561491,148.626944" id="Fill-5" fill="#E6E6E6"></path>
                <path d="M360.561491,148.626944 C360.561491,149.566729 359.799172,150.327855 358.85904,150.327855 C357.919819,150.327855 357.157501,149.566729 357.157501,148.626944 C357.157501,147.687158 357.919819,146.926032 358.85904,146.926032 C359.799172,146.926032 360.561491,147.687158 360.561491,148.626944 Z" id="Stroke-7" stroke="#E6E6E6"></path>
                <g id="Group-12" transform="translate(93.010169, 331.576568)">
                    <path d="M1.34217322,0.103276139 L1.34217322,7.35174799" id="Fill-9" fill="#E6E6E6"></path>
                    <path d="M1.34217322,0.103276139 L1.34217322,7.35174799" id="Stroke-11" stroke="#E6E6E6" stroke-width="1.869" stroke-linecap="round" stroke-linejoin="round"></path>
                </g>
                <g id="Group-16" transform="translate(90.274576, 334.311153)">
                    <path d="M0.452102373,0.993018767 L7.70324814,0.993018767" id="Fill-13" fill="#E6E6E6"></path>
                    <path d="M0.452102373,0.993018767 L7.70324814,0.993018767" id="Stroke-15" stroke="#E6E6E6" stroke-width="1.869" stroke-linecap="round" stroke-linejoin="round"></path>
                </g>
                <g id="Group-20" transform="translate(444.077966, 141.067185)">
                    <path d="M1.02785356,0.186680965 L1.02785356,7.43515282" id="Fill-17" fill="#E6E6E6"></path>
                    <path d="M1.02785356,0.186680965 L1.02785356,7.43515282" id="Stroke-19" stroke="#E6E6E6" stroke-width="1.869" stroke-linecap="round" stroke-linejoin="round"></path>
                </g>
                <g id="Group-24" transform="translate(441.342373, 143.801769)">
                    <path d="M0.137782712,1.07642359 L7.38892847,1.07642359" id="Fill-21" fill="#E6E6E6"></path>
                    <path d="M0.137782712,1.07642359 L7.38892847,1.07642359" id="Stroke-23" stroke="#E6E6E6" stroke-width="1.869" stroke-linecap="round" stroke-linejoin="round"></path>
                </g>
                <path d="M473.490244,321.230177 C473.490244,322.740579 472.26561,323.964761 470.754651,323.964761 C469.243691,323.964761 468.019057,322.740579 468.019057,321.230177 C468.019057,319.719775 469.243691,318.495592 470.754651,318.495592 C472.26561,318.495592 473.490244,319.719775 473.490244,321.230177" id="Fill-25" fill="#E6E6E6"></path>
                <path d="M473.490244,321.230177 C473.490244,322.740579 472.26561,323.964761 470.754651,323.964761 C469.243691,323.964761 468.019057,322.740579 468.019057,321.230177 C468.019057,319.719775 469.243691,318.495592 470.754651,318.495592 C472.26561,318.495592 473.490244,319.719775 473.490244,321.230177 Z" id="Stroke-27" stroke="#E6E6E6" stroke-width="1.548" stroke-linecap="round" stroke-linejoin="round"></path>
                <g id="Group-32" transform="translate(223.406780, 321.549759)">
                    <path d="M9.95236169,0.568428954 L0.786300678,9.73202145" id="Fill-29" fill="#E6E6E6"></path>
                    <path d="M9.95236169,0.568428954 L0.786300678,9.73202145" id="Stroke-31" stroke="#E6E6E6" stroke-width="1.548" stroke-linecap="round" stroke-linejoin="round"></path>
                </g>
                <g id="Group-36" transform="translate(223.406780, 321.549759)">
                    <path d="M0.786027119,0.568428954 L9.95208814,9.73202145" id="Fill-33" fill="#E6E6E6"></path>
                    <path d="M0.786027119,0.568428954 L9.95208814,9.73202145" id="Stroke-35" stroke="#E6E6E6" stroke-width="1.548" stroke-linecap="round" stroke-linejoin="round"></path>
                </g>
                <path d="M293.21848,159.498922 L290.493829,156.143587 C290.134555,155.700584 290.202033,155.051576 290.644287,154.692434 L292.683216,153.038011 C293.312402,152.527555 293.133677,151.523962 292.366799,151.261442 L280.720467,147.273507 C279.999182,147.026483 279.268779,147.619887 279.362701,148.376456 L280.870924,160.58911 C280.970318,161.393078 281.915921,161.774097 282.545107,161.263641 L284.584036,159.609217 C285.027202,159.250075 285.67645,159.317528 286.035724,159.760531 L288.761287,163.115866 C289.11965,163.557957 289.769809,163.62541 290.212975,163.26718 L293.067111,160.950075 C293.510277,160.590933 293.577755,159.941013 293.21848,159.498922" id="Fill-37" fill="#E6E6E6"></path>
                <path d="M293.21848,159.498922 L290.493829,156.143587 C290.134555,155.700584 290.202033,155.051576 290.644287,154.692434 L292.683216,153.038011 C293.312402,152.527555 293.133677,151.523962 292.366799,151.261442 L280.720467,147.273507 C279.999182,147.026483 279.268779,147.619887 279.362701,148.376456 L280.870924,160.58911 C280.970318,161.393078 281.915921,161.774097 282.545107,161.263641 L284.584036,159.609217 C285.027202,159.250075 285.67645,159.317528 286.035724,159.760531 L288.761287,163.115866 C289.11965,163.557957 289.769809,163.62541 290.212975,163.26718 L293.067111,160.950075 C293.510277,160.590933 293.577755,159.941013 293.21848,159.498922 Z" id="Stroke-39" stroke="#E6E6E6"></path>
                <path d="M148.436388,325.372161 L145.711738,322.015914 C145.352463,321.573823 145.419941,320.924815 145.862195,320.565673 L147.901124,318.911249 C148.530311,318.400794 148.352497,317.39629 147.584707,317.133769 L135.938375,313.146745 C135.218002,312.899721 134.486687,313.493126 134.580609,314.248783 L136.088833,326.462349 C136.188226,327.266316 137.133829,327.647335 137.763927,327.136879 L139.801944,325.482456 C140.245111,325.123314 140.894358,325.190767 141.253633,325.633769 L143.979195,328.989105 C144.33847,329.431196 144.987717,329.498649 145.430883,329.139507 L148.285019,326.823314 C148.728185,326.464172 148.795663,325.814252 148.436388,325.372161" id="Fill-41" fill="#E6E6E6"></path>
                <path d="M148.436388,325.372161 L145.711738,322.015914 C145.352463,321.573823 145.419941,320.924815 145.862195,320.565673 L147.901124,318.911249 C148.530311,318.400794 148.352497,317.39629 147.584707,317.133769 L135.938375,313.146745 C135.218002,312.899721 134.486687,313.493126 134.580609,314.248783 L136.088833,326.462349 C136.188226,327.266316 137.133829,327.647335 137.763927,327.136879 L139.801944,325.482456 C140.245111,325.123314 140.894358,325.190767 141.253633,325.633769 L143.979195,328.989105 C144.33847,329.431196 144.987717,329.498649 145.430883,329.139507 L148.285019,326.823314 C148.728185,326.464172 148.795663,325.814252 148.436388,325.372161 Z" id="Stroke-43" stroke="#E6E6E6"></path>
                <g id="Group-48" transform="translate(306.386441, 0.691850)">
                    <path d="M8.61930712,10.6479249 L16.8260868,12.334252 C16.8260868,12.334252 17.4625681,4.36202681 8.56550712,1.69854155 L0.352338026,0.0131260054 C0.352338026,0.0131260054 0.304015593,9.45473458 8.61930712,10.6479249" id="Fill-45" fill="#E6E6E6"></path>
                    <path d="M8.61930712,10.6479249 L16.8260868,12.334252 C16.8260868,12.334252 17.4625681,4.36202681 8.56550712,1.69854155 L0.352338026,0.0131260054 C0.352338026,0.0131260054 0.304015593,9.45473458 8.61930712,10.6479249" id="Stroke-47" stroke="#E6E6E6" stroke-width="1.548" stroke-linecap="round" stroke-linejoin="round"></path>
                </g>
                <g id="Group-52" transform="translate(176.901695, 132.863432)">
                    <path d="M8.96216814,11.5445952 L17.1689478,13.2309223 C17.1689478,13.2309223 17.8045173,5.25869705 8.90836814,2.5952118 L0.695199043,0.909796247 C0.695199043,0.909796247 0.64687661,10.3514048 8.96216814,11.5445952" id="Fill-49" fill="#E6E6E6"></path>
                    <path d="M8.96216814,11.5445952 L17.1689478,13.2309223 C17.1689478,13.2309223 17.8045173,5.25869705 8.90836814,2.5952118 L0.695199043,0.909796247 C0.695199043,0.909796247 0.64687661,10.3514048 8.96216814,11.5445952" id="Stroke-51" stroke="#E6E6E6" stroke-width="1.548" stroke-linecap="round" stroke-linejoin="round"></path>
                </g>
                <g id="Group-56" transform="translate(0.000000, 265.946542)">
                    <path d="M8.97329288,10.7411743 L17.1800725,12.4275013 C17.1800725,12.4275013 17.8165539,4.45618767 8.91949288,1.79270241 L0.706323789,0.107286863 C0.706323789,0.107286863 0.658001356,9.54798391 8.97329288,10.7411743" id="Fill-53" fill="#E6E6E6"></path>
                    <path d="M8.97329288,10.7411743 L17.1800725,12.4275013 C17.1800725,12.4275013 17.8165539,4.45618767 8.91949288,1.79270241 L0.706323789,0.107286863 C0.706323789,0.107286863 0.658001356,9.54798391 8.97329288,10.7411743" id="Stroke-55" stroke="#E6E6E6" stroke-width="1.548" stroke-linecap="round" stroke-linejoin="round"></path>
                </g>
                <path d="M320.215138,266.735925 C320.215138,267.67571 319.453731,268.436836 318.513599,268.436836 C317.573467,268.436836 316.811148,267.67571 316.811148,266.735925 C316.811148,265.796139 317.573467,265.035013 318.513599,265.035013 C319.453731,265.035013 320.215138,265.796139 320.215138,266.735925" id="Fill-57" fill="#E6E6E6"></path>
                <path d="M320.215138,266.735925 C320.215138,267.67571 319.453731,268.436836 318.513599,268.436836 C317.573467,268.436836 316.811148,267.67571 316.811148,266.735925 C316.811148,265.796139 317.573467,265.035013 318.513599,265.035013 C319.453731,265.035013 320.215138,265.796139 320.215138,266.735925 Z" id="Stroke-59" stroke="#E6E6E6"></path>
                <path d="M99.3510922,98.7853137 C99.3510922,99.7250992 98.5887736,100.486225 97.6486414,100.486225 C96.709421,100.486225 95.9471024,99.7250992 95.9471024,98.7853137 C95.9471024,97.8455282 96.709421,97.0844021 97.6486414,97.0844021 C98.5887736,97.0844021 99.3510922,97.8455282 99.3510922,98.7853137" id="Fill-61" fill="#E6E6E6"></path>
                <path d="M99.3510922,98.7853137 C99.3510922,99.7250992 98.5887736,100.486225 97.6486414,100.486225 C96.709421,100.486225 95.9471024,99.7250992 95.9471024,98.7853137 C95.9471024,97.8455282 96.709421,97.0844021 97.6486414,97.0844021 C98.5887736,97.0844021 99.3510922,97.8455282 99.3510922,98.7853137 Z" id="Stroke-63" stroke="#E6E6E6"></path>
                <path d="M101.052905,269.610429 C101.052905,270.550214 100.291498,271.31134 99.3513658,271.31134 C98.4112336,271.31134 97.6489149,270.550214 97.6489149,269.610429 C97.6489149,268.670643 98.4112336,267.909517 99.3513658,267.909517 C100.291498,267.909517 101.052905,268.670643 101.052905,269.610429" id="Fill-65" fill="#E6E6E6"></path>
                <path d="M101.052905,269.610429 C101.052905,270.550214 100.291498,271.31134 99.3513658,271.31134 C98.4112336,271.31134 97.6489149,270.550214 97.6489149,269.610429 C97.6489149,268.670643 98.4112336,267.909517 99.3513658,267.909517 C100.291498,267.909517 101.052905,268.670643 101.052905,269.610429 Z" id="Stroke-67" stroke="#E6E6E6"></path>
                <g id="Group-72" transform="translate(151.369492, 164.766917)">
                    <path d="M1.08438915,0.297796247 L1.08438915,7.5462681" id="Fill-69" fill="#E6E6E6"></path>
                    <path d="M1.08438915,0.297796247 L1.08438915,7.5462681" id="Stroke-71" stroke="#E6E6E6" stroke-width="1.869" stroke-linecap="round" stroke-linejoin="round"></path>
                </g>
                <g id="Group-76" transform="translate(148.633898, 167.501501)">
                    <path d="M0.194318305,1.18744772 L7.44546407,1.18744772" id="Fill-73" fill="#E6E6E6"></path>
                    <path d="M0.194318305,1.18744772 L7.44546407,1.18744772" id="Stroke-75" stroke="#E6E6E6" stroke-width="1.869" stroke-linecap="round" stroke-linejoin="round"></path>
                </g>
                <g id="Group-80" transform="translate(87.538983, 32.595335)">
                    <path d="M1.14758136,0.0360965147 L1.14758136,7.28456836" id="Fill-77" fill="#E6E6E6"></path>
                    <path d="M1.14758136,0.0360965147 L1.14758136,7.28456836" id="Stroke-79" stroke="#E6E6E6" stroke-width="1.869" stroke-linecap="round" stroke-linejoin="round"></path>
                </g>
                <g id="Group-84" transform="translate(84.803390, 35.329920)">
                    <path d="M0.257601695,0.925839142 L7.50874746,0.925839142" id="Fill-81" fill="#E6E6E6"></path>
                    <path d="M0.257601695,0.925839142 L7.50874746,0.925839142" id="Stroke-83" stroke="#E6E6E6" stroke-width="1.869" stroke-linecap="round" stroke-linejoin="round"></path>
                </g>
                <g id="Group-88" transform="translate(389.366102, 237.689169)">
                    <path d="M1.29767424,0.247935657 L1.29767424,7.49640751" id="Fill-85" fill="#E6E6E6"></path>
                    <path d="M1.29767424,0.247935657 L1.29767424,7.49640751" id="Stroke-87" stroke="#E6E6E6" stroke-width="1.869" stroke-linecap="round" stroke-linejoin="round"></path>
                </g>
                <g id="Group-92" transform="translate(386.630508, 240.423753)">
                    <path d="M0.40760339,1.13767828 L7.65874915,1.13767828" id="Fill-89" fill="#E6E6E6"></path>
                    <path d="M0.40760339,1.13767828 L7.65874915,1.13767828" id="Stroke-91" stroke="#E6E6E6" stroke-width="1.869" stroke-linecap="round" stroke-linejoin="round"></path>
                </g>
                <path d="M435.874469,24.916622 C435.874469,26.4270241 434.649835,27.6512064 433.138876,27.6512064 C431.627917,27.6512064 430.403283,26.4270241 430.403283,24.916622 C430.403283,23.4062198 431.627917,22.1820375 433.138876,22.1820375 C434.649835,22.1820375 435.874469,23.4062198 435.874469,24.916622" id="Fill-93" fill="#E6E6E6"></path>
                <path d="M435.874469,24.916622 C435.874469,26.4270241 434.649835,27.6512064 433.138876,27.6512064 C431.627917,27.6512064 430.403283,26.4270241 430.403283,24.916622 C430.403283,23.4062198 431.627917,22.1820375 433.138876,22.1820375 C434.649835,22.1820375 435.874469,23.4062198 435.874469,24.916622 Z" id="Stroke-95" stroke="#E6E6E6" stroke-width="1.548" stroke-linecap="round" stroke-linejoin="round"></path>
                <g id="Group-100" transform="translate(60.183051, 176.616783)">
                    <path d="M9.51512271,0.087233244 L0.349061695,9.25082574" id="Fill-97" fill="#E6E6E6"></path>
                    <path d="M9.51512271,0.087233244 L0.349061695,9.25082574" id="Stroke-99" stroke="#E6E6E6" stroke-width="1.548" stroke-linecap="round" stroke-linejoin="round"></path>
                </g>
                <g id="Group-104" transform="translate(60.183051, 176.616783)">
                    <path d="M0.348879322,0.087233244 L9.51494034,9.25082574" id="Fill-101" fill="#E6E6E6"></path>
                    <path d="M0.348879322,0.087233244 L9.51494034,9.25082574" id="Stroke-103" stroke="#E6E6E6" stroke-width="1.548" stroke-linecap="round" stroke-linejoin="round"></path>
                </g>
                <g id="Group-108" transform="translate(217.935593, 22.568525)">
                    <path d="M9.75822576,0.501158177 L0.591252881,9.66475067" id="Fill-105" fill="#E6E6E6"></path>
                    <path d="M9.75822576,0.501158177 L0.591252881,9.66475067" id="Stroke-107" stroke="#E6E6E6" stroke-width="1.548" stroke-linecap="round" stroke-linejoin="round"></path>
                </g>
                <g id="Group-112" transform="translate(217.935593, 22.568525)">
                    <path d="M0.591526441,0.501158177 L9.75849932,9.66475067" id="Fill-109" fill="#E6E6E6"></path>
                    <path d="M0.591526441,0.501158177 L9.75849932,9.66475067" id="Stroke-111" stroke="#E6E6E6" stroke-width="1.548" stroke-linecap="round" stroke-linejoin="round"></path>
                </g>
                <path d="M390.898399,53.7460697 L388.173748,50.3907346 C387.814473,49.9477319 387.881951,49.2987239 388.324205,48.9395818 L390.363134,47.2851582 C390.992321,46.7747024 390.813595,45.7711099 390.046717,45.5085898 L378.400385,41.5206542 C377.680012,41.27363 376.948697,41.8670349 377.042619,42.6236032 L378.550843,54.8362574 C378.650236,55.6402252 379.595839,56.021244 380.225938,55.5107882 L382.263955,53.8563646 C382.707121,53.4972225 383.356368,53.5646756 383.716555,54.0076783 L386.441205,57.3630134 C386.80048,57.8051046 387.449727,57.8725576 387.892894,57.5143271 L390.747941,55.1972225 C391.190195,54.8380804 391.257673,54.1881609 390.898399,53.7460697" id="Fill-113" fill="#E6E6E6"></path>
                <path d="M390.898399,53.7460697 L388.173748,50.3907346 C387.814473,49.9477319 387.881951,49.2987239 388.324205,48.9395818 L390.363134,47.2851582 C390.992321,46.7747024 390.813595,45.7711099 390.046717,45.5085898 L378.400385,41.5206542 C377.680012,41.27363 376.948697,41.8670349 377.042619,42.6236032 L378.550843,54.8362574 C378.650236,55.6402252 379.595839,56.021244 380.225938,55.5107882 L382.263955,53.8563646 C382.707121,53.4972225 383.356368,53.5646756 383.716555,54.0076783 L386.441205,57.3630134 C386.80048,57.8051046 387.449727,57.8725576 387.892894,57.5143271 L390.747941,55.1972225 C391.190195,54.8380804 391.257673,54.1881609 390.898399,53.7460697 Z" id="Stroke-115" stroke="#E6E6E6"></path>
                <path d="M216.088885,247.021212 L213.363323,243.665877 C213.00496,243.222874 213.071526,242.573866 213.514692,242.214724 L215.553621,240.5603 C216.182807,240.049845 216.004082,239.046252 215.237204,238.783732 L203.590872,234.795796 C202.869587,234.548772 202.139184,235.142177 202.232194,235.898745 L203.741329,248.111399 C203.840723,248.915367 204.786326,249.296386 205.415513,248.78593 L207.454441,247.131507 C207.896696,246.772365 208.546855,246.839818 208.906129,247.28282 L211.63078,250.638155 C211.990055,251.080247 212.640214,251.1477 213.082468,250.789469 L215.937516,248.472365 C216.380682,248.113223 216.44816,247.463303 216.088885,247.021212" id="Fill-117" fill="#E6E6E6"></path>
                <path d="M216.088885,247.021212 L213.363323,243.665877 C213.00496,243.222874 213.071526,242.573866 213.514692,242.214724 L215.553621,240.5603 C216.182807,240.049845 216.004082,239.046252 215.237204,238.783732 L203.590872,234.795796 C202.869587,234.548772 202.139184,235.142177 202.232194,235.898745 L203.741329,248.111399 C203.840723,248.915367 204.786326,249.296386 205.415513,248.78593 L207.454441,247.131507 C207.896696,246.772365 208.546855,246.839818 208.906129,247.28282 L211.63078,250.638155 C211.990055,251.080247 212.640214,251.1477 213.082468,250.789469 L215.937516,248.472365 C216.380682,248.113223 216.44816,247.463303 216.088885,247.021212 Z" id="Stroke-119" stroke="#E6E6E6"></path>
                <path d="M537.697443,292.624327 L534.972793,289.268992 C534.613518,288.825989 534.680996,288.176981 535.12325,287.817839 L537.162179,286.163416 C537.791365,285.65296 537.613552,284.649367 536.845762,284.386847 L525.19943,280.398912 C524.479057,280.151887 523.747742,280.745292 523.841664,281.501861 L525.349887,293.714515 C525.449281,294.518483 526.394884,294.899501 527.024982,294.389046 L529.063911,292.734622 C529.506165,292.376391 530.155413,292.442933 530.515599,292.885936 L533.24025,296.241271 C533.599525,296.683362 534.248772,296.750815 534.691938,296.391673 L537.546986,294.07548 C537.98924,293.716338 538.056718,293.066418 537.697443,292.624327" id="Fill-121" fill="#E6E6E6"></path>
                <path d="M537.697443,292.624327 L534.972793,289.268992 C534.613518,288.825989 534.680996,288.176981 535.12325,287.817839 L537.162179,286.163416 C537.791365,285.65296 537.613552,284.649367 536.845762,284.386847 L525.19943,280.398912 C524.479057,280.151887 523.747742,280.745292 523.841664,281.501861 L525.349887,293.714515 C525.449281,294.518483 526.394884,294.899501 527.024982,294.389046 L529.063911,292.734622 C529.506165,292.376391 530.155413,292.442933 530.515599,292.885936 L533.24025,296.241271 C533.599525,296.683362 534.248772,296.750815 534.691938,296.391673 L537.546986,294.07548 C537.98924,293.716338 538.056718,293.066418 537.697443,292.624327 Z" id="Stroke-123" stroke="#E6E6E6"></path>
                <path d="M142.771066,26.323748 L140.046415,22.9684129 C139.687141,22.5254102 139.753707,21.8764021 140.196873,21.5172601 L142.235802,19.8628365 C142.864988,19.3523807 142.686263,18.3487882 141.919385,18.0862681 L130.273053,14.0983324 C129.551768,13.8513083 128.821364,14.4447131 128.914375,15.2012815 L130.42351,27.4139357 C130.522903,28.2179035 131.468507,28.5989223 132.097693,28.0884665 L134.136622,26.4340429 C134.579788,26.0749008 135.229036,26.1423539 135.58831,26.584445 L138.312961,29.9406917 C138.672236,30.3827828 139.322395,30.4502359 139.764649,30.0910938 L142.619697,27.7749008 C143.062863,27.4157587 143.130341,26.7658391 142.771066,26.323748" id="Fill-125" fill="#E6E6E6"></path>
                <path d="M142.771066,26.323748 L140.046415,22.9684129 C139.687141,22.5254102 139.753707,21.8764021 140.196873,21.5172601 L142.235802,19.8628365 C142.864988,19.3523807 142.686263,18.3487882 141.919385,18.0862681 L130.273053,14.0983324 C129.551768,13.8513083 128.821364,14.4447131 128.914375,15.2012815 L130.42351,27.4139357 C130.522903,28.2179035 131.468507,28.5989223 132.097693,28.0884665 L134.136622,26.4340429 C134.579788,26.0749008 135.229036,26.1423539 135.58831,26.584445 L138.312961,29.9406917 C138.672236,30.3827828 139.322395,30.4502359 139.764649,30.0910938 L142.619697,27.7749008 C143.062863,27.4157587 143.130341,26.7658391 142.771066,26.323748 Z" id="Stroke-127" stroke="#E6E6E6"></path>
            </g>
        </g>
    </g>
</svg>