<?xml version="1.0" encoding="UTF-8"?>
<svg width="40px" height="40px" viewBox="0 0 40 40" version="1.1" xmlns="http://www.w3.org/2000/svg" xmlns:xlink="http://www.w3.org/1999/xlink">
    <!-- Generator: Sketch 53 (72520) - https://sketchapp.com -->
    <title>Group 10</title>
    <desc>Created with Sketch.</desc>
    <g id="Symbols" stroke="none" stroke-width="1" fill="none" fill-rule="evenodd">
        <g id="Group-10">
            <circle id="Oval" fill="#35AE63" cx="20" cy="20" r="20"></circle>
            <g id="Group-23" transform="translate(12.000000, 9.000000)" fill="#FFFFFF">
                <path d="M4.02612658,11.2196456 L4.95959494,11.2196456 L4.95959494,10.3410633 L4.02612658,10.3410633 L4.02612658,11.2196456 Z M3.55949367,11.6589367 L5.42622785,11.6589367 L5.42622785,9.90177215 L3.55949367,9.90177215 L3.55949367,11.6589367 Z" id="Fill-1"></path>
                <path d="M3.85782278,11.3780253 L5.12789873,11.3780253 L5.12789873,10.1826835 L3.85782278,10.1826835 L3.85782278,11.3780253 Z M3.72759494,11.5007595 L5.25812658,11.5007595 L5.25812658,10.0603544 L3.72759494,10.0603544 L3.72759494,11.5007595 Z M3.39098734,11.817519 L5.59453165,11.817519 L5.59453165,9.74339241 L3.39098734,9.74339241 L3.39098734,11.817519 Z" id="Fill-2"></path>
                <path d="M10.8291646,17.8829367 L11.7624304,17.8829367 L11.7624304,14.009519 L10.8291646,14.009519 L10.8291646,17.8829367 Z M10.3623291,18.515038 L12.2292658,18.515038 L12.2292658,13.3772152 L10.3623291,13.3772152 L10.3623291,18.515038 Z" id="Fill-3"></path>
                <path d="M10.6608608,18.0818228 L11.9309367,18.0818228 L11.9309367,13.8104304 L10.6608608,13.8104304 L10.6608608,18.0818228 Z M10.5306329,18.3161519 L12.060962,18.3161519 L12.060962,13.5761013 L10.5306329,13.5761013 L10.5306329,18.3161519 Z M10.1940253,18.7141266 L12.3975696,18.7141266 L12.3975696,13.1781266 L10.1940253,13.1781266 L10.1940253,18.7141266 Z" id="Fill-4"></path>
                <path d="M7.43432911,11.2196456 L8.36759494,11.2196456 L8.36759494,10.3410633 L7.43432911,10.3410633 L7.43432911,11.2196456 Z M6.96749367,11.6589367 L8.83443038,11.6589367 L8.83443038,9.90177215 L6.96749367,9.90177215 L6.96749367,11.6589367 Z" id="Fill-5"></path>
                <path d="M7.26582278,11.3780253 L8.53589873,11.3780253 L8.53589873,10.1826835 L7.26582278,10.1826835 L7.26582278,11.3780253 Z M7.13579747,11.5007595 L8.66612658,11.5007595 L8.66612658,10.0603544 L7.13579747,10.0603544 L7.13579747,11.5007595 Z M6.79918987,11.817519 L9.00273418,11.817519 L9.00273418,9.74339241 L6.79918987,9.74339241 L6.79918987,11.817519 Z" id="Fill-6"></path>
                <path d="M10.8004051,11.2394937 L11.7336709,11.2394937 L11.7336709,10.3609114 L10.8004051,10.3609114 L10.8004051,11.2394937 Z M10.3335696,11.6789873 L12.2005063,11.6789873 L12.2005063,9.92162025 L10.3335696,9.92162025 L10.3335696,11.6789873 Z" id="Fill-7"></path>
                <path d="M10.6318987,11.3978734 L11.9019747,11.3978734 L11.9019747,10.2025316 L10.6318987,10.2025316 L10.6318987,11.3978734 Z M10.5018734,11.5204051 L12.0322025,11.5204051 L12.0322025,10.08 L10.5018734,10.08 L10.5018734,11.5204051 Z M10.1652658,11.8373671 L12.3688101,11.8373671 L12.3688101,9.76324051 L10.1652658,9.76324051 L10.1652658,11.8373671 Z" id="Fill-8"></path>
                <path d="M4.02612658,14.6641013 L4.95959494,14.6641013 L4.95959494,13.785519 L4.02612658,13.785519 L4.02612658,14.6641013 Z M3.55949367,15.1033924 L5.42622785,15.1033924 L5.42622785,13.3460253 L3.55949367,13.3460253 L3.55949367,15.1033924 Z" id="Fill-9"></path>
                <path d="M3.85782278,14.822481 L5.12789873,14.822481 L5.12789873,13.6271392 L3.85782278,13.6271392 L3.85782278,14.822481 Z M3.72759494,14.9450127 L5.25812658,14.9450127 L5.25812658,13.5046076 L3.72759494,13.5046076 L3.72759494,14.9450127 Z M3.39098734,15.2617722 L5.59453165,15.2617722 L5.59453165,13.1876456 L3.39098734,13.1876456 L3.39098734,15.2617722 Z" id="Fill-10"></path>
                <path d="M7.43432911,14.6641013 L8.36759494,14.6641013 L8.36759494,13.785519 L7.43432911,13.785519 L7.43432911,14.6641013 Z M6.96749367,15.1033924 L8.83443038,15.1033924 L8.83443038,13.3460253 L6.96749367,13.3460253 L6.96749367,15.1033924 Z" id="Fill-11"></path>
                <path d="M7.26582278,14.822481 L8.53589873,14.822481 L8.53589873,13.6271392 L7.26582278,13.6271392 L7.26582278,14.822481 Z M7.13579747,14.9450127 L8.66612658,14.9450127 L8.66612658,13.5046076 L7.13579747,13.5046076 L7.13579747,14.9450127 Z M6.79918987,15.2617722 L9.00273418,15.2617722 L9.00273418,13.1876456 L6.79918987,13.1876456 L6.79918987,15.2617722 Z" id="Fill-12"></path>
                <path d="M4.02612658,18.108557 L4.95959494,18.108557 L4.95959494,17.2297722 L4.02612658,17.2297722 L4.02612658,18.108557 Z M3.55949367,18.5478481 L5.42622785,18.5478481 L5.42622785,16.790481 L3.55949367,16.790481 L3.55949367,18.5478481 Z" id="Fill-13"></path>
                <path d="M3.85782278,18.2669367 L5.12789873,18.2669367 L5.12789873,17.0713924 L3.85782278,17.0713924 L3.85782278,18.2669367 Z M3.72759494,18.3892658 L5.25812658,18.3892658 L5.25812658,16.9488608 L3.72759494,16.9488608 L3.72759494,18.3892658 Z M3.39098734,18.7062278 L5.59453165,18.7062278 L5.59453165,16.6321013 L3.39098734,16.6321013 L3.39098734,18.7062278 Z" id="Fill-14"></path>
                <path d="M7.43432911,18.108557 L8.36759494,18.108557 L8.36759494,17.2297722 L7.43432911,17.2297722 L7.43432911,18.108557 Z M6.96749367,18.5478481 L8.83443038,18.5478481 L8.83443038,16.790481 L6.96749367,16.790481 L6.96749367,18.5478481 Z" id="Fill-15"></path>
                <path d="M7.26582278,18.2669367 L8.53589873,18.2669367 L8.53589873,17.0713924 L7.26582278,17.0713924 L7.26582278,18.2669367 Z M7.13579747,18.3892658 L8.66612658,18.3892658 L8.66612658,16.9488608 L7.13579747,16.9488608 L7.13579747,18.3892658 Z M6.79918987,18.7062278 L9.00273418,18.7062278 L9.00273418,16.6321013 L6.79918987,16.6321013 L6.79918987,18.7062278 Z" id="Fill-16"></path>
                <path d="M4.27422785,7.27837975 L11.5619241,7.27837975 L11.5619241,4.68070886 L4.27422785,4.68070886 L4.27422785,7.27837975 Z M3.65772152,7.8515443 L12.166481,7.8515443 L12.166481,4.10734177 L3.65772152,4.10734177 L3.65772152,7.8515443 Z" id="Fill-17"></path>
                <path d="M4.01741772,7.5315443 L11.8187342,7.5315443 L11.8187342,4.4275443 L4.01741772,4.4275443 L4.01741772,7.5315443 Z M3.91412658,7.59837975 L11.9098734,7.59837975 L11.9098734,4.36050633 L3.91412658,4.36050633 L3.91412658,7.59837975 Z M3.40111392,8.10470886 L12.4228861,8.10470886 L12.4228861,3.85417722 L3.40111392,3.85417722 L3.40111392,8.10470886 Z" id="Fill-18"></path>
                <path d="M1.65974684,20.5387342 L14.2989367,20.5387342 L14.2989367,1.84627848 L1.65974684,1.84627848 L1.65974684,20.5387342 Z M0.369822785,21.8177215 L15.5886582,21.8177215 L15.5886582,0.567088608 L0.369822785,0.567088608 L0.369822785,21.8177215 Z" id="Fill-19"></path>
                <path d="M0.167291139,22.0202532 L15.7911899,22.0202532 L15.7911899,0.364759494 L0.167291139,0.364759494 L0.167291139,22.0202532 Z M0.572556962,21.6151899 L15.3861266,21.6151899 L15.3861266,0.769620253 L0.572556962,0.769620253 L0.572556962,21.6151899 Z M1.45721519,20.7412658 L14.5016709,20.7412658 L14.5016709,1.64374684 L1.45721519,1.64374684 L1.45721519,20.7412658 Z M1.86207595,20.3362025 L14.0962025,20.3362025 L14.0962025,2.04881013 L1.86207595,2.04881013 L1.86207595,20.3362025 Z" id="Fill-20"></path>
                <path d="M0.202329114,21.9799494 L15.7561519,21.9799494 L15.7561519,0.404860759 L0.202329114,0.404860759 L0.202329114,21.9799494 Z M0.537316456,21.6552911 L15.4211646,21.6552911 L15.4211646,0.729316456 L0.537316456,0.729316456 L0.537316456,21.6552911 Z M1.49205063,20.700962 L14.4666329,20.700962 L14.4666329,1.68405063 L1.49205063,1.68405063 L1.49205063,20.700962 Z M1.82724051,20.3765063 L14.131443,20.3765063 L14.131443,2.00870886 L1.82724051,2.00870886 L1.82724051,20.3765063 Z" id="Fill-21"></path>
                <path d="M0,22.182481 L15.9586835,22.182481 L15.9586835,0.202329114 L0,0.202329114 L0,22.182481 Z M0.740253165,21.4527595 L15.2186329,21.4527595 L15.2186329,0.931848101 L0.740253165,0.931848101 L0.740253165,21.4527595 Z M1.28951899,20.9034937 L14.6691646,20.9034937 L14.6691646,1.48151899 L1.28951899,1.48151899 L1.28951899,20.9034937 Z M2.02956962,20.1737722 L13.9289114,20.1737722 L13.9289114,2.21103797 L2.02956962,2.21103797 L2.02956962,20.1737722 Z" id="Fill-22"></path>
            </g>
        </g>
    </g>
</svg>