<svg xmlns="http://www.w3.org/2000/svg" viewBox="0 0 774.96 16.29"><defs><style>.cls-1{fill:none;stroke:#191919;stroke-miterlimit:10;stroke-width:0.5px;}.cls-2{font-size:8px;fill:#231f20;font-family:Gotham-Bold, Gotham;font-weight:700;}.cls-3{letter-spacing:-0.01em;}.cls-4{letter-spacing:-0.07em;}.cls-5{letter-spacing:-0.02em;}.cls-6{letter-spacing:-0.03em;}</style></defs><title>Asset 1</title><g id="Layer_2" data-name="Layer 2"><g id="Layer_1-2" data-name="Layer 1"><path d="M9.08,4.89C8.94,2.55,8,1,4.32.39A6,6,0,0,1,2.62,0C2.46,2.69,4,4,6.73,4.26a8.23,8.23,0,0,1,2.35.63"/><rect x="15.59" y="1.58" width="3.99" height="2.77"/><path d="M56.35,6.19A3.3,3.3,0,0,0,52,5.1a4.61,4.61,0,0,0-1.22,1v-1H47.26V16.29h3.55V11.85a3.48,3.48,0,0,0,1.23.92,3.62,3.62,0,0,0,4.26-1,5.81,5.81,0,0,0,.05-5.53M53,9.75a1.05,1.05,0,0,1-1,1c-.5,0-1-.35-1-1.15V8.35c0-.77.51-1.17,1-1.14s.9.4,1,1.2a6,6,0,0,1,0,1.34"/><path d="M33.68,4.93A10.45,10.45,0,0,0,32.61,5a4.09,4.09,0,0,0-3.17,6.39,5,5,0,0,0,4.24,1.86,7.16,7.16,0,0,0,3.48-.81,4.19,4.19,0,0,0,.67-6.06c-.53-.64-1.69-1.49-4.15-1.45M34.62,9c0,1.1,0,1.87-.85,1.9h-.09c-.84,0-1-.75-.93-2,0-1,0-1.73.93-1.76h0c.79,0,1,.58.93,1.84"/><path d="M44.52,5.15a3.34,3.34,0,0,0-1.25,1.32V5.12H39.5v8.15h4V10c0-2.18,1.82-2.27,2.87-2.16V4.93a3.48,3.48,0,0,0-1.82.22"/><path d="M20.24,8.93c.06,4.43,4.84,5.07,7.86,3.93V10.5c-4.65,2.53-5.37-5.13,0-3V5.2c-4.68-1.15-7.91.8-7.86,3.73"/><rect x="15.54" y="5.15" width="4.02" height="8.07"/><polygon points="10.33 13.22 14.11 13.23 14.11 1.57 10.33 1.56 10.33 13.22"/><path d="M4.49,5A18.39,18.39,0,0,0,1,5.44v2.2a6.71,6.71,0,0,1,3.53-.55c.69.13,1.16.48,1.06,1.18-.35,0-.7-.11-1.06-.15a3.22,3.22,0,0,0-.62,0,5,5,0,0,0-2.61.58A2.8,2.8,0,0,0,0,10.74v.37a2.27,2.27,0,0,0,.51,1.3,3.41,3.41,0,0,0,4,.48,3.84,3.84,0,0,0,1.06-.74v1.07H9.16V8.6C9.2,6.47,7.84,5,4.49,5m0,6.43a.91.91,0,0,1-1.13-1,1.16,1.16,0,0,1,1.13-.84c.36-.05.76,0,1.12-.07.2,1.2-.46,1.82-1.12,1.91"/><line class="cls-1" x1="68.03" y1="8.96" x2="695.4" y2="8.96"/><text class="cls-2" transform="translate(714.11 10.62)"><tspan class="cls-3">ww</tspan><tspan class="cls-4" x="13.62" y="0">w</tspan><tspan class="cls-3" x="19.94" y="0">.</tspan><tspan x="22.15" y="0">quijo</tspan><tspan class="cls-5" x="42.68" y="0">t</tspan><tspan class="cls-3" x="45.88" y="0">e</tspan><tspan class="cls-6" x="50.7" y="0">.</tspan><tspan x="52.79" y="0">tk</tspan></text></g></g></svg>