<?xml version="1.0" encoding="UTF-8"?>
<svg width="19px" height="18px" viewBox="0 0 19 18" version="1.1" xmlns="http://www.w3.org/2000/svg" xmlns:xlink="http://www.w3.org/1999/xlink">
    <!-- Generator: Sketch 52.3 (67297) - http://www.bohemiancoding.com/sketch -->
    <title>if_iconoteka_shopping_cart__grocery_store_b_s_3507742</title>
    <desc>Created with Sketch.</desc>
    <g id="Symbols" stroke="none" stroke-width="1" fill="none" fill-rule="evenodd">
        <g id="boton" transform="translate(-24.000000, -19.000000)" fill="#000000" fill-rule="nonzero">
            <g id="if_iconoteka_shopping_cart__grocery_store_b_s_3507742" transform="translate(24.000000, 19.000000)">
                <path d="M5.00333333,1.80952381 L4.52380952,0 L1.13095238,0 C0.631266179,0 0.226190476,0.405075703 0.226190476,0.904761905 C0.226190476,1.40444811 0.631266179,1.80952381 1.13095238,1.80952381 L3.13952381,1.80952381 L6.06190476,13.5714286 L18.0952381,13.5714286 L18.0952381,11.7619048 L7.47333333,11.7619048 L7.1747619,10.5495238 L19,8.29666667 L19,1.80952381 L5.00333333,1.80952381 Z M17.1904762,6.80380952 L6.74047619,8.7852381 L5.42857143,3.61904762 L17.1904762,3.61904762 L17.1904762,6.80380952 Z M6.33333333,14.4761905 C5.58380403,14.4761905 4.97619048,15.083804 4.97619048,15.8333333 C4.97619048,16.5828626 5.58380403,17.1904762 6.33333333,17.1904762 C7.08286264,17.1904762 7.69047619,16.5828626 7.69047619,15.8333333 C7.69047619,15.083804 7.08286264,14.4761905 6.33333333,14.4761905 Z M17.1904762,14.4761905 C16.4409469,14.4761905 15.8333333,15.083804 15.8333333,15.8333333 C15.8333333,16.5828626 16.4409469,17.1904762 17.1904762,17.1904762 C17.9400055,17.1904762 18.547619,16.5828626 18.547619,15.8333333 C18.547619,15.083804 17.9400055,14.4761905 17.1904762,14.4761905 Z" id="Shape"></path>
            </g>
        </g>
    </g>
</svg>