<?xml version="1.0" encoding="UTF-8"?>
<svg width="64px" height="56px" viewBox="0 0 64 56" version="1.1" xmlns="http://www.w3.org/2000/svg" xmlns:xlink="http://www.w3.org/1999/xlink">
    <!-- Generator: Sketch 56.3 (81716) - https://sketch.com -->
    <title>shopping-cart (1)</title>
    <desc>Created with Sketch.</desc>
    <g id="Flujos" stroke="none" stroke-width="1" fill="none" fill-rule="evenodd">
        <g id="02.Mensaje_Importe_Minimo" transform="translate(-536.000000, -328.000000)">
            <g id="Group-8" transform="translate(360.000000, 296.000000)">
                <g id="shopping-cart-(1)" transform="translate(176.000000, 32.000000)">
                    <polygon id="Path-2" fill="#78B928" points="18.7142456 25.5 56.7142456 25.5 54.274069 37.2147018 21.1273717 37.2147018"></polygon>
                    <path d="M63.5469825,10.1829123 C63.1982105,9.7317193 62.6598246,9.4674386 62.0895088,9.4674386 L15.2290526,9.4674386 L13.1823509,1.5942807 C12.9713684,0.782280702 12.2384561,0.215649123 11.3994386,0.215649123 L1.84210526,0.215649123 C0.82477193,0.215649123 0,1.04042105 0,2.05775439 C0,3.07508772 0.82477193,3.89985965 1.84210526,3.89985965 L9.97487719,3.89985965 L12.0215789,11.7730175 C12.0215789,11.7732632 12.0215789,11.7732632 12.0218246,11.7735088 L19.2382105,39.5202807 C19.449193,40.3320351 20.1821053,40.8986667 21.0208772,40.8986667 L54.8718947,40.8986667 C55.7106667,40.8986667 56.4435789,40.3320351 56.6545614,39.5202807 L63.8719298,11.7730175 C64.0158596,11.2213684 63.8957544,10.6338596 63.5469825,10.1829123 Z M28.9522456,37.2147018 L22.4454386,37.2147018 L20.9982807,31.6510526 L28.9522456,31.6510526 L28.9522456,37.2147018 L28.9522456,37.2147018 Z M28.9522456,27.9665965 L20.0401404,27.9665965 L18.5922456,22.3992632 L28.9522456,22.3992632 L28.9522456,27.9665965 L28.9522456,27.9665965 Z M28.9522456,18.7150526 L17.6338596,18.7150526 L16.1869474,13.1516491 L28.9522456,13.1516491 L28.9522456,18.7150526 Z M43.2572982,37.2147018 L32.6364561,37.2147018 L32.6364561,31.6510526 L43.2572982,31.6510526 L43.2572982,37.2147018 Z M43.2572982,27.9665965 L32.6364561,27.9665965 L32.6364561,22.3992632 L43.2572982,22.3992632 L43.2572982,27.9665965 Z M43.2572982,18.7150526 L32.6364561,18.7150526 L32.6364561,13.1516491 L43.2572982,13.1516491 L43.2572982,18.7150526 Z M53.4478246,37.2147018 L46.9415088,37.2147018 L46.9415088,31.6510526 L54.8949825,31.6510526 L53.4478246,37.2147018 Z M55.8533684,27.9665965 L46.9415088,27.9665965 L46.9415088,22.3992632 L57.3015088,22.3992632 L55.8533684,27.9665965 Z M58.2598947,18.7150526 L46.9417544,18.7150526 L46.9417544,13.1516491 L59.7072982,13.1516491 L58.2598947,18.7150526 Z" id="Shape" fill="#484D4F" fill-rule="nonzero"></path>
                    <path d="M25.9078596,42.3978947 C22.197614,42.3978947 19.1790175,45.4164912 19.1790175,49.1264912 C19.1790175,52.8372281 22.197614,55.8563158 25.9078596,55.8563158 C29.6178596,55.8563158 32.6364561,52.8372281 32.6364561,49.1264912 C32.6364561,45.4164912 29.6181053,42.3978947 25.9078596,42.3978947 Z M25.9078596,52.1721053 C24.2290877,52.1721053 22.8632281,50.8057544 22.8632281,49.1264912 C22.8632281,47.4477193 24.2290877,46.0821053 25.9078596,46.0821053 C27.586386,46.0821053 28.9522456,47.4479649 28.9522456,49.1264912 C28.9522456,50.806 27.5866316,52.1721053 25.9078596,52.1721053 Z" id="Shape" fill="#484D4F" fill-rule="nonzero"></path>
                    <path d="M49.9854035,42.3978947 C46.2756491,42.3978947 43.2575439,45.4164912 43.2575439,49.1264912 C43.2575439,52.8372281 46.2756491,55.8563158 49.9854035,55.8563158 C53.6958947,55.8563158 56.7142456,52.8372281 56.7142456,49.1264912 C56.7142456,45.4164912 53.6956491,42.3978947 49.9854035,42.3978947 Z M49.9854035,52.1721053 C48.3071228,52.1721053 46.9417544,50.8057544 46.9417544,49.1264912 C46.9417544,47.4477193 48.3071228,46.0821053 49.9854035,46.0821053 C51.6644211,46.0821053 53.0300351,47.4479649 53.0300351,49.1264912 C53.0300351,50.806 51.6641754,52.1721053 49.9854035,52.1721053 Z" id="Shape" fill="#484D4F" fill-rule="nonzero"></path>
                </g>
            </g>
        </g>
    </g>
</svg>