<?xml version="1.0" encoding="UTF-8"?>
<svg width="23px" height="21px" viewBox="0 0 23 21" version="1.1" xmlns="http://www.w3.org/2000/svg" xmlns:xlink="http://www.w3.org/1999/xlink">
    <!-- Generator: Sketch 52.1 (67048) - http://www.bohemiancoding.com/sketch -->
    <title>Group 3</title>
    <desc>Created with Sketch.</desc>
    <defs>
        <polygon id="path-1" points="0 0.0002875 22.725725 0.0002875 22.725725 20.8095375 0 20.8095375"></polygon>
    </defs>
    <g id="Symbols" stroke="none" stroke-width="1" fill="none" fill-rule="evenodd">
        <g id="cabecera_ok" transform="translate(-228.000000, -20.000000)">
            <g id="Group-3" transform="translate(228.000000, 20.000000)">
                <mask id="mask-2" fill="white">
                    <use xlink:href="#path-1"></use>
                </mask>
                <g id="Clip-2"></g>
                <path d="M20.5359333,17.5237958 C19.6283917,17.5237958 18.8923917,18.2597958 18.8923917,19.1663792 C18.8923917,20.0739208 19.6283917,20.8099208 20.5359333,20.8099208 C21.4425167,20.8099208 22.1785167,20.0739208 22.1785167,19.1663792 C22.1785167,18.2597958 21.4425167,17.5237958 20.5359333,17.5237958 Z M7.39239167,17.5237958 C6.48580833,17.5237958 5.74980833,18.2597958 5.74980833,19.1663792 C5.74980833,20.0739208 6.48580833,20.8099208 7.39239167,20.8099208 C8.29993333,20.8099208 9.03593333,20.0739208 9.03593333,19.1663792 C9.03593333,18.2597958 8.29993333,17.5237958 7.39239167,17.5237958 Z M20.5359333,8.2365875 L7.88593333,10.6352958 L6.297975,4.3812125 L20.5359333,4.3812125 L20.5359333,8.2365875 Z M5.78239167,2.1904625 L5.2026,-0.0002875 L1.09518333,-0.0002875 C0.490475,-0.0002875 -0.000191666667,0.490379167 -0.000191666667,1.0950875 C-0.000191666667,1.69979583 0.490475,2.1904625 1.09518333,2.1904625 L3.526475,2.1904625 L7.06368333,16.4284208 L21.6313083,16.4284208 L21.6313083,14.2376708 L8.77335,14.2376708 L8.41205833,12.7704625 L22.725725,10.0430458 L22.725725,2.1904625 L5.78239167,2.1904625 Z" id="Fill-1" fill="#FCF4D9" mask="url(#mask-2)"></path>
            </g>
        </g>
    </g>
</svg>