<?xml version="1.0" encoding="UTF-8"?>
<svg width="17px" height="17px" viewBox="0 0 17 17" version="1.1" xmlns="http://www.w3.org/2000/svg" xmlns:xlink="http://www.w3.org/1999/xlink">
    <!-- Generator: Sketch 52.5 (67469) - http://www.bohemiancoding.com/sketch -->
    <title>View Copy</title>
    <desc>Created with Sketch.</desc>
    <g id="Symbols" stroke="none" stroke-width="1" fill="none" fill-rule="evenodd">
        <g id="View-Copy" fill="#FFFFFF">
            <path d="M3.8427907,0.158139535 L1.47069767,0.158139535 C0.815662273,0.158139535 0.284651163,0.689150646 0.284651163,1.34418605 L0.284651163,3.71627907 C0.284651163,4.37131447 0.815662273,4.90232558 1.47069767,4.90232558 L3.8427907,4.90232558 C4.4978261,4.90232558 5.02883721,4.37131447 5.02883721,3.71627907 L5.02883721,1.34418605 C5.02883721,0.689150646 4.4978261,0.158139535 3.8427907,0.158139535 L3.8427907,0.158139535 Z M3.8427907,3.71627907 L1.47069767,3.71627907 L1.47069767,1.34418605 L3.8427907,1.34418605 L3.8427907,3.71627907 Z" id="Shape"></path>
            <path d="M9.77302326,0.158139535 L7.40093023,0.158139535 C6.74589483,0.158139535 6.21488372,0.689150646 6.21488372,1.34418605 L6.21488372,3.71627907 C6.21488372,4.37131447 6.74589483,4.90232558 7.40093023,4.90232558 L9.77302326,4.90232558 C10.4280587,4.90232558 10.9590698,4.37131447 10.9590698,3.71627907 L10.9590698,1.34418605 C10.9590698,0.689150646 10.4280587,0.158139535 9.77302326,0.158139535 L9.77302326,0.158139535 Z M9.77302326,3.71627907 L7.40093023,3.71627907 L7.40093023,1.34418605 L9.77302326,1.34418605 L9.77302326,3.71627907 Z" id="Shape"></path>
            <path d="M15.7032558,0.158139535 L13.3311628,0.158139535 C12.6761274,0.158139535 12.1451163,0.689150646 12.1451163,1.34418605 L12.1451163,3.71627907 C12.1451163,4.37131447 12.6761274,4.90232558 13.3311628,4.90232558 L15.7032558,4.90232558 C16.3582912,4.90232558 16.8893023,4.37131447 16.8893023,3.71627907 L16.8893023,1.34418605 C16.8893023,0.689150646 16.3582912,0.158139535 15.7032558,0.158139535 L15.7032558,0.158139535 Z M15.7032558,3.71627907 L13.3311628,3.71627907 L13.3311628,1.34418605 L15.7032558,1.34418605 L15.7032558,3.71627907 Z" id="Shape"></path>
            <path d="M3.8427907,6.08837209 L1.47069767,6.08837209 C0.815662273,6.08837209 0.284651163,6.6193832 0.284651163,7.2744186 L0.284651163,9.64651163 C0.284651163,10.301547 0.815662273,10.8325581 1.47069767,10.8325581 L3.8427907,10.8325581 C4.4978261,10.8325581 5.02883721,10.301547 5.02883721,9.64651163 L5.02883721,7.2744186 C5.02883721,6.6193832 4.4978261,6.08837209 3.8427907,6.08837209 L3.8427907,6.08837209 Z M3.8427907,9.64651163 L1.47069767,9.64651163 L1.47069767,7.2744186 L3.8427907,7.2744186 L3.8427907,9.64651163 Z" id="Shape"></path>
            <path d="M9.77302326,6.08837209 L7.40093023,6.08837209 C6.74589483,6.08837209 6.21488372,6.6193832 6.21488372,7.2744186 L6.21488372,9.64651163 C6.21488372,10.301547 6.74589483,10.8325581 7.40093023,10.8325581 L9.77302326,10.8325581 C10.4280587,10.8325581 10.9590698,10.301547 10.9590698,9.64651163 L10.9590698,7.2744186 C10.9590698,6.6193832 10.4280587,6.08837209 9.77302326,6.08837209 L9.77302326,6.08837209 Z M9.77302326,9.64651163 L7.40093023,9.64651163 L7.40093023,7.2744186 L9.77302326,7.2744186 L9.77302326,9.64651163 Z" id="Shape"></path>
            <path d="M15.7032558,6.08837209 L13.3311628,6.08837209 C12.6761274,6.08837209 12.1451163,6.6193832 12.1451163,7.2744186 L12.1451163,9.64651163 C12.1451163,10.301547 12.6761274,10.8325581 13.3311628,10.8325581 L15.7032558,10.8325581 C16.3582912,10.8325581 16.8893023,10.301547 16.8893023,9.64651163 L16.8893023,7.2744186 C16.8893023,6.6193832 16.3582912,6.08837209 15.7032558,6.08837209 L15.7032558,6.08837209 Z M15.7032558,9.64651163 L13.3311628,9.64651163 L13.3311628,7.2744186 L15.7032558,7.2744186 L15.7032558,9.64651163 Z" id="Shape"></path>
            <path d="M3.8427907,12.0186047 L1.47069767,12.0186047 C0.815662273,12.0186047 0.284651163,12.5496158 0.284651163,13.2046512 L0.284651163,15.5767442 C0.284651163,16.2317796 0.815662273,16.7627907 1.47069767,16.7627907 L3.8427907,16.7627907 C4.4978261,16.7627907 5.02883721,16.2317796 5.02883721,15.5767442 L5.02883721,13.2046512 C5.02883721,12.5496158 4.4978261,12.0186047 3.8427907,12.0186047 L3.8427907,12.0186047 Z M3.8427907,15.5767442 L1.47069767,15.5767442 L1.47069767,13.2046512 L3.8427907,13.2046512 L3.8427907,15.5767442 Z" id="Shape"></path>
            <path d="M15.7032558,12.0186047 L13.3311628,12.0186047 C12.6761274,12.0186047 12.1451163,12.5496158 12.1451163,13.2046512 L12.1451163,15.5767442 C12.1451163,16.2317796 12.6761274,16.7627907 13.3311628,16.7627907 L15.7032558,16.7627907 C16.3582912,16.7627907 16.8893023,16.2317796 16.8893023,15.5767442 L16.8893023,13.2046512 C16.8893023,12.5496158 16.3582912,12.0186047 15.7032558,12.0186047 L15.7032558,12.0186047 Z M15.7032558,15.5767442 L13.3311628,15.5767442 L13.3311628,13.2046512 L15.7032558,13.2046512 L15.7032558,15.5767442 Z" id="Shape"></path>
            <path d="M9.77302326,12.0186047 L7.40093023,12.0186047 C6.74589483,12.0186047 6.21488372,12.5496158 6.21488372,13.2046512 L6.21488372,15.5767442 C6.21488372,16.2317796 6.74589483,16.7627907 7.40093023,16.7627907 L9.77302326,16.7627907 C10.4280587,16.7627907 10.9590698,16.2317796 10.9590698,15.5767442 L10.9590698,13.2046512 C10.9590698,12.5496158 10.4280587,12.0186047 9.77302326,12.0186047 L9.77302326,12.0186047 Z M9.77302326,15.5767442 L7.40093023,15.5767442 L7.40093023,13.2046512 L9.77302326,13.2046512 L9.77302326,15.5767442 Z" id="Shape"></path>
        </g>
    </g>
</svg>