<?xml version="1.0" encoding="UTF-8"?>
<svg width="20px" height="20px" viewBox="0 0 20 20" version="1.1" xmlns="http://www.w3.org/2000/svg" xmlns:xlink="http://www.w3.org/1999/xlink">
    <!-- Generator: Sketch 52.5 (67469) - http://www.bohemiancoding.com/sketch -->
    <title>View Copy</title>
    <desc>Created with Sketch.</desc>
    <g id="Symbols" stroke="none" stroke-width="1" fill="none" fill-rule="evenodd">
        <g id="header_" transform="translate(-281.000000, -21.000000)" fill="#FCF4D9">
            <g id="View-Copy" transform="translate(281.000000, 21.000000)">
                <path d="M6,0 L2,0 C0.8954305,0 0,0.8954305 0,2 L0,6 C0,7.1045695 0.8954305,8 2,8 L6,8 C7.1045695,8 8,7.1045695 8,6 L8,2 C8,0.8954305 7.1045695,0 6,0 L6,0 Z M6,6 L2,6 L2,2 L6,2 L6,6 Z" id="Shape"></path>
                <path d="M14,0 C12.8954305,0 12,0.8954305 12,2 L12,6 C12,7.1045695 12.8954305,8 14,8 L18,8 C19.1045695,8 20,7.1045695 20,6 L20,2 C20,0.8954305 19.1045695,0 18,0 L14,0 Z M18,6 L14,6 L14,2 L18,2 L18,6 Z" id="Shape"></path>
                <path d="M18,12 L14,12 C12.8954305,12 12,12.8954305 12,14 L12,18 C12,19.1045695 12.8954305,20 14,20 L18,20 C19.1045695,20 20,19.1045695 20,18 L20,14 C20,12.8954305 19.1045695,12 18,12 L18,12 Z M18,18 L14,18 L14,14 L18,14 L18,18 Z" id="Shape"></path>
                <path d="M6,12 L2,12 C0.8954305,12 0,12.8954305 0,14 L0,18 C0,19.1045695 0.8954305,20 2,20 L6,20 C7.1045695,20 8,19.1045695 8,18 L8,14 C8,12.8954305 7.1045695,12 6,12 L6,12 Z M6,18 L2,18 L2,14 L6,14 L6,18 Z" id="Shape"></path>
            </g>
        </g>
    </g>
</svg>