<?xml version="1.0" encoding="UTF-8"?>
<svg width="22px" height="21px" viewBox="0 0 22 21" version="1.1" xmlns="http://www.w3.org/2000/svg" xmlns:xlink="http://www.w3.org/1999/xlink">
    <!-- Generator: Sketch 52.5 (67469) - http://www.bohemiancoding.com/sketch -->
    <title>Group 2</title>
    <desc>Created with Sketch.</desc>
    <defs>
        <path d="M19,5.83333333 L21.1111111,5.83333333 L21.1111111,17.5 C21.1111111,19.4329966 19.6933462,21 17.9444444,21 C16.1955427,21 14.7777778,19.4329966 14.7777778,17.5 L14.7777778,0 L16.8888889,0 L16.8888889,17.5 C16.8888889,18.1443322 17.3614772,18.6666667 17.9444444,18.6666667 C18.5274117,18.6666667 19,18.1443322 19,17.5 L19,5.83333333 Z M21.1111111,5.83333333 L21.1111111,8.16666667 L16.8888889,8.16666667 L16.8888889,5.83333333 L21.1111111,5.83333333 Z M2.11111111,1.98863636 L2.11111111,17.5 C2.11111111,18.1443322 2.52062988,18.9689109 3.16666667,18.9689109 L17.9444444,18.9689109 L17.9444444,21 L3.16666667,21 C1.41776496,21 -1.03028697e-13,19.4329966 -1.03028697e-13,17.5 L-1.03028697e-13,0 L15.8333333,0 L15.8333333,1.98863636 L2.11111111,1.98863636 Z M7.53442383,4.77272727 L7.53442383,6.75109031 L4.22222222,6.75109031 L4.22222222,4.77272727 L7.53442383,4.77272727 Z M12.6493327,4.77272727 L12.6493327,6.75663156 L9.48266602,6.75663156 L9.48266602,4.77272727 L12.6493327,4.77272727 Z M12.6737061,9.98978678 L12.6737061,11.9324951 L4.22926161,11.9324951 L4.22926161,9.98978678 L12.6737061,9.98978678 Z M12.6647949,14.7157667 L12.6647949,16.6628307 L4.22035048,16.6628307 L4.22035048,14.7157667 L12.6647949,14.7157667 Z" id="path-1"></path>
    </defs>
    <g id="Page-1" stroke="none" stroke-width="1" fill="none" fill-rule="evenodd">
        <g id="Desktop---Cuenta_-act_cerrar" transform="translate(-918.000000, -134.000000)">
            <g id="botones-sub-menú" transform="translate(893.000000, 46.000000)">
                <g id="Group-2" transform="translate(25.000000, 88.000000)">
                    <mask id="mask-2" fill="white">
                        <use xlink:href="#path-1"></use>
                    </mask>
                    <g id="Combined-Shape" fill-rule="nonzero"></g>
                    <g id="color" mask="url(#mask-2)" fill="#219D51">
                        <g transform="translate(-5.000000, -6.631579)">
                            <rect x="0" y="0" width="28.5" height="33.8333333"></rect>
                        </g>
                    </g>
                </g>
            </g>
        </g>
    </g>
</svg>