<?xml version="1.0" encoding="UTF-8"?>
<svg width="48px" height="48px" viewBox="0 0 48 48" version="1.1" xmlns="http://www.w3.org/2000/svg" xmlns:xlink="http://www.w3.org/1999/xlink">
    <!-- Generator: Sketch 56.3 (81716) - https://sketch.com -->
    <title>debit-card</title>
    <desc>Created with Sketch.</desc>
    <g id="Flujos" stroke="none" stroke-width="1" fill="none" fill-rule="evenodd">
        <g id="04.Confirmación_pedido" transform="translate(-32.000000, -472.000000)">
            <g id="debit-card" transform="translate(56.000000, 496.000000) scale(-1, 1) translate(-56.000000, -496.000000) translate(32.000000, 472.000000)">
                <rect id="Rectangle" fill="#78B928" transform="translate(40.000000, 43.000000) rotate(-270.000000) translate(-40.000000, -43.000000) " x="36" y="36" width="8" height="14" rx="1"></rect>
                <path d="M40,8.4752 L40,4 C39.9972,1.792 38.208,0.0028 36,0 L4,0 C1.792,0.0028 0.0028,1.792 0,4 L0,21.6 C0.0062000128,23.643 1.55480003,25.3516 3.5872,25.5588 L6.5944,33.365 C7.3888,35.4262 9.70360003,36.453 11.765,35.6596 L30.544,28.4256 C29.6202074,30.8385954 29.5412087,33.4608126 30.2668799,35.8814843 C30.5605186,36.8609952 30.9859114,37.8075055 31.5404,38.6938 L32,39.4288 L32,47.2 C32,47.642 32.358,48 32.8,48 L47.2,48 C47.642,48 48,47.642 48,47.2 L48,20.793 C47.9924,18.0264 46.891,15.3756 44.935,13.419 L40,8.4752 Z M40,13.2596 L42.428,19.5624 C42.9038,20.7996 42.2872,22.1878 41.0502,22.664 L39.6624,23.2 C39.884,22.6956 39.9988,22.1504 40,21.6 L40,13.2596 Z M1.6,21.6 L1.6,4 C1.6,2.67480003 2.67480003,1.6 4,1.6 L36,1.6 C37.3252,1.6 38.4,2.67480003 38.4,4 L38.4,9.0848 L38.393,9.0848 L38.4,9.10300001 L38.4,21.6 C38.3938,21.7396 38.3756,21.878 38.3456,22.0144 L31.0176,14.6856 C29.3704,13.0764 26.7444,13.064 25.0824,14.6564 C23.42,16.2498 23.3202,18.8738 24.8576,20.5878 L27.9816,24 L4,24 C2.67480003,24 1.6,22.9252 1.6,21.6 Z M11.8488,25.6 L6.16,27.7902 L5.3184,25.6 L11.8488,25.6 Z M11.1896,34.1662 C9.9528,34.643 8.56380001,34.0264 8.0872,32.7896 L6.7376,29.28 L16.2872,25.6 L16.2872,25.5952 L29.448,25.5952 L30.4878,26.7288 L11.1896,34.1662 Z M46.4,46.4 L33.6,46.4 L33.6,40 L46.4,40 L46.4,46.4 Z M46.4,38.4 L33.244,38.4 L32.897,37.8456 C30.9464,34.7284 30.8688,30.7912 32.6944,27.6 C32.8672,27.298 32.8248,26.9188 32.5896,26.6624 L26.0338,19.5104 C25.0562,18.4404 25.1112,16.7862 26.1578,15.784 C27.2048,14.7816 28.8598,14.798 29.8862,15.8204 L42.6344,28.5656 L43.7656,27.4344 L40.8056,24.4744 L41.6264,24.1544 C43.686,23.3598 44.7124,21.047 43.92,18.9862 L41.2122,11.955 L43.8038,14.552 C45.4598,16.2076 46.3936,18.4512 46.4,20.793 L46.4,38.4 Z" id="Shape" fill="#484D4F" fill-rule="nonzero"></path>
                <path d="M8.92,11 C10.0688,11 11,10.0688 11,8.92 L11,5.08 C11,3.9312 10.0688,3 8.92,3 L5.08,3 C3.9312,3 3,3.9312 3,5.08 L3,8.92 C3,10.0688 3.9312,11 5.08,11 L8.92,11 Z M4.6,8.92 L4.6,7.8 L6.2,7.8 L6.2,6.2 L4.6,6.2 L4.6,5.08 C4.6,4.81500001 4.81500001,4.6 5.08,4.6 L8.92,4.6 C9.18499999,4.6 9.4,4.81500001 9.4,5.08 L9.4,6.2 L7.8,6.2 L7.8,7.8 L9.4,7.8 L9.4,8.92 C9.4,9.18499999 9.18499999,9.4 8.92,9.4 L5.08,9.4 C4.81500001,9.4 4.6,9.18499999 4.6,8.92 Z" id="Shape" fill="#484D4F" fill-rule="nonzero"></path>
                <polygon id="Path" fill="#484D4F" fill-rule="nonzero" points="4 13 7 13 7 15 4 15"></polygon>
                <polygon id="Path" fill="#484D4F" fill-rule="nonzero" points="4 18 7 18 7 20 4 20"></polygon>
                <polygon id="Path" fill="#484D4F" fill-rule="nonzero" points="18 18 21 18 21 20 18 20"></polygon>
                <polygon id="Path" fill="#484D4F" fill-rule="nonzero" points="9 13 12 13 12 15 9 15"></polygon>
                <polygon id="Path" fill="#484D4F" fill-rule="nonzero" points="14 13 17 13 17 15 14 15"></polygon>
                <polygon id="Path" fill="#484D4F" fill-rule="nonzero" points="18 13 21 13 21 15 18 15"></polygon>
                <polygon id="Path" fill="#484D4F" fill-rule="nonzero" points="33 4 35 4 35 6 33 6"></polygon>
                <polygon id="Path" fill="#484D4F" fill-rule="nonzero" points="30 4 32 4 32 6 30 6"></polygon>
                <polygon id="Path" fill="#484D4F" fill-rule="nonzero" points="27 4 29 4 29 6 27 6"></polygon>
                <polygon id="Path" fill="#484D4F" fill-rule="nonzero" points="24 4 26 4 26 6 24 6"></polygon>
                <polygon id="Path" fill="#484D4F" fill-rule="nonzero" points="35 41 37 41 37 43 35 43"></polygon>
            </g>
        </g>
    </g>
</svg>