<?xml version="1.0" encoding="UTF-8"?>
<svg width="48px" height="48px" viewBox="0 0 48 48" version="1.1" xmlns="http://www.w3.org/2000/svg" xmlns:xlink="http://www.w3.org/1999/xlink">
    <!-- Generator: Sketch 56.3 (81716) - https://sketch.com -->
    <title>pay (2)</title>
    <desc>Created with Sketch.</desc>
    <g id="Flujos" stroke="none" stroke-width="1" fill="none" fill-rule="evenodd">
        <g id="04.Confirmación_pedido" transform="translate(-413.000000, -472.000000)">
            <g id="Group-13" transform="translate(398.000000, 456.000000)">
                <g id="pay-(2)" transform="translate(15.000000, 16.000000)">
                    <rect id="Rectangle" fill="#78B928" transform="translate(44.000000, 40.000000) rotate(-180.000000) translate(-44.000000, -40.000000) " x="41" y="33" width="6" height="14" rx="1"></rect>
                    <rect id="Rectangle" fill="#78B928" transform="translate(4.000000, 8.500000) rotate(-180.000000) translate(-4.000000, -8.500000) " x="1" y="1" width="6" height="15" rx="1"></rect>
                    <path d="M39.8340249,34.5447355 L37.8049793,33.3290976 C37.1864626,32.9591546 36.4788641,32.7638745 35.7580394,32.7634855 L32.7043568,32.7634855 C32.0792272,32.7623184 31.4568205,32.8428423 30.8523081,33.0023341 L21.651582,35.4721214 C20.6456172,35.7498703 19.8376556,36.4990923 19.4852178,37.4813278 L11.3923756,33.1030861 C10.7361255,32.7296421 9.96784232,32.6028268 9.22640046,32.7452023 C8.94670646,32.7946058 8.67557059,32.8836877 8.42077285,33.0097251 C7.84543568,33.28514 7.36812757,33.7301608 7.0522562,34.2844918 C6.7760633,34.7672459 6.63087464,35.3137967 6.63087464,35.8696836 C6.62240664,37.0047977 7.223807,38.056665 8.20565358,38.625389 L22.7100622,47.3036825 C23.340249,47.6938537 24.0661307,47.9004161 24.8071836,47.9004161 L36.0322874,47.9004161 C36.5337137,47.9008039 37.030472,47.8058869 37.496499,47.621499 L39.8340249,46.6983922 L39.8340249,47.9004161 L47.8008299,47.9004161 L47.8008299,31.966805 L39.8340249,31.966805 L39.8340249,34.5447355 Z M36.9110478,46.1397821 C36.6321317,46.2498703 36.3345436,46.306665 36.0346213,46.3070539 L24.8071836,46.3070539 C24.3582728,46.306665 23.9183092,46.1802385 23.5378631,45.9421681 L9.01361517,37.2537604 C8.51996893,36.9686203 8.21771263,36.4403527 8.22156562,35.8704616 C8.22276966,35.5911566 8.29629152,35.3165197 8.43516598,35.0737811 C8.59387967,34.7987552 8.83272817,34.5781898 9.1194243,34.4420384 C9.24585062,34.3805757 9.37966805,34.3370072 9.51776455,34.312889 C9.61851665,34.2942168 9.72082466,34.2844855 9.82313278,34.2844855 C10.0969917,34.2837137 10.3661826,34.3552905 10.6038641,34.4914419 L19.3794087,39.2334025 C19.3895228,39.282028 19.3895228,39.3298755 19.4023599,39.378501 C19.779694,40.7691909 21.0412344,41.7350882 22.4824948,41.7366442 C22.9259596,41.6961878 23.3651452,41.6176089 23.7953838,41.5024637 L32.0726141,39.2874741 L31.6618257,37.7481847 L23.4114367,39.9534492 C23.0481068,40.037085 22.5793568,40.1327801 22.4824948,40.1409491 C21.7628371,40.1421162 21.1318724,39.6613071 20.9424274,38.9673237 C20.9167531,38.8708506 20.901582,38.7720436 20.8961359,38.6724586 C20.8961359,38.6724586 20.8899118,38.4795125 20.8961359,38.4118257 C20.9568205,37.7454616 21.4236255,37.1860736 22.0682053,37.0067427 L31.2650415,34.5462915 C31.7345695,34.4206432 32.2184907,34.3568465 32.7043568,34.3568465 L35.7580394,34.3568465 C36.190612,34.3568465 36.6150155,34.4743258 36.9857366,34.6964471 L39.8340249,36.4018413 L39.8340249,44.9844398 L36.9110478,46.1397821 Z M41.4273859,33.560166 L46.2074689,33.560166 L46.2074689,46.3070539 L41.4273859,46.3070539 L41.4273859,33.560166 Z" id="Shape" fill="#484D4F" fill-rule="nonzero"></path>
                    <path d="M32.8584025,6.47302905 L28.5848029,2.19981849 C27.2431276,0.850363021 25.4175311,0.0941390041 23.5149118,0.0995558494 L13.498833,0.0995558494 C12.8807054,0.100363071 12.2711359,0.244683585 11.7175829,0.520098523 L9.93205394,1.41325205 C9.57417012,1.593361 9.17660793,1.67933089 8.77632259,1.66338174 L7.96680498,1.63498446 L7.96680498,0.0995558494 L0,0.0995558494 L0,17.626556 L7.96680498,17.626556 L7.96680498,15.2365145 L9.32131738,15.2365145 L9.80329354,15.5551089 C11.151971,16.4505964 12.7223807,16.9563018 14.340249,17.0154305 L14.340249,27.186722 L47.8008299,27.186722 L47.8008299,6.47302905 L32.8584025,6.47302905 Z M6.37344398,16.033195 L1.593361,16.033195 L1.593361,1.69294606 L6.37344398,1.69294606 L6.37344398,16.033195 Z M10.685166,14.2293828 L9.79901457,13.6431535 L7.96680498,13.6431535 L7.96680498,3.22912342 L8.71797202,3.25596468 C9.38511416,3.27969401 10.0471992,3.1361515 10.6443206,2.83856325 L12.4282935,1.94540973 C12.7605031,1.77930503 13.127334,1.69292287 13.498833,1.69292287 L23.5149118,1.69292287 C24.9946836,1.68866699 26.4149378,2.27684126 27.4582468,3.32598553 L30.6052905,6.47302905 L24.0311203,6.47302905 L22.0973807,4.53967847 L20.9712137,5.66584541 L26.5989367,11.2939574 C27.2240664,11.9163641 27.2260114,12.9277749 26.6036047,13.5532935 C25.9808091,14.1784232 24.9693983,14.1803682 24.3442686,13.5579616 L19.6439315,8.85762443 L19.0860996,9.33571061 C17.5460321,10.6435425 15.2948652,10.6769969 13.7162863,9.41506745 L13.2545384,9.04084541 L12.2505187,10.2786567 L12.7173237,10.6571577 C13.2055239,11.0473289 13.7536307,11.3561981 14.340249,11.5717065 L14.340249,15.4212915 C13.0363071,15.3633299 11.7724326,14.9513745 10.685166,14.2293828 Z M22.0180238,13.4836619 L23.2200467,14.6860736 C24.467972,15.9153267 26.4713433,15.9172718 27.7212137,14.6899637 C26.5518672,16.500778 27.0132261,18.9106587 28.7688019,20.1613071 C30.5243776,21.4119554 32.9529305,21.0606846 34.2821577,19.3642376 C35.6113848,17.6674014 35.3713693,15.2252334 33.7367739,13.8201504 C32.1025674,12.4150675 29.6518413,12.5438279 28.1740145,14.1122926 C28.7182313,13.2576504 28.8154824,12.1925571 28.4350363,11.253112 L39.1034751,11.253112 C39.4461878,13.2576504 41.0162085,14.8276711 43.0207469,15.1703839 L43.0207469,18.4893672 C41.0162085,18.8320799 39.4461878,20.4021006 39.1034751,22.406639 L23.0376038,22.406639 C22.6948911,20.4021006 21.1248703,18.8320799 19.120332,18.4893672 L19.120332,15.1703839 C20.2589471,14.9786047 21.2886411,14.3791494 22.0180238,13.4836619 L22.0180238,13.4836619 Z M28.6804979,16.8298755 C28.6804979,15.5099845 29.7506484,14.439834 31.0705394,14.439834 C32.3904305,14.439834 33.4605809,15.5099845 33.4605809,16.8298755 C33.4605809,18.1497666 32.3904305,19.219917 31.0705394,19.219917 C29.7506484,19.219917 28.6804979,18.1497666 28.6804979,16.8298755 Z M46.2074689,25.593361 L15.93361,25.593361 L15.93361,11.905472 C17.1967065,12.000389 18.4559129,11.6782935 19.5186722,10.9893672 L20.8778527,12.3485477 C20.2799533,13.1607884 19.3323392,13.6412085 18.3236515,13.6431535 L17.526971,13.6431535 L17.526971,20.0165975 L18.3236515,20.0165975 C20.0835062,20.0165975 21.5103734,21.4434647 21.5103734,23.2033195 L21.5103734,24 L40.6307054,24 L40.6307054,23.2033195 C40.6307054,21.4434647 42.0575726,20.0165975 43.8174274,20.0165975 L44.6141079,20.0165975 L44.6141079,13.6431535 L43.8174274,13.6431535 C42.0575726,13.6431535 40.6307054,12.2162863 40.6307054,10.4564315 L40.6307054,9.65975104 L27.2178423,9.65975104 L25.6244813,8.06639004 L46.2074689,8.06639004 L46.2074689,25.593361 Z" id="Shape" fill="#484D4F" fill-rule="nonzero"></path>
                </g>
            </g>
        </g>
    </g>
</svg>