<?xml version="1.0" encoding="UTF-8"?>
<svg width="320px" height="274px" viewBox="0 0 320 274" version="1.1" xmlns="http://www.w3.org/2000/svg" xmlns:xlink="http://www.w3.org/1999/xlink">
    <!-- Generator: Sketch 52.5 (67469) - http://www.bohemiancoding.com/sketch -->
    <title>Artboard</title>
    <desc>Created with Sketch.</desc>
    <g id="Artboard" stroke="none" stroke-width="1" fill="none" fill-rule="evenodd">
        <g id="Group-91" transform="translate(0.000000, 5.000000)">
            <path d="M172.984316,134.905082 L168.006074,136 C168.006074,136 167.619392,130.823703 173.016725,129.094326 L178,128 C178,128 178.029053,134.130354 172.984316,134.905082" id="Stroke-1" stroke="#FFFFFF" stroke-width="1.548" stroke-linecap="round" stroke-linejoin="round"></path>
            <path d="M220.984316,244.905082 L216.006074,246 C216.006074,246 215.619392,240.823703 221.016725,239.094326 L226,238 C226,238 226.029053,244.130354 220.984316,244.905082" id="Stroke-3" stroke="#FFFFFF" stroke-width="1.548" stroke-linecap="round" stroke-linejoin="round"></path>
            <path d="M292.984316,244.905082 L288.006074,246 C288.006074,246 287.619392,240.823703 293.016725,239.094326 L298,238 C298,238 298.029053,244.130354 292.984316,244.905082" id="Stroke-5" stroke="#FFFFFF" stroke-width="1.548" stroke-linecap="round" stroke-linejoin="round"></path>
            <path d="M135,247.000268 C135,247.552639 135.447632,248 136.000271,248 C136.552368,248 137,247.552639 137,247.000268 C137,246.447897 136.552368,246 136.000271,246 C135.447632,246 135,246.447897 135,247.000268 Z" id="Stroke-7" stroke="#FFFFFF"></path>
            <path d="M262,262.000268 C262,262.552639 262.447632,263 263.000271,263 C263.552368,263 264,262.552639 264,262.000268 C264,261.447897 263.552368,261 263.000271,261 C262.447632,261 262,261.447897 262,262.000268 Z" id="Stroke-9" stroke="#FFFFFF"></path>
            <path d="M268.5,218 L268.5,223" id="Stroke-11" stroke="#FFFFFF" stroke-width="1.869" stroke-linecap="round" stroke-linejoin="round"></path>
            <path d="M271,220.5 L266,220.5" id="Stroke-13" stroke="#FFFFFF" stroke-width="1.869" stroke-linecap="round" stroke-linejoin="round"></path>
            <path d="M43.5,209 L43.5,214" id="Stroke-15" stroke="#FFFFFF" stroke-width="1.869" stroke-linecap="round" stroke-linejoin="round"></path>
            <path d="M46,211.5 L41,211.5" id="Stroke-17" stroke="#FFFFFF" stroke-width="1.869" stroke-linecap="round" stroke-linejoin="round"></path>
            <path d="M14,88 C14,89.1046667 14.8956229,90 16,90 C17.1043771,90 18,89.1046667 18,88 C18,86.8953333 17.1043771,86 16,86 C14.8956229,86 14,86.8953333 14,88 Z" id="Stroke-19" stroke="#FFFFFF" stroke-width="1.548" stroke-linecap="round" stroke-linejoin="round"></path>
            <path d="M177,212 L183,218" id="Stroke-21" stroke="#FFFFFF" stroke-width="1.548" stroke-linecap="round" stroke-linejoin="round"></path>
            <path d="M183,212 L177,218" id="Stroke-23" stroke="#FFFFFF" stroke-width="1.548" stroke-linecap="round" stroke-linejoin="round"></path>
            <path d="M199.147227,169.543807 L200.887466,167.482945 C201.116832,167.21085 201.073312,166.812227 200.791015,166.59164 L199.489511,165.575485 C199.087239,165.261961 199.201333,164.64555 199.691235,164.484309 L207.127393,162.0349 C207.587889,161.883177 208.054267,162.247649 207.994867,162.712337 L207.03153,170.213405 C206.968014,170.707766 206.364017,170.941789 205.961744,170.627705 L204.66024,169.61211 C204.377944,169.391524 203.962733,169.432394 203.733367,169.704488 L201.993716,171.76535 C201.76435,172.037444 201.349139,172.078874 201.066842,171.858288 L199.243678,170.435111 C198.961382,170.214525 198.917861,169.815341 199.147227,169.543807" id="Fill-25" fill="#53A538"></path>
            <path d="M32.1474187,170.543983 L33.8871291,168.483073 C34.1165027,168.210972 34.0735687,167.812339 33.7906746,167.591747 L32.4897147,166.575569 C32.0874287,166.262037 32.2015274,165.645612 32.6908577,165.484367 L40.1272668,163.034901 C40.5883665,162.883174 41.0547595,163.247655 40.9947695,163.712353 L40.0314004,171.213597 C39.9678816,171.707969 39.3644526,171.941438 38.9621667,171.627907 L37.6606186,170.611729 C37.3783127,170.391697 36.9630877,170.432568 36.7337141,170.704668 L34.9934156,172.765579 C34.764042,173.037679 34.3494051,173.07855 34.066511,172.858518 L32.2438733,171.435309 C31.9609792,171.214717 31.9180451,170.815524 32.1474187,170.543983" id="Fill-27" fill="#53A538"></path>
            <path d="M305.147235,163.544196 L306.887569,161.482668 C307.116948,161.211119 307.073425,160.812475 306.791113,160.591877 L305.489538,159.575671 C305.087243,159.26213 305.201344,158.645128 305.690685,158.483878 L313.127249,156.034904 C313.588358,155.883173 314.054761,156.247664 313.994769,156.711816 L313.031968,164.213828 C312.968448,164.707654 312.364419,164.94169 311.962124,164.628149 L310.660549,163.611943 C310.378237,163.391345 309.963004,163.432777 309.733625,163.704885 L307.993291,165.765853 C307.7645,166.037401 307.349267,166.078833 307.066955,165.858235 L305.243691,164.435546 C304.961379,164.214948 304.917856,163.815744 305.147235,163.544196" id="Fill-29" fill="#53A538"></path>
            <path d="M124.984316,6.90508249 L120.006074,8 C120.006074,8 119.619392,2.82370348 125.016725,1.09491751 L130,0 C130,0 130.029053,6.13035437 124.984316,6.90508249" id="Stroke-31" stroke="#FFFFFF" stroke-width="1.548" stroke-linecap="round" stroke-linejoin="round"></path>
            <path d="M208.984316,75.9050825 L204.006074,77 C204.006074,77 203.619392,71.8237035 209.016725,70.0949175 L214,69 C214,69 214.029053,75.1303544 208.984316,75.9050825" id="Stroke-33" stroke="#FFFFFF" stroke-width="1.548" stroke-linecap="round" stroke-linejoin="round"></path>
            <path d="M298.984584,59.9050825 L294.006049,61 C294.006049,61 293.619947,55.8242953 299.016992,54.0949175 L304,53 C304,53 304.028493,59.1303544 298.984584,59.9050825" id="Stroke-35" stroke="#FFFFFF" stroke-width="1.548" stroke-linecap="round" stroke-linejoin="round"></path>
            <path d="M0,143.999732 C0,144.552103 0.447631935,145 1.00027064,145 C1.55236806,145 2,144.552103 2,143.999732 C2,143.447361 1.55236806,143 1.00027064,143 C0.447631935,143 0,143.447361 0,143.999732 Z" id="Stroke-37" stroke="#FFFFFF"></path>
            <path d="M265,65 C265,65.5525188 265.447632,66 266.000271,66 C266.552368,66 267,65.5525188 267,65 C267,64.4474812 266.552368,64 266.000271,64 C265.447632,64 265,64.4474812 265,65 Z" id="Stroke-39" stroke="#FFFFFF"></path>
            <path d="M263,167.000268 C263,167.552639 263.447632,168 264.000271,168 C264.552368,168 265,167.552639 265,167.000268 C265,166.447897 264.552368,166 264.000271,166 C263.447632,166 263,166.447897 263,167.000268 Z" id="Stroke-41" stroke="#FFFFFF"></path>
            <path d="M96,215.000268 C96,215.552639 96.4480519,216 97,216 C97.5519481,216 98,215.552639 98,215.000268 C98,214.447897 97.5519481,214 97,214 C96.4480519,214 96,214.447897 96,215.000268 Z" id="Stroke-43" stroke="#FFFFFF"></path>
            <path d="M230.5,108 L230.5,113" id="Stroke-45" stroke="#FFFFFF" stroke-width="1.869" stroke-linecap="round" stroke-linejoin="round"></path>
            <path d="M233,110.5 L228,110.5" id="Stroke-47" stroke="#FFFFFF" stroke-width="1.869" stroke-linecap="round" stroke-linejoin="round"></path>
            <path d="M272.5,21 L272.5,26" id="Stroke-49" stroke="#FFFFFF" stroke-width="1.869" stroke-linecap="round" stroke-linejoin="round"></path>
            <path d="M275,23.5 L270,23.5" id="Stroke-51" stroke="#FFFFFF" stroke-width="1.869" stroke-linecap="round" stroke-linejoin="round"></path>
            <path d="M96.5,93 L96.5,98" id="Stroke-53" stroke="#FFFFFF" stroke-width="1.869" stroke-linecap="round" stroke-linejoin="round"></path>
            <path d="M99,95.5 L94,95.5" id="Stroke-55" stroke="#FFFFFF" stroke-width="1.869" stroke-linecap="round" stroke-linejoin="round"></path>
            <path d="M70.5,264 L70.5,269" id="Stroke-57" stroke="#FFFFFF" stroke-width="1.869" stroke-linecap="round" stroke-linejoin="round"></path>
            <path d="M68,266.5 L73,266.5" id="Stroke-59" stroke="#FFFFFF" stroke-width="1.869" stroke-linecap="round" stroke-linejoin="round"></path>
            <path d="M46,17 C46,18.1046667 46.8956229,19 48,19 C49.1050505,19 50,18.1046667 50,17 C50,15.8953333 49.1050505,15 48,15 C46.8956229,15 46,15.8953333 46,17 Z" id="Stroke-61" stroke="#FFFFFF" stroke-width="1.548" stroke-linecap="round" stroke-linejoin="round"></path>
            <path d="M284,117 L290,123" id="Stroke-63" stroke="#FFFFFF" stroke-width="1.548" stroke-linecap="round" stroke-linejoin="round"></path>
            <path d="M290,117 L284,123" id="Stroke-65" stroke="#FFFFFF" stroke-width="1.548" stroke-linecap="round" stroke-linejoin="round"></path>
            <path d="M181,15 L187,21" id="Stroke-67" stroke="#FFFFFF" stroke-width="1.548" stroke-linecap="round" stroke-linejoin="round"></path>
            <path d="M187,15 L181,21" id="Stroke-69" stroke="#FFFFFF" stroke-width="1.548" stroke-linecap="round" stroke-linejoin="round"></path>
            <path d="M75.1474188,34.5441956 L76.8871303,32.4826678 C77.116504,32.2111195 77.07357,31.8124753 76.7906757,31.5918773 L75.4891269,30.5756707 C75.0874288,30.2621303 75.2015275,29.6451277 75.6908581,29.4838784 L83.127272,27.0349044 C83.5877839,26.8831732 84.0547652,27.2476639 83.9947752,27.7118156 L83.0314055,35.2138282 C82.9678867,35.7076542 82.3638692,35.9416897 81.9621711,35.6281493 L80.6606222,34.6119427 C80.3783161,34.3913446 79.9630908,34.4327768 79.7337171,34.704885 L77.9934175,36.7658528 C77.7640437,37.0374012 77.3494066,37.0788333 77.0665123,36.8582353 L75.2438734,35.435546 C74.9609791,35.2149479 74.9180451,34.8157439 75.1474188,34.5441956" id="Fill-71" fill="#53A538"></path>
            <path d="M51.1472347,101.544196 L52.8869812,99.4826678 C53.1169477,99.2111195 53.0734247,98.8124753 52.7911129,98.5918773 L51.4895378,97.5756707 C51.0872434,97.2621303 51.2013445,96.6451277 51.6906849,96.4838784 L59.1278367,94.0349044 C59.5883579,93.8831732 60.0547605,94.2476639 59.9947692,94.7118156 L59.0313802,102.213828 C58.96786,102.707654 58.3644185,102.94169 57.9621242,102.628149 L56.6605491,101.611943 C56.3782373,101.391345 55.9630037,101.432777 55.7336253,101.704885 L53.9932907,103.765853 C53.7645005,104.037401 53.3492668,104.078833 53.066955,103.858235 L51.2436912,102.435546 C50.9613794,102.214948 50.9178564,101.815744 51.1472347,101.544196" id="Fill-73" fill="#53A538"></path>
            <path d="M237.147235,16.5441956 L238.886981,14.4826678 C239.116948,14.2111195 239.073425,13.8124753 238.791113,13.5918773 L237.489538,12.5756707 C237.087243,12.2621303 237.201344,11.6451277 237.691273,11.4838784 L245.127837,9.03490437 C245.588358,8.88317324 246.054761,9.24766389 245.994769,9.71181557 L245.031968,17.2138282 C244.968448,17.7076542 244.364419,17.9416897 243.962124,17.6281493 L242.660549,16.6119427 C242.378237,16.3913446 241.963004,16.4327768 241.733625,16.704885 L239.993879,18.7658528 C239.7645,19.0374012 239.349267,19.0788333 239.066955,18.8582353 L237.243691,17.435546 C236.961379,17.2149479 236.917856,16.8157439 237.147235,16.5441956" id="Fill-75" fill="#53A538"></path>
            <path d="M117.969273,187.213182 C113.595373,189.181909 108.755402,187.342 106.787208,182.968266 C104.817798,178.593925 106.657777,173.755353 111.032285,171.786018 C115.39707,169.819114 120.246156,171.6572 122.21435,176.031542 C124.183759,180.404668 122.334058,185.246278 117.969273,187.213182" id="Fill-77" fill="#53A538"></path>
            <path d="M117.969273,187.213182 C113.595373,189.181909 108.755402,187.342 106.787208,182.968266 C104.817798,178.593925 106.657777,173.755353 111.032285,171.786018 C115.39707,169.819114 120.246156,171.6572 122.21435,176.031542 C124.183759,180.404668 122.334058,185.246278 117.969273,187.213182 Z" id="Stroke-79" stroke="#275A29" stroke-width="1.9" stroke-linecap="round" stroke-linejoin="round"></path>
            <path d="M143.971908,176.21257 C139.596589,178.181888 134.745323,176.342642 132.787432,171.975497 C130.817991,167.60045 132.656743,162.750092 137.032062,160.780773 C141.400086,158.822396 146.250745,160.661642 148.218362,165.026964 C150.178077,169.403835 148.339325,174.254192 143.971908,176.21257" id="Fill-81" fill="#53A538"></path>
            <path d="M143.971908,176.21257 C139.596589,178.181888 134.745323,176.342642 132.787432,171.975497 C130.817991,167.60045 132.656743,162.750092 137.032062,160.780773 C141.400086,158.822396 146.250745,160.661642 148.218362,165.026964 C150.178077,169.403835 148.339325,174.254192 143.971908,176.21257 Z" id="Stroke-83" stroke="#275A29" stroke-width="1.9" stroke-linecap="round" stroke-linejoin="round"></path>
            <path d="M127.861106,115.223337 L84.1816713,134.633383 L75.2430706,126.468329 L63.6525302,131.619053 C62.2417441,132.245895 61.6127158,133.883677 62.2471772,135.277522 C62.8816385,136.671367 64.5393273,137.292841 65.9501134,136.665999 L74.2204469,132.991426 L96.6674602,153.965895 C94.1767014,156.589567 93.5120563,160.52597 95.3755979,163.945273 C97.725097,167.756427 102.564751,168.943313 106.39627,167.24052 L139.347211,152.598293 C140.757997,151.97145 141.387629,150.333072 140.752564,148.939227 C140.118706,147.545382 138.460414,146.923908 137.049628,147.55075 L103.842729,162.306895 C102.523702,162.89318 100.929399,162.407094 100.252076,161.144463 C99.3966703,159.551412 99.9363548,157.974465 101.545146,157.259352 L135.262753,142.276566 C136.540127,141.70877 137.217449,140.497431 136.898105,139.122672 L131.794042,117.116985 C131.36,115.488746 129.393834,114.54222 127.861106,115.223337 Z" id="Stroke-85" stroke="#275A29" stroke-width="1.9" stroke-linecap="round" stroke-linejoin="round"></path>
            <path d="M148.500298,87 C133.336376,87 121,74.6636238 121,59.4997019 C121,44.3363762 133.336376,32 148.500298,32 C154.505404,32 159.96134,33.7166817 164.748252,37.3134249 C165.485847,37.8679626 165.733302,38.5196934 165.178764,39.2572881 C164.686835,39.8929195 163.705363,39.6621603 162.967769,39.1082189 C158.764611,35.9497393 153.460131,34.363046 148.184868,34.363046 C134.864038,34.363046 123.762552,46.1794686 123.762552,59.4997019 C123.762552,72.8211277 135.178872,84.4998103 148.500298,84.4998103 C161.821128,84.4998103 173.253548,72.8211277 173.253548,59.4997019 C173.253548,58.9183317 173.232678,58.3351728 173.191535,57.7669207 C173.125348,56.8462689 173.421698,56.0460651 174.34235,55.9798784 C175.264194,55.9154804 175.863453,56.6059693 175.929639,57.5266211 C175.976745,58.1747742 176,58.8384306 176,59.4997019 C176,74.6636238 163.663624,87 148.500298,87" id="Fill-87" fill="#FFFFFF"></path>
            <path d="M133.938987,51.0900202 C133.133831,51.2229488 132.28381,51.5682023 131.662297,52.1931472 C130.419867,53.4430371 129.921579,56.5328755 131.164009,57.7821638 L146.143151,72.4638583 C146.997359,73.1766203 148.156042,73.4021779 149.322502,72.432581 L179.728827,42.1435036 C181.056199,40.6584324 180.630291,37.6449828 179.261645,36.4859175 C178.068865,35.3334686 175.298672,35.1885102 173.904901,36.3974989 L149.811219,60.6428357 C149.197482,61.1480847 148.565201,61.5937865 147.557858,61.522811 C146.498473,61.4476252 145.396018,60.7589226 144.828939,60.1881115 L137.191317,52.1366075 C136.425641,51.4130187 134.958892,50.9216039 133.938987,51.0900202 M147.687066,76 C146.577433,76 145.4678,75.5753502 144.623164,74.7254492 L130.012503,60.0347324 C127.606006,57.6149504 127.28179,53.7046839 129.452004,51.0689682 C131.942845,48.0440904 136.428632,47.8877038 139.125248,50.5992069 L146.38721,57.9012582 C147.105032,58.6230425 147.933518,58.8888998 148.651339,58.1671155 L171.839968,34.922653 C174.389431,32.3591157 178.53844,32.3591157 181.087903,34.922653 C183.637366,37.4867918 183.637366,41.6581036 181.087903,44.2222424 L150.751566,74.7254492 C149.906331,75.5753502 148.796698,76 147.687066,76" id="Fill-89" fill="#FFFFFF"></path>
        </g>
    </g>
</svg>