<?xml version="1.0" encoding="UTF-8"?>
<svg width="20px" height="25px" viewBox="0 0 20 25" version="1.1" xmlns="http://www.w3.org/2000/svg" xmlns:xlink="http://www.w3.org/1999/xlink">
    <!-- Generator: Sketch 53 (72520) - https://sketchapp.com -->
    <title>Asset 1</title>
    <desc>Created with Sketch.</desc>
    <g id="Page-1" stroke="none" stroke-width="1" fill="none" fill-rule="evenodd">
        <g id="Desktop---Cuenta-corriente" transform="translate(-730.000000, -1075.000000)" fill="#F95555" fill-rule="nonzero">
            <g id="Asset-1" transform="translate(730.000000, 1075.000000)">
                <path d="M4.9475827,16.055383 C4.9475827,15.6413043 4.66463104,15.3938923 4.16590331,15.3938923 C4.02692499,15.3904755 3.88803933,15.4038542 3.75216285,15.4337474 L3.75216285,16.7639752 C3.8627452,16.7845842 3.97515814,16.7932589 4.08753181,16.7898551 C4.61882952,16.7898551 4.9475827,16.5165631 4.9475827,16.055383 Z" id="Path"></path>
                <path d="M8.03562341,15.4078675 C7.88366805,15.4042262 7.73177976,15.4175915 7.5826972,15.4477226 L7.5826972,18.3928571 C7.69783294,18.4108255 7.81439116,18.4175849 7.9307888,18.4130435 C8.83715013,18.4197723 9.42798982,17.9125259 9.42798982,16.8369565 C9.4346056,15.9021739 8.8956743,15.4078675 8.03562341,15.4078675 Z" id="Path"></path>
                <path d="M13.7735369,0 L3.91857506,0 C2.47726497,0.00199582135 1.30934144,1.18986836 1.30737913,2.6557971 L1.30737913,12.4777433 L1.05292621,12.4777433 C0.773719622,12.477606 0.505902405,12.5903186 0.308425795,12.7910712 C0.110949185,12.9918238 -3.26433467e-08,13.264161 0,13.5481366 L0,20.0388199 C-1.02580999e-15,20.3227058 0.110879362,20.5949646 0.308245891,20.7957023 C0.505612421,20.99644 0.77329888,21.1092133 1.0524173,21.1092133 L1.30687023,21.1092133 L1.30687023,22.2996894 C1.30883316,23.76582 2.47706623,24.9537758 3.91857506,24.9554865 L17.3653944,24.9554865 C18.8068202,24.9534895 19.9746798,23.765219 19.9760814,22.2991718 L19.9760814,6.28623188 L13.7735369,0 Z M2.76081425,14.7194617 C3.20843693,14.6507961 3.66084804,14.6196355 4.11348601,14.626294 C4.7302799,14.626294 5.17048346,14.7463768 5.46615776,14.9886128 C5.77207975,15.2441421 5.9462465,15.6279808 5.9389313,16.0305383 C5.9389313,16.4710145 5.79440204,16.8452381 5.53180662,17.0988613 C5.19033079,17.4259834 4.68498728,17.5729814 4.09363868,17.5729814 C3.97951219,17.5740611 3.86543978,17.5674906 3.75216285,17.5533126 L3.75216285,19.1630435 L2.76081425,19.1630435 L2.76081425,14.7194617 Z M17.3664122,23.3286749 L3.91857506,23.3286749 C3.36005872,23.3278187 2.90765916,22.8672286 2.90737913,22.2991718 L2.90737913,21.1086957 L15.4422392,21.1086957 C16.0234732,21.1086957 16.4946565,20.6294642 16.4946565,20.0383023 L16.4946565,13.5481366 C16.4946565,13.2642507 16.3837771,12.9919919 16.1864106,12.7912542 C15.9890441,12.5905165 15.7213576,12.4777433 15.4422392,12.4777433 L2.90737913,12.4777433 L2.90737913,2.6557971 C2.90877982,2.08854885 3.36085199,1.62921775 3.91857506,1.62836439 L13.1750636,1.61853002 L13.1750636,5.09834369 C13.1753443,6.11540499 13.9857699,6.93990485 14.9857506,6.94047619 L18.3374046,6.93064182 L18.3755725,22.2991718 C18.3752938,22.8668254 17.9235131,23.3272488 17.3653944,23.3286749 L17.3664122,23.3286749 Z M6.57760814,19.1407867 L6.57760814,14.7194617 C7.02555732,14.6538888 7.47772836,14.6227447 7.9302799,14.626294 C8.77099237,14.626294 9.31603053,14.7815735 9.74300254,15.1071429 C10.2010178,15.4544513 10.4910941,16.0082816 10.4910941,16.8038302 C10.4910941,17.6651139 10.1826972,18.2598344 9.75572519,18.6268116 C9.28956743,19.0207039 8.58015267,19.2075569 7.71348601,19.2075569 C7.33399685,19.2107581 6.95471438,19.1884528 6.57811705,19.1407867 L6.57760814,19.1407867 Z M13.7445293,16.5232919 L13.7445293,17.3514493 L12.1557252,17.3514493 L12.1557252,19.1630435 L11.151145,19.1630435 L11.151145,14.6599379 L13.8564885,14.6599379 L13.8564885,15.4943064 L12.1557252,15.4943064 L12.1557252,16.5232919 L13.7445293,16.5232919 Z" id="Shape"></path>
            </g>
        </g>
    </g>
</svg>