<?xml version="1.0" encoding="UTF-8"?>
<svg width="20px" height="25px" viewBox="0 0 20 25" version="1.1" xmlns="http://www.w3.org/2000/svg" xmlns:xlink="http://www.w3.org/1999/xlink">
    <!-- Generator: Sketch 53 (72520) - https://sketchapp.com -->
    <title>Group 16</title>
    <desc>Created with Sketch.</desc>
    <defs>
        <polygon id="path-1" points="1.0178117e-05 0.0458117048 19.9745547 0.0458117048 19.9745547 24.580112 1.0178117e-05 24.580112"></polygon>
    </defs>
    <g id="Page-1" stroke="none" stroke-width="1" fill="none" fill-rule="evenodd">
        <g id="Desktop---Cuenta-corriente" transform="translate(-774.000000, -1075.000000)">
            <g id="Group-16" transform="translate(774.000000, 1075.000000)">
                <path d="M4.94657506,15.8320407 C4.94657506,15.424916 4.66158779,15.1806412 4.16286005,15.1806412 C4.02545547,15.1756031 3.88296183,15.1908193 3.75064631,15.2213537 L3.75064631,16.5292417 C3.8626056,16.5496489 3.97456489,16.559827 4.08652417,16.554687 C4.62087532,16.554687 4.94657506,16.290056 4.94657506,15.8320407" id="Fill-1" fill="#50AF4B"></path>
                <g id="Group-5" transform="translate(0.000000, 0.005089)">
                    <mask id="mask-2" fill="white">
                        <use xlink:href="#path-1"></use>
                    </mask>
                    <g id="Clip-4"></g>
                    <path d="M17.3638779,22.9821985 L3.91858524,22.9821985 C3.3587888,22.9821985 2.9058626,22.5292723 2.9058626,21.9694758 L2.9058626,20.7989924 L15.4402137,20.7989924 C16.0203664,20.7989924 16.4936489,20.3257099 16.4936489,19.7455064 L16.4936489,13.3638779 C16.4936489,12.7837252 16.0203664,12.3104427 15.4402137,12.3104427 L2.9058626,12.3104427 L2.9058626,2.65649873 C2.9058626,2.09670229 3.3587888,1.64886514 3.91858524,1.64377608 L13.1755827,1.63359796 L13.1755827,5.05344529 C13.1755827,6.05090076 13.984743,6.86515013 14.9872875,6.86515013 L18.3409771,6.85497201 L18.3816896,21.9643868 C18.3766005,22.5241832 17.9236743,22.9770585 17.3638779,22.9821985 L17.3638779,22.9821985 Z M13.7710025,0.0458117048 L3.91858524,0.0458117048 C2.47838168,0.0458117048 1.30789822,1.21629517 1.30789822,2.65649873 L1.30789822,12.3154809 L1.05344529,12.3154809 C0.473292621,12.3104427 1.0178117e-05,12.7837252 1.0178117e-05,13.3638779 L1.0178117e-05,19.7455064 C1.0178117e-05,20.3257099 0.473292621,20.7989924 1.05344529,20.7989924 L1.30789822,20.7989924 L1.30789822,21.9694758 C1.30789822,23.4096285 2.47838168,24.580112 3.91858524,24.580112 L17.3638779,24.580112 C18.8040814,24.580112 19.9745649,23.4096285 19.9745649,21.9694758 L19.9745649,6.22392875 L13.7710025,0.0458117048 Z" id="Fill-3" fill="#50AF4B" mask="url(#mask-2)"></path>
                </g>
                <polygon id="Fill-6" fill="#FFFFFF" points="1.21605598 18.2999847 1.21605598 14.9515878 3.74170483 14.9515878 3.74170483 15.6069059 1.94791349 15.6069059 1.94791349 16.2861934 3.52643766 16.2861934 3.52643766 16.9415115 1.94791349 16.9415115 1.94791349 17.6446667 3.76562341 17.6446667 3.76562341 18.2999847"></polygon>
                <polygon id="Fill-8" fill="#FFFFFF" points="6.22927735 18.2999847 5.47828499 17.151944 4.72250891 18.2999847 3.88535878 18.2999847 5.05253435 16.597084 3.93324682 14.9515878 4.79426463 14.9515878 5.49741985 16.0374402 6.20535878 14.9515878 7.04245802 14.9515878 5.92311959 16.5875165 7.09029517 18.2999847"></polygon>
                <path d="M8.68817812,18.3573893 C7.70278372,18.3573893 6.97092621,17.5968295 6.97092621,16.6353537 L6.97092621,16.6257863 C6.97092621,15.6739288 7.68843257,14.8941832 8.71688041,14.8941832 C9.3482799,14.8941832 9.72614249,15.1046667 10.037084,15.4108244 L9.56833079,15.9513333 C9.31001018,15.7169313 9.04695674,15.5734707 8.71209669,15.5734707 C8.14766921,15.5734707 7.74105344,16.0422239 7.74105344,16.6162188 L7.74105344,16.6257863 C7.74105344,17.1997812 8.13805089,17.6781527 8.71209669,17.6781527 C9.094743,17.6781527 9.32914504,17.5251247 9.59224936,17.285888 L10.0610534,17.7594758 C9.71662595,18.127771 9.33392875,18.3573893 8.68817812,18.3573893" id="Fill-10" fill="#FFFFFF"></path>
                <polygon id="Fill-12" fill="#FFFFFF" points="10.3672926 18.2999847 10.3672926 14.9515878 12.8929415 14.9515878 12.8929415 15.6069059 11.0991501 15.6069059 11.0991501 16.2861934 12.6776743 16.2861934 12.6776743 16.9415115 11.0991501 16.9415115 11.0991501 17.6446667 12.9168601 17.6446667 12.9168601 18.2999847"></polygon>
                <polygon id="Fill-14" fill="#FFFFFF" points="13.2901476 18.2999847 13.2901476 14.9515878 14.0267888 14.9515878 14.0267888 17.6303155 15.6962036 17.6303155 15.6962036 18.2999847"></polygon>
            </g>
        </g>
    </g>
</svg>