<?xml version="1.0" encoding="UTF-8"?>
<svg width="351px" height="372px" viewBox="0 0 351 372" version="1.1" xmlns="http://www.w3.org/2000/svg" xmlns:xlink="http://www.w3.org/1999/xlink">
    <!-- Generator: Sketch 52.1 (67048) - http://www.bohemiancoding.com/sketch -->
    <title>Group 5</title>
    <desc>Created with Sketch.</desc>
    <g id="Page-1" stroke="none" stroke-width="1" fill="none" fill-rule="evenodd">
        <g id="Desktop---Pantalla-de-confirmación" transform="translate(-416.000000, -183.000000)">
            <g id="Group-5" transform="translate(416.000000, 183.000000)">
                <path d="M91.3991045,19.7297297 C40.2959414,40.0002596 10.3253524,103.777125 5.15714614,140.440729 C1.7116753,164.883132 0.233548703,181.081009 0.72276634,189.034359 C1.45766563,207.011298 2.93579223,222.652962 5.15714614,235.95935 C8.48917701,255.918934 8.59992311,257.208912 18.8188485,286.594948 C29.0377738,315.980983 62.1415555,355.870969 54.6988431,286.594948 C49.7370349,240.410934 66.2282382,225.585899 104.172453,242.119844 C138.917845,256.838978 183.722445,264.198545 238.586255,264.198545 C320.881968,264.198545 342.888839,212.675825 347.777331,189.034359 C352.665823,165.392893 353.200753,105.000685 340.728151,77.1927252 C328.25555,49.3847656 316.472573,26.2703798 258.204164,9.50601477 C199.935755,-7.25835026 142.502268,-0.540800162 91.3991045,19.7297297 Z" id="Path-2" fill="#FFFFFF" transform="translate(175.815763, 162.508733) scale(-1, 1) translate(-175.815763, -162.508733) "></path>
                <text id="¡Felicitaciones!" fill="#76BC21" font-family="Gotham-Book, Gotham" font-size="21" font-weight="300" line-spacing="41" letter-spacing="0.144706">
                    <tspan x="90" y="57">¡Felicitaciones!</tspan>
                </text>
                <text id="ha-sido-recibido" fill="#76BC21" font-family="Gotham-Bold, Gotham" font-size="36" font-weight="bold" line-spacing="41" letter-spacing="0.2480674">
                    <tspan x="94.3877641" y="150">HA SIDO </tspan>
                    <tspan x="81.6817304" y="191">RECIBIDO </tspan>
                </text>
                <text id="TU-PEDIDO" fill="#53A538" font-family="Gotham-Bold, Gotham" font-size="36" font-weight="bold" line-spacing="41" letter-spacing="0.2480674">
                    <tspan x="63" y="110">TU PEDIDO</tspan>
                </text>
                <text id="con-éxito" fill="#53A538" font-family="Gotham-Book, Gotham" font-size="21" font-weight="300" line-spacing="41" letter-spacing="0.144706">
                    <tspan x="115" y="216">con éxito</tspan>
                </text>
                <path d="M123,370.5 L262,370.5" id="Line-2" stroke="#275A29" stroke-width="2" stroke-linecap="square"></path>
                <g id="camion" transform="translate(123.000000, 307.000000)" stroke="#275A29" stroke-linecap="round" stroke-linejoin="round" stroke-width="1.55">
                    <polyline id="Path" points="27.54 38.37 27.54 0.77 80.04 0.77 80.04 43.29"></polyline>
                    <path d="M80,43.29 L80,54 L60.88,54 C59.9676433,50.8422507 57.0769097,48.6684872 53.79,48.6684872 C50.5030903,48.6684872 47.6123567,50.8422507 46.7,54 L27.54,54 L27.54,43.29 L80,43.29 Z" id="Path" fill="#53A538"></path>
                    <path d="M60.88,54 L46.7,54 C47.6123567,50.8422507 50.5030903,48.6684872 53.79,48.6684872 C57.0769097,48.6684872 59.9676433,50.8422507 60.88,54 Z" id="Path"></path>
                    <path d="M113.39,33.23 L106.66,33.23 L101.13,16.65 C100.300821,14.1729671 97.9821301,12.5023823 95.37,12.5 L80,12.5 L80,54 L92.66,54 C93.5723567,50.8422507 96.4630903,48.6684872 99.75,48.6684872 C103.03691,48.6684872 105.927643,50.8422507 106.84,54 L119.450008,54 L119.45,39.3 C119.452655,37.6910562 118.815365,36.1471012 117.678607,35.008467 C116.541848,33.8698328 114.998946,33.2299978 113.39,33.23 Z M86.24,33.23 L86.24,19.779992 L92.31,19.78 C94.2202539,19.7763569 95.9104313,21.016631 96.48,22.84 L99.75,33.23 L86.24,33.23 Z" id="Shape" fill="#53A538" fill-rule="nonzero"></path>
                    <path d="M99.75,33.23 L86.24,33.23 L86.24,19.779992 L92.31,19.78 C94.2202539,19.7763569 95.9104313,21.016631 96.48,22.84 L99.75,33.23 Z" id="Path"></path>
                    <path d="M106.84,54 L92.66,54 C93.5723567,50.8422507 96.4630903,48.6684872 99.75,48.6684872 C103.03691,48.6684872 105.927643,50.8422507 106.84,54 Z" id="Path"></path>
                    <path d="M61.17,56 C61.1700001,58.6366201 59.76338,61.0729576 57.4800001,62.3912677 C55.1966201,63.7095777 52.3833799,63.7095777 50.0999999,62.3912677 C47.81662,61.0729576 46.4099999,58.6366201 46.41,56 C46.4118925,55.3229952 46.509526,54.6496605 46.7,54 C47.6123567,50.8422507 50.5030903,48.6684872 53.79,48.6684872 C57.0769097,48.6684872 59.9676433,50.8422507 60.88,54 C61.070474,54.6496605 61.1681075,55.3229952 61.17,56 Z" id="Path" fill="#76BC21"></path>
                    <path d="M107.12,56.31 C106.948792,60.3831 103.5081,63.5462083 99.435,63.375 C95.3619,63.2037917 92.1987917,59.7631 92.37,55.69 C92.3970444,55.116911 92.4944416,54.5493204 92.66,54 C93.5723567,50.8422507 96.4630903,48.6684872 99.75,48.6684872 C103.03691,48.6684872 105.927643,50.8422507 106.84,54 C107.060457,54.7492132 107.155075,55.5298133 107.12,56.31 Z" id="Path" fill="#76BC21"></path>
                    <path d="M99.75,33.23 L86.24,33.23 L86.24,19.779992 L92.31,19.78 C94.2202539,19.7763569 95.9104313,21.016631 96.48,22.84 L99.75,33.23 Z" id="Path"></path>
                    <path d="M86.25,39.05 L91.71,39.05" id="Path"></path>
                    <path d="M27.54,24.16 L9.54,24.16" id="Path"></path>
                    <path d="M32.7,33.23 L0.77,33.23" id="Path"></path>
                    <path d="M13.92,15.87 L3.59,15.87" id="Path"></path>
                </g>
            </g>
        </g>
    </g>
</svg>