<?xml version="1.0" encoding="UTF-8"?>
<svg width="271px" height="268px" viewBox="0 0 271 268" version="1.1" xmlns="http://www.w3.org/2000/svg" xmlns:xlink="http://www.w3.org/1999/xlink">
    <!-- Generator: Sketch 52.3 (67297) - http://www.bohemiancoding.com/sketch -->
    <title>Group 6</title>
    <desc>Created with Sketch.</desc>
    <defs>
        <rect id="path-1" x="0" y="0" width="271" height="225"></rect>
    </defs>
    <g id="Page-1" stroke="none" stroke-width="1" fill="none" fill-rule="evenodd">
        <g id="Desktop_Categorías--mvp_-2">
            <g id="Group-6">
                <rect id="Rectangle" fill="#D91728" x="0" y="0" width="271" height="159"></rect>
                <g id="Group-197" transform="translate(0.000000, 43.000000)">
                    <mask id="mask-2" fill="white">
                        <use xlink:href="#path-1"></use>
                    </mask>
                    <use id="Mask" fill="#D91728" xlink:href="#path-1"></use>
                    <g mask="url(#mask-2)">
                        <g transform="translate(-71.000000, -59.000000)">
                            <path d="M71.3322991,229.891203 C69.4095177,230.364176 67.5812172,229.255568 67.1088124,227.332395 C66.6357819,225.409222 67.7445254,223.58177 69.6673068,223.108797 C71.5869597,222.635824 73.4183887,223.744432 73.8914192,225.667605 C74.3644497,227.590778 73.251952,229.41823 71.3322991,229.891203" id="Fill-1" stroke="none" fill="#A60206" fill-rule="evenodd"></path>
                            <path d="M83.3334593,226.89116 C81.4098139,227.364248 79.578158,226.25537 79.1088236,224.33611 C78.6357345,222.412469 79.7446153,220.580191 81.6682607,220.107103 C83.5875256,219.638396 85.4198073,220.747274 85.8928964,222.666534 C86.361605,224.590175 85.2527242,226.422453 83.3334593,226.89116" id="Fill-3" stroke="none" fill="#A60206" fill-rule="evenodd"></path>
                            <path d="M81.9203467,199.033354 L60.1775499,204.244275 L56.7672187,199.798474 L50.9972423,201.181048 C50.295612,201.349319 49.865626,202.041636 50.0380426,202.727085 C50.2104593,203.411846 50.9198307,203.831495 51.6221647,203.663223 L55.7383486,202.67626 L64.2634729,214.054158 C62.893992,215.040434 62.251476,216.773287 62.8158767,218.48004 C63.5695838,220.404516 65.6927719,221.342716 67.600615,220.885979 L84.0027177,216.955295 C84.7050517,216.787023 85.134334,216.094707 84.9619173,215.409258 C84.7895007,214.723809 84.080833,214.304848 83.378499,214.473119 L66.8490191,218.43471 C66.1917246,218.591992 65.5006504,218.239653 65.2972692,217.609837 C65.0404035,216.81587 65.4239426,216.144845 66.2240967,215.952534 L83.008331,211.930503 C83.6438095,211.778029 84.059017,211.283517 84.0301636,210.633096 L83.566398,200.217436 C83.50658,199.4427 82.6832024,198.85066 81.9203467,199.033354 Z" id="Stroke-5" stroke="#A60206" stroke-width="1.548" fill="none" stroke-linecap="round" stroke-linejoin="round"></path>
                            <path d="M248.519802,152.631353 L254.992136,154 C254.992136,154 255.494101,147.529629 248.477373,145.367907 L242,144 C242,144 241.96189,151.662943 248.519802,152.631353" id="Stroke-7" stroke="#A60206" stroke-width="1.548" fill="none" stroke-linecap="round" stroke-linejoin="round"></path>
                            <polygon id="Fill-9" stroke="none" fill="#C00418" fill-rule="evenodd" points="178.150754 221.810204 169.985028 219.686745 151.958789 215 151 218.708555 177.192676 225.519473 179.041211 226 180 222.290731"></polygon>
                            <polygon id="Stroke-11" stroke="#A60206" stroke-width="1.548" fill="none" stroke-linecap="round" stroke-linejoin="round" points="175.241185 226.82715 150.319788 220 145 241.690411 169.921397 248.518277 171.680212 249 177 227.308873"></polygon>
                            <polyline id="Stroke-13" stroke="#A60206" stroke-width="1.548" fill="none" stroke-linecap="round" stroke-linejoin="round" points="153 226 153.412387 229.34207 155.320242 227.681292 155.950906 230 158 227.303704"></polyline>
                            <polyline id="Stroke-15" stroke="#A60206" stroke-width="1.548" fill="none" stroke-linecap="round" stroke-linejoin="round" points="161 227 161.412387 230.34207 163.320242 228.681292 163.950906 231 166 228.303704"></polyline>
                            <polyline id="Stroke-17" stroke="#A60206" stroke-width="1.548" fill="none" stroke-linecap="round" stroke-linejoin="round" points="168 230 168.412387 233.34207 170.320242 231.681292 170.950906 234 173 231.303704"></polyline>
                            <polygon id="Stroke-19" stroke="#A60206" stroke-width="1.548" fill="none" stroke-linecap="round" stroke-linejoin="round" points="151.617748 231 154 231.617748 153.382252 234 151 233.382252"></polygon>
                            <path d="M169,238.9785 L167,238.0215" id="Stroke-21" stroke="#A60206" stroke-width="1.548" fill="none" stroke-linecap="round" stroke-linejoin="round"></path>
                            <path d="M165.705882,237.666667 L156,234" id="Stroke-23" stroke="#A60206" stroke-width="1.548" fill="none" stroke-linecap="round" stroke-linejoin="round"></path>
                            <polygon id="Stroke-25" stroke="#A60206" stroke-width="1.548" fill="none" stroke-linecap="round" stroke-linejoin="round" points="150.617748 235 153 235.617748 152.382252 238 150 237.382252"></polygon>
                            <path d="M168,242.9785 L166,242.0215" id="Stroke-27" stroke="#A60206" stroke-width="1.548" fill="none" stroke-linecap="round" stroke-linejoin="round"></path>
                            <path d="M163.705882,240.666667 L154.294118,237.333333" id="Stroke-29" stroke="#A60206" stroke-width="1.548" fill="none" stroke-linecap="round" stroke-linejoin="round"></path>
                            <path d="M176.625508,223.016128 C176.892737,223.085415 177.053187,223.358092 176.983864,223.625182 C176.914541,223.892272 176.641721,224.053196 176.374492,223.983909 C176.107263,223.914622 175.946813,223.641945 176.016136,223.374296 C176.085459,223.107207 176.35772,222.946841 176.625508,223.016128 Z" id="Stroke-31" stroke="#A60206" stroke-width="1.548" fill="none" stroke-linecap="round" stroke-linejoin="round"></path>
                            <path d="M173.62516,222.016128 C173.892799,222.085415 174.053159,222.358092 173.983875,222.625182 C173.91459,222.892272 173.641922,223.053196 173.374283,222.983909 C173.107203,222.914622 172.946843,222.641945 173.016127,222.374296 C173.085412,222.107207 173.35808,221.946841 173.62516,222.016128 Z" id="Stroke-33" stroke="#A60206" stroke-width="1.548" fill="none" stroke-linecap="round" stroke-linejoin="round"></path>
                            <path d="M168.62516,221.016131 C168.892799,221.085431 169.053159,221.358159 168.983875,221.625299 C168.91459,221.892439 168.641364,222.052834 168.374283,221.984093 C168.107203,221.914793 167.946843,221.642065 168.016127,221.374366 C168.085412,221.107227 168.35808,220.946831 168.62516,221.016131 Z" id="Stroke-35" stroke="#A60206" stroke-width="1.548" fill="none" stroke-linecap="round" stroke-linejoin="round"></path>
                            <path d="M319,171 L312,178" id="Stroke-41" stroke="#A60206" stroke-width="2" fill="none" stroke-linecap="round"></path>
                            <path d="M312,171 L319,178" id="Stroke-43" stroke="#A60206" stroke-width="2" fill="none" stroke-linecap="round"></path>
                            <path d="M206,204 L199,211" id="Stroke-45" stroke="#A60206" stroke-width="2" fill="none" stroke-linecap="round"></path>
                            <path d="M199,204 L206,211" id="Stroke-47" stroke="#A60206" stroke-width="2" fill="none" stroke-linecap="round"></path>
                            <path d="M281,48 L274,55" id="Stroke-49" stroke="#A60206" stroke-width="2" fill="none" stroke-linecap="round"></path>
                            <path d="M274,48 L281,55" id="Stroke-51" stroke="#A60206" stroke-width="2" fill="none" stroke-linecap="round"></path>
                            <path d="M136,60 L129,67" id="Stroke-53" stroke="#A60206" stroke-width="2" fill="none" stroke-linecap="round"></path>
                            <path d="M129,60 L136,67" id="Stroke-55" stroke="#A60206" stroke-width="2" fill="none" stroke-linecap="round"></path>
                            <path d="M127.852488,204.543983 L126.112917,202.482516 C125.883442,202.211308 125.926376,201.81197 126.209149,201.591302 L127.510496,200.575517 C127.912448,200.261599 127.798451,199.645152 127.30915,199.484278 L119.872669,197.034862 C119.412237,196.883242 118.945884,197.2477 119.005104,197.711815 L119.9689,205.213817 C120.032561,205.707829 120.635859,205.94131 121.037811,205.628103 L122.339899,204.611607 C122.621931,204.39165 123.037208,204.432937 123.266683,204.704145 L125.006254,206.765612 C125.235729,207.037532 125.650265,207.078818 125.933038,206.85815 L127.756257,205.435197 C128.03903,205.214529 128.081964,204.815903 127.852488,204.543983" id="Fill-57" stroke="none" fill="#A60206" fill-rule="evenodd"></path>
                            <path d="M242.85249,96.5439826 L241.112201,94.4825159 C240.883469,94.2113077 240.926403,93.8119697 241.209172,93.5913017 L242.510502,92.5755168 C242.912449,92.2615987 242.798453,91.6451518 242.309159,91.4842777 L234.872772,89.0348623 C234.412347,88.883242 233.94526,89.2477002 234.005219,89.7118149 L234.969003,97.213817 C235.032663,97.7078287 235.635953,97.9420215 236.0379,97.6281034 L237.339971,96.6116067 C237.622,96.3916505 238.037271,96.4329368 238.266743,96.7041449 L240.006292,98.7656117 C240.235765,99.0375317 240.650295,99.0788179 240.933065,98.8581499 L242.75626,97.4351968 C243.039029,97.2145288 243.081963,96.8159026 242.85249,96.5439826" id="Fill-61" stroke="none" fill="#A60206" fill-rule="evenodd"></path>
                            <path d="M298.745705,116.642859 C297.286241,124.234467 289.948338,129.20568 282.356804,127.745477 C274.765995,126.285998 269.794831,118.948749 271.254295,111.357141 C272.713759,103.765533 280.051662,98.7943198 287.643196,100.254523 C295.234005,101.714002 300.205169,109.051251 298.745705,116.642859 Z" id="Stroke-63" stroke="#A60206" stroke-width="1.548" fill="none" stroke-linecap="round" stroke-linejoin="round"></path>
                            <path d="M286,101 L281,128" id="Stroke-65" stroke="#A60206" stroke-width="1.548" fill="none" stroke-linecap="round" stroke-linejoin="round"></path>
                            <path d="M287,100 C287,100 278.36433,101.076812 276.328436,111.901152 C274.354489,122.400954 281.923142,127 281.923142,127" id="Stroke-67" stroke="#A60206" stroke-width="1.548" fill="none" stroke-linecap="round" stroke-linejoin="round"></path>
                            <path d="M278,101 C279.723313,102.580635 282.182602,103.989156 285.685626,104.668478 C289.068193,105.324617 291.8241,104.936132 294,104.120524" id="Stroke-69" stroke="#A60206" stroke-width="1.548" fill="none" stroke-linecap="round" stroke-linejoin="round"></path>
                            <path d="M274,122.887116 C276.17992,122.057203 278.980686,121.666322 282.482339,122.351071 C285.862885,123.012453 288.280146,124.415942 290,126" id="Stroke-71" stroke="#A60206" stroke-width="1.548" fill="none" stroke-linecap="round" stroke-linejoin="round"></path>
                            <path d="M288.167333,100 C288.167333,100 295.711469,104.231805 293.640002,115.056146 C291.630169,125.555948 283,127 283,127" id="Stroke-73" stroke="#A60206" stroke-width="1.548" fill="none" stroke-linecap="round" stroke-linejoin="round"></path>
                            <path d="M271,111 L298,116" id="Stroke-75" stroke="#A60206" stroke-width="1.548" fill="none" stroke-linecap="round" stroke-linejoin="round"></path>
                            <path d="M295,127.907684 C295,127.907684 306.443906,129.090614 308.639675,122.987519 C310.835444,116.884424 302.278174,114 302.278174,114" id="Stroke-77" stroke="#A60206" stroke-width="1.548" fill="none" stroke-linecap="round" stroke-linejoin="round"></path>
                            <path d="M304,114 L302.21933,114.507088 C302.035408,114.559433 301.950457,114.7012 302.029634,114.822792 L302.796667,116" id="Stroke-79" stroke="#A60206" stroke-width="1.548" fill="none" stroke-linecap="round" stroke-linejoin="round"></path>
                            <path d="M294,126.981334 C294,126.981334 308.535325,127.505387 306.866571,123" id="Stroke-81" stroke="#A60206" stroke-width="1.548" fill="none" stroke-linecap="round" stroke-linejoin="round"></path>
                            <path d="M184,26.3556135 L184.313616,23.7729099 C184.447733,22.6730037 185.475962,21.8841555 186.606471,22.0139826 L214.177625,25.1865101 C215.308812,25.3163372 216.119608,26.3173902 215.985492,27.4172964 L215.671875,30 L184,26.3556135 Z" id="Fill-83" stroke="none" fill="#C00418" fill-rule="evenodd"></path>
                            <path d="M211.725373,50.0874603 C211.659202,50.6534357 211.151891,51.0599027 210.594263,50.9927412 L182.898953,47.6682476 C182.341324,47.6010861 181.941541,47.0861814 182.007023,46.520206 L184.28234,27 L214,30.5679539 L211.725373,50.0874603 Z" id="Stroke-85" stroke="#A60206" stroke-width="1.548" fill="none" stroke-linecap="round" stroke-linejoin="round"></path>
                            <path d="M194.80521,32.0108267 L202.574429,32.8967416 C203.458653,32.9973085 204.093673,33.7727321 203.988637,34.6255657 C203.884288,35.4783994 203.0797,36.0897402 202.19479,35.9891733 L194.425571,35.1032584 C193.541347,35.0026915 192.906327,34.2266063 193.011363,33.3744343 C193.115712,32.5216006 193.9203,31.9102598 194.80521,32.0108267 Z" id="Stroke-87" stroke="#A60206" stroke-width="1.548" fill="none" stroke-linecap="round" stroke-linejoin="round"></path>
                            <polygon id="Stroke-89" stroke="#A60206" stroke-width="1.548" fill="none" stroke-linecap="round" stroke-linejoin="round" points="190.691031 39 205 40.5725366 204.308969 46 190 44.4274634"></polygon>
                            <path d="M203.320193,43.0749895 L202.861262,43.0067515 C202.437866,42.9442001 202.055298,43.3232998 202.005397,43.8530917 C201.955497,44.3819359 202.257167,44.8624448 202.679807,44.9249962 L203.138738,44.9932342 C203.561378,45.0557857 203.944702,44.6776337 203.994603,44.1478418 C204.044503,43.6180499 203.742833,43.1375409 203.320193,43.0749895 Z" id="Stroke-91" stroke="#A60206" stroke-width="1.548" fill="none" stroke-linecap="round" stroke-linejoin="round"></path>
                            <path d="M199.396539,43.6603147 L193.763849,43.0046986 C193.389007,42.9611668 193.049034,43.2249962 193.004777,43.5936978 C192.96052,43.9623993 193.228744,44.2961435 193.602915,44.340335 L199.236276,44.9952914 C199.611118,45.0388233 199.950421,44.7756535 199.995348,44.4069519 C200.038934,44.0382503 199.771382,43.7038465 199.396539,43.6603147 Z" id="Stroke-93" stroke="#A60206" stroke-width="1.548" fill="none" stroke-linecap="round" stroke-linejoin="round"></path>
                            <path d="M84,46 L72.4680599,43.4648398 C71.5434885,43.2576459 70.8101839,42.5446757 70.5733444,41.6147449 L68.0772087,31.7078078 C67.8500362,30.8057819 68.1324482,29.8486438 68.8153468,29.2186907 L77.7013139,21 L84,46 Z" id="Fill-99" stroke="none" fill="#C00418" fill-rule="evenodd"></path>
                            <path d="M81,19.0927306 C82.3321388,18.7242852 83.8347341,19.4755124 84.2121734,20.9600465 L86.3385821,29.305264 L87.8691093,35.3244009 L89.9188842,43.3857577 C90.1788661,44.4165448 89.7913999,45.4000217 89.0780611,46" id="Stroke-101" stroke="#A60206" stroke-width="1.548" fill="none" stroke-linecap="round" stroke-linejoin="round"></path>
                            <path d="M88.787,46.3415 C88.609,46.4735 88.417,46.5725 88.213,46.6585" id="Stroke-103" stroke="#A60206" stroke-width="1.548" fill="none" stroke-linecap="round" stroke-linejoin="round"></path>
                            <path d="M86,29.2228246 L86.0329299,29.2138805 L86.5991815,29.0728396 C87.9221054,28.7508534 89.2815387,29.5269227 89.6165649,30.7976673 L89.9236722,31.9548912 C90.2594143,33.2256359 89.4562105,34.5280288 88.1297072,34.854831 L87.5627397,34.9910559 L87.5298098,35" id="Stroke-105" stroke="#A60206" stroke-width="1.548" fill="none" stroke-linecap="round" stroke-linejoin="round"></path>
                            <path d="M85,46.2456776 L85.0041056,46.2656776 L86.08739,46.6676776 C86.4046921,46.7866776 86.713783,46.7796776 87,46.6676776" id="Stroke-107" stroke="#A60206" stroke-width="1.548" fill="none" stroke-linecap="round" stroke-linejoin="round"></path>
                            <path d="M79.0054967,20 L79,19.9898939 L80.0467216,19.3734209 C80.3364743,19.2036382 80.6576364,19.0803436 81,19" id="Stroke-109" stroke="#A60206" stroke-width="1.548" fill="none" stroke-linecap="round" stroke-linejoin="round"></path>
                            <path d="M90,27 C90,27 94.803274,29.4344484 92.2542497,35" id="Stroke-113" stroke="#A60206" stroke-width="1.548" fill="none" stroke-linecap="round" stroke-linejoin="round"></path>
                            <path d="M93,19 L94,18" id="Stroke-115" stroke="#A60206" stroke-width="1.548" fill="none" stroke-linecap="round" stroke-linejoin="round"></path>
                            <path d="M99,25.8135 L100,25.1865" id="Stroke-121" stroke="#A60206" stroke-width="1.548" fill="none" stroke-linecap="round" stroke-linejoin="round"></path>
                            <path d="M103,24 L107,23" id="Stroke-123" stroke="#A60206" stroke-width="1.548" fill="none" stroke-linecap="round" stroke-linejoin="round" stroke-dasharray="3.795,3.795"></path>
                            <path d="M108,22.8135 L109,22.1865" id="Stroke-125" stroke="#A60206" stroke-width="1.548" fill="none" stroke-linecap="round" stroke-linejoin="round"></path>
                            <path d="M100,37.432 L101,37.568" id="Stroke-127" stroke="#A60206" stroke-width="1.548" fill="none" stroke-linecap="round" stroke-linejoin="round"></path>
                            <path d="M103,37.339 L106,37.661" id="Stroke-129" stroke="#A60206" stroke-width="1.548" fill="none" stroke-linecap="round" stroke-linejoin="round" stroke-dasharray="3.06,3.06"></path>
                            <path d="M108,37.432 L109,37.568" id="Stroke-131" stroke="#A60206" stroke-width="1.548" fill="none" stroke-linecap="round" stroke-linejoin="round"></path>
                            <polygon id="Fill-139" stroke="none" fill="#C00418" fill-rule="evenodd" points="118.251585 139 194.63823 149.55202 200 164 109 151.428749"></polygon>
                            <path d="M200.318975,88.0538601 L130.162696,78.0847803 C125.524206,77.4257028 121.217843,80.6814042 120.562052,85.3431379 L113.68964,134.193542 L101.878344,150.514571 C101.865652,150.533705 101.864241,150.53654 101.862126,150.540792 C101.825458,150.591818 101.792316,150.64426 101.761289,150.699538 C101.753532,150.713712 101.745776,150.728594 101.738724,150.743476 C101.714044,150.790958 101.690774,150.839858 101.67103,150.890174 C101.665388,150.903639 101.659042,150.917104 101.653401,150.931987 C101.630131,150.99506 101.608976,151.05955 101.592758,151.125458 C101.57936,151.182153 101.568077,151.23743 101.560321,151.294834 L101.084343,154.676681 C100.428552,159.337706 103.668725,163.666358 108.30651,164.325435 L196.907449,176.915234 C201.545939,177.574312 205.852302,174.317902 206.508094,169.656877 L206.984071,166.275029 C206.991828,166.218334 206.996059,166.161639 206.998879,166.104945 C207.0017,166.035493 206.998879,165.96746 206.993943,165.900843 C206.992533,165.884543 206.990418,165.869661 206.989007,165.855487 C206.983366,165.801627 206.974904,165.748476 206.964327,165.696033 C206.961506,165.679733 206.957981,165.663434 206.95516,165.647134 C206.940352,165.585478 206.922723,165.525949 206.901569,165.466419 C206.900158,165.462876 206.900158,165.458623 206.898043,165.453663 C206.893107,165.437363 200.047491,146.464433 200.047491,146.464433 L206.906505,97.7068662" id="Stroke-141" stroke="#A60206" stroke-width="2" fill="none" stroke-linecap="round" stroke-linejoin="round"></path>
                            <path d="M216.506889,88 L216.99362,84.3114517 C217.043506,83.9297282 216.795422,83.5754772 216.439475,83.521978 L213,83" id="Stroke-143" stroke="#A60206" stroke-width="2" fill="none" stroke-linecap="round" stroke-linejoin="round"></path>
                            <path d="M124,129 L154.630389,105.99113 L165.325088,120.189414 C165.890459,120.939626 166.957597,121.089951 167.709541,120.526057 L215,85" id="Stroke-145" stroke="#A60206" stroke-width="2" fill="none" stroke-linecap="round" stroke-linejoin="round"></path>
                            <path d="M147,152 L162,154" id="Stroke-147" stroke="#A60206" stroke-width="2" fill="none" stroke-linecap="round" stroke-linejoin="round"></path>
                            <path d="M200,102.372881 L194.360074,142 L123.86526,132.097459 C121.407925,131.752728 119.697176,129.492903 120.044871,127.051528 L125.636448,87.7606637 C126.067334,84.734377 128.885876,82.6271377 131.931948,83.0552259 L195.199805,91.9426471" id="Stroke-149" stroke="#A60206" stroke-width="2" fill="none" stroke-linecap="round" stroke-linejoin="round"></path>
                            <path d="M270.924401,201.583383 C269.661541,201.711632 268.488435,201.162187 267.785132,200.244871 C267.300603,201.283011 266.267036,202.055203 265.007682,202.182777 C263.748328,202.311026 262.570313,201.762256 261.873321,200.844265 C261.383884,201.882405 260.355224,202.654597 259.091663,202.782846 C257.832309,202.91042 256.653593,202.36165 255.956601,201.444334 C255.472072,202.481799 254.438505,203.254666 253.174943,203.38224 C251.91559,203.509813 250.737575,202.961719 250.039881,202.043728 C249.551146,203.081868 248.521785,203.85406 247.262431,203.981634 C245.375504,204.172657 243.680004,202.851695 243.482266,201.040013 L243.002645,196.655258 C242.997036,196.604633 242.999841,196.546584 243.015968,196.492584 L244.611898,190.883391 C244.660982,190.707218 244.819453,190.576944 245.009478,190.557369 L270.218995,188.00252 C270.40902,187.982945 270.593435,188.078794 270.67828,188.241468 L273.452926,193.407191 C273.481675,193.45714 273.495699,193.513165 273.501309,193.564464 L273.980929,197.948545 C274.179368,199.760226 272.80642,201.39236 270.924401,201.583383" id="Fill-189" stroke="none" fill="#C00418" fill-rule="evenodd"></path>
                            <path d="M271.512472,202 L272.988393,216.247988 C273.108861,217.4085 272.277844,218.446584 271.135917,218.56828 L248.52533,220.988275 C247.386288,221.109971 246.361223,220.270561 246.240755,219.110048 L245,207.134701" id="Stroke-191" stroke="#A60206" stroke-width="1.548" fill="none" stroke-linecap="round" stroke-linejoin="round"></path>
                            <path d="M259.577459,220.29566 L252.749006,220.997467 C252.490748,221.024003 252.256099,220.83895 252.229629,220.587556 L251.002725,209.216195 C250.974825,208.959913 251.164405,208.730866 251.422662,208.70433 L258.251116,208.002523 C258.509373,207.975988 258.742593,208.161739 258.770493,208.418021 L259.997397,219.789382 C260.024582,220.040077 259.835717,220.269124 259.577459,220.29566 Z" id="Stroke-193" stroke="#A60206" stroke-width="1.548" fill="none" stroke-linecap="round" stroke-linejoin="round"></path>
                            <path d="M269.607628,212.253135 L262.096774,212.997623 C261.851957,213.022043 261.63508,212.855488 261.6098,212.626319 L261.002412,207.202012 C260.977132,206.97159 261.153427,206.770597 261.39758,206.746177 L268.908433,206.002315 C269.147264,205.978522 269.364806,206.140694 269.390751,206.370489 L269.997474,211.795422 C270.023419,212.023966 269.846458,212.229342 269.607628,212.253135 Z" id="Stroke-195" stroke="#A60206" stroke-width="1.548" fill="none" stroke-linecap="round" stroke-linejoin="round"></path>
                        </g>
                    </g>
                </g>
            </g>
        </g>
    </g>
</svg>