<?xml version="1.0" encoding="UTF-8"?>
<svg width="16px" height="18px" viewBox="0 0 16 18" version="1.1" xmlns="http://www.w3.org/2000/svg" xmlns:xlink="http://www.w3.org/1999/xlink">
    <!-- Generator: Sketch 59 (86127) - https://sketch.com -->
    <title>medal</title>
    <desc>Created with Sketch.</desc>
    <g id="Page-1" stroke="none" stroke-width="1" fill="none" fill-rule="evenodd">
        <g id="medal" transform="translate(1.000000, 1.000000)" fill="#484D4F" fill-rule="nonzero" stroke="#484D4F" stroke-width="0.5">
            <path d="M13.9530563,13.3140776 L11.5452203,9.20619638 C11.7892577,9.09559958 11.9356802,8.84280689 11.919411,8.55841511 L11.7404502,7.10485713 L12.7654075,6.06208727 C12.9931757,5.84089366 13.0094449,5.46170462 12.7816766,5.19311239 L11.7567194,4.11874344 L11.9682185,2.64938592 C12.0007568,2.33339505 11.7729885,2.01740418 11.4476053,1.95420601 L9.96711149,1.66981423 L9.25126833,0.390051225 C9.10484587,0.0898599025 8.74692429,-0.0365364439 8.42154103,0.0898599025 L8.40527187,0.0898599025 L7.03866221,0.706042091 L5.70459087,0.0740603592 C5.55816841,-0.00493735728 5.37920762,-0.0207369006 5.21651599,0.0266617293 C5.05382437,0.0740603592 4.92367106,0.184657162 4.84232525,0.326853052 L4.11021293,1.60661606 L2.62971913,1.85940875 C2.28806671,1.92260692 2.06029844,2.22279825 2.09283676,2.5703882 L2.27179755,4.02394618 L1.2468403,5.06671604 C1.01907203,5.28790965 1.00280287,5.66709869 1.23057114,5.93569092 L2.25552839,7.01005987 L2.04402927,8.47941739 C2.01149095,8.76380917 2.19045174,9.03240141 2.4670275,9.14299821 L0.0429222687,13.3140776 C-0.0221543819,13.4088749 -0.00588521926,13.5352712 0.0429222687,13.6300685 C0.107998919,13.7248658 0.205613895,13.7880639 0.319498034,13.7880639 L2.92256406,13.7880639 L4.11021293,15.7946059 C4.17528958,15.8894032 4.27290456,15.9526014 4.3867887,15.9526014 C4.50067284,15.9526014 4.61455697,15.8894032 4.66336446,15.7946059 L6.98985472,11.9395174 L9.31634498,15.8420046 C9.38142163,15.9368018 9.47903661,16 9.59292075,16 C9.70680488,16 9.82068902,15.9368018 9.86949651,15.8420046 L11.0571454,13.7880639 L13.6602114,13.7880639 C13.7740955,13.7880639 13.8879797,13.7248658 13.9367872,13.6300685 C14.018133,13.5352712 14.018133,13.4088749 13.9530563,13.3140776 Z M4.40305786,15.0046288 L3.39436978,13.3140776 C3.32929312,13.2192804 3.23167815,13.1560822 3.11779401,13.1560822 L0.872649564,13.1560822 L3.11779401,9.30099364 L4.04513628,9.45898908 L4.76097944,10.7387521 C4.9074019,11.0389434 5.26532348,11.1653398 5.59070673,11.0389434 L5.6069759,11.0389434 L6.27401156,10.7387521 L6.59939482,11.2917361 L4.40305786,15.0046288 Z M5.34666929,10.4701598 C5.33040013,10.4701598 5.33040013,10.4701598 5.33040013,10.4701598 L4.61455697,9.15879775 C4.516942,9.00080232 4.35425037,8.87440597 4.15902042,8.85860643 L2.66225746,8.59001419 L2.87375657,7.13645621 C2.9062949,6.94686169 2.84121824,6.74146763 2.71106494,6.61507128 L1.70237686,5.54070234 L2.72733411,4.49793248 C2.87375657,4.35573659 2.93883322,4.16614207 2.9062949,3.97654755 L2.72733411,2.53878911 C2.72733411,2.53878911 2.72733411,2.52298957 2.74360327,2.50719003 L4.22409707,2.25439733 C4.40305786,2.22279825 4.58201865,2.11220144 4.67963362,1.93840647 L5.41174594,0.658643461 L6.74581728,1.29062519 C6.92477807,1.38542245 7.15254635,1.38542245 7.33150714,1.29062519 L8.68184764,0.690242548 C8.6981168,0.690242548 8.6981168,0.690242548 8.6981168,0.690242548 L9.41395996,2.00160464 C9.51157493,2.15960007 9.67426656,2.28599642 9.85322735,2.30179596 L11.3337211,2.58618774 L11.122222,4.03974573 C11.0896837,4.22934025 11.1547604,4.43473431 11.2849137,4.56113065 L12.3098709,5.6354996 L11.2686445,6.67826946 C11.122222,6.82046535 11.0571454,7.01005987 11.0896837,7.19965438 L11.2686445,8.65321237 L9.80441986,8.89020552 C9.62545907,8.9218046 9.44649828,9.03240141 9.34888331,9.20619638 L8.61677099,10.4859594 L7.28269965,9.85397766 C7.10373886,9.7591804 6.87597058,9.7591804 6.69700979,9.85397766 L5.34666929,10.4701598 Z M10.8944538,9.34839227 L13.123329,13.1560822 L10.8781846,13.1560822 C10.7643005,13.1560822 10.6504163,13.2192804 10.6016088,13.3140776 L9.59292075,15.0520274 L7.29896881,11.1969388 C7.28269965,11.1495402 7.26643049,11.1179411 7.23389216,11.086342 L6.87597058,10.4701598 L6.98985472,10.4227612 L8.32392606,11.0547429 C8.42154103,11.1021416 8.51915601,11.1179411 8.61677099,11.1179411 C8.84453926,11.1179411 9.07230754,11.0073443 9.18619168,10.8019503 L9.918304,9.52218725 L10.8944538,9.34839227 Z M7.285,3.475 L7.285,7 L6.895,7 L6.895,3.885 L6.235,4.09 L6.14,3.77 L6.995,3.475 L7.285,3.475 Z" id="Shape"></path>
        </g>
    </g>
</svg>