<?xml version="1.0" encoding="UTF-8"?>
<svg width="18px" height="16px" viewBox="0 0 18 16" version="1.1" xmlns="http://www.w3.org/2000/svg" xmlns:xlink="http://www.w3.org/1999/xlink">
    <!-- Generator: Sketch 55.2 (78181) - https://sketchapp.com -->
    <title>Group</title>
    <desc>Created with Sketch.</desc>
    <g id="Page-1" stroke="none" stroke-width="1" fill="none" fill-rule="evenodd">
        <g id="01.Home" transform="translate(-886.000000, -92.000000)" fill="#FFFFFF" fill-rule="nonzero">
            <g id="Group-10">
                <g id="Group-7" transform="translate(886.000000, 85.000000)">
                    <g id="Group" transform="translate(0.000000, 7.000000)">
                        <g id="Group-3">
                            <g id="shopping-cart-(1)">
                                <path d="M17.8917357,2.81747848 C17.7935385,2.6899383 17.6419553,2.61523322 17.4813821,2.61523322 L4.28775961,2.61523322 L3.71150807,0.389702242 C3.65210568,0.160171579 3.44575327,0 3.20952679,0 L0.518647137,0 C0.232215612,0 0,0.233140946 0,0.520713846 C0,0.808286746 0.232215612,1.04142769 0.518647137,1.04142769 L2.80843967,1.04142769 L3.38469122,3.26695867 L5.41654324,11.1103672 C5.47594563,11.3398284 5.68229804,11.5 5.91845537,11.5 L15.4492535,11.5 C15.6854108,11.5 15.8917632,11.3398284 15.9511656,11.1103672 L17.9832251,3.26695867 C18.0237487,3.11102223 17.9899329,2.94494923 17.8917357,2.81747848 Z M8.15154248,10.4586417 L6.31954249,10.4586417 L5.91209329,8.88594707 L8.15154248,8.88594707 L8.15154248,10.4586417 L8.15154248,10.4586417 Z M8.15154248,7.84444995 L5.64232763,7.84444995 L5.23467098,6.27071385 L8.15154248,6.27071385 L8.15154248,7.84444995 L8.15154248,7.84444995 Z M8.15154248,5.22928615 L4.96483616,5.22928615 L4.55745612,3.65666091 L8.15154248,3.65666091 L8.15154248,5.22928615 Z M12.1791487,10.4586417 L9.18883675,10.4586417 L9.18883675,8.88594707 L12.1791487,8.88594707 L12.1791487,10.4586417 Z M12.1791487,7.84444995 L9.18883675,7.84444995 L9.18883675,6.27071385 L12.1791487,6.27071385 L12.1791487,7.84444995 Z M12.1791487,5.22928615 L9.18883675,5.22928615 L9.18883675,3.65666091 L12.1791487,3.65666091 L12.1791487,5.22928615 Z M15.0483047,10.4586417 L13.216443,10.4586417 L13.216443,8.88594707 L15.4557538,8.88594707 L15.0483047,10.4586417 Z M15.7255887,7.84444995 L13.216443,7.84444995 L13.216443,6.27071385 L16.1333145,6.27071385 L15.7255887,7.84444995 Z M16.4031493,5.22928615 L13.2165121,5.22928615 L13.2165121,3.65666091 L16.8106676,3.65666091 L16.4031493,5.22928615 Z" id="Shape"></path>
                                <path d="M7.5000365,12 C6.39722765,12 5.5,12.8971621 5.5,13.9998175 C5.5,15.1026919 6.39722765,16 7.5000365,16 C8.60277235,16 9.5,15.1026919 9.5,13.9998175 C9.5,12.8971621 8.60284536,12 7.5000365,12 Z M7.5000365,14.9050096 C7.00104944,14.9050096 6.59507036,14.4989141 6.59507036,13.9998175 C6.59507036,13.5008669 7.00104944,13.0949904 7.5000365,13.0949904 C7.99895056,13.0949904 8.40492964,13.5009399 8.40492964,13.9998175 C8.40492964,14.4989871 7.99902356,14.9050096 7.5000365,14.9050096 Z" id="Shape"></path>
                                <path d="M13.999854,12 C12.8971308,12 12,12.8971621 12,13.9998175 C12,15.1026919 12.8971308,16 13.999854,16 C15.1027962,16 16,15.1026919 16,13.9998175 C16,12.8971621 15.1027232,12 13.999854,12 Z M13.999854,14.9050096 C13.5009856,14.9050096 13.0951303,14.4989141 13.0951303,13.9998175 C13.0951303,13.5008669 13.5009856,13.0949904 13.999854,13.0949904 C14.4989414,13.0949904 14.9048697,13.5009399 14.9048697,13.9998175 C14.9048697,14.4989871 14.4988684,14.9050096 13.999854,14.9050096 Z" id="Shape"></path>
                            </g>
                        </g>
                    </g>
                </g>
            </g>
        </g>
    </g>
</svg>