<?xml version="1.0" encoding="UTF-8"?>
<svg width="176px" height="161px" viewBox="0 0 176 161" version="1.1" xmlns="http://www.w3.org/2000/svg" xmlns:xlink="http://www.w3.org/1999/xlink">
    <!-- Generator: Sketch 61.2 (89653) - https://sketch.com -->
    <title>noun_Gears_2344845</title>
    <desc>Created with Sketch.</desc>
    <g id="Flujos" stroke="none" stroke-width="1" fill="none" fill-rule="evenodd">
        <g id="02" transform="translate(-482.000000, -284.000000)">
            <g id="noun_Gears_2344845" transform="translate(483.000000, 284.000000)">
                <g id="Group">
                    <path d="M57.6430976,56.026936 C60.3367003,57.1043771 63.030303,58.1818182 65.7239057,59.2592593 L75.959596,51.7171717 C76.4983165,51.1784512 77.5757576,51.1784512 78.1144781,51.7171717 L86.7340067,59.7979798 C87.2727273,60.3367003 87.2727273,61.4141414 86.7340067,62.4915825 L78.6531987,72.7272727 C80.2693603,75.4208754 81.3468013,77.5757576 81.8855219,80.8080808 L94.8148148,82.4242424 C95.8922559,82.4242424 96.4309764,82.962963 96.4309764,84.040404 L96.4309764,95.8922559 C96.4309764,96.969697 95.8922559,97.5084175 94.8148148,97.5084175 L81.8855219,99.1245791 C81.3468013,102.356902 80.2693603,105.050505 78.6531987,107.205387 L86.7340067,117.441077 C87.2727273,118.518519 87.2727273,119.59596 86.7340067,120.13468 L78.1144781,128.215488 C77.5757576,128.754209 76.4983165,128.754209 75.959596,128.215488 L65.7239057,120.673401 C63.030303,121.750842 60.3367003,122.828283 57.6430976,123.905724 L56.026936,136.835017 C56.026936,137.373737 54.9494949,138.451178 54.4107744,138.451178 L42.5589226,138.451178 C41.4814815,138.451178 40.9427609,137.373737 40.9427609,136.835017 L38.7878788,123.905724 C36.0942761,122.828283 33.4006734,121.750842 31.2457912,120.673401 L20.4713805,128.215488 C19.9326599,128.754209 18.8552189,128.754209 18.3164983,128.215488 L10.2356902,120.13468 C9.15824916,119.59596 9.15824916,118.518519 9.6969697,117.441077 L17.7777778,107.205387 C16.1616162,105.050505 15.0841751,102.356902 14.5454545,99.1245791 L1.61616162,97.5084175 C0.538720539,97.5084175 0,96.969697 0,95.8922559 L0,84.040404 C0,82.962963 0.538720539,82.4242424 1.61616162,82.4242424 L14.5454545,80.8080808 C15.0841751,77.5757576 16.1616162,75.4208754 17.7777778,72.7272727 L9.6969697,62.4915825 C9.15824916,61.4141414 9.15824916,60.3367003 10.2356902,59.7979798 L18.3164983,51.7171717 C18.8552189,51.1784512 19.9326599,51.1784512 20.4713805,51.7171717 L31.2457912,59.2592593 C33.4006734,58.1818182 36.0942761,57.1043771 38.7878788,56.026936 L40.9427609,43.0976431 C40.9427609,42.5589226 41.4814815,41.4814815 42.5589226,41.4814815 L54.4107744,41.4814815 C54.9494949,41.4814815 56.026936,42.5589226 56.026936,43.0976431 L57.6430976,56.026936 Z M48.4848485,68.4175084 C60.3367003,68.4175084 70.03367,78.1144781 70.03367,89.96633 C70.03367,101.818182 60.3367003,111.515152 48.4848485,111.515152 C36.0942761,111.515152 26.3973064,101.818182 26.3973064,89.96633 C26.3973064,78.1144781 36.0942761,68.4175084 48.4848485,68.4175084 Z" id="Shape" stroke="#484D4F" stroke-width="2" fill="#78B928"></path>
                    <path d="M139.52862,12.9292929 C142.222222,13.4680135 144.377104,14.5454545 146.531987,16.1616162 L155.690236,8.61952862 C156.767677,8.08080808 157.306397,8.61952862 157.845118,9.15824916 L165.387205,16.1616162 C165.925926,17.2390572 165.925926,17.7777778 165.387205,18.3164983 L158.383838,28.013468 C160,30.1683502 160.538721,32.3232323 161.616162,35.016835 L172.929293,36.6329966 C174.006734,36.6329966 174.545455,37.1717172 174.545455,38.2491582 L174.545455,48.4848485 C174.545455,49.5622896 174.006734,50.1010101 172.929293,50.1010101 L161.616162,51.7171717 C160.538721,54.4107744 160,56.5656566 158.383838,58.7205387 L165.387205,68.4175084 C165.925926,68.956229 165.925926,69.4949495 165.387205,70.03367 L157.845118,77.5757576 C157.306397,78.1144781 156.767677,78.1144781 155.690236,78.1144781 L146.531987,70.5723906 C144.377104,72.1885522 142.222222,72.7272727 139.52862,73.8047138 L137.912458,85.1178451 C137.912458,86.1952862 137.373737,86.7340067 136.296296,86.7340067 L126.060606,86.7340067 C124.983165,86.7340067 124.444444,86.1952862 124.444444,85.1178451 L122.828283,73.8047138 C120.13468,73.2659933 117.979798,72.1885522 115.824916,70.5723906 L106.127946,78.1144781 C105.589226,78.1144781 104.511785,78.1144781 103.973064,77.5757576 L96.969697,70.03367 C95.8922559,69.4949495 95.8922559,68.956229 96.4309764,68.4175084 L103.973064,58.7205387 C102.356902,56.5656566 101.279461,54.4107744 100.740741,51.7171717 L88.8888889,50.1010101 C88.3501684,50.1010101 87.8114478,49.5622896 87.8114478,48.4848485 L87.8114478,38.2491582 C87.8114478,37.1717172 88.3501684,36.6329966 88.8888889,36.6329966 L100.740741,35.016835 C101.279461,32.3232323 102.356902,30.1683502 103.973064,28.013468 L96.4309764,18.3164983 C95.8922559,17.7777778 95.8922559,17.2390572 96.969697,16.1616162 L103.973064,9.15824916 C104.511785,8.61952862 105.589226,8.08080808 106.127946,8.61952862 L115.824916,16.1616162 C117.979798,14.5454545 120.13468,13.4680135 122.828283,12.9292929 L124.444444,1.61616162 C124.444444,0.538720539 124.983165,0 126.060606,0 L136.296296,0 C137.373737,0 137.912458,0.538720539 137.912458,1.61616162 L139.52862,12.9292929 Z M130.909091,23.7037037 C141.683502,23.7037037 150.841751,32.3232323 150.841751,43.0976431 C150.841751,54.4107744 141.683502,63.030303 130.909091,63.030303 C120.13468,63.030303 111.515152,54.4107744 111.515152,43.0976431 C111.515152,32.3232323 120.13468,23.7037037 130.909091,23.7037037 Z" id="Shape" fill="#484D4F"></path>
                    <path d="M137.373737,103.973064 C139.52862,104.511785 141.144781,105.050505 142.760943,106.127946 L149.76431,100.740741 C150.30303,100.20202 150.841751,100.740741 151.380471,100.740741 L157.306397,106.666667 C157.306397,107.205387 157.845118,107.744108 157.306397,108.282828 L151.919192,115.286195 C152.996633,116.902357 153.535354,118.518519 154.074074,120.673401 L162.693603,121.750842 C163.232323,121.750842 163.771044,122.289562 163.771044,122.828283 L163.771044,130.909091 C163.771044,131.447811 163.232323,131.986532 162.693603,131.986532 L154.074074,133.063973 C153.535354,135.218855 152.996633,136.835017 151.919192,138.451178 L157.306397,145.993266 C157.845118,145.993266 157.306397,147.070707 157.306397,147.609428 L151.380471,152.996633 C150.841751,153.535354 150.30303,153.535354 149.76431,152.996633 L142.760943,147.609428 C141.144781,148.686869 139.52862,149.225589 137.373737,149.76431 L136.296296,158.922559 C136.296296,159.461279 135.757576,160 135.218855,160 L127.138047,160 C126.599327,160 126.060606,159.461279 126.060606,158.922559 L124.983165,149.76431 C122.828283,149.225589 121.212121,148.686869 119.59596,147.609428 L112.053872,152.996633 C112.053872,153.535354 110.976431,153.535354 110.43771,152.996633 L105.050505,147.609428 C104.511785,147.070707 104.511785,145.993266 105.050505,145.993266 L110.43771,138.451178 C109.360269,136.835017 108.821549,135.218855 108.282828,133.063973 L99.1245791,131.986532 C98.5858586,131.986532 98.047138,131.447811 98.047138,130.909091 L98.047138,122.828283 C98.047138,122.289562 98.5858586,121.750842 99.1245791,121.750842 L108.282828,120.673401 C108.821549,118.518519 109.360269,116.902357 110.43771,115.286195 L105.050505,108.282828 C104.511785,107.744108 104.511785,107.205387 105.050505,106.666667 L110.43771,100.740741 C110.976431,100.740741 112.053872,100.20202 112.053872,100.740741 L119.59596,106.127946 C121.212121,105.050505 122.828283,104.511785 124.983165,103.973064 L126.060606,95.3535354 C126.060606,94.8148148 126.599327,94.2760943 127.138047,94.2760943 L135.218855,94.2760943 C135.757576,94.2760943 136.296296,94.8148148 136.296296,95.3535354 L137.373737,103.973064 Z M130.909091,112.053872 C139.52862,112.053872 145.993266,118.518519 145.993266,127.138047 C145.993266,135.218855 139.52862,141.683502 130.909091,141.683502 C122.828283,141.683502 116.363636,135.218855 116.363636,127.138047 C116.363636,118.518519 122.828283,112.053872 130.909091,112.053872 Z" id="Shape" stroke="#484D4F" stroke-width="2" fill="#FFFFFF"></path>
                </g>
            </g>
        </g>
    </g>
</svg>