<?xml version="1.0" encoding="UTF-8"?>
<svg width="254px" height="228px" viewBox="0 0 254 228" version="1.1" xmlns="http://www.w3.org/2000/svg" xmlns:xlink="http://www.w3.org/1999/xlink">
    <!-- Generator: Sketch 56.3 (81716) - https://sketch.com -->
    <title>Group</title>
    <desc>Created with Sketch.</desc>
    <g id="Page-1" stroke="none" stroke-width="1" fill="none" fill-rule="evenodd">
        <g id="Historial_pedidos" transform="translate(-423.000000, -343.000000)" stroke="#484D4F">
            <g id="Group-5" transform="translate(179.000000, 149.000000)">
                <g id="Group" transform="translate(233.000000, 198.000000)">
                    <path d="M127.970297,118.712871 L193.316832,118.712871 C196.023574,118.712871 198.217822,120.907119 198.217822,123.613861 C198.217822,126.320603 196.023574,128.514851 193.316832,128.514851 L127.970297,128.514851 C125.263555,128.514851 123.069307,126.320603 123.069307,123.613861 C123.069307,120.907119 125.263555,118.712871 127.970297,118.712871 Z" id="Rectangle" stroke-width="2" fill="#78B928" transform="translate(160.643564, 123.613861) rotate(-15.000000) translate(-160.643564, -123.613861) "></path>
                    <g id="Group-4" transform="translate(172.227980, 66.100368)" fill="#78B928" stroke-width="3">
                        <path d="M2.83114974,7.89758149 L10.181093,15.2475248 L2.83114974,22.597468 C1.43209324,23.9965245 1.43209324,26.2648433 2.83114974,27.6638998 C4.23020624,29.0629563 6.498525,29.0629563 7.89758149,27.6638998 L15.2475248,20.3139565 L22.597468,27.6638998 C23.9965245,29.0629563 26.2648433,29.0629563 27.6638998,27.6638998 C29.0629563,26.2648433 29.0629563,23.9965245 27.6638998,22.597468 L20.3139565,15.2475248 L27.6638998,7.89758149 C29.0629563,6.498525 29.0629563,4.23020624 27.6638998,2.83114974 C26.2648433,1.43209324 23.9965245,1.43209324 22.597468,2.83114974 L15.2475248,10.181093 L7.89758149,2.83114974 C6.498525,1.43209324 4.23020624,1.43209324 2.83114974,2.83114974 C1.43209324,4.23020624 1.43209324,6.498525 2.83114974,7.89758149 Z" id="Combined-Shape"></path>
                    </g>
                    <g id="Group-4" transform="translate(117.772535, 66.100368)" fill="#78B928" stroke-width="3">
                        <path d="M2.83114974,7.89758149 L10.181093,15.2475248 L2.83114974,22.597468 C1.43209324,23.9965245 1.43209324,26.2648433 2.83114974,27.6638998 C4.23020624,29.0629563 6.498525,29.0629563 7.89758149,27.6638998 L15.2475248,20.3139565 L22.597468,27.6638998 C23.9965245,29.0629563 26.2648433,29.0629563 27.6638998,27.6638998 C29.0629563,26.2648433 29.0629563,23.9965245 27.6638998,22.597468 L20.3139565,15.2475248 L27.6638998,7.89758149 C29.0629563,6.498525 29.0629563,4.23020624 27.6638998,2.83114974 C26.2648433,1.43209324 23.9965245,1.43209324 22.597468,2.83114974 L15.2475248,10.181093 L7.89758149,2.83114974 C6.498525,1.43209324 4.23020624,1.43209324 2.83114974,2.83114974 C1.43209324,4.23020624 1.43209324,6.498525 2.83114974,7.89758149 Z" id="Combined-Shape"></path>
                    </g>
                    <path d="M15.5680947,4.54747351e-13 L42.7046629,4.54747351e-13 C44.9925603,4.57879785e-13 46.9885904,1.55290847 47.5511551,3.77056392 L85.9684961,155.213447 C86.5310608,157.431103 88.5270908,158.984011 90.8149883,158.984011 L225.900022,158.984011 C228.152302,158.984011 230.126575,157.478152 230.722084,155.306024 L260.17719,47.8681067 C260.907317,45.2049555 259.340292,42.4541593 256.677141,41.7240316 C256.246395,41.6059387 255.801768,41.5460935 255.355128,41.5460935 L59.6135277,41.5460935 C58.5692311,41.5460935 57.5511432,41.2191146 56.7021404,40.6110442" id="Path-4" stroke-width="8" stroke-linecap="round"></path>
                    <circle id="Oval" stroke-width="8" cx="105.09901" cy="197.673267" r="22.3267327"></circle>
                    <circle id="Oval" stroke-width="8" cx="207.475248" cy="197.673267" r="22.3267327"></circle>
                </g>
            </g>
        </g>
    </g>
</svg>