<?xml version="1.0" encoding="UTF-8"?>
<svg width="15px" height="16px" viewBox="0 0 15 16" version="1.1" xmlns="http://www.w3.org/2000/svg" xmlns:xlink="http://www.w3.org/1999/xlink">
    <!-- Generator: Sketch 55.2 (78181) - https://sketchapp.com -->
    <title>search (1)</title>
    <desc>Created with Sketch.</desc>
    <g id="Page-1" stroke="none" stroke-width="1" fill="none" fill-rule="evenodd">
        <g id="search-(1)" fill="#484D4F" fill-rule="nonzero">
            <path d="M5.248291,11.2468262 L7.37268066,11.2468262 L7.37268066,12.49646 L5.248291,12.49646 L5.248291,11.2468262 Z M3.90515137,11.0906982 C3.47375487,11.0906982 3.1241455,11.4403076 3.1241455,11.8717041 C3.1241455,12.3029785 3.47375487,12.65271 3.90515137,12.65271 C4.33654784,12.65271 4.68615722,12.3029785 4.68615722,11.8717041 C4.68615722,11.4403076 4.33654784,11.0906982 3.90515137,11.0906982 Z M11.55896,7.27917481 L5.248291,7.27917481 L5.248291,8.52880859 L11.55896,8.52880859 L11.55896,7.27917481 Z M3.90515137,7.12304687 C3.47375487,7.12304687 3.1241455,7.47265625 3.1241455,7.90405275 C3.1241455,8.33544922 3.47375487,8.68505859 3.90515137,8.68505859 C4.33654784,8.68505859 4.68615722,8.33544922 4.68615722,7.90405275 C4.68615722,7.47265625 4.33654784,7.12304687 3.90515137,7.12304687 L3.90515137,7.12304687 Z M11.55896,3.53027344 L5.248291,3.53027344 L5.248291,4.77990722 L11.55896,4.77990722 L11.55896,3.53027344 Z M3.90515137,3.37402344 C3.47375487,3.37402344 3.1241455,3.72375487 3.1241455,4.15502931 C3.1241455,4.58642578 3.47375487,4.93615722 3.90515137,4.93615722 C4.33654784,4.93615722 4.68615722,4.58642578 4.68615722,4.15502931 C4.68615722,3.72375487 4.33654784,3.37402344 3.90515137,3.37402344 Z M1.24963378,14.1210937 L1.24963378,1.87451172 C1.24963378,1.52990722 1.52990722,1.24963378 1.87451172,1.24963378 L12.1210937,1.24963378 C12.4655762,1.24963378 12.7458496,1.52990722 12.7458496,1.87451172 L12.7458496,8.93505859 L13.9954834,8.93505859 L13.9954834,1.87451172 C13.9954834,0.840942375 13.1546631,0 12.1210937,0 L1.87451172,0 C0.840942375,0 0,0.840942375 0,1.87451172 L0,14.1210937 C0,15.1546631 0.840942375,15.9954834 1.87451172,15.9954834 L9.09118653,15.9954834 L9.09118653,14.7458496 L1.87451172,14.7458496 C1.52990722,14.7458496 1.24963378,14.4655762 1.24963378,14.1210937 Z M14.116333,16 L12.8719482,14.7556153 C12.4509277,15.0072022 11.9591064,15.1519775 11.434082,15.1519775 C9.883667,15.1519775 8.62231444,13.890625 8.62231444,12.340332 C8.62231444,10.789917 9.883667,9.52856444 11.434082,9.52856444 C12.984375,9.52856444 14.2457275,10.789917 14.2457275,12.340332 C14.2457275,12.9139404 14.072876,13.447876 13.7768555,13.8931885 L15,15.116333 L14.116333,16 Z M11.434082,13.9023438 C12.2954102,13.9023438 12.9960938,13.2016602 12.9960938,12.340332 C12.9960938,11.4790039 12.2954102,10.7781983 11.434082,10.7781983 C10.5727539,10.7781983 9.87194825,11.4790039 9.87194825,12.340332 C9.87194825,13.2016602 10.5727539,13.9023438 11.434082,13.9023438 Z" id="Shape"></path>
        </g>
    </g>
</svg>