<?xml version="1.0" encoding="UTF-8"?>
<svg width="64px" height="57px" viewBox="0 0 64 57" version="1.1" xmlns="http://www.w3.org/2000/svg" xmlns:xlink="http://www.w3.org/1999/xlink">
    <!-- Generator: Sketch 59 (86127) - https://sketch.com -->
    <title>Group 2</title>
    <desc>Created with Sketch.</desc>
    <g id="Flujos" stroke="none" stroke-width="1" fill="none" fill-rule="evenodd">
        <g id="04.Mensaje_Generico" transform="translate(-536.000000, -327.000000)" stroke="#484D4F">
            <g id="Group-2" transform="translate(534.000000, 323.000000)">
                <path d="M38.3501109,7.67666635 L42.4411652,14.8961739 L42.4411652,14.8961739 L63.7697977,52.5349371 C65.1312143,54.9374371 64.2872496,57.9886943 61.8847496,59.3501109 C61.1330173,59.7760926 60.2837249,60 59.4196868,60 L8.58031322,60 C5.81888947,60 3.58031322,57.7614237 3.58031322,55 C3.58031322,54.1359619 3.80422064,53.2866695 4.23020229,52.5349371 L29.6498891,7.67666635 C31.0113057,5.27416642 34.0625629,4.43020165 36.4650629,5.79161828 C37.2524291,6.23779247 37.9039367,6.88930012 38.3501109,7.67666635 Z" id="Triangle" stroke-width="2"></path>
                <path d="M34,47.7734024 L34.1763065,47.7786862 C35.7513948,47.8733556 37,49.2283388 37,50.8865803 C37,52.6063591 35.6571928,53.9998791 34,53.9998791 L34,53.9998791 C32.3428072,54 31,52.60648 31,50.8867012 C31,49.1669225 32.3428072,47.7734024 34,47.7734024 Z M31,40.9247495 L31,24.1132988 C31,22.39352 32.3428072,21 34,21 L34.1763065,21.0052837 C35.7513948,21.0999533 37,22.4549407 37,24.1132988 L37,24.1132988 L37,40.9247495 C37,42.6433195 35.6571928,44.0380483 34,44.0380483 L34,44.0380483 C32.3428072,44.0380483 31,42.6433195 31,40.9247495 Z" id="Combined-Shape" stroke-width="1.5" fill="#78B928" fill-rule="nonzero"></path>
            </g>
        </g>
    </g>
</svg>