<?xml version="1.0" encoding="UTF-8"?>
<svg width="64px" height="60px" viewBox="0 0 64 60" version="1.1" xmlns="http://www.w3.org/2000/svg" xmlns:xlink="http://www.w3.org/1999/xlink">
    <!-- Generator: Sketch 59 (86127) - https://sketch.com -->
    <title>Group 3</title>
    <desc>Created with Sketch.</desc>
    <g id="Flujos" stroke="none" stroke-width="1" fill="none" fill-rule="evenodd">
        <g id="04.Mensaje_Generico" transform="translate(-609.000000, -328.000000)">
            <g id="Group-3" transform="translate(609.000000, 328.000000)">
                <g id="pdf-(1)">
                    <path d="M44.0633032,6.05629177 L50.7643272,14.0975205 C51.1178913,14.5217974 51.0605672,15.1523621 50.6362903,15.5059262 C50.4565753,15.6556887 50.2300424,15.7377049 49.9961059,15.7377049 L43.295082,15.7377049 C42.7427972,15.7377049 42.295082,15.2899897 42.295082,14.7377049 L42.295082,6.69647616 C42.295082,6.14419141 42.7427972,5.69647616 43.295082,5.69647616 C43.5918618,5.69647616 43.8733094,5.82829917 44.0633032,6.05629177 Z" id="Rectangle" fill="#78B928"></path>
                    <rect id="Rectangle" fill="#78B928" x="5.90163934" y="1.96721311" width="4.91803279" height="50.1639344" rx="1"></rect>
                    <path d="M24.6065574,-15.7377049 L27.9293418,-15.7377049 C27.9784612,-15.7377049 28.0275137,-15.7340859 28.0761012,-15.7268771 L29.5081967,-15.514403 L29.5081967,-15.514403 L28.003121,-13.4949607 L28.003121,20.3373146 L29.2853501,21.5775538 L28.2620582,23.9817882 C28.1050423,24.3506986 27.742868,24.5901639 27.341933,24.5901639 L24.6065574,24.5901639 C24.0542726,24.5901639 23.6065574,24.1424487 23.6065574,23.5901639 L23.6065574,-14.7377049 C23.6065574,-15.2899897 24.0542726,-15.7377049 24.6065574,-15.7377049 Z" id="Rectangle" fill="#78B928" transform="translate(26.557377, 4.426230) rotate(-270.000000) translate(-26.557377, -4.426230) "></path>
                    <rect id="Rectangle" fill="#FFFFFF" x="1.96721311" y="11.8032787" width="25.5737705" height="13.7704918" rx="1"></rect>
                    <path d="M41.470006,43.2786885 L18.5299939,43.2786885 C18.0743677,43.2786885 17.704918,43.7195192 17.704918,44.2625492 C17.704918,44.8055795 18.0743677,45.2459016 18.5299939,45.2459016 L41.4695794,45.2459016 C41.9256322,45.2459016 42.295082,44.8055795 42.295082,44.2625492 C42.295082,43.7195192 41.9256322,43.2786885 41.470006,43.2786885 Z" id="Path" fill="#484D4F" fill-rule="nonzero"></path>
                    <path d="M41.470006,37.3770492 L18.5299939,37.3770492 C18.0743677,37.3770492 17.704918,37.8173713 17.704918,38.3604015 C17.704918,38.90394 18.0743677,39.3442623 18.5299939,39.3442623 L41.4695794,39.3442623 C41.9256322,39.3442623 42.295082,38.90394 42.295082,38.3604015 C42.295082,37.8173713 41.9256322,37.3770492 41.470006,37.3770492 Z" id="Path" fill="#484D4F" fill-rule="nonzero"></path>
                    <path d="M17.704918,32.4587621 C17.704918,33.0023008 18.0627621,33.442623 18.5040757,33.442623 L32.643052,33.442623 C33.0847787,33.442623 33.442623,33.0023008 33.442623,32.4587621 C33.442623,31.915732 33.0847787,31.4754098 32.643052,31.4754098 L18.5040757,31.4754098 C18.0627621,31.4754098 17.704918,31.915732 17.704918,32.4587621 Z" id="Path" fill="#484D4F" fill-rule="nonzero"></path>
                    <path d="M49.9171063,10.8553476 L48.4342769,9.23589988 L48.4342769,3.44378615 C48.4342769,1.54501993 46.894481,0 45.0014078,0 L8.21592945,0 C6.32285612,0 4.78306024,1.54501993 4.78306024,3.44378615 L4.78306024,9.97718433 L3.27897459,9.97718433 C1.47092599,9.97718433 0,11.4580424 0,13.2781031 L0,23.2954957 C0,25.1155566 1.47092599,26.5964145 3.27897459,26.5964145 L4.78306024,26.5964145 L4.78306024,49.6797481 C4.78306024,51.5785143 6.32285612,53.1235341 8.21592945,53.1235341 L10.0949735,53.1235341 C10.2973322,54.7793404 11.7032143,56.0655738 13.4032817,56.0655738 L48.7939311,56.0655738 C50.6342891,56.0655738 52.1311475,54.5611898 52.1311475,52.7120421 L52.1311475,16.9678435 C52.1311475,14.0424859 52.0435722,13.1814325 49.9171063,10.8553476 Z M44.2914521,15.2649852 C43.358307,15.2649852 42.599037,14.5031688 42.599037,13.5672598 L42.6045636,6.37128239 C43.6860768,6.45212642 43.9747354,6.7737917 44.92276,7.83460273 C45.0800555,8.01083424 45.2518053,8.20246462 45.4426855,8.41120485 L47.0147909,10.1281789 C47.0203175,10.1341673 47.025844,10.1405835 47.0317958,10.1465719 L48.7067809,11.9760433 C50.0127591,13.4047161 50.3600847,14.0044165 50.4523364,15.2649852 L44.2914521,15.2649852 Z M6.42786156,3.44378615 C6.42786156,2.45740294 7.23006891,1.65495072 8.21592945,1.65495072 L45.0014078,1.65495072 C45.9872683,1.65495072 46.7894756,2.45740294 46.7894756,3.44378615 L46.7894756,7.43936507 L46.652586,7.28965379 C46.4659569,7.08647434 46.2993086,6.89954909 46.1462643,6.72802281 C44.7943728,5.21551161 44.2034516,4.69237775 41.7836509,4.69237775 L13.4032817,4.69237775 C11.5646242,4.69237775 10.069041,6.19676186 10.069041,8.04590939 L10.069041,9.97718433 L6.42786156,9.97718433 L6.42786156,3.44378615 Z M50.4863462,52.7120421 C50.4863462,53.6483789 49.7270764,54.410623 48.7939311,54.410623 L13.4032817,54.410623 C12.4718369,54.410623 11.7138424,53.6488068 11.7138424,52.7120421 L11.7138424,40.7206001 C11.7138424,40.2637669 11.3456858,39.8933386 10.8912292,39.8933386 C10.4371977,39.8933386 10.069041,40.2637669 10.069041,40.7206001 L10.069041,51.4685834 L8.21592945,51.4685834 C7.23006891,51.4685834 6.42786156,50.6661312 6.42786156,49.6801758 L6.42786156,26.5964145 L10.069041,26.5964145 L10.069041,36.9316226 C10.069041,37.3884558 10.4371977,37.7588841 10.8912292,37.7588841 C11.3456858,37.7588841 11.7138424,37.3884558 11.7138424,36.9316226 L11.7138424,26.5964145 L15.9829288,26.5964145 C16.4369603,26.5964145 16.8051168,26.2259862 16.8051168,25.7687253 C16.8051168,25.3118922 16.4369603,24.9414638 15.9829288,24.9414638 L3.27897459,24.9414638 C2.37771358,24.9414638 1.64480132,24.2031736 1.64480132,23.2954957 L1.64480132,13.2781031 C1.64480132,12.3704254 2.37771358,11.6321351 3.27897459,11.6321351 L24.9377222,11.6321351 C25.8402586,11.6321351 26.5748713,12.3704254 26.5748713,13.2781031 L26.5748713,23.2954957 C26.5748713,24.2031736 25.8402586,24.9414638 24.9377222,24.9414638 L19.750795,24.9414638 C19.2963384,24.9414638 18.9281818,25.3118922 18.9281818,25.7687253 C18.9281818,26.2259862 19.2963384,26.5964145 19.750795,26.5964145 L24.9377222,26.5964145 C26.7474713,26.5964145 28.2196726,25.1155566 28.2196726,23.2954957 L28.2196726,13.2781031 C28.2196726,11.4580424 26.7474713,9.97718433 24.9377222,9.97718433 L11.7138424,9.97718433 L11.7138424,8.04590939 C11.7138424,7.10914487 12.4718369,6.34732859 13.4032817,6.34732859 L40.9597623,6.34732859 L40.9542357,13.566832 C40.9542357,15.4159796 42.4515193,16.9203636 44.2914521,16.9203636 L50.4863462,16.9203636 L50.4863462,16.9678435 L50.4863462,52.7120421 Z" id="Shape" fill="#484D4F" fill-rule="nonzero"></path>
                </g>
                <circle id="Oval" stroke="#484D4F" stroke-width="1.5" fill="#FFFFFF" cx="49.1803279" cy="45.2459016" r="14.0040984"></circle>
                <path d="M46.8297613,47.5586591 L54.2993022,40.2895084 C54.7947822,39.8073143 55.5939992,39.8073143 56.0893229,40.2895104 C56.5909907,40.7777265 56.5909907,41.5737587 56.0893229,42.0619749 L47.7248622,50.2021509 C47.4835625,50.4371305 47.1621892,50.5639344 46.8297594,50.5639344 C46.4973295,50.5639344 46.1759563,50.4371305 45.9347481,50.20224 L41.2877263,45.6798235 C40.7860584,45.1916073 40.7860584,44.3955751 41.2876806,43.9074035 C41.7831587,43.4250571 42.582267,43.4250571 43.0778576,43.907359 L46.8297613,47.5586591 Z" id="Path" stroke="#484D4F" stroke-width="0.8" fill="#78B928" fill-rule="nonzero"></path>
                <path d="M11.7605,23 L9.0765,19.062 L11.6505,15.3 L9.7255,15.3 L8.0975,17.797 L6.4805,15.3 L4.5005,15.3 L7.0745,19.084 L4.3905,23 L6.3155,23 L8.0535,20.36 L9.7805,23 L11.7605,23 Z M17.5585,23 L17.5585,21.46 L13.7195,21.46 L13.7195,15.3 L12.0255,15.3 L12.0255,23 L17.5585,23 Z M23.4005,20.723 C23.4005,22.252 22.2345,23.11 20.5735,23.11 C19.4075,23.11 18.2305,22.703 17.3065,21.878 L18.3075,20.679 C19.0005,21.251 19.7265,21.614 20.6065,21.614 C21.25,21.614 21.6563827,21.3768827 21.7111542,20.9819129 L21.7175,20.866 C21.7175,20.4821579 21.5061537,20.2656316 20.5398008,19.9879261 L19.7904693,19.786695 C18.5162931,19.428899 17.6919854,18.9777606 17.6196809,17.718473 L17.6145,17.511 C17.6145,16.114 18.7365,15.19 20.3095,15.19 C21.4315,15.19 22.3885,15.542 23.1695,16.169 L22.2895,17.445 C21.6075,16.972 20.9365,16.686 20.2875,16.686 C19.6884231,16.686 19.351784,16.9390651 19.3035382,17.2721593 L19.2975,17.379 C19.2975,17.8317368 19.5616828,18.0114848 20.5706758,18.2885632 L20.9585,18.391 C22.452587,18.7803043 23.322689,19.3105085 23.3955257,20.5303341 L23.4005,20.723 Z" id="XLS" fill="#484D4F" fill-rule="nonzero"></path>
            </g>
        </g>
    </g>
</svg>