<?xml version="1.0" encoding="UTF-8"?>
<svg width="48px" height="56px" viewBox="0 0 48 56" version="1.1" xmlns="http://www.w3.org/2000/svg" xmlns:xlink="http://www.w3.org/1999/xlink">
    <!-- Generator: Sketch 60.1 (88133) - https://sketch.com -->
    <title>ballot</title>
    <desc>Created with Sketch.</desc>
    <g id="Flujos" stroke="none" stroke-width="1" fill="none" fill-rule="evenodd">
        <g id="05.Mensaje_Sin_Conexion" transform="translate(-544.000000, -328.000000)">
            <g id="Group-8" transform="translate(360.000000, 296.000000)">
                <g id="ballot" transform="translate(184.000000, 32.000000)">
                    <path d="M43.6633677,0 L9.85932274,0 C9.38469426,0 9,0.382965701 9,0.85588972 C9,1.32838528 9.38469426,1.71177933 9.85932274,1.71177933 L43.6633677,1.71177933 C45.1066168,1.71177933 46.2804939,2.88038144 46.2804939,4.31714522 L46.2804939,45.1441103 C46.2804939,45.616606 46.6651882,46 47.140247,46 C47.6148755,46 48,45.616606 48,45.1441103 L48,4.31714522 C47.9995697,1.93667524 46.0545828,0 43.6633677,0 Z" id="Path" fill="#484D4F" fill-rule="nonzero"></path>
                    <path d="M47.1370233,47.7567138 C46.6599446,47.7567138 46.2736144,48.1386719 46.2736144,48.6103516 L46.2736144,51.6946411 C46.2736144,53.1271973 45.0947459,54.2931518 43.64536,54.2931518 L4.35464004,54.2931518 C2.9056862,54.2931518 1.72638557,53.1271973 1.72638557,51.6946411 L1.72638557,4.30578619 C1.72638557,2.87280273 2.9056862,1.70727539 4.35464004,1.70727539 L5.98552345,1.70727539 C6.46216999,1.70727539 6.84893223,1.32489011 6.84893223,0.85363775 C6.84893223,0.381958062 6.46216999,0 5.98552345,0 L4.35464004,0 C1.95368934,0 0,1.93157956 0,4.30578619 L0,51.6946411 C0,54.0684204 1.95368934,56 4.35464004,56 L43.64536,56 C46.0467428,56 48,54.0684204 48,51.6946411 L48,48.6103516 C48,48.1386719 47.61367,47.7567138 47.1370233,47.7567138 Z" id="Path" fill="#484D4F" fill-rule="nonzero"></path>
                    <circle id="Oval" fill="#78B928" cx="12.5" cy="11.5" r="5.5"></circle>
                    <circle id="Oval" fill="#78B928" cx="12.5" cy="44.5" r="5.5"></circle>
                    <path d="M12.4997856,5 C8.91594389,5 6,7.915944 6,11.4997857 C6,15.0840561 8.91594389,18 12.4997856,18 C16.0840561,18 19,15.0840561 19,11.4997857 C19,7.915944 16.0840561,5 12.4997856,5 Z M12.4997856,16.2869581 C9.86034623,16.2869581 7.71261339,14.1396538 7.71261339,11.5002144 C7.71261339,8.86034623 9.86034623,6.71304205 12.4997856,6.71304205 C15.139225,6.71304205 17.286958,8.86034623 17.286958,11.5002144 C17.286958,14.1396538 15.139225,16.2869581 12.4997856,16.2869581 Z" id="Shape" fill="#484D4F" fill-rule="nonzero"></path>
                    <path d="M22.8400816,9 L41.1594978,9 C41.6234987,9 42,8.55205202 42,8 C42,7.44744738 41.6234987,7 41.1594978,7 L22.8400816,7 C22.3760807,7 22,7.44744738 22,8 C22,8.55205202 22.3760807,9 22.8400816,9 Z" id="Path" fill="#484D4F" fill-rule="nonzero"></path>
                    <path d="M22.8433989,13 L36.1561788,13 C36.6224344,13 37,12.5525526 37,12 C37,11.447948 36.6224344,11 36.1561788,11 L22.8433989,11 C22.3775657,11 22,11.447948 22,12 C22,12.5525526 22.3775657,13 22.8433989,13 Z" id="Path" fill="#484D4F" fill-rule="nonzero"></path>
                    <path d="M22.8557145,17 L39.1442855,17 C39.616921,17 40,16.552052 40,16 C40,15.4474475 39.616921,15 39.1442855,15 L22.8557145,15 C22.3830791,15 22,15.4474475 22,16 C22,16.552052 22.3830791,17 22.8557145,17 Z" id="Path" fill="#484D4F" fill-rule="nonzero"></path>
                    <path d="M22.8400816,25 L41.1594978,25 C41.6234987,25 42,24.552052 42,24 C42,23.4474475 41.6234987,23 41.1594978,23 L22.8400816,23 C22.3760807,23 22,23.4474475 22,24 C22,24.552052 22.3760807,25 22.8400816,25 Z" id="Path" fill="#78B928" fill-rule="nonzero"></path>
                    <path d="M22.8433989,29 L36.1561788,29 C36.6224344,29 37,28.5525526 37,28 C37,27.447948 36.6224344,27 36.1561788,27 L22.8433989,27 C22.3775657,27 22,27.447948 22,28 C22,28.5525526 22.3775657,29 22.8433989,29 Z" id="Path" fill="#78B928" fill-rule="nonzero"></path>
                    <path d="M22.8557145,33 L39.1442855,33 C39.616921,33 40,32.552052 40,32 C40,31.447948 39.616921,31 39.1442855,31 L22.8557145,31 C22.3830791,31 22,31.447948 22,32 C22,32.552052 22.3830791,33 22.8557145,33 Z" id="Path" fill="#78B928" fill-rule="nonzero"></path>
                    <path d="M12.4997856,38 C8.91594389,38 6,40.9159439 6,44.4997856 C6,48.0840561 8.91594389,51 12.4997856,51 C16.0840561,51 19,48.0840561 19,44.4997856 C19,40.9159439 16.0840561,38 12.4997856,38 Z M12.4997856,49.286958 C9.86034623,49.286958 7.71261339,47.1396538 7.71261339,44.4997856 C7.71261339,41.8603462 9.86034623,39.713042 12.4997856,39.713042 C15.139225,39.713042 17.286958,41.8603462 17.286958,44.4997856 C17.286958,47.1396538 15.139225,49.286958 12.4997856,49.286958 Z" id="Shape" fill="#484D4F" fill-rule="nonzero"></path>
                    <path d="M22.8400816,41 L41.1594978,41 C41.6234987,41 42,40.5520521 42,40 C42,39.447948 41.6234987,39 41.1594978,39 L22.8400816,39 C22.3760807,39 22,39.447948 22,40 C22,40.5520521 22.3760807,41 22.8400816,41 Z" id="Path" fill="#484D4F" fill-rule="nonzero"></path>
                    <path d="M22.8433989,45 L36.1561788,45 C36.6224344,45 37,44.5524405 37,43.9997496 C37,43.4475595 36.6224344,43 36.1561788,43 L22.8433989,43 C22.3775657,43 22,43.4475595 22,43.9997496 C22,44.5524405 22.3775657,45 22.8433989,45 Z" id="Path" fill="#484D4F" fill-rule="nonzero"></path>
                    <path d="M22.8557145,49 L39.1442855,49 C39.616921,49 40,48.5520521 40,48 C40,47.4474474 39.616921,47 39.1442855,47 L22.8557145,47 C22.3830791,47 22,47.4474474 22,48 C22,48.5520521 22.3830791,49 22.8557145,49 Z" id="Path" fill="#484D4F" fill-rule="nonzero"></path>
                    <circle id="Oval" fill="#78B928" cx="12.5" cy="27.5" r="5.5"></circle>
                    <path d="M11.3028144,26.3694743 C10.9695191,26.0432404 10.4285552,26.0432404 10.0952598,26.3694743 C9.76196445,26.6957081 9.76196445,27.2247924 10.0952598,27.5510264 L12.2010027,29.612155 C12.3680776,29.7752719 12.5864288,29.8568304 12.8047801,29.8568304 C13.0231313,29.8568304 13.2419098,29.7752719 13.4085574,29.612155 L17.8131836,25.3008493 C17.8174567,25.2966669 17.8213024,25.2924845 17.8255755,25.2887201 L20.7500284,22.4262274 C21.0833239,22.0999935 21.0833239,21.5709092 20.7500284,21.2446754 C20.4167332,20.9184415 19.8757691,20.9184415 19.5424738,21.2446754 L17.309395,23.4308603 C16.090303,22.0920468 14.3481939,21.3166141 12.4787488,21.3166141 C8.90650633,21.3166141 6,24.1615405 6,27.6585162 C6,31.1550737 8.90650633,34 12.4787488,34 C16.0514187,34 18.957925,31.1550737 18.957925,27.6585162 C18.957925,27.1967699 18.5754899,26.8228557 18.1041761,26.8228557 C17.632435,26.8228557 17.2504273,27.1967699 17.2504273,27.6585162 C17.2504273,30.2336722 15.1096455,32.328679 12.4787488,32.328679 C9.84785207,32.328679 7.70707045,30.2336722 7.70707045,27.6585162 C7.70707045,25.0829419 9.84785207,22.9879351 12.4787488,22.9879351 C13.88799,22.9879351 15.1976698,23.5872852 16.0979945,24.6161765 L12.8047801,27.840036 L11.3028144,26.3694743 Z" id="Path" fill="#484D4F" fill-rule="nonzero"></path>
                </g>
            </g>
        </g>
    </g>
</svg>