<?xml version="1.0" encoding="UTF-8"?>
<svg width="14px" height="16px" viewBox="0 0 14 16" version="1.1" xmlns="http://www.w3.org/2000/svg" xmlns:xlink="http://www.w3.org/1999/xlink">
    <!-- Generator: Sketch 59 (86127) - https://sketch.com -->
    <title>icon-logout</title>
    <desc>Created with Sketch.</desc>
    <g id="Page-1" stroke="none" stroke-width="1" fill="none" fill-rule="evenodd">
        <g id="icon-logout" transform="translate(7.000000, 8.000000) rotate(-180.000000) translate(-7.000000, -8.000000) translate(0.000000, 0.000000)" fill="#FFFFFF" fill-rule="nonzero">
            <path d="M11.2925217,3.78715625 C11.6832619,3.78715625 12,3.50734375 12,3.16215625 L12,1.5430625 C12,0.69221875 11.2077658,0 10.2340279,0 L1.76597206,0 C0.792234246,0 0,0.69221875 0,1.5430625 L0,14.4569375 C0,15.3077812 0.792234246,16 1.76597206,16 L10.2340279,16 C11.2077658,16 12,15.3077812 12,14.4569375 L12,12.8378438 C12,12.4926875 11.6832266,12.212875 11.2925217,12.212875 C10.9017814,12.212875 10.5850433,12.4926875 10.5850433,12.837875 L10.5850433,14.4569687 C10.5850433,14.6185625 10.427594,14.7500312 10.2340279,14.7500312 L1.76597206,14.7500312 C1.57240599,14.7500312 1.41495668,14.6185625 1.41495668,14.4569687 L1.41495668,1.5430625 C1.41495668,1.38146875 1.57240599,1.25 1.76597206,1.25 L10.2340279,1.25 C10.427594,1.25 10.5850433,1.38146875 10.5850433,1.5430625 L10.5850433,3.16215625 C10.5850433,3.50734375 10.9017814,3.78715625 11.2925217,3.78715625 Z" id="Path"></path>
            <path d="M13.8062254,7.53740179 L10.3895587,4.18359601 C10.135721,3.93438932 9.72925313,3.9395266 9.48177094,4.19506604 C9.23422455,4.45054087 9.23932826,4.85968185 9.49316603,5.10882392 L11.7802097,7.35381662 L5.64197716,7.35381662 C5.28741317,7.35381662 5,7.64311996 5,8.00001574 C5,8.35691152 5.28741317,8.64621487 5.64197716,8.64621487 L11.7802097,8.64621487 L9.49316603,10.8911753 C9.23932826,11.1403174 9.23422455,11.5494583 9.48177094,11.8049332 C9.72922103,12.060408 10.135721,12.0656745 10.3895587,11.8164032 L13.8062254,8.46259739 C14.066162,8.20796262 14.0630163,7.78899942 13.8062254,7.53740179 Z" id="Path"></path>
        </g>
    </g>
</svg>