<?xml version="1.0" encoding="UTF-8"?>
<svg width="14px" height="16px" viewBox="0 0 14 16" version="1.1" xmlns="http://www.w3.org/2000/svg" xmlns:xlink="http://www.w3.org/1999/xlink">
    <!-- Generator: Sketch 55.2 (78181) - https://sketchapp.com -->
    <title>search (1)</title>
    <desc>Created with Sketch.</desc>
    <g id="Page-1" stroke="none" stroke-width="1" fill="none" fill-rule="evenodd">
        <g id="search-(1)" fill="#484D4F">
            <path d="M12.7458496,1.87438966 L12.7458496,14.1209717 C12.7458496,14.4655762 12.4655762,14.7458496 12.1209717,14.7458496 L1.87438966,14.7458496 C1.52990722,14.7458496 1.24963378,14.4655762 1.24963378,14.1209717 L1.24963378,7.06042481 L-1.43884904e-13,7.06042481 L-1.45661261e-13,14.1209717 C-1.45661261e-13,15.154541 0.840820312,15.9954834 1.87438966,15.9954834 L12.1209717,15.9954834 C13.154541,15.9954834 13.9954834,15.154541 13.9954834,14.1209717 L13.9954834,1.87438966 C13.9954834,0.840820313 13.154541,9.39692768e-13 12.1209717,9.39692768e-13 L4.90429687,9.37916411e-13 L4.90429687,1.24963378 L12.1209717,1.24963378 C12.4655762,1.24963378 12.7458496,1.52990722 12.7458496,1.87438966 Z M1.24963378,14.1210938 L1.24963378,1.87451172 C1.24963378,1.52990722 1.52990722,1.24963378 1.87451172,1.24963378 L12.1210937,1.24963378 C12.4655762,1.24963378 12.7458496,1.52990722 12.7458496,1.87451172 L12.7458496,8.93505859 L13.9954834,8.93505859 L13.9954834,1.87451172 C13.9954834,0.840942375 13.1546631,0 12.1210937,0 L1.87451172,0 C0.840942375,0 0,0.840942375 0,1.87451172 L0,14.1210938 C0,15.1546631 0.840942375,15.9954834 1.87451172,15.9954834 L9.09118653,15.9954834 L9.09118653,14.7458496 L1.87451172,14.7458496 C1.52990722,14.7458496 1.24963378,14.4655762 1.24963378,14.1210938 Z" id="Shape" fill-rule="nonzero"></path>
            <text id="$" font-family="Gotham-Medium, Gotham" font-size="11" font-weight="400">
                <tspan x="3.469" y="12">$</tspan>
            </text>
        </g>
    </g>
</svg>