<?xml version="1.0" encoding="UTF-8"?>
<svg width="89px" height="100px" viewBox="0 0 89 100" version="1.1" xmlns="http://www.w3.org/2000/svg" xmlns:xlink="http://www.w3.org/1999/xlink">
    <!-- Generator: Sketch 62 (91390) - https://sketch.com -->
    <title>file</title>
    <desc>Created with Sketch.</desc>
    <g id="Flujos" stroke="none" stroke-width="1" fill="none" fill-rule="evenodd" opacity="0.652390253">
        <g id="05.Subir_pedido" transform="translate(-526.000000, -517.000000)" fill-rule="nonzero">
            <g id="file" transform="translate(526.000000, 517.000000)">
                <path d="M52.7686091,17.8077954 L50.0811474,0 L10.6517843,0 C4.71454439,0 0,4.83678682 0,10.7727185 L0,85.3253337 C0,91.2612655 4.71454439,96 10.6517843,96 L74.9287507,96 L75,55.2054683 L75,26.1134372 L52.7686091,17.8077954 Z" id="Path" fill="#EDEDED"></path>
                <path d="M50,0 L75,26 L58.3581739,26 C53.7364412,26 50,22.2996741 50,17.7226136 L50,0 Z" id="Path" fill="#BDBDBD"></path>
                <g id="Group" transform="translate(14.000000, 43.000000)" fill="#BDBDBD">
                    <path d="M34.5319569,11.9561991 L2.55957966,11.9561991 C1.21130952,11.9561991 0.107366071,13.0313655 0.107366071,14.3444896 C0.107366071,15.658284 1.21130952,16.7321098 2.55957966,16.7321098 L34.50718,16.7321098 C35.8554501,16.7321098 36.9593936,15.658284 36.9593936,14.3444896 C36.9593936,13.0313655 35.8809153,11.9561991 34.5319569,11.9561991 L34.5319569,11.9561991 Z" id="Path"></path>
                    <path d="M2.55957966,4.79266836 L27.3969308,4.79266836 C28.745201,4.79266836 29.8491443,3.7181722 29.8491443,2.40437782 C29.8491443,1.0912537 28.745201,0.0167575385 27.3969308,0.0167575385 L2.55957966,0.0167575385 C1.21130952,0.0167575385 0.107366071,1.0912537 0.107366071,2.40437782 C0.107366071,3.7181722 1.21130952,4.79266836 2.55957966,4.79266836 L2.55957966,4.79266836 Z" id="Path"></path>
                    <path d="M26.4402715,24.1349391 L2.55957966,24.1349391 C1.21130952,24.1349391 0.107366071,25.2101053 0.107366071,26.5225592 C0.107366071,27.8363536 1.21130952,28.9108497 2.55957966,28.9108497 L26.4402715,28.9108497 C27.7892299,28.9108497 28.8924851,27.8363536 28.8924851,26.5225592 C28.8924851,25.2101053 27.7892299,24.1349391 26.4402715,24.1349391 Z" id="Path"></path>
                </g>
                <path d="M89,83.506173 C89,92.6131272 81.610845,100 72.5001816,100 C66.2367821,100 60.7754697,96.5071853 57.9928668,91.3585607 C56.7247119,89.0171875 56,86.3395687 56,83.493464 C56,74.3865097 63.3895181,67 72.5001816,67 C73.2768403,67.0130722 74.0400581,67.0649978 74.8036393,67.1684859 C82.8274165,68.2934198 89,75.1755612 89,83.506173 Z" id="Path" fill="#BDBDBD"></path>
                <path d="M78.8750142,83.6898831 L73.7753415,89.4205098 L73.7753415,75.2938485 C73.7753415,74.582468 73.2170315,74 72.5343817,74 C71.8520801,74 71.2937701,74.582468 71.2937701,75.2938485 L71.2937701,89.4205098 L66.1568302,83.6898831 C65.6852447,83.1724163 64.8911418,83.1331977 64.3948275,83.624882 C63.8985132,84.1165662 63.8615944,84.9318033 64.3324835,85.4492701 L71.5915587,93.5860265 C71.8270032,93.8449415 72.1498687,94 72.4971145,94 C72.8443605,94 73.1668776,93.8449415 73.4030187,93.5860265 L80.6613973,85.4492701 C81.132983,84.9318033 81.1079061,84.1038564 80.6115918,83.624882 C80.1159741,83.1331977 79.3465999,83.1724163 78.8750142,83.6898831 L78.8750142,83.6898831 Z" id="Path" fill="#EDEDED" transform="translate(72.500000, 84.000000) rotate(-180.000000) translate(-72.500000, -84.000000) "></path>
            </g>
        </g>
    </g>
</svg>