<?xml version="1.0" encoding="UTF-8"?>
<svg width="90px" height="90px" viewBox="0 0 90 90" version="1.1" xmlns="http://www.w3.org/2000/svg" xmlns:xlink="http://www.w3.org/1999/xlink">
    <!-- Generator: Sketch 55.2 (78181) - https://sketchapp.com -->
    <title>Shape</title>
    <desc>Created with Sketch.</desc>
    <g id="Page-1" stroke="none" stroke-width="1" fill="none" fill-rule="evenodd">
        <g id="01.Home" transform="translate(-896.000000, -190.000000)" fill="#FFFFFF" fill-rule="nonzero">
            <g id="noun_User_874667" transform="translate(891.000000, 189.000000)">
                <g id="Group" transform="translate(5.000000, 0.637820)">
                    <path d="M45.0000001,0.36219 C20.18272,0.36219 1.00000001e-07,20.54489 1.00000001e-07,45.36219 C1.00000001e-07,70.1795 20.18272,90.36219 45.0000001,90.36219 C69.81728,90.36219 90.0000001,70.1795 90.0000001,45.36219 C90.0000001,20.54489 69.81728,0.36219 45.0000001,0.36219 L45.0000001,0.36219 Z M45,6.36219 C66.57464,6.36219 84,23.78759 84,45.36219 C84,52.6645 82.00897,59.4941 78.53125,65.331 C70.29281,56.1372 58.30374,50.36219 45,50.36219 C31.68042,50.36219 19.70214,56.1494 11.46875,65.36219 C7.98253,59.5203 6,52.6741 6,45.36219 C6,23.78759 23.42536,6.36219 45,6.36219 L45,6.36219 Z M45,9.36219 C34.54212,9.36219 26,17.90429 26,28.36219 C26,38.82009 34.54212,47.36219 45,47.36219 C55.45788,47.36219 64,38.82009 64,28.36219 C64,17.90429 55.45788,9.36219 45,9.36219 Z M45,15.36219 C52.21524,15.36219 58,21.14699 58,28.36219 C58,35.57739 52.21524,41.36216 45,41.36216 C37.78476,41.36216 32,35.57739 32,28.36219 C32,21.14699 37.78476,15.36219 45,15.36219 Z M45,56.3622 C57.04194,56.3622 67.75326,61.8315 74.90625,70.3934 C67.75805,78.9308 57.03267,84.3622 45,84.3622 C32.96733,84.3622 22.24195,78.9308 15.09375,70.3934 C22.24216,61.8226 32.9508,56.3622 45,56.3622 L45,56.3622 Z" id="Shape"></path>
                </g>
            </g>
        </g>
    </g>
</svg>