<?xml version="1.0" encoding="UTF-8"?>
<svg width="111px" height="96px" viewBox="0 0 111 96" version="1.1" xmlns="http://www.w3.org/2000/svg" xmlns:xlink="http://www.w3.org/1999/xlink">
    <!-- Generator: Sketch 59 (86127) - https://sketch.com -->
    <title>shopping-cart (1)</title>
    <desc>Created with Sketch.</desc>
    <g id="Flujos" stroke="none" stroke-width="1" fill="none" fill-rule="evenodd" opacity="0.5">
        <g id="shopping-cart-(1)" fill="#C6CBD4" fill-rule="nonzero">
            <path d="M19.7920819,0 C21.2488119,0 22.5213184,0.974957437 22.8876331,2.3721006 L22.8876331,2.3721006 L26.4411843,15.9188109 L107.801856,15.9188109 C108.792057,15.9188109 109.726821,16.3735375 110.33237,17.149869 C110.93792,17.9257779 111.14645,18.936657 110.896555,19.8858354 L110.896555,19.8858354 L98.3655211,67.628322 C97.9992064,69.0250426 96.7266999,70 95.2703964,70 L95.2703964,70 L36.4971414,70 C35.0408379,70 33.7683314,69.0250426 33.4020167,67.628322 L33.4020167,67.628322 L20.872689,19.8866806 L20.872689,19.8866806 L20.8722625,19.8858354 L17.3187113,6.33912508 L3.19832401,6.33912508 C1.43199627,6.33912508 0,4.92000628 0,3.16956254 C0,1.4191188 1.43199627,0 3.19832401,0 L3.19832401,0 Z" id="Shape"></path>
            <path d="M44.5002099,73 C38.159059,73 33,78.1586824 33,84.4989506 C33,90.8404781 38.159059,96 44.5002099,96 C50.840941,96 56,90.8404781 56,84.4989506 C56,78.1586824 50.8413608,73 44.5002099,73 Z M44.5002099,89.7038051 C41.6310343,89.7038051 39.2966546,87.3687563 39.2966546,84.4989506 C39.2966546,81.6299845 41.6310343,79.2961949 44.5002099,79.2961949 C47.3689657,79.2961949 49.7033454,81.6304042 49.7033454,84.4989506 C49.7033454,87.369176 47.3693855,89.7038051 44.5002099,89.7038051 Z" id="Shape"></path>
            <path d="M86.4991604,73 C80.1585019,73 75,78.1586824 75,84.4989506 C75,90.8404781 80.1585019,96 86.4991604,96 C92.8410783,96 98,90.8404781 98,84.4989506 C98,78.1586824 92.8406585,73 86.4991604,73 Z M86.4991604,89.7038051 C83.6306673,89.7038051 81.2969993,87.3687563 81.2969993,84.4989506 C81.2969993,81.6299845 83.6306673,79.2961949 86.4991604,79.2961949 C89.3689129,79.2961949 91.7030007,81.6304042 91.7030007,84.4989506 C91.7030007,87.369176 89.3684931,89.7038051 86.4991604,89.7038051 Z" id="Shape"></path>
        </g>
    </g>
</svg>