<?xml version="1.0" encoding="UTF-8"?>
<svg width="36px" height="36px" viewBox="0 0 36 36" version="1.1" xmlns="http://www.w3.org/2000/svg" xmlns:xlink="http://www.w3.org/1999/xlink">
    <!-- Generator: Sketch 60 (88103) - https://sketch.com -->
    <title>Group 21</title>
    <desc>Created with Sketch.</desc>
    <g id="Flujos" stroke="none" stroke-width="1" fill="none" fill-rule="evenodd">
        <g id="03.Home" transform="translate(-1091.000000, -16.000000)">
            <g id="Group-21" transform="translate(1091.000000, 16.000000)">
                <rect id="Rectangle" fill="#EAECF1" x="0" y="0" width="36" height="36" rx="3"></rect>
                <g id="notification" transform="translate(6.000000, 5.000000)" fill="#78B928">
                    <path d="M11.7647202,3 C16.3045092,3 19.9996465,6.58970788 19.9996465,10.9999679 L19.9996465,10.9999679 L19.9996465,13.8651235 C19.9996465,15.626281 20.4925851,17.3542779 21.4243103,18.8639717 L21.4243103,18.8639717 L23.4454194,22.134823 C23.5548265,22.3108048 23.5571426,22.531358 23.4535808,22.7096969 C23.3489161,22.8891609 23.1524355,23 22.9406798,23 L22.9406798,23 L0.588705438,23 C0.376949717,23 0.180524228,22.8891073 0.0758044072,22.7096969 C-0.0277573749,22.5314116 -0.0253861519,22.3108048 0.0840209703,22.134823 L0.0840209703,22.134823 L2.10513006,18.8639717 C3.03685523,17.3542779 3.52979387,15.626281 3.52979387,13.8651235 L3.52979387,13.8651235 L3.52979387,10.9999679 C3.52979387,6.58970788 7.2249312,3 11.7647202,3 Z" id="Shape" fill-rule="nonzero"></path>
                    <path d="M12,0 C10.3454895,0 9,1.196 9,2.6666875 L9,5.333375 C9,5.7013125 9.33602081,6 9.75001758,6 C10.1640143,6 10.5000352,5.7013125 10.5000352,5.3333125 L10.5000352,2.6666875 C10.5000352,1.9306875 11.1720065,1.333375 12,1.333375 C12.8279935,1.333375 13.4999648,1.9306875 13.4999648,2.6666875 L13.4999648,5.333375 C13.4999648,5.7013125 13.8359857,6 14.2499824,6 C14.6639792,6 15,5.7013125 15,5.3333125 L15,2.6666875 C15,1.196 13.6545105,0 12,0 Z" id="Path" fill-rule="nonzero"></path>
                    <path d="M14.594546,21.3080415 C14.4254147,21.0105161 14.0595446,20.9130014 13.7728985,21.0842382 C13.4861962,21.2592842 13.3902727,21.6430726 13.558167,21.940598 C13.7140849,22.2169092 13.799269,22.5481897 13.799269,22.874489 C13.799269,23.9084146 12.9920157,24.7497722 12,24.7497722 C11.0079843,24.7497722 10.200731,23.9084146 10.200731,22.874489 C10.200731,22.5481897 10.2859151,22.2169092 10.441833,21.940598 C10.6085465,21.6417833 10.512623,21.2592256 10.2271015,21.0842382 C9.93803767,20.9129428 9.57334833,21.0104575 9.40545403,21.3080415 C9.14034299,21.7806129 9,22.3219251 9,22.8745476 C9,24.5985189 10.3446725,26 11.9988192,26 C13.652966,26 14.9975822,24.5985189 15,22.8745476 C15,22.3219251 14.859657,21.7806129 14.594546,21.3080415 Z" id="Path" fill-rule="nonzero"></path>
                    <circle id="Oval" cx="12" cy="3" r="2"></circle>
                </g>
            </g>
        </g>
    </g>
</svg>