<?xml version="1.0" encoding="UTF-8"?>
<svg width="21px" height="16px" viewBox="0 0 21 16" version="1.1" xmlns="http://www.w3.org/2000/svg" xmlns:xlink="http://www.w3.org/1999/xlink">
    <!-- Generator: Sketch 55.2 (78181) - https://sketchapp.com -->
    <title>Shape</title>
    <desc>Created with Sketch.</desc>
    <g id="Page-1" stroke="none" stroke-width="1" fill="none" fill-rule="evenodd">
        <g id="03.Login" transform="translate(-159.000000, -164.000000)" fill="#FFFFFF" fill-rule="nonzero">
            <g id="noun_User_2499966" transform="translate(155.000000, 164.000000)">
                <g id="noun_Shopping-Cart_510022">
                    <path d="M24.3153527,3.60719225 L21.9474412,11.0650069 C21.7704011,11.5961272 21.3056708,11.9502075 20.7524205,11.9502075 L11.6127248,11.9502075 C11.0816044,11.9502075 10.5726141,11.6182573 10.395574,11.131397 L6.89903181,1.77040111 L4.88520055,1.77040111 C4.39834025,1.77040111 4,1.37206086 4,0.885200553 C4,0.398340249 4.39834025,0 4.88520055,0 L7.5186722,0 C7.89488243,0 8.22683264,0.243430152 8.35961272,0.597510373 L11.966805,10.1798064 L20.3762102,10.1798064 L22.2572614,4.20470263 L11.8340249,4.20470263 C11.3471646,4.20470263 10.9488243,3.80636238 10.9488243,3.31950207 C10.9488243,2.83264177 11.3471646,2.43430152 11.8340249,2.43430152 L23.4744122,2.43430152 C23.7621024,2.43430152 24.0276625,2.58921162 24.1825726,2.81051176 C24.3596127,3.03181189 24.4038728,3.34163209 24.3153527,3.60719225 Z M12.055325,13.1230982 C11.6791148,13.1230982 11.3029046,13.2780083 11.0373444,13.5435685 C10.7717842,13.8091286 10.6168741,14.1853389 10.6168741,14.5615491 C10.6168741,14.9377593 10.7717842,15.3139696 11.0373444,15.5795297 C11.3029046,15.8450899 11.6791148,16 12.055325,16 C12.4315353,16 12.8077455,15.8450899 13.0733057,15.5795297 C13.3388658,15.3139696 13.4937759,14.9377593 13.4937759,14.5615491 C13.4937759,14.1853389 13.3388658,13.8091286 13.0733057,13.5435685 C12.8077455,13.2780083 12.4315353,13.1230982 12.055325,13.1230982 Z M20,13.1230982 C19.6237898,13.1230982 19.2475795,13.2780083 18.9820194,13.5435685 C18.7164592,13.8091286 18.5615491,14.1853389 18.5615491,14.5615491 C18.5615491,14.9377593 18.7164592,15.3139696 18.9820194,15.5795297 C19.2475795,15.8450899 19.6237898,16 20,16 C20.3762102,16 20.7524205,15.8450899 21.0179806,15.5795297 C21.2835408,15.3139696 21.4384509,14.9377593 21.4384509,14.5615491 C21.4384509,14.1853389 21.2835408,13.8091286 21.0179806,13.5435685 C20.7524205,13.2780083 20.3762102,13.1230982 20,13.1230982 Z" id="Shape"></path>
                </g>
            </g>
        </g>
    </g>
</svg>