<?xml version="1.0" encoding="UTF-8"?>
<svg width="14px" height="16px" viewBox="0 0 14 16" version="1.1" xmlns="http://www.w3.org/2000/svg" xmlns:xlink="http://www.w3.org/1999/xlink">
    <!-- Generator: Sketch 60.1 (88133) - https://sketch.com -->
    <title>Artboard</title>
    <desc>Created with Sketch.</desc>
    <g id="Artboard" stroke="none" stroke-width="1" fill="none" fill-rule="evenodd">
        <g id="four" transform="translate(2.000000, 0.000000)" fill="#484D4F" fill-rule="nonzero" stroke="#484D4F" stroke-width="0.5">
            <path d="M9.69754883,2.96551724 L9.67467676,2.96551724 C9.38910282,2.96551724 9.11411537,3.05670797 8.91336407,3.22737069 L8.91336407,2.55212824 C8.91336407,1.77155172 8.32836221,1.13644934 7.60913411,1.13644934 C7.33231688,1.13496766 7.06294942,1.22858297 6.84350838,1.40247845 C6.83422885,0.630522621 6.25380144,0 5.54267657,0 L5.51836686,0 C4.98263796,0 4.52127591,0.360183172 4.32261578,0.865301724 C4.08905944,0.634159483 3.77786876,0.505118552 3.45400048,0.504983828 C2.73764768,0.504983828 2.15447563,1.1410291 2.15395284,1.92106683 L2.15107748,6.20891703 L0.506772747,7.80320583 C0.0301191368,8.26306572 -0.127763394,8.97521552 0.108014789,9.60264007 L1.82551013,14.2093211 C1.82903894,14.2190194 1.83322126,14.2341056 1.8379264,14.2432651 C2.38345758,15.3235452 3.42145678,16 4.54702334,16 L7.89954385,16 C9.60553781,16 10.9948518,14.4710399 10.9965509,12.5985991 L10.9965509,12.4966326 C10.9992955,9.50148169 11.0021709,6.40773169 10.9975964,4.37392241 C10.9958974,3.59536638 10.4127253,2.96551724 9.69754883,2.96551724 Z M10.4612141,12.4933998 L10.4612141,12.5980603 C10.4597764,14.1666218 9.31055362,15.4482759 7.89954385,15.4482759 L4.54702334,15.4482759 C3.62665181,15.4482759 2.77450438,14.8911638 2.31967722,14.0021552 L0.607671186,9.40773169 C0.450572856,8.98895476 0.555784302,8.51400862 0.873509835,8.20689655 L2.15055472,6.96821121 L2.14911704,9.14089441 C2.14911704,9.21363145 2.17747838,9.28353986 2.22766621,9.33472521 C2.27785403,9.38591055 2.34581671,9.41446659 2.41652403,9.4137931 L2.41678544,9.4137931 C2.48762344,9.41446659 2.55584753,9.38604524 2.60642746,9.33485993 C2.65700735,9.28367455 2.68576079,9.21390086 2.68628358,9.14075969 L2.69007383,6.33001076 L2.69007383,6.32799031 L2.69111941,1.92268317 C2.69151148,1.4469289 3.03916672,1.05953662 3.46066606,1.05953662 C3.87157887,1.05953662 4.19583926,1.42739762 4.22929781,1.88712283 L4.22929781,8.2040679 C4.22929781,8.35641166 4.34914737,8.47992997 4.4969662,8.47992997 C4.64478501,8.47992997 4.7646346,8.35641166 4.7646346,8.2040679 L4.7646346,1.42618534 C4.76450391,0.950161655 5.09673684,0.551724138 5.51836686,0.551724138 L5.54267657,0.551724138 C5.96430656,0.551724138 6.3035972,0.950296345 6.3035972,1.42658945 L6.3035972,8.02667028 C6.3035972,8.179014 6.42344676,8.30253234 6.57126559,8.30253234 C6.7190844,8.30253234 6.83893399,8.179014 6.83893399,8.02667028 L6.83893399,2.55212824 C6.83893399,2.07570041 7.18554362,1.68817348 7.6096569,1.68817348 C8.03128689,1.68817348 8.37802727,2.07583514 8.37802727,2.55212824 L8.37802727,7.95083514 C8.37802727,8.1031789 8.49787684,8.22669721 8.64569567,8.22669721 C8.79351447,8.22669721 8.91336407,8.1031789 8.91336407,7.95083514 L8.91336407,4.37149786 C8.91336407,3.89520476 9.25291605,3.51724138 9.67467676,3.51724138 L9.69754883,3.51724138 C10.1181332,3.51724138 10.4612141,3.89884159 10.4623903,4.37378772 C10.4669647,6.40692348 10.4640894,9.49865303 10.4612141,12.4933998 L10.4612141,12.4933998 Z" id="Shape"></path>
        </g>
    </g>
</svg>