<?xml version="1.0" encoding="UTF-8"?>
<svg width="16px" height="8px" viewBox="0 0 16 8" version="1.1" xmlns="http://www.w3.org/2000/svg" xmlns:xlink="http://www.w3.org/1999/xlink">
    <!-- Generator: Sketch 62 (91390) - https://sketch.com -->
    <title>Fill 4</title>
    <desc>Created with Sketch.</desc>
    <g id="Flujos" stroke="none" stroke-width="1" fill="none" fill-rule="evenodd">
        <g id="Ahorro_Corriente_Mobile" transform="translate(-272.000000, -1284.000000)" fill="#C6CBD4">
            <g id="Group-11" transform="translate(16.000000, 1256.000000)">
                <path d="M260.365482,39.6604775 C259.878173,39.1511936 259.878173,38.3023873 260.365482,37.7931034 L265.238579,32.7002653 C265.563452,32.3607427 265.563452,31.8514589 265.238579,31.3421751 L260.365482,26.2493369 C259.878173,25.7400531 259.878173,24.8912467 260.365482,24.3819629 C260.852792,23.872679 261.664975,23.872679 262.152284,24.3819629 L267.025381,29.4748011 C268.324873,30.8328912 268.324873,33.2095491 267.025381,34.5676393 L262.152284,39.6604775 C262.152284,40 261.827411,40 261.340102,40 C261.015228,40 260.527919,40 260.365482,39.6604775 Z" id="Fill-4" transform="translate(264.000000, 32.000000) rotate(-90.000000) translate(-264.000000, -32.000000) "></path>
            </g>
        </g>
    </g>
</svg>