<?xml version="1.0" encoding="UTF-8"?>
<svg width="24px" height="16px" viewBox="0 0 24 16" version="1.1" xmlns="http://www.w3.org/2000/svg" xmlns:xlink="http://www.w3.org/1999/xlink">
    <!-- Generator: Sketch 62 (91390) - https://sketch.com -->
    <title>view</title>
    <desc>Created with Sketch.</desc>
    <g id="Flujos" stroke="none" stroke-width="1" fill="none" fill-rule="evenodd">
        <g id="01.Login" transform="translate(-661.000000, -398.000000)" fill="#78B928" fill-rule="nonzero">
            <g id="view" transform="translate(661.000000, 398.000000)">
                <path d="M23.8241561,7.51419512 C23.609959,7.20897561 18.5063649,0.0407317073 11.9881522,0.0407317073 C5.46993951,0.0407317073 0.36611122,7.20897561 0.152148293,7.51390244 C-0.0507160976,7.80346341 -0.0507160976,8.19619512 0.152148293,8.4857561 C0.36611122,8.79097561 5.46993951,15.9592195 11.9881522,15.9592195 C18.5063649,15.9592195 23.609959,8.79092683 23.8241561,8.486 C24.0273015,8.1964878 24.0273015,7.80346341 23.8241561,7.51419512 Z M11.9881522,14.3124878 C7.18679415,14.3124878 3.02830829,9.55478049 1.79730732,7.99941463 C3.0267161,6.44268293 7.17649171,1.68746341 11.9881522,1.68746341 C16.7892761,1.68746341 20.947481,6.44434146 22.1789971,8.00053659 C20.9495883,9.55721951 16.7998127,14.3124878 11.9881522,14.3124878 Z" id="Shape"></path>
                <path d="M11.9881522,3.0597561 C9.3731122,3.0597561 7.24551805,5.276 7.24551805,8 C7.24551805,10.724 9.3731122,12.9402439 11.9881522,12.9402439 C14.6031922,12.9402439 16.7307863,10.724 16.7307863,8 C16.7307863,5.276 14.6031922,3.0597561 11.9881522,3.0597561 Z M11.9881522,11.2934634 C10.2446985,11.2934634 8.82642732,9.81604878 8.82642732,8 C8.82642732,6.18395122 10.2447454,4.70653659 11.9881522,4.70653659 C13.731559,4.70653659 15.1498771,6.18395122 15.1498771,8 C15.1498771,9.81604878 13.7316059,11.2934634 11.9881522,11.2934634 Z" id="Shape"></path>
            </g>
        </g>
    </g>
</svg>