<?xml version="1.0" encoding="UTF-8"?>
<svg width="15px" height="18px" viewBox="0 0 15 18" version="1.1" xmlns="http://www.w3.org/2000/svg" xmlns:xlink="http://www.w3.org/1999/xlink">
    <!-- Generator: Sketch 56.3 (81716) - https://sketch.com -->
    <title>delete-button</title>
    <desc>Created with Sketch.</desc>
    <g id="Flujos" stroke="none" stroke-width="1" fill="none" fill-rule="evenodd">
        <g id="04.Confirmación_pedido" transform="translate(-1080.000000, -695.000000)" fill="#78B928" fill-rule="nonzero">
            <g id="Group-4" transform="translate(16.000000, 656.000000)">
                <g id="Group">
                    <g id="delete-button" transform="translate(1064.000000, 39.000000)">
                        <path d="M12.4905466,2.154 L9.69201242,2.154 C9.55240994,0.943453416 8.52245963,0 7.2750559,0 C6.02768944,0 4.9978882,0.943416149 4.85828571,2.154 L2.05960248,2.154 C0.927055901,2.154 0.00577639752,3.07554037 0.00577639752,4.20804969 L0.00577639752,4.31344099 C0.00577639752,5.17889441 0.544658385,5.91965217 1.30378882,6.22147826 L1.30378882,15.9246708 C1.30378882,17.0572174 2.22518012,17.9787205 3.35765217,17.9787205 L11.1925342,17.9787205 C12.3250435,17.9787205 13.2463602,17.0571429 13.2463602,15.9246708 L13.2463602,6.22151553 C14.0054534,5.91965217 14.5443727,5.17889441 14.5443727,4.31347826 L14.5443727,4.20808696 C14.5443727,3.07554037 13.6230186,2.154 12.4905466,2.154 Z M7.2750559,0.974124224 C7.98450932,0.974124224 8.57668323,1.48263354 8.70771429,2.154 L5.84265839,2.154 C5.97365217,1.48259627 6.56586335,0.974124224 7.2750559,0.974124224 Z M12.272236,15.9246708 C12.272236,16.5201242 11.787764,17.0046335 11.1924969,17.0046335 L3.35761491,17.0046335 C2.76234783,17.0046335 2.27787578,16.520087 2.27787578,15.9246708 L2.27787578,6.36749068 L12.272236,6.36749068 L12.272236,15.9246708 Z M13.5702857,4.31344099 C13.5702857,4.90889441 13.0857764,5.39340373 12.4905093,5.39340373 L2.05960248,5.39340373 C1.4643354,5.39340373 0.979863354,4.90889441 0.979863354,4.31344099 L0.979863354,4.20804969 C0.979863354,3.61259627 1.4643354,3.12808696 2.05960248,3.12808696 L12.4905466,3.12808696 C13.0858137,3.12808696 13.5702857,3.61259627 13.5702857,4.20804969 L13.5702857,4.31344099 L13.5702857,4.31344099 Z" id="Shape"></path>
                        <path d="M4.66375155,15.7588696 C4.93274534,15.7588696 5.15079503,15.5407453 5.15079503,15.2718634 L5.15079503,9.78786335 C5.15079503,9.5189441 4.93270807,9.30078261 4.66375155,9.30078261 C4.39479503,9.30078261 4.17670807,9.5189441 4.17670807,9.78786335 L4.17670807,15.2718634 C4.17667081,15.5408199 4.39475776,15.7588696 4.66375155,15.7588696 Z" id="Path"></path>
                        <path d="M7.2750559,15.7588696 C7.54404969,15.7588696 7.76213665,15.5407453 7.76213665,15.2718634 L7.76213665,9.78786335 C7.76213665,9.5189441 7.54397516,9.30078261 7.2750559,9.30078261 C7.00609938,9.30078261 6.78801242,9.5189441 6.78801242,9.78786335 L6.78801242,15.2718634 C6.78801242,15.5408199 7.00606211,15.7588696 7.2750559,15.7588696 Z" id="Path"></path>
                        <path d="M9.88636025,15.7588696 C10.1553168,15.7588696 10.3733665,15.5407453 10.3733665,15.2718634 L10.3733665,9.78786335 C10.3733665,9.5189441 10.1552795,9.30078261 9.88636025,9.30078261 C9.61732919,9.30078261 9.3992795,9.5189441 9.3992795,9.78786335 L9.3992795,15.2718634 C9.39924224,15.5408199 9.61740373,15.7588696 9.88636025,15.7588696 Z" id="Path"></path>
                    </g>
                </g>
            </g>
        </g>
    </g>
</svg>