<?xml version="1.0" encoding="UTF-8"?>
<svg width="17px" height="17px" viewBox="0 0 17 17" version="1.1" xmlns="http://www.w3.org/2000/svg" xmlns:xlink="http://www.w3.org/1999/xlink">
    <!-- Generator: Sketch 55.2 (78181) - https://sketchapp.com -->
    <title>Shape</title>
    <desc>Created with Sketch.</desc>
    <g id="Page-1" stroke="none" stroke-width="1" fill="none" fill-rule="evenodd">
        <g id="search" fill="#ED1B2F">
            <path d="M11.3766318,6.6043489 L11.1241591,6.85499209 C12.0160463,7.89506985 12.5584968,9.24342043 12.5584968,10.7207516 C12.5584968,14.0047262 9.89655632,16.6666667 6.61258171,16.6666667 C3.32860709,16.6666667 0.666666667,14.0047262 0.666666667,10.7207516 C0.666666667,7.43677701 3.32860709,4.77483658 6.61258171,4.77483658 C8.08991291,4.77483658 9.43734873,5.31637223 10.4774265,6.20734473 L10.7298992,5.95670154 L10.7298992,5.23221466 L15.3018505,0.666666667 L16.6657519,2.0305681 L12.1029482,6.6043489 L11.3766318,6.6043489 Z M2.49617899,10.7207516 C2.49617899,12.9939207 4.33849789,14.8371543 6.61258171,14.8371543 C8.88575077,14.8371543 10.7289844,12.9939207 10.7289844,10.7207516 C10.7289844,8.44666781 8.88575077,6.6043489 6.61258171,6.6043489 C4.33849789,6.6043489 2.49617899,8.44666781 2.49617899,10.7207516 Z" id="Shape" transform="translate(8.666209, 8.666667) scale(1, -1) translate(-8.666209, -8.666667) "></path>
        </g>
    </g>
</svg>