<?xml version="1.0" encoding="UTF-8"?>
<svg width="21px" height="15px" viewBox="0 0 21 15" version="1.1" xmlns="http://www.w3.org/2000/svg" xmlns:xlink="http://www.w3.org/1999/xlink">
    <!-- Generator: Sketch 55.2 (78181) - https://sketchapp.com -->
    <title>noun_menu_2569521</title>
    <desc>Created with Sketch.</desc>
    <g id="Page-1" stroke="none" stroke-width="1" fill="none" fill-rule="evenodd">
        <g id="01.Home" transform="translate(-16.000000, -93.000000)" fill="#FFFFFF" fill-rule="nonzero">
            <g id="Group-10">
                <g id="Group-9" transform="translate(16.000000, 84.000000)">
                    <g id="noun_menu_2569521" transform="translate(0.000000, 9.000000)">
                        <path d="M1.06439716,2.16056738 C1.68397163,2.16056738 2.30884161,2.16056738 2.92841608,2.16056738 C4.43234043,2.16056738 5.93626478,2.16056738 7.43489362,2.16056738 C9.24595745,2.16056738 11.0570213,2.16056738 12.8680851,2.16056738 C14.4408511,2.16056738 16.013617,2.16056738 17.586383,2.16056738 C18.3489362,2.16056738 19.1114894,2.18174941 19.868747,2.16056738 C19.8793381,2.16056738 19.8899291,2.16056738 19.9005201,2.16056738 C20.4565485,2.16056738 20.9860993,1.67338061 20.9596217,1.10146572 C20.9331442,0.529550827 20.493617,0.0423640662 19.9005201,0.0423640662 C19.2809456,0.0423640662 18.6560757,0.0423640662 18.0365012,0.0423640662 C16.5325768,0.0423640662 15.0286525,0.0423640662 13.5300236,0.0423640662 C11.7189598,0.0423640662 9.90789598,0.0423640662 8.09683215,0.0423640662 C6.52406619,0.0423640662 4.95130024,0.0423640662 3.37853428,0.0423640662 C2.61598109,0.0423640662 1.8534279,0.0211820331 1.09617021,0.0423640662 C1.0855792,0.0423640662 1.07498818,0.0423640662 1.06439716,0.0423640662 C0.508368794,0.0423640662 -0.0211820331,0.529550827 0.00529550827,1.10146572 C0.0317730496,1.67867612 0.471300236,2.16056738 1.06439716,2.16056738 L1.06439716,2.16056738 Z" id="Path"></path>
                        <path d="M1.23665173,8.61579196 C2.88030558,8.61579196 4.53011544,8.61579196 6.17376929,8.61579196 C8.79622823,8.61579196 11.4186872,8.61579196 14.0411461,8.61579196 C14.6382788,8.61579196 15.2354115,8.61579196 15.8387002,8.61579196 C16.4850809,8.61579196 17.1006816,8.1286052 17.0699015,7.55669031 C17.0391215,6.98477541 16.5281729,6.49758865 15.8387002,6.49758865 C14.1950463,6.49758865 12.5452364,6.49758865 10.9015826,6.49758865 C8.27912365,6.49758865 5.6566647,6.49758865 3.03420576,6.49758865 C2.43707308,6.49758865 1.83994041,6.49758865 1.23665173,6.49758865 C0.590271008,6.49758865 -0.0253296842,6.98477541 0.00545035041,7.55669031 C0.036230385,8.1286052 0.547178959,8.61579196 1.23665173,8.61579196 L1.23665173,8.61579196 Z" id="Path"></path>
                        <path d="M1.06439716,14.9605674 C1.68397163,14.9605674 2.30884161,14.9605674 2.92841608,14.9605674 C4.43234043,14.9605674 5.93626478,14.9605674 7.43489362,14.9605674 C9.24595745,14.9605674 11.0570213,14.9605674 12.8680851,14.9605674 C14.4408511,14.9605674 16.013617,14.9605674 17.586383,14.9605674 C18.3489362,14.9605674 19.1114894,14.9817494 19.868747,14.9605674 C19.8793381,14.9605674 19.8899291,14.9605674 19.9005201,14.9605674 C20.4565485,14.9605674 20.9860993,14.4733806 20.9596217,13.9014657 C20.9331442,13.3295508 20.493617,12.8423641 19.9005201,12.8423641 C19.2809456,12.8423641 18.6560757,12.8423641 18.0365012,12.8423641 C16.5325768,12.8423641 15.0286525,12.8423641 13.5300236,12.8423641 C11.7189598,12.8423641 9.90789598,12.8423641 8.09683215,12.8423641 C6.52406619,12.8423641 4.95130024,12.8423641 3.37853428,12.8423641 C2.61598109,12.8423641 1.8534279,12.821182 1.09617021,12.8423641 C1.0855792,12.8423641 1.07498818,12.8423641 1.06439716,12.8423641 C0.508368794,12.8423641 -0.0211820331,13.3295508 0.00529550827,13.9014657 C0.0317730496,14.4786761 0.471300236,14.9605674 1.06439716,14.9605674 L1.06439716,14.9605674 Z" id="Path"></path>
                    </g>
                </g>
            </g>
        </g>
    </g>
</svg>