<?xml version="1.0" encoding="UTF-8"?>
<svg width="56px" height="60px" viewBox="0 0 56 60" version="1.1" xmlns="http://www.w3.org/2000/svg" xmlns:xlink="http://www.w3.org/1999/xlink">
    <!-- Generator: Sketch 59 (86127) - https://sketch.com -->
    <title>Group 23</title>
    <desc>Created with Sketch.</desc>
    <g id="Flujos" stroke="none" stroke-width="1" fill="none" fill-rule="evenodd">
        <g id="Group-23" transform="translate(0.000000, -0.644175)">
            <path d="M46.7633863,6.72817689 L54.6072796,15.9982327 C54.9640237,16.4198393 54.9114422,17.0508171 54.4898356,17.4075612 C54.3092789,17.5603399 54.0804141,17.6441749 53.8438934,17.6441749 L46,17.6441749 C45.4477153,17.6441749 45,17.1964597 45,16.6441749 L45,7.37411913 C45,6.82183438 45.4477153,6.37411913 46,6.37411913 C46.2941506,6.37411913 46.573382,6.50362639 46.7633863,6.72817689 Z" id="Rectangle" fill="#78B928"></path>
            <rect id="Rectangle" fill="#78B928" x="6" y="2.64417491" width="5" height="54" rx="1"></rect>
            <path d="M26.6441749,-16 L30.574956,-16 C30.6210468,-16 30.6670825,-15.9968135 30.7127337,-15.9904632 L32.3558251,-15.7619021 L32.3558251,-15.7619021 L30.6441749,-13.6086512 L30.6441749,22.4653561 L32.1023924,23.7877738 L30.9104852,26.41336 C30.7483159,26.7705936 30.3922372,27 29.9999175,27 L26.6441749,27 C26.0918902,27 25.6441749,26.5522847 25.6441749,26 L25.6441749,-15 C25.6441749,-15.5522847 26.0918902,-16 26.6441749,-16 Z" id="Rectangle" fill="#78B928" transform="translate(29.000000, 5.500000) rotate(-270.000000) translate(-29.000000, -5.500000) "></path>
            <rect id="Rectangle" fill="#FFFFFF" x="2" y="12.6441749" width="27" height="15" rx="1"></rect>
            <g id="pdf-(1)" transform="translate(0.000000, 0.644175)" fill="#484D4F" fill-rule="nonzero">
                <path d="M44.1276197,46 L19.8723802,46 C19.3906314,46 19,46.4481779 19,47.0002584 C19,47.5523392 19.3906314,48 19.8723802,48 L44.1271686,48 C44.6093684,48 45,47.5523392 45,47.0002584 C45,46.4481779 44.6093684,46 44.1276197,46 Z" id="Path"></path>
                <path d="M44.1276197,40 L19.8723802,40 C19.3906314,40 19,40.4476608 19,40.9997415 C19,41.552339 19.3906314,42 19.8723802,42 L44.1271686,42 C44.6093684,42 45,41.552339 45,40.9997415 C45,40.4476608 44.6093684,40 44.1276197,40 Z" id="Path"></path>
                <path d="M19,34.9997415 C19,35.5523392 19.3865462,36 19.8632568,36 L35.1362968,36 C35.6134537,36 36,35.5523392 36,34.9997415 C36,34.4476608 35.6134537,34 35.1362968,34 L19.8632568,34 C19.3865462,34 19,34.4476608 19,34.9997415 Z" id="Path"></path>
                <path d="M53.6216463,11.6171264 L52.0287704,9.8840332 L52.0287704,3.68545535 C52.0287704,1.65344238 50.3747004,0 48.3411349,0 L8.8256651,0 C6.79209953,0 5.13802949,1.65344238 5.13802949,3.68545535 L5.13802949,10.6773376 L3.52231987,10.6773376 C1.58008905,10.6773376 0,12.2621155 0,14.2098998 L0,24.9302673 C0,26.8780518 1.58008905,28.4628295 3.52231987,28.4628295 L5.13802949,28.4628295 L5.13802949,53.1660462 C5.13802949,55.1980591 6.79209953,56.8515014 8.8256651,56.8515014 L10.8441602,56.8515014 C11.0615368,58.6235046 12.5717548,60 14.3979907,60 L52.4151159,60 C54.3920539,60 56,58.3900452 56,56.4111328 L56,18.1585693 C56,15.0279236 55.9059254,14.1064453 53.6216463,11.6171264 Z M47.5784907,16.3362122 C46.5760933,16.3362122 45.760475,15.520935 45.760475,14.5193482 L45.7664117,6.81838992 C46.9281882,6.90490723 47.2382693,7.24914551 48.2566504,8.38439941 C48.4256194,8.57299805 48.6101154,8.77807617 48.8151616,9.00146484 L50.5039389,10.8389283 C50.5098756,10.8453369 50.5158123,10.8522034 50.5222058,10.858612 L52.321498,12.8164673 C53.7243978,14.3453979 54.0974998,14.9871826 54.1965978,16.3362122 L47.5784907,16.3362122 Z M6.90489783,3.68545535 C6.90489783,2.62985227 7.76664006,1.77108762 8.8256651,1.77108762 L48.3411349,1.77108762 C49.4001599,1.77108762 50.2619021,2.62985227 50.2619021,3.68545535 L50.2619021,7.96142578 L50.1148534,7.80120844 C49.9143738,7.58377078 49.735358,7.38372797 49.5709556,7.20016477 C48.1187351,5.58151242 47.4839593,5.02166742 44.884576,5.02166742 L14.3979907,5.02166742 C12.4228794,5.02166742 10.8163032,6.63162234 10.8163032,8.61053461 L10.8163032,10.6773376 L6.90489783,10.6773376 L6.90489783,3.68545535 Z M54.2331317,56.4111328 C54.2331317,57.4131775 53.4175135,58.2289124 52.4151159,58.2289124 L14.3979907,58.2289124 C13.3974198,58.2289124 12.5831715,57.4136353 12.5831715,56.4111328 L12.5831715,43.5781861 C12.5831715,43.0892944 12.1876927,42.6928711 11.6995091,42.6928711 C11.2117822,42.6928711 10.8163032,43.0892944 10.8163032,43.5781861 L10.8163032,55.0804138 L8.8256651,55.0804138 C7.76664006,55.0804138 6.90489783,54.2216491 6.90489783,53.1665039 L6.90489783,28.4628295 L10.8163032,28.4628295 L10.8163032,39.5233154 C10.8163032,40.012207 11.2117822,40.4086303 11.6995091,40.4086303 C12.1876927,40.4086303 12.5831715,40.012207 12.5831715,39.5233154 L12.5831715,28.4628295 L17.1690832,28.4628295 C17.6568102,28.4628295 18.052289,28.0664062 18.052289,27.5770569 C18.052289,27.0881653 17.6568102,26.6917419 17.1690832,26.6917419 L3.52231987,26.6917419 C2.55417282,26.6917419 1.76686834,25.9016419 1.76686834,24.9302673 L1.76686834,14.2098998 C1.76686834,13.2385254 2.55417282,12.4484252 3.52231987,12.4484252 L26.7884462,12.4484252 C27.7579633,12.4484252 28.5470945,13.2385254 28.5470945,14.2098998 L28.5470945,24.9302673 C28.5470945,25.9016419 27.7579633,26.6917419 26.7884462,26.6917419 L21.2165773,26.6917419 C20.7283937,26.6917419 20.3329147,27.0881653 20.3329147,27.5770569 C20.3329147,28.0664062 20.7283937,28.4628295 21.2165773,28.4628295 L26.7884462,28.4628295 C28.7325037,28.4628295 30.3139628,26.8780518 30.3139628,24.9302673 L30.3139628,14.2098998 C30.3139628,12.2621155 28.7325037,10.6773376 26.7884462,10.6773376 L12.5831715,10.6773376 L12.5831715,8.61053461 C12.5831715,7.60803223 13.3974198,6.79275516 14.3979907,6.79275516 L43.9995434,6.79275516 L43.9936067,14.5188904 C43.9936067,16.4978027 45.6020094,18.1077575 47.5784907,18.1077575 L54.2331317,18.1077575 L54.2331317,18.1585693 L54.2331317,56.4111328 Z" id="Shape"></path>
                <path d="M9.10766615,16 L6.95248431,16 C6.68785369,16 6.46275486,16.0894582 6.27765287,16.2688244 C6.092551,16.4477411 6,16.6684647 6,16.9314453 L6,23.0901326 C6,23.3459204 6.09069067,23.5612497 6.2720719,23.73657 C6.45345325,23.9123398 6.66925048,24 6.91853348,24 C7.16828153,24 7.38361371,23.9123398 7.56499494,23.73657 C7.74684134,23.5612497 7.83753201,23.353113 7.83753201,23.11216 L7.83753201,21.3261407 L9.2211456,21.3261407 C10.0606155,21.3261407 10.7335866,21.0833895 11.240059,20.5974377 C11.7465313,20.1114857 12,19.4740391 12,18.6850977 C12,17.8889638 11.7316487,17.2420769 11.1949462,16.745336 C10.6577785,16.2485952 9.9620185,16 9.10766615,16 Z M9.77691651,19.4520116 C9.55739864,19.6641941 9.30067435,19.7698359 9.00581355,19.7698359 L7.83753201,19.7698359 L7.83753201,17.5891211 L9.01697547,17.5891211 C9.32718402,17.5891211 9.5857685,17.6970105 9.79412445,17.9123398 C10.0020153,18.1281186 10.1057283,18.389301 10.1057283,18.6958867 C10.1057283,18.9880871 9.99643437,19.2402787 9.77691651,19.4520116 Z" id="Shape"></path>
                <path d="M19.5958398,18.1054071 C19.3265551,17.5315367 18.9489966,17.0702524 18.4636309,16.7220101 C17.7883192,16.24067 16.9155944,16 15.8459231,16 L13.945063,16 C13.6790453,16 13.455497,16.0925304 13.273485,16.277591 C13.0910061,16.4631075 13,16.6741496 13,16.9111732 L13,23.1002222 C13,23.3668737 13.0872725,23.5852088 13.2618174,23.7556834 C13.4512968,23.918865 13.6827789,24 13.9562637,24 L16.005067,24 C17.1125408,24 18.0006667,23.707367 18.6685113,23.1221012 C19.5561704,22.3298957 20,21.2815224 20,19.977893 C20,19.3037434 19.8651244,18.6797334 19.5958398,18.1054071 Z M17.5073672,21.7222951 C17.1125408,22.1594211 16.5893726,22.3777562 15.9364624,22.3777562 L14.843923,22.3777562 L14.843923,17.6331833 L15.8342556,17.6331833 C16.5324355,17.6331833 17.084539,17.8442253 17.4905661,18.2667654 C17.8961264,18.6888497 18.09914,19.2590735 18.09914,19.977893 C18.09914,20.7040055 17.9017268,21.2851689 17.5073672,21.7222951 Z" id="Shape"></path>
                <path d="M21.9809692,24 C22.2517167,24 22.4812635,23.9121273 22.6686286,23.7372787 C22.8559937,23.5624299 22.9496763,23.3548531 22.9496763,23.1145483 L22.9496763,20.7648509 L24.7919364,20.7648509 C25.0553267,20.7648509 25.2745732,20.6868415 25.4496763,20.529926 C25.6252698,20.3734589 25.7130665,20.1856086 25.7130665,19.9668236 C25.7130665,19.7413136 25.6233078,19.5498767 25.4437905,19.3934095 C25.2642731,19.2369424 25.0469884,19.1584846 24.7919364,19.1584846 L22.9496763,19.1584846 L22.9496763,17.6171262 L25.1269374,17.6171262 C25.3741416,17.6171262 25.5816167,17.5373234 25.7488719,17.3768214 C25.9166177,17.2167676 26,17.0307106 26,16.8195472 C26,16.5864156 25.9146557,16.391392 25.7429861,16.2349249 C25.5713165,16.0780094 25.3662939,16 25.1269374,16 L21.9927408,16 C21.7136551,16 21.4782225,16.091011 21.2869335,16.2730329 C21.0956444,16.4555033 21,16.6666667 21,16.9069716 L21,23.1145483 C21,23.3553014 21.0995683,23.5628782 21.2991955,23.737727 C21.4983324,23.9121273 21.7254268,24 21.9809692,24 Z" id="Path"></path>
            </g>
        </g>
    </g>
</svg>