<?xml version="1.0" encoding="UTF-8"?>
<svg width="16px" height="15px" viewBox="0 0 16 15" version="1.1" xmlns="http://www.w3.org/2000/svg" xmlns:xlink="http://www.w3.org/1999/xlink">
    <!-- Generator: Sketch 55.2 (78181) - https://sketchapp.com -->
    <title>Shape</title>
    <desc>Created with Sketch.</desc>
    <g id="Page-1" stroke="none" stroke-width="1" fill="none" fill-rule="evenodd">
        <g id="03.Login" transform="translate(-380.000000, -504.000000)" fill="#FFFFFF" fill-rule="nonzero">
            <g id="noun_User_2499966" transform="translate(155.000000, 164.000000)">
                <path d="M233.1,348 C230.895918,348 229.1,346.204082 229.1,344 C229.1,341.795918 230.895918,340 233.1,340 C235.304082,340 237.1,341.795918 237.1,344 C237.1,346.204082 235.304082,348 233.1,348 Z M233.1,346.4 C234.422449,346.4 235.5,345.322449 235.5,344 C235.5,342.677551 234.422449,341.6 233.1,341.6 C231.777551,341.6 230.7,342.677551 230.7,344 C230.7,345.322449 231.777551,346.4 233.1,346.4 Z M240.3,354.2 C240.3,354.640816 239.940816,355 239.5,355 C239.059184,355 238.7,354.640816 238.7,354.2 L238.7,352.6 C238.7,351.277551 237.622449,350.2 236.3,350.2 L229.9,350.2 C228.577551,350.2 227.5,351.277551 227.5,352.6 L227.5,354.2 C227.5,354.640816 227.140816,355 226.7,355 C226.259184,355 225.9,354.640816 225.9,354.2 L225.9,352.6 C225.9,350.395918 227.695918,348.6 229.9,348.6 L236.3,348.6 C238.504082,348.6 240.3,350.395918 240.3,352.6 L240.3,354.2 Z" id="Shape"></path>
            </g>
        </g>
    </g>
</svg>