<?xml version="1.0" encoding="UTF-8"?>
<svg width="18px" height="17px" viewBox="0 0 18 17" version="1.1" xmlns="http://www.w3.org/2000/svg" xmlns:xlink="http://www.w3.org/1999/xlink">
    <!-- Generator: Sketch 55.2 (78181) - https://sketchapp.com -->
    <title>Shape</title>
    <desc>Created with Sketch.</desc>
    <g id="Page-1" stroke="none" stroke-width="1" fill="none" fill-rule="evenodd">
        <g id="03.Login" transform="translate(-393.000000, -405.000000)" fill="#FFFFFF">
            <g id="noun_User_2499966" transform="translate(155.000000, 164.000000)">
                <g id="noun_Upload_2683905" transform="translate(0.000000, 241.000000)">
                    <path d="M246.395802,0.715892054 C246.683658,0.428035982 247.115442,0.428035982 247.403298,0.715892054 L251.097451,4.21814093 C252.056972,5.12968516 250.617691,6.61694153 249.658171,5.60944528 L248.026987,4.02623688 L248.026987,11.4625187 C248.026987,12.8058471 245.724138,12.8058471 245.724138,11.4625187 L245.724138,4.02623688 L244.14093,5.60944528 C243.181409,6.61694153 241.742129,5.12968516 242.701649,4.21814093 L246.395802,0.715892054 Z M239.967016,11.0787106 L239.967016,13.8613193 C240.110945,14.3410795 240.398801,14.5809595 240.830585,14.6769115 L252.968516,14.6769115 C253.4003,14.5809595 253.688156,14.3410795 253.784108,13.8613193 L253.784108,11.0787106 C253.784108,9.78335832 255.751124,9.78335832 255.751124,11.0787106 L255.751124,14.2451274 C255.751124,15.3005997 254.11994,16.5 253.4003,16.5 L240.398801,16.5 C239.67916,16.5 238.047976,15.3005997 238,14.2451274 L238,11.0787106 C238,9.78335832 239.967016,9.78335832 239.967016,11.0787106 Z" id="Shape"></path>
                </g>
            </g>
        </g>
    </g>
</svg>