<?xml version="1.0" encoding="UTF-8"?>
<svg width="24px" height="24px" viewBox="0 0 24 24" version="1.1" xmlns="http://www.w3.org/2000/svg" xmlns:xlink="http://www.w3.org/1999/xlink">
    <!-- Generator: Sketch 56.3 (81716) - https://sketch.com -->
    <title>Group 11</title>
    <desc>Created with Sketch.</desc>
    <g id="Flujos" stroke="none" stroke-width="1" fill="none" fill-rule="evenodd">
        <g id="04.Confirmación_pedido" transform="translate(-544.000000, -256.000000)">
            <g id="Group-11" transform="translate(544.000000, 256.000000)">
                <circle id="Oval" stroke="#78B928" fill="#78B928" cx="12" cy="12" r="11.5"></circle>
                <g id="checked-(2)" transform="translate(6.000000, 8.000000)" fill="#FFFFFF" fill-rule="nonzero">
                    <path d="M0.138461538,5.07692308 C0.0461538462,4.98461538 0,4.84615385 0,4.75384615 C0,4.66153846 0.0461538462,4.52307692 0.138461538,4.43076923 L0.784615385,3.78461538 C0.969230769,3.6 1.24615385,3.6 1.43076923,3.78461538 L1.47692308,3.83076923 L4.01538462,6.55384615 C4.10769231,6.64615385 4.24615385,6.64615385 4.33846154,6.55384615 L10.5230769,0.138461538 L10.5692308,0.138461538 L10.5692308,0.138461538 C10.7538462,-0.0461538462 11.0307692,-0.0461538462 11.2153846,0.138461538 L11.8615385,0.784615385 C12.0461538,0.969230769 12.0461538,1.24615385 11.8615385,1.43076923 L11.8615385,1.43076923 L4.47692308,9.09230769 C4.38461538,9.18461538 4.29230769,9.23076923 4.15384615,9.23076923 C4.01538462,9.23076923 3.92307692,9.18461538 3.83076923,9.09230769 L0.230769231,5.21538462 L0.138461538,5.07692308 Z" id="Path"></path>
                </g>
            </g>
        </g>
    </g>
</svg>