<?xml version="1.0" encoding="UTF-8"?>
<svg width="18px" height="16px" viewBox="0 0 18 16" version="1.1" xmlns="http://www.w3.org/2000/svg" xmlns:xlink="http://www.w3.org/1999/xlink">
    <!-- Generator: Sketch 55.2 (78181) - https://sketchapp.com -->
    <title>Group 2</title>
    <desc>Created with Sketch.</desc>
    <g id="Page-1" stroke="none" stroke-width="1" fill="none" fill-rule="evenodd">
        <g id="01.Home" transform="translate(-723.000000, -92.000000)" fill="#FFFFFF" fill-rule="nonzero">
            <g id="Group-10">
                <g id="Group-5" transform="translate(723.000000, 87.000000)">
                    <g id="Group-2" transform="translate(0.000000, 5.000000)">
                        <g id="excel">
                            <path d="M9.41957706,0.122011139 C9.29781362,0.021740333 9.13653047,-0.0198613846 8.98058781,0.00893980449 L0.435784946,1.60900586 C0.182645161,1.65594113 0,1.87568354 0,2.13276082 L0,13.8665786 C0,14.1225892 0.182645161,14.3433983 0.435784946,14.3903335 L8.98058781,15.9903996 C9.01263082,15.9967999 9.04681004,16 9.07885305,16 C9.20168459,16 9.32344803,15.9573316 9.41957706,15.8773283 C9.5424086,15.7759908 9.61290323,15.6245178 9.61290323,15.4666446 L9.61290323,0.532694761 C9.61290323,0.373754866 9.5424086,0.223348656 9.41957706,0.122011139 Z M8.54480287,14.8234181 L1.06810036,13.4238936 L1.06810036,2.57544576 L8.54480287,1.17592132 L8.54480287,14.8234181 Z" id="Shape"></path>
                            <path d="M16.5604839,2.12903226 L9.05241935,2.12903226 C8.7563871,2.12903226 8.51612903,2.36814076 8.51612903,2.6627566 C8.51612903,2.95737243 8.7563871,3.19648094 9.05241935,3.19648094 L16.0241935,3.19648094 L16.0241935,12.8035191 L9.05241935,12.8035191 C8.7563871,12.8035191 8.51612903,13.0426276 8.51612903,13.3372434 C8.51612903,13.6318592 8.7563871,13.8709677 9.05241935,13.8709677 L16.5604839,13.8709677 C16.8565161,13.8709677 17.0967742,13.6318592 17.0967742,13.3372434 L17.0967742,2.6627566 C17.0967742,2.36814076 16.8565161,2.12903226 16.5604839,2.12903226 Z" id="Path"></path>
                            <path d="M11.2043011,4.25806452 L9.05376344,4.25806452 C8.75698925,4.25806452 8.51612903,4.50374194 8.51612903,4.80645161 C8.51612903,5.10916129 8.75698925,5.35483871 9.05376344,5.35483871 L11.2043011,5.35483871 C11.5010753,5.35483871 11.7419355,5.10916129 11.7419355,4.80645161 C11.7419355,4.50374194 11.5010753,4.25806452 11.2043011,4.25806452 Z" id="Path"></path>
                            <path d="M11.2043011,6.38709677 L9.05376344,6.38709677 C8.75698925,6.38709677 8.51612903,6.63277419 8.51612903,6.93548387 C8.51612903,7.23819355 8.75698925,7.48387097 9.05376344,7.48387097 L11.2043011,7.48387097 C11.5010753,7.48387097 11.7419355,7.23819355 11.7419355,6.93548387 C11.7419355,6.63277419 11.5010753,6.38709677 11.2043011,6.38709677 Z" id="Path"></path>
                            <path d="M11.2043011,8.51612903 L9.05376344,8.51612903 C8.75698925,8.51612903 8.51612903,8.76180645 8.51612903,9.06451613 C8.51612903,9.36722581 8.75698925,9.61290323 9.05376344,9.61290323 L11.2043011,9.61290323 C11.5010753,9.61290323 11.7419355,9.36722581 11.7419355,9.06451613 C11.7419355,8.76180645 11.5010753,8.51612903 11.2043011,8.51612903 Z" id="Path"></path>
                            <path d="M11.2043011,10.6451613 L9.05376344,10.6451613 C8.75698925,10.6451613 8.51612903,10.8908387 8.51612903,11.1935484 C8.51612903,11.4962581 8.75698925,11.7419355 9.05376344,11.7419355 L11.2043011,11.7419355 C11.5010753,11.7419355 11.7419355,11.4962581 11.7419355,11.1935484 C11.7419355,10.8908387 11.5010753,10.6451613 11.2043011,10.6451613 Z" id="Path"></path>
                            <path d="M14.4354839,4.25806452 L13.3709677,4.25806452 C13.0771613,4.25806452 12.8387097,4.50374194 12.8387097,4.80645161 C12.8387097,5.10916129 13.0771613,5.35483871 13.3709677,5.35483871 L14.4354839,5.35483871 C14.7292903,5.35483871 14.9677419,5.10916129 14.9677419,4.80645161 C14.9677419,4.50374194 14.7292903,4.25806452 14.4354839,4.25806452 Z" id="Path"></path>
                            <path d="M14.4354839,6.38709677 L13.3709677,6.38709677 C13.0771613,6.38709677 12.8387097,6.63277419 12.8387097,6.93548387 C12.8387097,7.23819355 13.0771613,7.48387097 13.3709677,7.48387097 L14.4354839,7.48387097 C14.7292903,7.48387097 14.9677419,7.23819355 14.9677419,6.93548387 C14.9677419,6.63277419 14.7292903,6.38709677 14.4354839,6.38709677 Z" id="Path"></path>
                            <path d="M14.4354839,8.51612903 L13.3709677,8.51612903 C13.0771613,8.51612903 12.8387097,8.76180645 12.8387097,9.06451613 C12.8387097,9.36722581 13.0771613,9.61290323 13.3709677,9.61290323 L14.4354839,9.61290323 C14.7292903,9.61290323 14.9677419,9.36722581 14.9677419,9.06451613 C14.9677419,8.76180645 14.7292903,8.51612903 14.4354839,8.51612903 Z" id="Path"></path>
                            <path d="M14.4354839,10.6451613 L13.3709677,10.6451613 C13.0771613,10.6451613 12.8387097,10.8908387 12.8387097,11.1935484 C12.8387097,11.4962581 13.0771613,11.7419355 13.3709677,11.7419355 L14.4354839,11.7419355 C14.7292903,11.7419355 14.9677419,11.4962581 14.9677419,11.1935484 C14.9677419,10.8908387 14.7292903,10.6451613 14.4354839,10.6451613 Z" id="Path"></path>
                            <path d="M7.35070926,9.7573646 L3.58787081,5.47366524 C3.39005302,5.24984195 3.05139756,5.22842345 2.82885255,5.42333177 C2.60523243,5.6182401 2.5826554,5.95665234 2.778323,6.17833379 L6.54116144,10.4620331 C6.64759602,10.5830476 6.79595936,10.6451613 6.9453978,10.6451613 C7.07118412,10.6451613 7.19697043,10.6012534 7.30017971,10.5123666 C7.52379983,10.3174583 7.54637686,9.98011697 7.35070926,9.7573646 Z" id="Path"></path>
                            <path d="M7.27652998,4.88727903 C7.04211286,4.70474328 6.70446618,4.74850916 6.52166383,4.9801481 L2.7580862,9.78372062 C2.57635917,10.016427 2.61829618,10.3526771 2.8527133,10.5330779 C2.95164162,10.6088676 3.06777488,10.6451613 3.18283282,10.6451613 C3.34197839,10.6451613 3.50112396,10.5747089 3.60650413,10.4402089 L7.37008176,5.63663635 C7.55288411,5.40286248 7.5109471,5.06767987 7.27652998,4.88727903 Z" id="Path"></path>
                        </g>
                    </g>
                </g>
            </g>
        </g>
    </g>
</svg>