<?xml version="1.0" encoding="UTF-8"?>
<svg width="45px" height="48px" viewBox="0 0 45 48" version="1.1" xmlns="http://www.w3.org/2000/svg" xmlns:xlink="http://www.w3.org/1999/xlink">
    <!-- Generator: Sketch 62 (91390) - https://sketch.com -->
    <title>pdf (1)</title>
    <desc>Created with Sketch.</desc>
    <g id="Flujos" stroke="none" stroke-width="1" fill="none" fill-rule="evenodd">
        <g id="05.Subir_pedido" transform="translate(-32.000000, -328.000000)">
            <g id="pdf-(1)" transform="translate(32.000000, 328.000000)">
                <path d="M38.7808688,5.22608601 L43.700244,11.375305 C44.0452535,11.8065669 43.9753321,12.4358593 43.5440702,12.7808688 C43.3667572,12.9227192 43.1464466,13 42.9193752,13 L38,13 C37.4477153,13 37,12.5522847 37,12 L37,5.85078106 C37,5.29849631 37.4477153,4.85078106 38,4.85078106 C38.3037837,4.85078106 38.5910966,4.98887078 38.7808688,5.22608601 Z" id="Rectangle" fill="#78B928"></path>
                <rect id="Rectangle" fill="#78B928" x="5" y="2" width="4" height="43" rx="1"></rect>
                <path d="M21.8796727,-13.7020698 L24.2186988,-13.9855783 C24.297738,-13.9951585 24.3776384,-13.9952651 24.4567029,-13.985896 L26,-13.8030151 L26,-13.8030151 L24.4828803,-11.6714981 L24.4828803,17.3516737 L25.4986396,18.4156186 L24.7321456,20.365798 C24.5817662,20.7484061 24.212551,21 23.8014513,21 L22,21 C21.4477153,21 21,20.5522847 21,20 L21,-12.7093355 C21,-13.2150826 21.3776003,-13.6412146 21.8796727,-13.7020698 Z" id="Rectangle" fill="#78B928" transform="translate(23.500000, 3.500000) rotate(-270.000000) translate(-23.500000, -3.500000) "></path>
                <rect id="Rectangle" fill="#FFFFFF" x="2" y="10" width="22" height="12" rx="1"></rect>
                <path d="M35.2953851,37 L15.7046148,37 C15.31551,37 15,37.4481779 15,38.0002584 C15,38.5523392 15.31551,39 15.7046148,39 L35.2950208,39 C35.6844899,39 36,38.5523392 36,38.0002584 C36,37.4481779 35.6844899,37 35.2953851,37 Z" id="Path" fill="#484D4F" fill-rule="nonzero"></path>
                <path d="M35.2953851,32 L15.7046148,32 C15.31551,32 15,32.4476608 15,32.9997415 C15,33.552339 15.31551,34 15.7046148,34 L35.2950208,34 C35.6844899,34 36,33.552339 36,32.9997415 C36,32.4476608 35.6844899,32 35.2953851,32 Z" id="Path" fill="#484D4F" fill-rule="nonzero"></path>
                <path d="M15,27.9997415 C15,28.5523392 15.3183321,29 15.7109174,29 L28.288715,29 C28.6816678,29 29,28.5523392 29,27.9997415 C29,27.4476608 28.6816678,27 28.288715,27 L15.7109174,27 C15.3183321,27 15,27.4476608 15,27.9997415 Z" id="Path" fill="#484D4F" fill-rule="nonzero"></path>
                <path d="M43.0888229,9.29370112 L41.8088334,7.90722656 L41.8088334,2.94836428 C41.8088334,1.32275391 40.4796699,0 38.8455548,0 L7.09205231,0 C5.45793712,0 4.1287737,1.32275391 4.1287737,2.94836428 L4.1287737,8.54187009 L2.83043561,8.54187009 C1.26971442,8.54187009 0,9.80969241 0,11.3679199 L0,19.9442138 C0,21.5024414 1.26971442,22.7702636 2.83043561,22.7702636 L4.1287737,22.7702636 L4.1287737,42.5328369 C4.1287737,44.1584473 5.45793712,45.4812011 7.09205231,45.4812011 L8.71405734,45.4812011 C8.88873491,46.8988037 10.1023029,48 11.5698139,48 L42.1192896,48 C43.7079005,48 45,46.7120362 45,45.1289062 L45,14.5268555 C45,12.0223388 44.9244043,11.2851562 43.0888229,9.29370112 Z M38.2327158,13.0689698 C37.4272178,13.0689698 36.7718103,12.416748 36.7718103,11.6154786 L36.7765808,5.45471194 C37.7101512,5.52392578 37.9593235,5.79931641 38.7776655,6.70751953 C38.9134442,6.85839844 39.0616998,7.02246094 39.2264691,7.20117187 L40.5835223,8.67114262 C40.5882929,8.67626953 40.5930635,8.68176272 40.5982011,8.68688962 L42.0440609,10.2531739 C43.1713911,11.4763183 43.4712052,11.9897461 43.5508375,13.0689698 L38.2327158,13.0689698 Z M5.54857861,2.94836428 C5.54857861,2.10388181 6.24105005,1.41687009 7.09205231,1.41687009 L38.8455548,1.41687009 C39.6965571,1.41687009 40.3890284,2.10388181 40.3890284,2.94836428 L40.3890284,6.36914062 L40.2708643,6.24096675 C40.1097647,6.06701662 39.9659127,5.90698237 39.8338036,5.76013181 C38.6668407,4.46520994 38.156753,4.01733394 36.0679628,4.01733394 L11.5698139,4.01733394 C9.98267092,4.01733394 8.69167222,5.30529787 8.69167222,6.88842769 L8.69167222,8.54187009 L5.54857861,8.54187009 L5.54857861,2.94836428 Z M43.5801951,45.1289062 C43.5801951,45.930542 42.9247876,46.5831299 42.1192896,46.5831299 L11.5698139,46.5831299 C10.7657838,46.5831299 10.1114771,45.9309082 10.1114771,45.1289062 L10.1114771,34.8625489 C10.1114771,34.4714355 9.79368161,34.1542969 9.40139126,34.1542969 C9.00946785,34.1542969 8.69167222,34.4714355 8.69167222,34.8625489 L8.69167222,44.064331 L7.09205231,44.064331 C6.24105005,44.064331 5.54857861,43.3773193 5.54857861,42.5332031 L5.54857861,22.7702636 L8.69167222,22.7702636 L8.69167222,31.6186523 C8.69167222,32.0097656 9.00946785,32.3269042 9.40139126,32.3269042 C9.79368161,32.3269042 10.1114771,32.0097656 10.1114771,31.6186523 L10.1114771,22.7702636 L13.7965848,22.7702636 C14.1885082,22.7702636 14.5063037,22.453125 14.5063037,22.0616455 C14.5063037,21.6705322 14.1885082,21.3533935 13.7965848,21.3533935 L2.83043561,21.3533935 C2.05246031,21.3533935 1.41980491,20.7213135 1.41980491,19.9442138 L1.41980491,11.3679199 C1.41980491,10.5908203 2.05246031,9.95874019 2.83043561,9.95874019 L21.52643,9.95874019 C22.3055062,9.95874019 22.9396295,10.5908203 22.9396295,11.3679199 L22.9396295,19.9442138 C22.9396295,20.7213135 22.3055062,21.3533935 21.52643,21.3533935 L17.0490353,21.3533935 C16.656745,21.3533935 16.3389493,21.6705322 16.3389493,22.0616455 C16.3389493,22.453125 16.656745,22.7702636 17.0490353,22.7702636 L21.52643,22.7702636 C23.0886191,22.7702636 24.3594344,21.5024414 24.3594344,19.9442138 L24.3594344,11.3679199 C24.3594344,9.80969241 23.0886191,8.54187009 21.52643,8.54187009 L10.1114771,8.54187009 L10.1114771,6.88842769 C10.1114771,6.08642578 10.7657838,5.43420412 11.5698139,5.43420412 L35.3567759,5.43420412 L35.3520053,11.6151123 C35.3520053,13.1982422 36.6444718,14.486206 38.2327158,14.486206 L43.5801951,14.486206 L43.5801951,14.5268555 L43.5801951,45.1289062 Z" id="Shape" fill="#484D4F" fill-rule="nonzero"></path>
                <path d="M4.82025547,18.9027778 L6.46368613,16.5694444 L8.09671533,18.9027778 L9.9689781,18.9027778 L7.4310219,15.4222222 L9.8649635,12.0972222 L8.04470803,12.0972222 L6.50529197,14.3041667 L4.97627737,12.0972222 L3.1040146,12.0972222 L5.5379562,15.4416667 L3,18.9027778 L4.82025547,18.9027778 Z M15.9636861,18.9027778 L15.9636861,17.5416667 L12.3335766,17.5416667 L12.3335766,12.0972222 L10.7317518,12.0972222 L10.7317518,18.9027778 L15.9636861,18.9027778 Z M19.3268248,19 C20.8974453,19 22,18.2416667 22,16.8902778 L22,16.8708333 C22,15.6847222 21.1678832,15.1888889 19.6908759,14.8291667 C18.4322993,14.5277778 18.1202555,14.3819444 18.1202555,13.9347222 L18.1202555,13.9152778 C18.1202555,13.5847222 18.4427007,13.3222222 19.0563869,13.3222222 C19.670073,13.3222222 20.304562,13.575 20.9494526,13.9930556 L21.7815693,12.8652778 C21.0430657,12.3111111 20.1381387,12 19.0771898,12 C17.589781,12 16.5288321,12.8166667 16.5288321,14.0513889 L16.5288321,14.0708333 C16.5288321,15.4222222 17.475365,15.8013889 18.9419708,16.1513889 C20.1589416,16.4430556 20.4085766,16.6375 20.4085766,17.0166667 L20.4085766,17.0361111 C20.4085766,17.4347222 20.0133212,17.6777778 19.3580292,17.6777778 C18.5259124,17.6777778 17.8394161,17.3569444 17.1841241,16.8513889 L16.2375912,17.9111111 C17.1113139,18.6402778 18.2242701,19 19.3268248,19 Z" id="XLS" fill="#484D4F" fill-rule="nonzero"></path>
            </g>
        </g>
    </g>
</svg>