<?xml version="1.0" encoding="UTF-8"?>
<svg width="15px" height="16px" viewBox="0 0 15 16" version="1.1" xmlns="http://www.w3.org/2000/svg" xmlns:xlink="http://www.w3.org/1999/xlink">
    <!-- Generator: Sketch 59 (86127) - https://sketch.com -->
    <title>password</title>
    <desc>Created with Sketch.</desc>
    <defs>
        <path d="M462.307692,403.333333 L461.428571,403.333333 L461.428571,401.809524 C461.428571,399.706667 459.459341,398 457.032967,398 C454.606593,398 452.637363,399.706667 452.637363,401.809524 L452.637363,403.333333 L451.758242,403.333333 C450.791209,403.333333 450,404.019048 450,404.857143 L450,412.47619 C450,413.314286 450.791209,414 451.758242,414 L462.307692,414 C463.274725,414 464.065934,413.314286 464.065934,412.47619 L464.065934,404.857143 C464.065934,404.019048 463.274725,403.333333 462.307692,403.333333 Z M457.032967,410.190476 C456.065934,410.190476 455.274725,409.504762 455.274725,408.666667 C455.274725,407.828571 456.065934,407.142857 457.032967,407.142857 C458,407.142857 458.791209,407.828571 458.791209,408.666667 C458.791209,409.504762 458,410.190476 457.032967,410.190476 Z M459.758242,403.333333 L454.307692,403.333333 L454.307692,401.809524 C454.307692,400.506667 455.52967,399.447619 457.032967,399.447619 C458.536264,399.447619 459.758242,400.506667 459.758242,401.809524 L459.758242,403.333333 Z" id="path-1"></path>
    </defs>
    <g id="Flujos" stroke="none" stroke-width="1" fill="none" fill-rule="evenodd">
        <g id="01.Propuesta_Login" transform="translate(-450.000000, -398.000000)">
            <mask id="mask-2" fill="white">
                <use xlink:href="#path-1"></use>
            </mask>
            <use id="password" fill="#DBDCDC" fill-rule="nonzero" xlink:href="#path-1"></use>
        </g>
    </g>
</svg>