<?xml version="1.0" encoding="UTF-8"?>
<svg width="90px" height="90px" viewBox="0 0 90 90" version="1.1" xmlns="http://www.w3.org/2000/svg" xmlns:xlink="http://www.w3.org/1999/xlink">
    <!-- Generator: Sketch 59 (86127) - https://sketch.com -->
    <title>Group 2</title>
    <desc>Created with Sketch.</desc>
    <g id="Flujos" stroke="none" stroke-width="1" fill="none" fill-rule="evenodd">
        <g id="01" transform="translate(-525.000000, -176.000000)">
            <g id="Group-2" transform="translate(525.000000, 176.000000)">
                <circle id="Oval" stroke="#78B928" stroke-width="2" fill="#78B928" cx="45" cy="45" r="44"></circle>
                <path d="M23.00625,46.6875 C22.66875,46.35 22.5,45.84375 22.5,45.50625 C22.5,45.16875 22.66875,44.6625 23.00625,44.325 L25.36875,41.9625 C26.04375,41.2875 27.05625,41.2875 27.73125,41.9625 L27.9,42.13125 L37.18125,52.0875 C37.51875,52.425 38.025,52.425 38.3625,52.0875 L60.975,28.63125 L61.14375,28.63125 L61.14375,28.63125 C61.81875,27.95625 62.83125,27.95625 63.50625,28.63125 L65.86875,30.99375 C66.54375,31.66875 66.54375,32.68125 65.86875,33.35625 L65.86875,33.35625 L38.86875,61.36875 C38.53125,61.70625 38.19375,61.875 37.6875,61.875 C37.18125,61.875 36.84375,61.70625 36.50625,61.36875 L23.34375,47.19375 L23.00625,46.6875 Z" id="Path" fill="#FFFFFF" fill-rule="nonzero"></path>
            </g>
        </g>
    </g>
</svg>