<?xml version="1.0" encoding="UTF-8"?>
<svg width="16px" height="16px" viewBox="0 0 16 16" version="1.1" xmlns="http://www.w3.org/2000/svg" xmlns:xlink="http://www.w3.org/1999/xlink">
    <!-- Generator: Sketch 55.2 (78181) - https://sketchapp.com -->
    <title>Shape</title>
    <desc>Created with Sketch.</desc>
    <g id="Page-1" stroke="none" stroke-width="1" fill="none" fill-rule="evenodd">
        <g id="03.Login" transform="translate(-380.000000, -504.000000)" fill="#FFFFFF" fill-rule="nonzero">
            <g id="noun_User_2499966" transform="translate(380.000000, 504.000000)">
                <path d="M8.1,8 C5.89591837,8 4.1,6.20408163 4.1,4 C4.1,1.79591837 5.89591837,0 8.1,0 C10.3040816,0 12.1,1.79591837 12.1,4 C12.1,6.20408163 10.3040816,8 8.1,8 Z M8.1,6.4 C9.42244898,6.4 10.5,5.32244898 10.5,4 C10.5,2.67755102 9.42244898,1.6 8.1,1.6 C6.77755102,1.6 5.7,2.67755102 5.7,4 C5.7,5.32244898 6.77755102,6.4 8.1,6.4 Z M15.3,15.2 C15.3,15.6408163 14.9408163,16 14.5,16 C14.0591837,16 13.7,15.6408163 13.7,15.2 L13.7,13.6 C13.7,12.277551 12.622449,11.2 11.3,11.2 L4.9,11.2 C3.57755102,11.2 2.5,12.277551 2.5,13.6 L2.5,15.2 C2.5,15.6408163 2.14081633,16 1.7,16 C1.25918367,16 0.9,15.6408163 0.9,15.2 L0.9,13.6 C0.9,11.3959184 2.69591837,9.6 4.9,9.6 L11.3,9.6 C13.5040816,9.6 15.3,11.3959184 15.3,13.6 L15.3,15.2 Z" id="Shape"></path>
            </g>
        </g>
    </g>
</svg>