<?xml version="1.0" encoding="UTF-8"?>
<svg width="32px" height="32px" viewBox="0 0 32 32" version="1.1" xmlns="http://www.w3.org/2000/svg" xmlns:xlink="http://www.w3.org/1999/xlink">
    <!-- Generator: Sketch 56.3 (81716) - https://sketch.com -->
    <title>Shape</title>
    <desc>Created with Sketch.</desc>
    <g id="Page-1" stroke="none" stroke-width="1" fill="none" fill-rule="evenodd">
        <g id="Desktop---Home-/-End-state" transform="translate(-381.000000, -265.000000)" fill="#F3A238" fill-rule="nonzero">
            <g id="like-(2)" transform="translate(381.000000, 265.000000)">
                <path d="M30.1833593,21.7549143 C30.8393738,20.9184442 31.1539929,20.0217482 31.1138288,19.0982852 C31.0736646,18.0811376 30.6184709,17.2848181 30.2436055,16.7963195 C30.6787172,15.7122543 30.8460678,14.0058553 29.3934643,12.6808867 C28.3291143,11.7105813 26.5217275,11.2756169 24.0181622,11.3960686 C22.2576335,11.4763697 20.784948,11.804266 20.7247018,11.8176495 L20.7180078,11.8176495 C20.3833065,11.8778754 20.0285232,11.9514847 19.6670458,12.0317859 C19.6402697,11.6035132 19.713904,10.5395232 20.503799,8.14387286 C21.4409625,5.29318277 21.3874103,3.11166876 20.3297543,1.65286491 C19.2185461,0.120451694 17.4446295,0 16.9224955,0 C16.4204436,0 15.9585559,0.207444584 15.6305487,0.588874948 C14.8875119,1.45211209 14.9745342,3.04475115 15.0682506,3.78084483 C14.1846392,6.14972815 11.7078499,11.9581765 9.61262008,13.5708908 C9.57245593,13.5976579 9.5389858,13.6311167 9.50551568,13.6645755 C8.88966537,14.3136763 8.47463581,15.0163112 8.19348675,15.6319532 C7.79853927,15.4178168 7.35003959,15.2973651 6.86806978,15.2973651 L2.78471445,15.2973651 C1.24508867,15.2973651 0,16.5487244 0,18.0811376 L0,28.9552488 C0,30.4943538 1.2517827,31.7390213 2.78471445,31.7390213 L6.86806978,31.7390213 C7.46383802,31.7390213 8.0194421,31.551652 8.47463581,31.2304475 L10.0477317,31.4178168 C10.2887166,31.4512756 14.5728927,31.9933082 18.9708672,31.9063153 C19.7674562,31.9665412 20.517187,32 21.2133656,32 C22.4115961,32 23.455864,31.9063153 24.3260873,31.718946 C26.374459,31.2839816 27.7735102,30.4140527 28.4830769,29.1359264 C29.0252929,28.1589293 29.0252929,27.188624 28.9382706,26.572982 C30.2703816,25.3684651 30.5046725,24.0368047 30.4578143,23.0999582 C30.4310382,22.5579256 30.3105458,22.0961941 30.1833593,21.7549143 Z M2.72999465,30.0137931 C2.19490787,30.0137931 1.76551724,29.5733343 1.76551724,29.0394448 L1.76551724,18.1881414 C1.76551724,17.6475783 2.20151388,17.2137931 2.72999465,17.2137931 L6.75966052,17.2137931 C7.2947473,17.2137931 7.72413793,17.6542519 7.72413793,18.1881414 L7.72413793,29.0327712 C7.72413793,29.5733343 7.2881413,30.0071195 6.75966052,30.0071195 L2.72999465,30.0071195 L2.72999465,30.0137931 Z M28.5098554,20.991342 C28.2275769,21.2865047 28.1738095,21.735957 28.3888789,22.0847857 C28.3888789,22.0914939 28.6644366,22.5610709 28.6980412,23.2050623 C28.7450876,24.0838421 28.3216697,24.8619983 27.4345084,25.5261144 C27.1186253,25.7676111 26.9909278,26.1835222 27.1253462,26.5591838 C27.1253462,26.5658921 27.4143457,27.4513802 26.9438814,28.2899105 C26.4935798,29.0948997 25.4921629,29.6718086 23.9732352,29.9938043 C22.7567489,30.2554258 21.1034029,30.3023835 19.0736854,30.1413857 C19.0468017,30.1413857 19.0131971,30.1413857 18.9795926,30.1413857 C14.6580417,30.2353011 10.2894445,29.6718086 10.2423981,29.6651004 L10.2356772,29.6651004 L9.55686436,29.5846015 C9.59718987,29.3967707 9.61735263,29.1955234 9.61735263,28.9942761 L9.61735263,18.0866728 C9.61735263,17.7982183 9.5703062,17.5164721 9.48965517,17.2548506 C9.61063171,16.8053983 9.94667765,15.8058701 10.7397461,14.9539232 C13.7574386,12.5657887 16.707922,4.50918868 16.8356194,4.16036004 C16.8893868,4.01948693 16.9028286,3.86519734 16.875945,3.71090775 C16.7616893,2.95958452 16.8020149,2.04055521 16.9633169,1.76551724 C17.3195256,1.77222548 18.280617,1.87284913 18.858616,2.67113006 C19.5441497,3.61699234 19.5172661,5.30746961 18.777965,7.54802281 C17.6488506,10.9625186 17.5547578,12.7603277 18.44864,13.5519004 C18.8922206,13.9476868 19.4836615,13.9678115 19.9138003,13.8135219 C20.3237763,13.7196065 20.7135896,13.6391076 21.0832401,13.5787334 C21.1101238,13.5720251 21.1437284,13.5653169 21.1706121,13.5586087 C23.2339342,13.1091564 26.9304395,12.8341184 28.214135,14.0013527 C29.3029239,14.9941727 28.5300182,16.3089883 28.4426463,16.4498614 C28.1939723,16.8255231 28.2679024,17.3152248 28.6039483,17.6170957 C28.6106692,17.623804 29.3163657,18.2879201 29.3499703,19.1801164 C29.376854,19.77715 29.0945754,20.3876002 28.5098554,20.991342 Z" id="Shape"></path>
            </g>
        </g>
    </g>
</svg>