<?xml version="1.0" encoding="UTF-8"?>
<svg width="570px" height="445px" viewBox="0 0 570 445" version="1.1" xmlns="http://www.w3.org/2000/svg" xmlns:xlink="http://www.w3.org/1999/xlink">
    <!-- Generator: Sketch 52.1 (67048) - http://www.bohemiancoding.com/sketch -->
    <title>Group 197</title>
    <desc>Created with Sketch.</desc>
    <g id="Page-2" stroke="none" stroke-width="1" fill="none" fill-rule="evenodd">
        <g id="Login-Desktop-1-Cambios" transform="translate(-52.000000, -176.000000)">
            <g id="Group-197" transform="translate(53.000000, 176.000000)">
                <path d="M127.045698,410.797949 C123.474819,411.676327 120.079403,409.617483 119.20208,406.045876 C118.323595,402.474269 120.38269,399.080429 123.95357,398.202051 C127.518639,397.323673 130.919865,399.382517 131.79835,402.954124 C132.676835,406.525731 130.610768,409.919571 127.045698,410.797949" id="Fill-1" fill="#A60206"></path>
                <path d="M150.047853,403.797869 C146.475369,404.676461 143.073722,402.617116 142.202101,399.052775 C141.323507,395.480299 143.382857,392.077498 146.955341,391.198906 C150.51969,390.328449 153.922499,392.387795 154.801093,395.952135 C155.671552,399.524611 153.612202,402.927412 150.047853,403.797869" id="Fill-3" fill="#A60206"></path>
                <path d="M146.456624,354.060644 L107.31959,363.535045 L101.180994,355.451772 L90.7950361,357.965541 C89.5321016,358.271489 88.7581267,359.530247 89.0684767,360.776517 C89.3788267,362.021539 90.6556953,362.784536 91.9198965,362.478588 L99.3290275,360.684109 L114.674251,381.371196 C112.209186,383.164426 111.052657,386.315067 112.068578,389.418255 C113.425251,392.917303 117.246989,394.623119 120.681107,393.792689 L150.204892,386.645991 C151.469093,386.340043 152.241801,385.081285 151.931451,383.835015 C151.621101,382.588744 150.345499,381.826996 149.081298,382.132944 L119.328234,389.335837 C118.145104,389.621804 116.901171,388.981187 116.535084,387.836067 C116.072726,386.392491 116.763097,385.172445 118.203374,384.82279 L148.414996,377.510006 C149.558857,377.232779 150.306231,376.333666 150.254295,375.151083 L149.419516,356.21352 C149.311844,354.80491 147.829764,353.728472 146.456624,354.060644 Z" id="Stroke-5" stroke="#A60206" stroke-width="1.548" stroke-linecap="round" stroke-linejoin="round"></path>
                <path d="M444.036558,271.6733 L455.985481,274 C455.985481,274 456.912187,263.00037 443.958226,259.325442 L432,257 C432,257 431.929643,270.027003 444.036558,271.6733" id="Stroke-7" stroke="#A60206" stroke-width="1.548" stroke-linecap="round" stroke-linejoin="round"></path>
                <polygon id="Fill-9" fill="#C00418" points="317.68411 395.763079 303.042119 392.095288 270.719209 384 269 390.405686 315.966177 402.169999 319.280791 403 321 396.593081"></polygon>
                <polygon id="Stroke-11" stroke="#A60206" stroke-width="1.548" stroke-linecap="round" stroke-linejoin="round" points="313.812148 405.006368 268.642116 393 259 431.145205 304.170032 443.152832 307.357884 444 317 405.853536"></polygon>
                <polyline id="Stroke-13" stroke="#A60206" stroke-width="1.548" stroke-linecap="round" stroke-linejoin="round" points="274 402 274.742296 407.013105 278.176435 404.521937 279.311631 408 283 403.955556"></polyline>
                <polyline id="Stroke-15" stroke="#A60206" stroke-width="1.548" stroke-linecap="round" stroke-linejoin="round" points="287 406 287.742296 411.013105 291.176435 408.521937 292.311631 412 296 407.955556"></polyline>
                <polyline id="Stroke-17" stroke="#A60206" stroke-width="1.548" stroke-linecap="round" stroke-linejoin="round" points="300 410 300.742296 415.013105 304.176435 412.521937 305.311631 416 309 411.955556"></polyline>
                <polygon id="Stroke-19" stroke="#A60206" stroke-width="1.548" stroke-linecap="round" stroke-linejoin="round" points="271.823664 413 275 413.823664 274.176336 417 271 416.176336"></polygon>
                <path d="M302,425.9785 L299,425.0215" id="Stroke-21" stroke="#A60206" stroke-width="1.548" stroke-linecap="round" stroke-linejoin="round"></path>
                <path d="M295.5,423.5 L279,418" id="Stroke-23" stroke="#A60206" stroke-width="1.548" stroke-linecap="round" stroke-linejoin="round"></path>
                <polygon id="Stroke-25" stroke="#A60206" stroke-width="1.548" stroke-linecap="round" stroke-linejoin="round" points="269.823664 420 273 420.823664 272.176336 424 269 423.176336"></polygon>
                <path d="M300,431.9785 L297,431.0215" id="Stroke-27" stroke="#A60206" stroke-width="1.548" stroke-linecap="round" stroke-linejoin="round"></path>
                <path d="M292.5,429.5 L276.5,424.5" id="Stroke-29" stroke="#A60206" stroke-width="1.548" stroke-linecap="round" stroke-linejoin="round"></path>
                <path d="M316.251017,398.032256 C316.785475,398.17083 317.106374,398.716184 316.967727,399.250364 C316.829081,399.784544 316.283442,400.106392 315.748983,399.967819 C315.214525,399.829245 314.893626,399.28389 315.032273,398.748593 C315.170919,398.214413 315.71544,397.893682 316.251017,398.032256 Z" id="Stroke-31" stroke="#A60206" stroke-width="1.548" stroke-linecap="round" stroke-linejoin="round"></path>
                <path d="M309.25032,396.032256 C309.785599,396.17083 310.106319,396.716184 309.96775,397.250364 C309.829181,397.784544 309.283845,398.106392 308.748567,397.967819 C308.214406,397.829245 307.893686,397.28389 308.032255,396.748593 C308.170824,396.214413 308.716159,395.893682 309.25032,396.032256 Z" id="Stroke-33" stroke="#A60206" stroke-width="1.548" stroke-linecap="round" stroke-linejoin="round"></path>
                <path d="M302.25032,394.032262 C302.785599,394.170861 303.106319,394.716318 302.96775,395.250598 C302.829181,395.784877 302.282728,396.105668 301.748567,395.968186 C301.214406,395.829587 300.893686,395.28413 301.032255,394.748733 C301.170824,394.214453 301.716159,393.893662 302.25032,394.032262 Z" id="Stroke-35" stroke="#A60206" stroke-width="1.548" stroke-linecap="round" stroke-linejoin="round"></path>
                <path d="M12,298 L0,310" id="Stroke-37" stroke="#A60206" stroke-width="2" stroke-linecap="round"></path>
                <path d="M0,298 L12,310" id="Stroke-39" stroke="#A60206" stroke-width="2" stroke-linecap="round"></path>
                <path d="M568,305 L556,317" id="Stroke-41" stroke="#A60206" stroke-width="2" stroke-linecap="round"></path>
                <path d="M556,305 L568,317" id="Stroke-43" stroke="#A60206" stroke-width="2" stroke-linecap="round"></path>
                <path d="M368,364 L356,376" id="Stroke-45" stroke="#A60206" stroke-width="2" stroke-linecap="round"></path>
                <path d="M356,364 L368,376" id="Stroke-47" stroke="#A60206" stroke-width="2" stroke-linecap="round"></path>
                <path d="M502,87 L490,99" id="Stroke-49" stroke="#A60206" stroke-width="2" stroke-linecap="round"></path>
                <path d="M490,87 L502,99" id="Stroke-51" stroke="#A60206" stroke-width="2" stroke-linecap="round"></path>
                <path d="M243,107 L231,119" id="Stroke-53" stroke="#A60206" stroke-width="2" stroke-linecap="round"></path>
                <path d="M231,107 L243,119" id="Stroke-55" stroke="#A60206" stroke-width="2" stroke-linecap="round"></path>
                <path d="M228.737757,364.579169 L225.645186,360.868529 C225.23723,360.380354 225.313557,359.661546 225.816265,359.264343 L228.129771,357.43593 C228.844352,356.870878 228.64169,355.761273 227.771822,355.4717 L214.551411,351.062752 C213.732867,350.789836 212.903794,351.44586 213.009073,352.281267 L214.722489,365.784871 C214.835664,366.674092 215.908194,367.094357 216.622775,366.530586 L218.937598,364.700892 C219.438989,364.304971 220.177258,364.379286 220.585214,364.867461 L223.677785,368.578101 C224.085741,369.067557 224.822694,369.141872 225.325401,368.74467 L228.566679,366.183354 C229.069386,365.786152 229.145713,365.068625 228.737757,364.579169" id="Fill-57" fill="#A60206"></path>
                <path d="M438.738172,13.5791687 L435.644244,9.86852861 C435.236282,9.38035392 435.313927,8.66154553 435.816641,8.26434303 L438.130178,6.43593024 C438.844769,5.87087765 438.642104,4.76127325 437.772224,4.47169981 L424.551636,0.0627520692 C423.733081,-0.210164487 422.902681,0.445860286 423.009278,1.28126683 L424.722717,14.7848705 C424.834577,15.6740916 425.908437,16.0943575 426.623028,15.5305862 L428.936565,13.7008921 C429.439279,13.3049709 430.177558,13.3792862 430.584204,13.8674609 L433.678132,17.578101 C434.086094,18.067557 434.823057,18.1418723 435.325771,17.7446698 L438.567092,15.1833543 C439.06849,14.7861518 439.146134,14.0686247 438.738172,13.5791687" id="Fill-59" fill="#A60206"></path>
                <path d="M432.73776,173.579169 L429.643913,169.868529 C429.237278,169.380354 429.313604,168.661546 429.816305,168.264343 L432.129782,166.43593 C432.844354,165.870878 432.641695,164.761273 431.771838,164.4717 L418.551595,160.062752 C417.733061,159.789836 416.902684,160.44586 417.009278,161.281267 L418.722672,174.784871 C418.835845,175.674092 419.908361,176.095639 420.622933,175.530586 L422.937726,173.700892 C423.439111,173.304971 424.17737,173.379286 424.585321,173.867461 L427.677853,177.578101 C428.085804,178.067557 428.822747,178.141872 429.325448,177.74467 L432.566684,175.183354 C433.069385,174.786152 433.145711,174.068625 432.73776,173.579169" id="Fill-61" fill="#A60206"></path>
                <path d="M532.554984,208.125004 C530.000921,221.410317 517.159591,230.10994 503.874407,227.554585 C490.590492,225.000497 481.890954,212.16031 484.445016,198.874996 C486.999079,185.589683 499.840409,176.89006 513.125593,179.445415 C526.409508,181.999503 535.109046,194.83969 532.554984,208.125004 Z" id="Stroke-63" stroke="#A60206" stroke-width="1.548" stroke-linecap="round" stroke-linejoin="round"></path>
                <path d="M512,180 L502,228" id="Stroke-65" stroke="#A60206" stroke-width="1.548" stroke-linecap="round" stroke-linejoin="round"></path>
                <path d="M512,179 C512,179 497.083843,180.914332 493.567299,200.157603 C490.157754,218.823919 503.230882,227 503.230882,227" id="Stroke-67" stroke="#A60206" stroke-width="1.548" stroke-linecap="round" stroke-linejoin="round"></path>
                <path d="M497,181 C500.015797,184.16127 504.319553,186.978312 510.449846,188.336955 C516.369337,189.649233 521.192175,188.872264 525,187.241049" id="Stroke-69" stroke="#A60206" stroke-width="1.548" stroke-linecap="round" stroke-linejoin="round"></path>
                <path d="M489,218.774232 C492.81486,217.114405 497.7162,216.332644 503.844093,217.702143 C509.760049,219.024906 513.990256,221.831883 517,225" id="Stroke-71" stroke="#A60206" stroke-width="1.548" stroke-linecap="round" stroke-linejoin="round"></path>
                <path d="M513.925394,179 C513.925394,179 526.956174,186.52321 523.378186,205.766481 C519.906655,224.432796 505,227 505,227" id="Stroke-73" stroke="#A60206" stroke-width="1.548" stroke-linecap="round" stroke-linejoin="round"></path>
                <path d="M484,198 L532,208" id="Stroke-75" stroke="#A60206" stroke-width="1.548" stroke-linecap="round" stroke-linejoin="round"></path>
                <path d="M526,228.828556 C526,228.828556 547.252969,231.025426 551.330825,219.691107 C555.408682,208.356788 539.516609,203 539.516609,203" id="Stroke-77" stroke="#A60206" stroke-width="1.548" stroke-linecap="round" stroke-linejoin="round"></path>
                <path d="M543,203 L540.328996,203.760632 C540.053111,203.839149 539.925685,204.051799 540.044451,204.234188 L541.195,206" id="Stroke-79" stroke="#A60206" stroke-width="1.548" stroke-linecap="round" stroke-linejoin="round"></path>
                <path d="M526,226.962668 C526,226.962668 550.598242,228.010773 547.774198,219" id="Stroke-81" stroke="#A60206" stroke-width="1.548" stroke-linecap="round" stroke-linejoin="round"></path>
                <path d="M327,48.1667752 L327.56843,43.324206 C327.811516,41.2618819 329.675181,39.7827915 331.724229,40.0262174 L381.696945,45.9747064 C383.747221,46.2181323 385.21679,48.0951067 384.973704,50.1574308 L384.405274,55 L327,48.1667752 Z" id="Fill-83" fill="#C00418"></path>
                <path d="M378.877238,89.3650331 C378.757303,90.3790724 377.837802,91.1073256 376.827101,90.9869946 L326.629352,85.0306103 C325.61865,84.9102793 324.894044,83.9877417 325.012729,82.9737024 L329.13674,48 L383,54.3925841 L378.877238,89.3650331 Z" id="Stroke-85" stroke="#A60206" stroke-width="1.548" stroke-linecap="round" stroke-linejoin="round"></path>
                <path d="M349.11809,56.0216534 L362.537651,57.7934831 C364.064945,57.9946169 365.161799,59.5454641 364.980374,61.2511314 C364.800134,62.9567988 363.41039,64.1794804 361.88191,63.9783466 L348.462349,62.2065169 C346.935055,62.0053831 345.838201,60.4532126 346.019626,58.7488686 C346.199866,57.0432012 347.58961,55.8205196 349.11809,56.0216534 Z" id="Stroke-87" stroke="#A60206" stroke-width="1.548" stroke-linecap="round" stroke-linejoin="round"></path>
                <polygon id="Stroke-89" stroke="#A60206" stroke-width="1.548" stroke-linecap="round" stroke-linejoin="round" points="341.243857 71 367 73.6957771 365.756143 83 340 80.3042229"></polygon>
                <path d="M362.98029,77.1124842 L362.291893,77.0101273 C361.656799,76.9163001 361.082946,77.4849497 361.008096,78.2796376 C360.933246,79.0729038 361.38575,79.7936672 362.01971,79.8874944 L362.708107,79.9898513 C363.342067,80.0836785 363.917054,79.5164505 363.991904,78.7217626 C364.066754,77.9270748 363.61425,77.2063114 362.98029,77.1124842 Z" id="Stroke-91" stroke="#A60206" stroke-width="1.548" stroke-linecap="round" stroke-linejoin="round"></path>
                <path d="M354.965496,77.990472 L345.309456,77.007048 C344.666869,76.9417502 344.084058,77.3374943 344.008189,77.8905466 C343.932321,78.443599 344.392132,78.9442153 345.033569,79.0105024 L354.690759,79.9929371 C355.333345,80.0582349 355.915007,79.6634802 355.992025,79.1104278 C356.066745,78.5573754 355.608083,78.0557698 354.965496,77.990472 Z" id="Stroke-93" stroke="#A60206" stroke-width="1.548" stroke-linecap="round" stroke-linejoin="round"></path>
                <path d="M110,74.4006 L108.229729,74.9190559 C107.018864,75.2732888 105.785575,74.4318159 105.477548,73.0406713 L104.070773,66.6834796 C103.761566,65.2909777 104.494458,63.874046 105.705323,63.5184559 L107.475594,63 L110,74.4006 Z" id="Stroke-95" stroke="#A60206" stroke-width="1.548" stroke-linecap="round" stroke-linejoin="round"></path>
                <path d="M124,73.9440744 L113.575152,75.9501554 C111.999596,76.2381886 110.474376,75.2510089 110.079229,73.6839564 L107.082903,61.8187674 C106.739351,60.4598093 107.491893,59.064054 108.815764,58.6250255 L123.112806,54" id="Stroke-97" stroke="#A60206" stroke-width="1.548" stroke-linecap="round" stroke-linejoin="round"></path>
                <path d="M151,81 L130.098359,76.4367117 C128.422573,76.0637627 127.093458,74.7804163 126.664187,73.1065409 L122.139941,55.274054 C121.728191,53.6504074 122.240062,51.9275589 123.477816,50.7936433 L139.583631,36 L151,81 Z" id="Fill-99" fill="#C00418"></path>
                <path d="M145,33.1648544 C147.368247,32.5098403 150.039527,33.8453554 150.710531,36.4845271 L154.490813,51.3204694 L157.21175,62.0211572 L160.855794,76.3524582 C161.317984,78.1849685 160.629155,79.933372 159.360998,81" id="Stroke-101" stroke="#A60206" stroke-width="1.548" stroke-linecap="round" stroke-linejoin="round"></path>
                <path d="M158.787,81.3415 C158.609,81.4735 158.417,81.5725 158.213,81.6585" id="Stroke-103" stroke="#A60206" stroke-width="1.548" stroke-linecap="round" stroke-linejoin="round"></path>
                <path d="M153,51.4085118 L153.06586,51.3921143 L154.198363,51.1335392 C156.844211,50.5432312 159.563077,51.9660249 160.23313,54.2957235 L160.847344,56.4173006 C161.518829,58.7469992 159.912421,61.1347194 157.259414,61.7338569 L156.125479,61.9836026 L156.05962,62" id="Stroke-105" stroke="#A60206" stroke-width="1.548" stroke-linecap="round" stroke-linejoin="round"></path>
                <path d="M153,81.2456776 L153.006158,81.2656776 L154.631085,81.6676776 C155.107038,81.7866776 155.570674,81.7796776 156,81.6676776" id="Stroke-107" stroke="#A60206" stroke-width="1.548" stroke-linecap="round" stroke-linejoin="round"></path>
                <path d="M142.008245,36 L142,35.9797878 L143.570082,34.7468418 C144.004711,34.4072764 144.486455,34.1606872 145,34" id="Stroke-109" stroke="#A60206" stroke-width="1.548" stroke-linecap="round" stroke-linejoin="round"></path>
                <path d="M122.437552,74 L126.882173,92.9004999 C127.397099,95.0885894 126.17636,97.3149545 124.155542,97.8725026 C122.133546,98.4300508 120.077379,97.1069903 119.563631,94.9189008 L115,75.5208179 L122.437552,74" id="Stroke-111" stroke="#A60206" stroke-width="1.548" stroke-linecap="round" stroke-linejoin="round"></path>
                <path d="M161,47 C161,47 167.404365,51.5645908 164.005666,62" id="Stroke-113" stroke="#A60206" stroke-width="1.548" stroke-linecap="round" stroke-linejoin="round"></path>
                <path d="M166,33 L168,32" id="Stroke-115" stroke="#A60206" stroke-width="1.548" stroke-linecap="round" stroke-linejoin="round"></path>
                <path d="M173,28 L177,25" id="Stroke-117" stroke="#A60206" stroke-width="1.548" stroke-linecap="round" stroke-linejoin="round" stroke-dasharray="3.296,3.296"></path>
                <path d="M180,24 L182,23" id="Stroke-119" stroke="#A60206" stroke-width="1.548" stroke-linecap="round" stroke-linejoin="round"></path>
                <path d="M176,45.8135 L178,45.1865" id="Stroke-121" stroke="#A60206" stroke-width="1.548" stroke-linecap="round" stroke-linejoin="round"></path>
                <path d="M184,44 L190,42" id="Stroke-123" stroke="#A60206" stroke-width="1.548" stroke-linecap="round" stroke-linejoin="round" stroke-dasharray="3.795,3.795"></path>
                <path d="M192,41.8135 L194,41.1865" id="Stroke-125" stroke="#A60206" stroke-width="1.548" stroke-linecap="round" stroke-linejoin="round"></path>
                <path d="M179,65.432 L181,65.568" id="Stroke-127" stroke="#A60206" stroke-width="1.548" stroke-linecap="round" stroke-linejoin="round"></path>
                <path d="M185,65.339 L189,65.661" id="Stroke-129" stroke="#A60206" stroke-width="1.548" stroke-linecap="round" stroke-linejoin="round" stroke-dasharray="3.06,3.06"></path>
                <path d="M192,65.432 L194,65.568" id="Stroke-131" stroke="#A60206" stroke-width="1.548" stroke-linecap="round" stroke-linejoin="round"></path>
                <path d="M39.0378567,93.6743859 L50.985424,96 C50.985424,96 51.9134549,85.0008139 38.959525,81.3256141 L27,79 C27,79 26.9309707,92.0279669 39.0378567,93.6743859" id="Stroke-133" stroke="#A60206" stroke-width="1.548" stroke-linecap="round" stroke-linejoin="round"></path>
                <path d="M259.036558,15.6743859 L270.985481,18 C270.985481,18 271.912187,7.00081385 258.958226,3.32561409 L247,1 C247,1 246.929643,14.0279669 259.036558,15.6743859" id="Stroke-135" stroke="#A60206" stroke-width="1.548" stroke-linecap="round" stroke-linejoin="round"></path>
                <path d="M85.036558,279.674386 L96.9854813,282 C96.9854813,282 97.9121866,271.000814 84.9582262,267.325614 L73,265 C73,265 72.9296434,278.027967 85.036558,279.674386" id="Stroke-137" stroke="#A60206" stroke-width="1.548" stroke-linecap="round" stroke-linejoin="round"></path>
                <polygon id="Fill-139" fill="#C00418" points="210.469855 247 346.45487 265.993636 356 292 194 269.371749"></polygon>
                <path d="M357.024577,155.873529 L231.272758,138.150721 C222.958483,136.979027 215.23953,142.766941 214.064055,151.054467 L201.745582,237.899631 L180.574391,266.914793 C180.55164,266.94881 180.549112,266.953849 180.54532,266.961409 C180.479594,267.05212 180.420189,267.145352 180.364575,267.243623 C180.350671,267.268821 180.336768,267.295278 180.324128,267.321736 C180.27989,267.406148 180.23818,267.49308 180.202789,267.582532 C180.192677,267.60647 180.181302,267.630408 180.17119,267.656865 C180.12948,267.768995 180.091561,267.883645 180.06249,268.000814 C180.038475,268.101605 180.018252,268.199876 180.004348,268.301927 L179.151181,274.3141 C177.975706,282.600367 183.783564,290.295747 192.096574,291.46744 L350.909579,313.849305 C359.223853,315.020999 366.942806,309.231825 368.118281,300.945559 L368.971449,294.933385 C368.985352,294.832594 368.992936,294.731804 368.997992,294.631013 C369.003047,294.507544 368.997992,294.386595 368.989144,294.268166 C368.986616,294.239188 368.982824,294.212731 368.980296,294.187533 C368.970185,294.091782 368.955017,293.99729 368.936058,293.904059 C368.931002,293.875081 368.924682,293.846104 368.919627,293.817127 C368.893084,293.707517 368.861485,293.601686 368.823566,293.495856 C368.821038,293.489556 368.821038,293.481997 368.817246,293.473178 C368.808399,293.444201 356.537956,259.714547 356.537956,259.714547 L368.832414,173.034429" id="Stroke-141" stroke="#A60206" stroke-width="2" stroke-linecap="round" stroke-linejoin="round"></path>
                <path d="M386.013778,157 L386.987239,150.360613 C387.087013,149.673511 386.590844,149.035859 385.878949,148.93956 L379,148" id="Stroke-143" stroke="#A60206" stroke-width="2" stroke-linecap="round" stroke-linejoin="round"></path>
                <path d="M221,231 L275.865422,189.68862 L295.021862,215.180993 C296.034559,216.527965 297.946026,216.797867 299.292913,215.78542 L384,152" id="Stroke-145" stroke="#A60206" stroke-width="2" stroke-linecap="round" stroke-linejoin="round"></path>
                <path d="M263,272 L290,275" id="Stroke-147" stroke="#A60206" stroke-width="2" stroke-linecap="round" stroke-linejoin="round"></path>
                <path d="M357,183.805515 L346.918632,255 L220.909153,237.208994 C216.516666,236.589646 213.458701,232.529622 214.080208,228.143424 L224.07515,157.553057 C224.84536,152.115999 229.883503,148.330112 235.328357,149.099219 L348.419652,165.066451" id="Stroke-149" stroke="#A60206" stroke-width="2" stroke-linecap="round" stroke-linejoin="round"></path>
                <polyline id="Fill-151" fill="#C00418" points="68.9096641 208 53.4597525 208 53.4597525 209.766222 48 210.894472 48 212 69 212"></polyline>
                <path d="M101,172.285765 L101,178.204625 L101,178.242551 C101,178.287817 100.996261,178.33186 100.996261,178.377126 C100.992522,178.519042 100.988783,178.662181 100.981305,178.800426 C100.973827,178.931331 100.961364,179.059789 100.950147,179.190694 C100.946408,179.23596 100.942669,179.283673 100.93893,179.33261 C100.60741,182.559967 98.822683,185.375035 96.2340811,187.129405 L96.1767505,187.129405 C94.5615228,188.213347 92.6372082,188.883776 90.5633356,188.985319 C90.3876048,188.99633 90.2081351,189 90.0286653,189 L89.9987537,189 C89.7544754,189 89.5052119,188.988989 89.2646726,188.974308 C87.2568547,188.843403 85.3961024,188.179092 83.8232495,187.129405 L83.7659189,187.129405 C81.177317,185.375035 79.3900974,182.556297 79.0610696,179.325269 C79.0535917,179.276333 79.0498527,179.22862 79.0461138,179.179683 C79.0348969,179.052449 79.02368,178.927661 79.0199411,178.796756 C79.0112169,178.658511 79.0074779,178.515372 79.0049853,178.373456 C79.0049853,178.32819 79,178.287817 79,178.242551 L79,178.204625 L79,168.795375 L79,168.758672 C79,168.713406 79.0049853,168.67181 79.0049853,168.627767 C79.0074779,168.484628 79.0112169,168.342713 79.0199411,168.203244 C79.02368,168.072339 79.0348969,167.948775 79.0461138,167.82154 C79.0498527,167.772603 79.0535917,167.723667 79.0610696,167.674731 C79.3900974,164.443703 81.177317,161.624965 83.7659189,159.870595 L83.8232495,159.870595 C85.3961024,158.820908 87.2568547,158.15782 89.2646726,158.026915 C89.5052119,158.011011 89.7544754,158 89.9987537,158 C90.1894403,158 90.3763879,158.00367 90.5633356,158.014681 C92.6372082,158.116224 94.5615228,158.787876 96.1767505,159.870595 L96.2340811,159.870595 C98.822683,161.624965 100.60741,164.440033 100.93893,167.66739 C100.942669,167.716327 100.946408,167.765263 100.950147,167.810529 C100.961364,167.941434 100.973827,168.068669 100.981305,168.199574 C100.988783,168.339043 100.992522,168.480958 100.996261,168.622874 C100.996261,168.66814 101,168.713406 101,168.758672 L101,168.795375 L101,172.285765 Z" id="Fill-153" fill="#C00418"></path>
                <path d="M83.3789501,186.128633 C83.4520763,186.15472 83.5199791,186.186025 83.5774354,186.225156 C85.1300601,187.279086 86.933403,187.90127 88.7942021,188.025185 C89.0292505,188.039533 89.2721337,188.04736 89.5137112,188.051273 C89.6834683,188.04736 89.8584487,188.048664 90.0269,188.036925 C91.9673544,187.940401 93.8268477,187.315609 95.4225646,186.22646 C95.4904675,186.179503 95.5635936,186.142981 95.6406372,186.114285 C98.1047271,184.346865 99.6873857,181.627255 99.9916427,178.620685 L100.000783,178.490248 C100.013842,178.349376 100.024288,178.224157 100.032123,178.096329 C100.038652,177.967196 100.04257,177.835455 100.045182,177.702409 L100.049099,177.585016 L101.025855,177.555015 L100.050405,177.51458 L100.046487,167.300066 C100.04257,167.163108 100.038652,167.031366 100.030817,166.902234 C100.024288,166.774406 100.013842,166.649186 100.002089,166.521358 L99.9890311,166.357008 C99.6860799,163.363481 98.0968921,160.637349 95.6210499,158.869929 C95.5479237,158.843842 95.4800209,158.811233 95.4225646,158.772102 C93.8268477,157.684258 91.9673544,157.058161 90.0425699,156.962942 C89.6103421,156.936855 89.2003134,156.94729 88.7928963,156.973377 C86.933403,157.097292 85.1287542,157.719476 83.5774354,158.773406 C83.5095325,158.819059 83.4351005,158.856886 83.3593628,158.884278 C80.8913554,160.654306 79.3100026,163.376524 79.0096631,166.385704 L78.9966049,166.514836 C78.9848524,166.649186 78.9731,166.761362 78.9704884,166.880059 C78.9613476,167.043106 78.9574301,167.186586 78.9535127,167.330067 L78.950901,167.483982 L78.9548185,177.694583 C78.9574301,177.811976 78.9613476,177.955457 78.9691826,178.095024 C78.9731,178.2372 78.9848524,178.349376 78.995299,178.464161 L79.003134,178.55938 C79.3113084,181.62856 80.9004962,184.358604 83.3789501,186.128633 M89.5306869,190 L89.4980413,190 C89.2225124,190 88.9404544,189.986956 88.6675372,189.968695 C86.5194568,189.826519 84.4366675,189.124768 82.6320188,187.937793 C82.5523635,187.910401 82.4766258,187.875183 82.415252,187.832139 C79.3805171,185.741235 77.4335336,182.451617 77.0692087,178.80721 C77.0639854,178.782427 77.0561504,178.70286 77.0509271,178.624598 C77.0378689,178.483726 77.0248107,178.333724 77.0208932,178.174591 C77.0130582,178.041545 77.0091408,177.881108 77.0052233,177.72067 L77,177.555015 L77.0026116,167.33398 C77.0091408,167.117455 77.0130582,166.957017 77.0208932,166.800493 C77.0248107,166.664839 77.0378689,166.514836 77.052233,166.359616 C77.0561504,166.295702 77.0639854,166.216136 77.0757378,166.137874 C77.4335336,162.546946 79.3805171,159.257327 82.415252,157.166424 C82.489684,157.114249 82.5706451,157.073813 82.6568295,157.045117 C84.4549491,155.867272 86.5285975,155.172043 88.6649256,155.029867 C89.1598329,154.998562 89.6625751,154.988127 90.1509533,155.016823 C92.3630191,155.127695 94.5124053,155.833358 96.3705928,157.062074 C96.4502481,157.088161 96.5246801,157.123379 96.5860538,157.166424 C99.6155654,159.254718 101.563855,162.540424 101.932097,166.182222 L101.945155,166.357008 C101.958214,166.500488 101.971272,166.645273 101.979107,166.793971 C101.986942,166.941365 101.990859,167.092672 101.994777,167.243978 L101.023244,167.371807 L101.997388,167.330067 L102,167.443547 L101.997388,177.668495 L101.021938,177.698496 L101.994777,177.754584 C101.990859,177.905891 101.986942,178.057197 101.979107,178.204591 C101.971272,178.353289 101.958214,178.498074 101.945155,178.646772 L101.933403,178.794166 C101.563855,182.458138 99.6155654,185.743844 96.5860538,187.832139 C96.5116218,187.884313 96.4306607,187.924749 96.347088,187.953445 C94.4941238,189.171726 92.3525725,189.872172 90.1392008,189.981739 C89.9498564,189.994783 89.7396187,190 89.5306869,190" id="Fill-155" fill="#A60206"></path>
                <path d="M108.03444,219 L108.031935,219 C107.514715,218.998774 107.097683,218.587909 107.098936,218.081382 L107.130244,207.57062 C107.130244,197.790829 99.0037577,189.831105 89.0137772,189.831105 C84.1584238,189.838463 79.6211668,191.684285 76.2060136,195.027615 C72.785851,198.380756 70.9010672,202.837712 70.9010672,207.573073 L70.8697585,218.086287 C70.8685061,218.591589 70.4502219,219 69.9355068,219 L69.9330021,219 C69.4157824,218.998774 68.9987505,218.587909 69.0000028,218.081382 L69.0300592,207.57062 C69.0300592,202.348354 71.108957,197.432703 74.883534,193.732473 C78.650597,190.043282 83.6574846,188.007359 88.9812162,188 C100.03444,188 109,196.780226 109,207.573073 L108.969944,218.086287 C108.968691,218.591589 108.550407,219 108.03444,219" id="Fill-157" fill="#A60206"></path>
                <path d="M81.9468985,206 L75.0531015,206 C74.4722744,206 74,205.552878 74,205 C74,204.448461 74.4722744,204 75.0531015,204 L81.9468985,204 C82.5291353,204 83,204.448461 83,205 C83,205.552878 82.5291353,206 81.9468985,206" id="Fill-159" fill="#BA0613"></path>
                <path d="M108.063792,219 L69.9362075,219 C69.4185988,219 69,218.552878 69,218 C69,217.448461 69.4185988,217 69.9362075,217 L108.063792,217 C108.581401,217 109,217.448461 109,218 C109,218.552878 108.581401,219 108.063792,219" id="Fill-161" fill="#A60206"></path>
                <path d="M92.9152678,193.968305 L94.4930081,194.53476 L94.7012587,192.367886 L92.9152678,193.968305 Z M89.0302203,217 C88.4620131,217 88,216.586909 88,216.07611 L88,196.145074 C88,195.900187 88.1089523,195.665195 88.3020324,195.490806 L90.3348901,193.669 C90.3473024,193.657868 90.3597147,193.646737 90.372127,193.636843 L95.241883,189.270938 C95.5494321,188.996368 96.0128243,188.92216 96.4058802,189.086655 C96.797557,189.249912 97.0333906,189.616005 96.9961537,190.003124 L96.4251882,195.933581 C96.3962262,196.225466 96.2169376,196.487667 95.9383505,196.641031 C95.6611427,196.794394 95.3191151,196.820367 95.0157035,196.711528 L91.3306318,195.389389 L90.0604405,196.527245 L90.0604405,216.07611 C90.0604405,216.586909 89.5984274,217 89.0302203,217 Z" id="Fill-163" fill="#A60206"></path>
                <path d="M83.2997677,192.756133 L83.5079864,195.173195 L85.0854851,194.541338 L83.2997677,192.756133 Z M88.9699375,198 C88.7065614,198 88.4431854,197.899289 88.2418612,197.697867 L86.6698783,196.1265 L82.9839921,197.602675 C82.682006,197.7227 82.3400307,197.693728 82.0628653,197.522658 C81.784321,197.351587 81.6050598,197.059111 81.5761022,196.734905 L81.0038453,190.118334 C80.9666141,189.687898 81.2024115,189.279536 81.5954073,189.096048 C81.988403,188.913941 82.4531032,188.995337 82.7578472,189.301609 L87.6337521,194.175743 C87.6420257,194.1854 87.6502993,194.193678 87.6599518,194.201956 L89.6980138,196.241007 C90.1006621,196.642472 90.1006621,197.295023 89.6980138,197.697867 C89.4966897,197.899289 89.2333136,198 88.9699375,198 Z" id="Fill-165" fill="#A60206"></path>
                <path d="M92.5,206.31946 C92.4009752,206.31946 92.319955,206.40045 92.319955,206.499438 C92.319955,206.598425 92.4009752,206.679415 92.5,206.679415 C92.5990248,206.679415 92.680045,206.598425 92.680045,206.499438 C92.680045,206.40045 92.5990248,206.31946 92.5,206.31946 M92.5,208 C91.6729182,208 91,207.326209 91,206.499438 C91,205.672666 91.6729182,205 92.5,205 C93.3270818,205 94,205.672666 94,206.499438 C94,207.326209 93.3270818,208 92.5,208" id="Fill-167" fill="#BA0613"></path>
                <path d="M92.5,215.31946 C92.4009752,215.31946 92.319955,215.40045 92.319955,215.499438 C92.319955,215.598425 92.4009752,215.679415 92.5,215.679415 C92.5990248,215.679415 92.680045,215.598425 92.680045,215.499438 C92.680045,215.40045 92.5990248,215.31946 92.5,215.31946 M92.5,217 C91.6729182,217 91,216.326209 91,215.499438 C91,214.672666 91.6729182,214 92.5,214 C93.3270818,214 94,214.672666 94,215.499438 C94,216.326209 93.3270818,217 92.5,217" id="Fill-169" fill="#BA0613"></path>
                <path d="M70.7215467,209 L38.9645661,209 C38.4318567,209 38,208.570786 38,208.040051 L38,173.959949 C38,173.429214 38.4318567,173 38.9645661,173 L79.0341409,173 C79.5668504,173 80,173.429214 80,173.959949 C80,174.489398 79.5668504,174.918612 79.0341409,174.918612 L39.9304251,174.918612 L39.9304251,207.080103 L70.7215467,207.080103 C71.2555491,207.080103 71.6874057,207.510602 71.6874057,208.040051 C71.6874057,208.570786 71.2555491,209 70.7215467,209" id="Fill-171" fill="#A60206"></path>
                <path d="M69.0038827,206 L40.9388119,206 C40.4197633,206 40,205.586739 40,205.075732 L40,177.923031 C40,177.413261 40.4197633,177 40.9388119,177 L76.9555061,177 C77.473298,177 77.8930612,177.413261 77.8930612,177.923031 C77.8930612,178.434039 77.473298,178.847299 76.9555061,178.847299 L41.8776237,178.847299 L41.8776237,204.151463 L68.2686686,204.151463 C71.5111514,192.091433 84.3026202,189.123133 84.8556018,189.00064 C85.359569,188.889282 85.8622795,189.201084 85.9766462,189.698481 C86.0910128,190.195878 85.7743052,190.690801 85.2678244,190.804634 C85.1421467,190.831854 72.569357,193.771696 69.9188158,205.279887 C69.822044,205.701809 69.4424976,206 69.0038827,206" id="Fill-173" fill="#A60206"></path>
                <path d="M55.5004265,190.274382 C55.3758885,190.274382 55.2743816,190.375889 55.2743816,190.500426 C55.2743816,190.624964 55.3758885,190.726471 55.5004265,190.726471 C55.6249645,190.726471 55.7264714,190.624964 55.7264714,190.500426 C55.7264714,190.375889 55.6249645,190.274382 55.5004265,190.274382 M55.5004265,192 C54.6730168,192 54,191.326983 54,190.500426 C54,189.673017 54.6730168,189 55.5004265,189 C56.3269832,189 57,189.673017 57,190.500426 C57,191.326983 56.3269832,192 55.5004265,192" id="Fill-175" fill="#770E0E"></path>
                <path d="M62.5,193.274382 C62.3754266,193.274382 62.2738908,193.375889 62.2738908,193.500426 C62.2738908,193.624964 62.3754266,193.726471 62.5,193.726471 C62.6245734,193.726471 62.7261092,193.624964 62.7261092,193.500426 C62.7261092,193.375889 62.6245734,193.274382 62.5,193.274382 M62.5,195 C61.6723549,195 61,194.326983 61,193.500426 C61,192.673017 61.6723549,192 62.5,192 C63.3267918,192 64,192.673017 64,193.500426 C64,194.326983 63.3267918,195 62.5,195" id="Fill-177" fill="#770E0E"></path>
                <path d="M72.4995735,182.274382 C72.3750355,182.274382 72.2735286,182.375889 72.2735286,182.500426 C72.2735286,182.624964 72.3750355,182.726471 72.4995735,182.726471 C72.6241115,182.726471 72.7256184,182.624964 72.7256184,182.500426 C72.7256184,182.375889 72.6241115,182.274382 72.4995735,182.274382 M72.4995735,184 C71.6730168,184 71,183.326983 71,182.500426 C71,181.673017 71.6730168,181 72.4995735,181 C73.3269832,181 74,181.673017 74,182.500426 C74,183.326983 73.3269832,184 72.4995735,184" id="Fill-179" fill="#770E0E"></path>
                <path d="M48.5,198.274382 C48.3754266,198.274382 48.2738908,198.375889 48.2738908,198.500426 C48.2738908,198.624964 48.3754266,198.726471 48.5,198.726471 C48.6245734,198.726471 48.7261092,198.624964 48.7261092,198.500426 C48.7261092,198.375889 48.6245734,198.274382 48.5,198.274382 M48.5,200 C47.6723549,200 47,199.326983 47,198.500426 C47,197.673017 47.6723549,197 48.5,197 C49.3276451,197 50,197.673017 50,198.500426 C50,199.326983 49.3276451,200 48.5,200" id="Fill-181" fill="#770E0E"></path>
                <path d="M64.0178619,195 C63.7929515,195 63.5666779,194.932771 63.3785709,194.793334 C62.9410178,194.470885 62.8728631,193.885745 63.2259044,193.486107 L72.1896095,183.345767 C72.5426508,182.946129 73.1833049,182.88388 73.620858,183.206329 C74.0584111,183.528778 74.1279289,184.113918 73.7735245,184.513555 L64.8111825,194.653896 C64.6094447,194.881727 64.3150164,195 64.0178619,195" id="Fill-183" fill="#A60206"></path>
                <path d="M61.097049,194 C60.9109288,194 60.7223914,193.953616 60.5616512,193.855914 L56.3666946,191.33046 C55.9654484,191.088671 55.8808483,190.627793 56.1757401,190.300146 C56.4718404,189.971511 57.0374525,189.902428 57.4386988,190.144217 L61.6336554,192.669671 C62.033693,192.911459 62.1195017,193.372337 61.8246099,193.699985 C61.6469497,193.896376 61.3738122,194 61.097049,194" id="Fill-185" fill="#A60206"></path>
                <path d="M49.0200807,199 C48.7905626,199 48.5610446,198.925429 48.3697795,198.770961 C47.9353347,198.420744 47.8752228,197.793549 48.2345278,197.371424 L54.1937999,190.360427 C54.5531049,189.93697 55.1965752,189.878379 55.6296539,190.228596 C56.0640987,190.578813 56.1255768,191.206007 55.7649056,191.629464 L49.8069997,198.640462 C49.6048052,198.877491 49.3138091,199 49.0200807,199" id="Fill-187" fill="#A60206"></path>
                <path d="M483.44408,360.619882 C481.162784,360.852332 479.043624,359.856464 477.773142,358.19383 C476.897864,360.075457 475.030774,361.475056 472.755812,361.706283 C470.48085,361.938734 468.352823,360.944089 467.093741,359.280231 C466.209596,361.161859 464.351373,362.561457 462.068811,362.793908 C459.793849,363.025135 457.664555,362.030491 456.405473,360.367856 C455.530195,362.24826 453.663105,363.649082 451.380543,363.88031 C449.105581,364.111537 446.977554,363.118116 445.717205,361.454257 C444.834327,363.335885 442.974837,364.735484 440.699875,364.966711 C437.291233,365.31294 434.228394,362.918697 433.87119,359.635024 L433.004779,351.687655 C432.994645,351.595898 432.999712,351.490683 433.028846,351.392809 L435.911815,341.226146 C436.000483,340.906832 436.286753,340.670711 436.630024,340.635232 L482.169797,336.004568 C482.513068,335.969089 482.846206,336.142815 482.999474,336.43766 L488.011737,345.800533 C488.063671,345.891066 488.089005,345.992611 488.099138,346.085591 L488.965549,354.031737 C489.32402,357.31541 486.843856,360.273652 483.44408,360.619882" id="Fill-189" fill="#C00418"></path>
                <path d="M485.396826,362 L487.979687,386.746505 C488.190507,388.762132 486.736227,390.565119 484.737855,390.776486 L445.169327,394.979636 C443.176005,395.191003 441.382141,393.733079 441.17132,391.717452 L439,370.918164" id="Stroke-191" stroke="#A60206" stroke-width="1.548" stroke-linecap="round" stroke-linejoin="round"></path>
                <path d="M462.248817,392.699681 L450.109345,393.995324 C449.650219,394.044313 449.233064,393.702676 449.186007,393.238565 L447.004845,372.245283 C446.955244,371.772148 447.292275,371.349291 447.7514,371.300302 L459.890872,370.004659 C460.349997,369.955669 460.764609,370.298596 460.81421,370.771731 L462.995372,391.765013 C463.043701,392.227835 462.707942,392.650691 462.248817,392.699681 Z" id="Stroke-193" stroke="#A60206" stroke-width="1.548" stroke-linecap="round" stroke-linejoin="round"></path>
                <path d="M480.302449,378.719661 L466.949821,379.995926 C466.514589,380.037788 466.129031,379.752265 466.084088,379.359403 L465.004288,370.060592 C464.959345,369.665583 465.27276,369.321023 465.706809,369.279161 L479.059437,368.003969 C479.484024,367.96318 479.870766,368.241189 479.916891,368.635125 L480.995509,377.93501 C481.041634,378.326798 480.727037,378.678872 480.302449,378.719661 Z" id="Stroke-195" stroke="#A60206" stroke-width="1.548" stroke-linecap="round" stroke-linejoin="round"></path>
            </g>
        </g>
    </g>
</svg>