<?xml version="1.0" encoding="UTF-8"?>
<svg width="114px" height="32px" viewBox="0 0 114 32" version="1.1" xmlns="http://www.w3.org/2000/svg" xmlns:xlink="http://www.w3.org/1999/xlink">
    <!-- Generator: Sketch 55.2 (78181) - https://sketchapp.com -->
    <title>Logo</title>
    <desc>Created with Sketch.</desc>
    <defs>
        <polygon id="path-1" points="0 32 114 32 114 0 0 0"></polygon>
    </defs>
    <g id="Page-1" stroke="none" stroke-width="1" fill="none" fill-rule="evenodd">
        <g id="01.Home" transform="translate(-410.000000, -1452.000000)">
            <g id="Logo" transform="translate(410.000000, 1452.000000)">
                <polygon id="Fill-4" fill="#FFFFFF" points="31.0107905 8 39 8 39 3.01176959 31 3"></polygon>
                <path d="M17,9 C16.7391534,4.68879015 14.9014681,1.75343058 8.17397894,0.719773523 C7.02475745,0.552392561 6.20052511,0.493649982 5.02172675,0 C4.72168195,4.95065466 7.54288708,7.43872135 12.6440051,7.84673456 C13.7144738,7.92918649 16.3250774,8.55483034 17,9" id="Fill-1" fill="#FFFFFF"></path>
                <path d="M105.742919,19.0258925 C105.574556,20.2885785 104.700485,20.9639952 103.793765,21.0128389 C102.770606,21.063209 101.73604,20.3267376 101.73604,18.7427517 L101.73604,16.2292092 C101.77223,14.7142913 102.789488,13.9224892 103.793765,13.9755304 C104.706386,14.0144527 105.635136,14.766951 105.808219,16.3482657 C105.902628,17.2530189 105.850703,18.1341134 105.742919,19.0258925 M112.621016,11.9542408 C111.354361,9.85472492 107.561081,7.84488304 103.793765,9.78680165 C102.942116,10.2179999 102.103448,10.852968 101.28681,11.7325362 L101.275402,9.83907967 L94,9.82763193 L94,32 L101.275402,32 L101.275402,23.1787517 C102.040509,24.033898 102.893338,24.6291806 103.793765,25.0157327 C107.30421,26.5226371 111.393698,24.8363847 112.506938,22.9318621 C114.276322,20.2466034 114.66458,15.4614473 112.621016,11.9542408" id="Fill-6" fill="#FFFFFF"></path>
                <path d="M68.6469932,17.2805761 C68.602342,19.52793 68.6355442,21.1002933 66.9574977,21.1501037 L66.7792745,21.1501037 C65.1050444,21.1112751 64.8947638,19.6330418 64.9252946,17.1044745 C64.9386518,15.0771495 64.9501008,13.5863656 66.7792745,13.5181213 L66.7926317,13.5181213 C68.3680185,13.4502693 68.6958424,14.7139646 68.6469932,17.2805761 M66.7792745,9.00262649 C66.1133225,9.01753041 65.4122601,9.06969412 64.6459382,9.15009684 C56.4602621,9.84116796 55.7351567,18.5956507 58.3489707,22.2039676 C60.4651334,25.1114081 63.7456627,26.0119185 66.7792745,25.9998812 C69.7846454,25.9998812 72.5453886,25.1114081 73.6841856,24.3320901 C77.5093072,21.7509669 78.1210671,15.3462045 75.0168529,11.9618385 C73.9654502,10.6702964 71.6516008,8.9230082 66.7792745,9.00262649" id="Fill-9" fill="#FFFFFF"></path>
                <path d="M88.5323974,9.52262722 C87.6987185,9.93292348 86.9599002,10.8724707 86.1736517,12.2086636 L86.1736517,9.46802506 L79,9.46802506 L79.0156885,26 L86.5450675,26 L86.5450675,19.4180992 C86.5884845,14.9781634 90.0089394,14.8061665 92,15.0339356 L92,9.08463987 C92.0141469,9.07293941 90.1793236,8.72738572 88.5323974,9.52262722" id="Fill-11" fill="#FFFFFF"></path>
                <path d="M40.0010508,17.1435945 C40.1324237,26.0100956 49.8590998,27.2885589 56,25.0125709 L56,20.2820257 C46.5395886,25.3558548 45.0741553,9.99813142 56,14.2818687 L56,9.66908682 C46.4739021,7.36885345 39.9044761,11.2777493 40.0010508,17.1435945" id="Fill-13" fill="#FFFFFF"></path>
                <mask id="mask-2" fill="white">
                    <use xlink:href="#path-1"></use>
                </mask>
                <g id="Clip-16"></g>
                <polygon id="Fill-15" fill="#FFFFFF" points="31 26 39 26 39 9 31 9"></polygon>
                <polygon id="Fill-17" fill="#FFFFFF" points="21 25.9715584 28 26 28 2.01501086 21 2"></polygon>
                <path d="M9.31170514,22.232298 C8.05135145,22.4107119 6.80774401,21.6840016 6.96922558,20.1775712 C7.37472374,18.9164105 8.28540005,18.5520663 9.31170514,18.4322007 C10.0736589,18.3364664 10.8886424,18.374048 11.6298628,18.299676 C12.0600816,20.768592 10.6777196,22.0341043 9.31170514,22.232298 M9.31170514,9 C7.24115257,9 4.81773286,9.25515956 1.99080859,9.82086216 L1.99080859,14.3389666 C3.76909946,13.4860611 7.09123387,12.8060312 9.31170514,13.2083526 C10.7530777,13.4745889 11.7199735,14.1957608 11.5174238,15.6361266 C10.7901586,15.5439527 10.0612986,15.40945 9.31170514,15.3259792 C8.87909402,15.2745517 8.46203298,15.2464643 8.02782698,15.259519 C6.25113099,15.3030346 4.31375087,15.4209223 2.61560271,16.4688566 C0.880373595,17.7205231 0.101673581,19.2645351 0,20.7167689 L0,21.4806652 C0.064193908,22.4902267 0.456933035,23.4317457 1.05581036,24.1671591 C2.4732597,25.9002661 6.0752955,26.7464465 9.31170514,25.1593144 C10.0856205,24.7973439 10.8288345,24.2905851 11.5174238,23.6180715 L11.5174238,25.8195645 L18.9978083,25.8057186 L18.9978083,16.3189257 C19.0903113,11.9282032 16.2609947,9 9.31170514,9" id="Fill-18" fill="#FFFFFF"></path>
            </g>
        </g>
    </g>
</svg>