<?xml version="1.0" encoding="UTF-8"?>
<svg width="107px" height="31px" viewBox="0 0 107 31" version="1.1" xmlns="http://www.w3.org/2000/svg" xmlns:xlink="http://www.w3.org/1999/xlink">
    <!-- Generator: Sketch 52.2 (67145) - http://www.bohemiancoding.com/sketch -->
    <title>Group</title>
    <desc>Created with Sketch.</desc>
    <g id="Page-1" stroke="none" stroke-width="1" fill="none" fill-rule="evenodd">
        <g id="Desktop" transform="translate(-122.000000, -14.000000)">
            <g id="Group" transform="translate(122.000000, 14.000000)">
                <path d="M10.6080351,18.6490823 C10.6080351,19.8878626 9.86937502,21.1918916 8.36019885,21.1918916 C7.24026271,21.1918916 6.64097244,20.816475 6.64097244,19.8405809 C6.64097244,18.3341863 8.38010883,18.2074713 9.89724898,18.2074713 L10.6080351,18.2074713 L10.6080351,18.6490823 Z M1.74013189,14.6859311 C3.19953312,13.9956184 5.03025539,13.4849761 6.76939178,13.4849761 C8.60210506,13.4849761 10.5960891,13.6920699 10.6080351,15.540784 C9.9629519,15.4916111 8.78925883,15.3488204 7.78380505,15.3488204 C4.15819845,15.3488204 0,16.2292054 0,20.6178919 C0,23.6193336 2.73463518,24.834473 5.5190453,24.834473 C7.58570079,24.834473 9.44230604,24.0666184 10.4527373,22.4439108 L10.5064942,22.4439108 L10.5064942,24.4968818 L17.289823,24.4968818 L17.289823,15.7838119 C17.289823,10.572424 12.2087972,9.84995977 8.04263474,9.84995977 C5.21044067,9.84995977 3.90235526,10.1043353 1.74013189,10.678335 L1.74013189,14.6859311 Z" id="Fill-1" fill="#FCF4D9"></path>
                <polygon id="Fill-3" fill="#FCF4D9" points="19.5951327 24.834473 26.5110619 24.834473 26.5110619 4.08668544 19.5951327 4.08668544"></polygon>
                <path d="M28.8163717,8.8895816 L35.7323009,8.8895816 L35.7323009,4.08668544 L28.8163717,4.08668544 L28.8163717,8.8895816 Z M28.8163717,24.834473 L35.7323009,24.834473 L35.7323009,10.4314989 L28.8163717,10.4314989 L28.8163717,24.834473 Z" id="Fill-5" fill="#FCF4D9"></path>
                <path d="M53.0221239,19.8490916 C51.9887789,20.4306564 50.9099344,20.7162378 49.591459,20.7162378 C47.3791705,20.7162378 45.9049856,19.4207195 45.9049856,17.1795674 C45.9049856,15.0490544 47.3791705,13.968195 49.591459,13.968195 C50.9099344,13.968195 51.9887789,14.3076775 52.8987696,14.6849854 L52.8987696,10.4646217 C51.3841407,10.0390865 49.7390797,9.84995977 47.5207247,9.84995977 C41.3246992,9.84995977 38.0376106,12.2651085 38.0376106,17.0727108 C38.0376106,22.0391795 41.3246992,24.834473 47.5207247,24.834473 C49.7390797,24.834473 51.3841407,24.6084666 53.0221239,24.0987699 L53.0221239,19.8490916 Z" id="Fill-6" fill="#FCF4D9"></path>
                <path d="M60.6712991,17.0813203 C60.6712991,15.380769 60.8359028,13.9723079 62.2350347,13.9723079 C63.6322069,13.9723079 63.8203255,15.380769 63.8203255,17.0813203 C63.8203255,19.1779422 63.6322069,20.7168513 62.2350347,20.7168513 C60.8359028,20.7168513 60.6712991,19.1779422 60.6712991,17.0813203 M53.0221239,17.0813203 C53.0221239,22.0402375 56.213281,24.834473 62.2350347,24.834473 C68.2136778,24.834473 71.4646018,22.0402375 71.4646018,17.0813203 C71.4646018,12.269866 68.2136778,9.84995977 62.2350347,9.84995977 C56.213281,9.84995977 53.0221239,12.269866 53.0221239,17.0813203" id="Fill-7" fill="#FCF4D9"></path>
                <path d="M73.7699115,10.2049834 L73.7699115,24.834473 L81.0834577,24.834473 L81.0834577,19.5158898 C81.0834577,17.3470532 82.7744166,15.6425528 84.806953,15.6425528 C85.4761664,15.6425528 86.0995706,15.7315505 86.449115,15.8718187 L86.449115,9.99990164 C86.1772471,9.90413232 85.7261256,9.84995977 85.2630538,9.84995977 C82.9775706,9.84995977 81.5425461,11.4267678 80.681133,13.5143456 L80.6173984,13.5143456 L80.6173984,10.2049834 L73.7699115,10.2049834 Z" id="Fill-8" fill="#FCF4D9"></path>
                <path d="M94.7397904,17.5394843 C94.7397904,16.1504709 94.9795637,14.532837 96.5466175,14.532837 C98.1517942,14.532837 98.4156452,16.1504709 98.4156452,17.6970211 C98.4156452,19.2233989 98.1517942,20.7180772 96.6068116,20.7180772 C94.9795637,20.7180772 94.7397904,19.2233989 94.7397904,17.5394843 Z M87.6017699,30.5977474 L94.9524763,30.5977474 L94.9524763,22.8717205 L95.0257125,22.8717205 C96.1563589,24.4163495 97.6331215,25.071472 99.5904339,25.071472 C104.159168,25.071472 106.044248,21.6402438 106.044248,17.6970211 C106.044248,13.4886754 104.263505,9.84995977 99.3807577,9.84995977 C96.9970702,9.84995977 95.5102752,10.6664614 94.4839653,12.84508 L94.43581,12.84508 L94.43581,10.2024964 L87.6017699,10.2024964 L87.6017699,30.5977474 Z" id="Fill-9" fill="#FCF4D9"></path>
                <path d="M10.721899,8.57350618 L16.7879952,9.83363824 C16.7879952,9.83363824 17.2583951,3.87728175 10.6826171,1.88786066 L4.61059208,0.628720837 C4.61059208,0.628720837 4.57527497,7.68248367 10.721899,8.57350618 L10.909668,5.09765625" id="Fill-10" fill="#4AB401"></path>
            </g>
        </g>
    </g>
</svg>