<?xml version="1.0" encoding="UTF-8"?>
<svg width="84px" height="25px" viewBox="0 0 84 25" version="1.1" xmlns="http://www.w3.org/2000/svg" xmlns:xlink="http://www.w3.org/1999/xlink">
    <!-- Generator: Sketch 52.2 (67145) - http://www.bohemiancoding.com/sketch -->
    <title>Group</title>
    <desc>Created with Sketch.</desc>
    <g id="Page-1" stroke="none" stroke-width="1" fill="none" fill-rule="evenodd">
        <g id="Movil-Copy" transform="translate(-25.000000, -54.000000)">
            <g id="Group" transform="translate(25.000000, 54.000000)">
                <path d="M8.30725207,14.6636443 C8.30725207,15.6337447 7.7288004,16.6549421 6.54695035,16.6549421 C5.66991782,16.6549421 5.20060797,16.3609498 5.20060797,15.596718 C5.20060797,14.4170462 6.56254204,14.3178145 7.75062876,14.3178145 L8.30725207,14.3178145 L8.30725207,14.6636443 Z M1.36271365,11.5600632 C2.50558447,11.0194729 3.93924031,10.6195841 5.30117437,10.6195841 C6.73638937,10.6195841 8.29789706,10.7817612 8.30725207,12.2295066 C7.80208134,12.1909988 6.88295125,12.0791781 6.09557094,12.0791781 C3.25632432,12.0791781 0,12.7686159 0,16.2054376 C0,18.5558948 2.14151853,19.5074819 4.32201628,19.5074819 C5.94043363,19.5074819 7.39435866,18.9061677 8.1856369,17.6354101 L8.22773446,17.6354101 L8.22773446,19.243111 L13.539823,19.243111 L13.539823,12.419824 C13.539823,8.33873716 9.56082389,7.77296862 6.2982629,7.77296862 C4.0803451,7.77296862 3.05597111,7.97217247 1.36271365,8.42167704 L1.36271365,11.5600632 Z" id="Fill-1" fill="#FCF4D9"></path>
                <polygon id="Fill-3" fill="#FCF4D9" points="15.3451327 19.5074819 20.7610619 19.5074819 20.7610619 3.25969429 15.3451327 3.25969429"></polygon>
                <path d="M22.5663717,7.02088744 L27.9823009,7.02088744 L27.9823009,3.25969429 L22.5663717,3.25969429 L22.5663717,7.02088744 Z M22.5663717,19.5074819 L27.9823009,19.5074819 L27.9823009,8.22837738 L22.5663717,8.22837738 L22.5663717,19.5074819 Z" id="Fill-5" fill="#FCF4D9"></path>
                <path d="M41.5221239,15.6033828 C40.7129017,16.0588117 39.8680484,16.2824532 38.835538,16.2824532 C37.1030741,16.2824532 35.948626,15.2679206 35.948626,13.5128533 C35.948626,11.8444285 37.1030741,10.9979974 38.835538,10.9979974 C39.8680484,10.9979974 40.7129017,11.2638493 41.425524,11.5593227 L41.425524,8.2543162 C40.2394038,7.92107557 38.9511411,7.77296862 37.2139264,7.77296862 C32.3617606,7.77296862 29.7876106,9.66429432 29.7876106,13.4291729 C29.7876106,17.3184612 32.3617606,19.5074819 37.2139264,19.5074819 C38.9511411,19.5074819 40.2394038,19.3304941 41.5221239,18.9313459 L41.5221239,15.6033828 Z" id="Fill-6" fill="#FCF4D9"></path>
                <path d="M47.5122649,13.435915 C47.5122649,12.1041973 47.6411677,11.0012182 48.736841,11.0012182 C49.8309797,11.0012182 49.9782971,12.1041973 49.9782971,13.435915 C49.9782971,15.0777994 49.8309797,16.2829336 48.736841,16.2829336 C47.6411677,16.2829336 47.5122649,15.0777994 47.5122649,13.435915 M41.5221239,13.435915 C41.5221239,17.3192898 44.021149,19.5074819 48.736841,19.5074819 C53.4187726,19.5074819 55.9646018,17.3192898 55.9646018,13.435915 C55.9646018,9.66801997 53.4187726,7.77296862 48.736841,7.77296862 C44.021149,7.77296862 41.5221239,9.66801997 41.5221239,13.435915" id="Fill-7" fill="#FCF4D9"></path>
                <path d="M57.7699115,8.05099099 L57.7699115,19.5074819 L63.4972184,19.5074819 L63.4972184,15.3424494 C63.4972184,13.644013 64.8214241,12.3092027 66.4131225,12.3092027 C66.9371898,12.3092027 67.4253835,12.3788977 67.699115,12.488743 L67.699115,7.89038951 C67.4862127,7.81539165 67.1329352,7.77296862 66.7702994,7.77296862 C64.980516,7.77296862 63.8567348,9.00778184 63.1821541,10.6425836 L63.1322429,10.6425836 L63.1322429,8.05099099 L57.7699115,8.05099099 Z" id="Fill-8" fill="#FCF4D9"></path>
                <path d="M74.1916209,13.7947076 C74.1916209,12.7069581 74.3793896,11.4401738 75.6065642,11.4401738 C76.8635932,11.4401738 77.0702173,12.7069581 77.0702173,13.9180761 C77.0702173,15.113397 76.8635932,16.2838936 75.6537028,16.2838936 C74.3793896,16.2838936 74.1916209,15.113397 74.1916209,13.7947076 Z M68.6017699,24.0207562 L74.3581772,24.0207562 L74.3581772,17.9704319 L74.4155292,17.9704319 C75.300949,19.1800454 76.4574157,19.693078 77.9902055,19.693078 C81.5680243,19.693078 83.0442478,17.0060509 83.0442478,13.9180761 C83.0442478,10.6224811 81.6497312,7.77296862 77.826006,7.77296862 C75.9593179,7.77296862 74.7949948,8.41237876 73.9912819,10.1184754 L73.953571,10.1184754 L73.953571,8.04904335 L68.6017699,8.04904335 L68.6017699,24.0207562 Z" id="Fill-9" fill="#FCF4D9"></path>
                <path d="M8.39641991,6.77336581 L13.1468369,7.76018707 C13.1468369,7.76018707 13.5152115,3.09570829 8.36565794,1.53777393 L3.6105695,0.551729686 C3.6105695,0.551729686 3.58294086,6.0755977 8.39641991,6.77336581 L13.2080078,7.82519531" id="Fill-10" fill="#4AB401"></path>
            </g>
        </g>
    </g>
</svg>