<?xml version="1.0" encoding="UTF-8"?>
<svg width="414px" height="127px" viewBox="0 0 414 127" version="1.1" xmlns="http://www.w3.org/2000/svg" xmlns:xlink="http://www.w3.org/1999/xlink">
    <!-- Generator: Sketch 52.1 (67048) - http://www.bohemiancoding.com/sketch -->
    <title>Group 197</title>
    <desc>Created with Sketch.</desc>
    <defs>
        <rect id="path-1" x="0" y="0" width="552" height="127"></rect>
    </defs>
    <g id="Page-2" stroke="none" stroke-width="1" fill="none" fill-rule="evenodd">
        <g id="Login---movil-/-414px-act" transform="translate(0.000000, -17.000000)">
            <g id="Group-197" transform="translate(-92.000000, 17.000000)">
                <mask id="mask-2" fill="white">
                    <use xlink:href="#path-1"></use>
                </mask>
                <use id="Mask" fill="#DF182B" xlink:href="#path-1"></use>
                <g opacity="0.636579241" mask="url(#mask-2)">
                    <g transform="translate(293.441406, 69.751100) rotate(-23.000000) translate(-293.441406, -69.751100) translate(113.441406, -70.953125)">
                        <path d="M281.431621,172.187303 L289.004882,173.661972 C289.004882,173.661972 289.592231,166.690375 281.381974,164.361196 L273.802817,162.887324 C273.802817,162.887324 273.758225,171.143875 281.431621,172.187303" id="Stroke-7" stroke="#A60206" stroke-width="1.548" fill="none" stroke-linecap="round" stroke-linejoin="round"></path>
                        <path d="M360,193.309859 L352.394366,200.915493" id="Stroke-41" stroke="#A60206" stroke-width="2" fill="none" stroke-linecap="round"></path>
                        <path d="M352.394366,193.309859 L360,200.915493" id="Stroke-43" stroke="#A60206" stroke-width="2" fill="none" stroke-linecap="round"></path>
                        <path d="M154.014085,67.8169014 L146.408451,75.4225352" id="Stroke-53" stroke="#A60206" stroke-width="2" fill="none" stroke-linecap="round"></path>
                        <path d="M146.408451,67.8169014 L154.014085,75.4225352" id="Stroke-55" stroke="#A60206" stroke-width="2" fill="none" stroke-linecap="round"></path>
                        <path d="M274.270412,110.014966 L272.309522,107.663152 C272.051796,107.353745 272.100172,106.898163 272.418785,106.646415 L273.885073,105.487561 C274.337971,105.129429 274.209525,104.426159 273.658207,104.242627 L265.27918,101.448223 C264.760391,101.275248 264.234095,101.691038 264.301655,102.220521 L265.387609,110.779143 C265.459338,111.342734 266.139102,111.609912 266.592,111.25178 L268.059122,110.092115 C268.376901,109.841179 268.844812,109.88828 269.103373,110.197686 L271.063428,112.549501 C271.321988,112.859719 271.789065,112.90682 272.107678,112.655072 L274.161983,111.031703 C274.480596,110.779955 274.528972,110.325185 274.270412,110.014966" id="Fill-61" stroke="none" fill="#A60206" fill-rule="evenodd"></path>
                        <path d="M337.534849,131.910214 C335.916077,140.330483 327.777206,145.844328 319.357019,144.224737 C310.937636,142.605949 305.423844,134.467802 307.042616,126.047533 C308.661388,117.627264 316.800259,112.113418 325.220446,113.73301 C333.639829,115.351798 339.153621,123.489944 337.534849,131.910214 Z" id="Stroke-63" stroke="#A60206" stroke-width="1.548" fill="none" stroke-linecap="round" stroke-linejoin="round"></path>
                        <path d="M324.507042,114.084507 L318.169014,144.507042" id="Stroke-65" stroke="#A60206" stroke-width="1.548" fill="none" stroke-linecap="round" stroke-linejoin="round"></path>
                        <path d="M324.507042,113.450704 C324.507042,113.450704 315.05314,114.664013 312.824344,126.860453 C310.663365,138.691216 318.94915,143.873239 318.94915,143.873239" id="Stroke-67" stroke="#A60206" stroke-width="1.548" fill="none" stroke-linecap="round" stroke-linejoin="round"></path>
                        <path d="M309.929577,138.659725 C312.347446,137.607722 315.453929,137.112239 319.337805,137.980231 C323.087355,138.818602 325.768472,140.597672 327.676056,142.605634" id="Stroke-71" stroke="#A60206" stroke-width="1.548" fill="none" stroke-linecap="round" stroke-linejoin="round"></path>
                        <path d="M325.727362,113.450704 C325.727362,113.450704 333.986308,118.218936 331.718568,130.415375 C329.518303,142.246139 320.070423,143.873239 320.070423,143.873239" id="Stroke-73" stroke="#A60206" stroke-width="1.548" fill="none" stroke-linecap="round" stroke-linejoin="round"></path>
                        <path d="M306.760563,125.492958 L337.183099,131.830986" id="Stroke-75" stroke="#A60206" stroke-width="1.548" fill="none" stroke-linecap="round" stroke-linejoin="round"></path>
                        <path d="M333.380282,145.032183 C333.380282,145.032183 346.850473,146.424566 349.43503,139.240842 C352.019587,132.057119 341.947147,128.661972 341.947147,128.661972" id="Stroke-77" stroke="#A60206" stroke-width="1.548" fill="none" stroke-linecap="round" stroke-linejoin="round"></path>
                        <path d="M333.380282,143.849578 C333.380282,143.849578 348.970717,144.51387 347.180829,138.802817" id="Stroke-81" stroke="#A60206" stroke-width="1.548" fill="none" stroke-linecap="round" stroke-linejoin="round"></path>
                        <path d="M69.7183099,47.1553099 L68.5963072,47.4839086 C67.8288574,47.7084225 67.0471956,47.1750946 66.8519671,46.2933832 L65.960349,42.2641772 C65.7643725,41.3816056 66.2288816,40.4835503 66.9963314,40.2581762 L68.1183341,39.9295775 L69.7183099,47.1553099 Z" id="Stroke-95" stroke="#A60206" stroke-width="1.548" fill="none" stroke-linecap="round" stroke-linejoin="round"></path>
                        <path d="M78.5915493,46.8659626 L71.9842513,48.1374224 C70.9856592,48.3199787 70.018971,47.6943014 69.7685254,46.7010991 L67.8694457,39.1809089 C67.6517015,38.3195974 68.1286648,37.4349638 68.9677375,37.1567063 L78.029243,34.2253521" id="Stroke-97" stroke="#A60206" stroke-width="1.548" fill="none" stroke-linecap="round" stroke-linejoin="round"></path>
                        <path d="M95.7042254,51.3380282 L82.4567062,48.4458032 C81.3945885,48.2094271 80.5521919,47.3960385 80.2801184,46.3351316 L77.4126385,35.0328511 C77.1516701,34.0037793 77.4760959,32.9118331 78.2605876,32.1931542 L88.4684988,22.8169014 L95.7042254,51.3380282 Z" id="Fill-99" stroke="none" fill="#C00418" fill-rule="evenodd"></path>
                        <path d="M91.9014085,21.0199781 C93.4024099,20.6048283 95.095475,21.4512816 95.5207588,23.123996 L97.9167122,32.527058 L99.6412499,39.3091841 L101.950855,48.3924031 C102.243793,49.5538533 101.807211,50.6619963 101.003449,51.3380282" id="Stroke-101" stroke="#A60206" stroke-width="1.548" fill="none" stroke-linecap="round" stroke-linejoin="round"></path>
                        <path d="M100.639648,51.5544718 C100.526831,51.6381338 100.405141,51.7008803 100.275845,51.7553873" id="Stroke-103" stroke="#A60206" stroke-width="1.548" fill="none" stroke-linecap="round" stroke-linejoin="round"></path>
                        <path d="M96.971831,32.5828596 L97.0135731,32.5724668 L97.7313568,32.4085812 C99.4083027,32.0344423 101.131528,32.936213 101.556209,34.4127825 L101.9455,35.757444 C102.371089,37.2340135 101.352943,38.7473574 99.6714598,39.1270924 L98.9527687,39.2853819 L98.9110265,39.2957746" id="Stroke-105" stroke="#A60206" stroke-width="1.548" fill="none" stroke-linecap="round" stroke-linejoin="round"></path>
                        <path d="M96.971831,51.4937393 L96.9757342,51.5064154 L98.0056173,51.7612041 C98.3072777,51.8366266 98.6011317,51.83219 98.8732394,51.7612041" id="Stroke-107" stroke="#A60206" stroke-width="1.548" fill="none" stroke-linecap="round" stroke-linejoin="round"></path>
                        <path d="M77.6012656,46.9014085 L80.4182789,58.8805985 C80.7446402,60.2674158 79.9709324,61.6784923 78.6901324,62.0318679 C77.4085855,62.3852434 76.1053808,61.546684 75.7797663,60.1598667 L72.8873239,47.8653071 L77.6012656,46.9014085" id="Stroke-111" stroke="#A60206" stroke-width="1.548" fill="none" stroke-linecap="round" stroke-linejoin="round"></path>
                        <path d="M102.042254,29.7887324 C102.042254,29.7887324 106.101358,32.6817829 103.947253,39.2957746" id="Stroke-113" stroke="#A60206" stroke-width="1.548" fill="none" stroke-linecap="round" stroke-linejoin="round"></path>
                        <path d="M113.450704,41.4709859 L114.71831,41.5571831" id="Stroke-127" stroke="#A60206" stroke-width="1.548" fill="none" stroke-linecap="round" stroke-linejoin="round"></path>
                        <path d="M117.253521,41.4120423 L119.788732,41.6161268" id="Stroke-129" stroke="#A60206" stroke-width="1.548" fill="none" stroke-linecap="round" stroke-linejoin="round" stroke-dasharray="3.06,3.06"></path>
                        <path d="M121.690141,41.4709859 L122.957746,41.5571831" id="Stroke-131" stroke="#A60206" stroke-width="1.548" fill="none" stroke-linecap="round" stroke-linejoin="round"></path>
                        <path d="M24.7423035,59.3710897 L32.3147054,60.8450704 C32.3147054,60.8450704 32.9028939,53.8737553 24.6926567,51.5444033 L17.1126761,50.0704225 C17.1126761,50.0704225 17.0689251,58.3275846 24.7423035,59.3710897" id="Stroke-133" stroke="#A60206" stroke-width="1.548" fill="none" stroke-linecap="round" stroke-linejoin="round"></path>
                        <polygon id="Fill-139" stroke="none" fill="#C00418" fill-rule="evenodd" points="133.396387 156.549296 219.584073 168.587516 225.633803 185.070423 122.957746 170.728573"></polygon>
                        <path d="M226.283183,98.7930819 L146.581325,87.5603159 C141.311715,86.8176932 136.419421,90.4860893 135.674401,95.7387469 L127.866918,150.781456 L114.448557,169.171348 C114.434138,169.192908 114.432536,169.196102 114.430132,169.200893 C114.388475,169.258386 114.350824,169.317477 114.315576,169.379761 C114.306763,169.395731 114.297951,169.4125 114.28994,169.429269 C114.261902,169.48277 114.235466,169.537868 114.213035,169.594563 C114.206626,169.609734 114.199417,169.624906 114.193008,169.641675 C114.166572,169.712743 114.142539,169.785409 114.124114,169.859671 C114.108893,169.923552 114.096075,169.985837 114.087263,170.050517 L113.546523,173.861049 C112.801504,179.112908 116.482541,183.990262 121.75135,184.732885 L222.407479,198.918574 C227.67709,199.661196 232.569384,195.992002 233.314404,190.740143 L233.855143,186.92961 C233.863956,186.865729 233.868762,186.801847 233.871966,186.737966 C233.875171,186.659711 233.871966,186.583053 233.866359,186.507992 C233.864757,186.489626 233.862353,186.472858 233.860751,186.456887 C233.854342,186.3962 233.844729,186.336311 233.832713,186.27722 C233.829508,186.258854 233.825503,186.240488 233.822299,186.222123 C233.805475,186.152651 233.785448,186.085576 233.761415,186.0185 C233.759813,186.014508 233.759813,186.009717 233.75741,186.004127 C233.751802,185.985761 225.974761,164.607812 225.974761,164.607812 L233.767023,109.669708" id="Stroke-141" stroke="#A60206" stroke-width="2" fill="none" stroke-linecap="round" stroke-linejoin="round"></path>
                        <path d="M244.65662,99.5070423 L245.273602,95.2989801 C245.336839,94.8634927 245.022366,94.4593472 244.571165,94.398313 L240.211268,93.8028169" id="Stroke-143" stroke="#A60206" stroke-width="2" fill="none" stroke-linecap="round" stroke-linejoin="round"></path>
                        <path d="M140.070423,146.408451 L174.844281,120.225182 L186.985687,136.382319 C187.627537,137.236034 188.83903,137.407099 189.692692,136.765407 L243.380282,96.3380282" id="Stroke-145" stroke="#A60206" stroke-width="2" fill="none" stroke-linecap="round" stroke-linejoin="round"></path>
                        <path d="M166.690141,172.394366 L183.802817,174.295775" id="Stroke-147" stroke="#A60206" stroke-width="2" fill="none" stroke-linecap="round" stroke-linejoin="round"></path>
                        <path d="M226.267606,116.496453 L219.878006,161.619718 L140.012843,150.343728 C137.228873,149.951184 135.290726,147.377929 135.684639,144.597945 L142.019461,99.8575712 C142.507623,96.4115489 145.700812,94.0120427 149.151775,94.4995052 L220.829357,104.619581" id="Stroke-149" stroke="#A60206" stroke-width="2" fill="none" stroke-linecap="round" stroke-linejoin="round"></path>
                        <polyline id="Fill-151" stroke="none" fill="#C00418" fill-rule="evenodd" points="43.6751392 131.830986 33.8829417 131.830986 33.8829417 132.950423 30.4225352 133.665511 30.4225352 134.366197 43.7323944 134.366197"></polyline>
                        <path d="M64.0140845,109.195203 L64.0140845,112.946593 L64.0140845,112.970631 C64.0140845,112.999321 64.0117147,113.027235 64.0117147,113.055925 C64.009345,113.145872 64.0069752,113.236593 64.0022357,113.324214 C63.9974962,113.407182 63.989597,113.488599 63.9824877,113.571567 C63.980118,113.600257 63.9777482,113.630497 63.9753784,113.661513 C63.7652598,115.707021 62.6340948,117.491219 60.9934317,118.603144 L60.9570954,118.603144 C59.9333595,119.29015 58.7137235,119.715069 57.3992972,119.779428 C57.2879185,119.786406 57.1741701,119.788732 57.0604217,119.788732 L57.0414636,119.788732 C56.8866393,119.788732 56.7286554,119.781754 56.5762009,119.772449 C55.3036403,119.689481 54.1242903,119.268438 53.1274116,118.603144 L53.0910753,118.603144 C51.4504122,117.491219 50.3176674,115.704695 50.1091286,113.656861 C50.1043891,113.625845 50.1020193,113.595604 50.0996496,113.564588 C50.0925403,113.483946 50.085431,113.404856 50.0830612,113.321888 C50.0775318,113.234267 50.0751621,113.143545 50.0735822,113.053599 C50.0735822,113.024909 50.0704225,112.999321 50.0704225,112.970631 L50.0704225,112.946593 L50.0704225,106.982984 L50.0704225,106.959722 C50.0704225,106.931032 50.0735822,106.904668 50.0735822,106.876754 C50.0751621,106.786032 50.0775318,106.696086 50.0830612,106.60769 C50.085431,106.524722 50.0925403,106.446406 50.0996496,106.365765 C50.1020193,106.334749 50.1043891,106.303733 50.1091286,106.272717 C50.3176674,104.224882 51.4504122,102.438358 53.0910753,101.326433 L53.1274116,101.326433 C54.1242903,100.661139 55.3036403,100.240872 56.5762009,100.157904 C56.7286554,100.147824 56.8866393,100.140845 57.0414636,100.140845 C57.1623213,100.140845 57.2808093,100.143171 57.3992972,100.15015 C58.7137235,100.214508 59.9333595,100.640203 60.9570954,101.326433 L60.9934317,101.326433 C62.6340948,102.438358 63.7652598,104.222556 63.9753784,106.268064 C63.9777482,106.29908 63.980118,106.330096 63.9824877,106.358786 C63.989597,106.441754 63.9974962,106.522396 64.0022357,106.605364 C64.0069752,106.693759 64.009345,106.783706 64.0117147,106.873652 C64.0117147,106.902342 64.0140845,106.931032 64.0140845,106.959722 L64.0140845,106.982984 L64.0140845,109.195203 Z" id="Fill-153" stroke="none" fill="#C00418" fill-rule="evenodd"></path>
                        <path d="M52.8458135,117.968852 C52.892161,117.985386 52.935198,118.005227 52.971614,118.030029 C53.9556719,118.698012 55.0986357,119.092354 56.2780154,119.170892 C56.4269897,119.179986 56.5809298,119.184946 56.7340423,119.187426 C56.8416348,119.184946 56.9525379,119.185773 57.0593028,119.178333 C58.2891683,119.117156 59.4677204,118.72116 60.4790903,118.030855 C60.5221273,118.001094 60.5684748,117.977946 60.6173053,117.959758 C62.1790524,116.839562 63.1821459,115.115866 63.3749848,113.210293 L63.3807783,113.127622 C63.3890546,113.038337 63.3956757,112.958973 63.4006415,112.877955 C63.4047797,112.79611 63.4072626,112.712612 63.4089179,112.628287 L63.4114008,112.553883 L64.0304717,112.534869 L63.4122284,112.509241 L63.4097455,106.035253 C63.4072626,105.948448 63.4047797,105.86495 63.3998139,105.783106 C63.3956757,105.702088 63.3890546,105.622724 63.3816059,105.541706 L63.3733296,105.43754 C63.1813183,103.540234 62.1740866,101.812405 60.6048908,100.692209 C60.5585432,100.675675 60.5155062,100.655007 60.4790903,100.630205 C59.4677204,99.9407269 58.2891683,99.5439048 57.0692344,99.4835548 C56.7952873,99.4670205 56.5354099,99.4736342 56.2771878,99.4901685 C55.0986357,99.5687062 53.9548442,99.9630482 52.971614,100.631032 C52.9285769,100.659967 52.8814018,100.683942 52.8333989,100.701303 C51.2691689,101.823152 50.2669031,103.548501 50.076547,105.455728 L50.0682707,105.537572 C50.060822,105.622724 50.0533733,105.693821 50.051718,105.769052 C50.0459245,105.872391 50.0434416,105.963329 50.0409587,106.054268 L50.0393035,106.15182 L50.0417864,112.623327 C50.0434416,112.697731 50.0459245,112.78867 50.0508904,112.877128 C50.0533733,112.96724 50.060822,113.038337 50.067443,113.111088 L50.0724089,113.171438 C50.2677307,115.116693 51.2749624,116.847003 52.8458135,117.968852 M56.7448015,120.422535 L56.7241107,120.422535 C56.5494797,120.422535 56.3707106,120.414268 56.1977349,120.402694 C54.8362754,120.312582 53.5161977,119.867811 52.3724063,119.115502 C52.3219206,119.098141 52.2739177,119.07582 52.2350189,119.048539 C50.3115953,117.723318 49.0775917,115.638349 48.8466816,113.328513 C48.843371,113.312806 48.8384052,113.262376 48.8350947,113.212773 C48.8268183,113.123488 48.818542,113.028416 48.8160591,112.927557 C48.8110933,112.843233 48.8086103,112.741547 48.8061274,112.639861 L48.8028169,112.534869 L48.8044722,106.056748 C48.8086103,105.919514 48.8110933,105.817828 48.8160591,105.718622 C48.818542,105.632644 48.8268183,105.537572 48.8359223,105.439193 C48.8384052,105.398684 48.843371,105.348255 48.8508197,105.298652 C49.0775917,103.022712 50.3115953,100.937743 52.2350189,99.612522 C52.2821941,99.5794535 52.3335074,99.5538254 52.3881313,99.5356377 C53.5277846,98.7891161 54.8420689,98.3484782 56.1960796,98.2583665 C56.5097532,98.2385254 56.8283927,98.2319117 57.1379281,98.2500994 C58.5399417,98.32037 59.9022287,98.7676216 61.0799532,99.546385 C61.1304389,99.5629192 61.1776141,99.5852405 61.216513,99.612522 C63.136626,100.936089 64.3714573,103.018578 64.6048503,105.32676 L64.6131267,105.43754 C64.621403,105.528478 64.6296794,105.620244 64.6346452,105.714489 C64.639611,105.807907 64.6420939,105.903806 64.6445768,105.999705 L64.0288164,106.080722 L64.6462321,106.054268 L64.6478873,106.126192 L64.6462321,112.606793 L64.0279888,112.625807 L64.6445768,112.661356 C64.6420939,112.757255 64.639611,112.853153 64.6346452,112.946572 C64.6296794,113.040817 64.621403,113.132582 64.6131267,113.226827 L64.6056779,113.320246 C64.3714573,115.642482 63.136626,117.724972 61.216513,119.048539 C61.1693378,119.081607 61.1180244,119.107235 61.0650558,119.125423 C59.8906418,119.897573 58.5333206,120.341517 57.1304794,120.410961 C57.0104723,120.419228 56.8772231,120.422535 56.7448015,120.422535" id="Fill-155" stroke="none" fill="#A60206" fill-rule="evenodd"></path>
                        <path d="M68.4725322,138.802817 L68.4709447,138.802817 C68.1431293,138.80204 67.8788134,138.541633 67.8796071,138.220594 L67.8994506,131.558844 C67.8994506,125.360385 62.7488605,120.315489 56.4171828,120.315489 C53.3398461,120.320153 50.4641198,121.49004 48.2995861,123.609052 C46.1318774,125.734282 44.9372961,128.559113 44.9372961,131.560399 L44.9174526,138.223703 C44.9166588,138.543965 44.6515491,138.802817 44.3253212,138.802817 L44.3237337,138.802817 C43.9959184,138.80204 43.7316024,138.541633 43.7323961,138.220594 L43.751446,131.558844 C43.751446,128.248957 45.0690572,125.133403 47.4613948,122.788187 C49.8489699,120.449968 53.0223494,119.159594 56.3965455,119.15493 C63.40211,119.15493 69.084507,124.719862 69.084507,131.560399 L69.0654572,138.223703 C69.0646635,138.543965 68.7995538,138.802817 68.4725322,138.802817" id="Fill-157" stroke="none" fill="#A60206" fill-rule="evenodd"></path>
                        <path d="M51.9381751,130.56338 L47.5688672,130.56338 C47.2007373,130.56338 46.9014085,130.279993 46.9014085,129.929577 C46.9014085,129.58001 47.2007373,129.295775 47.5688672,129.295775 L51.9381751,129.295775 C52.3071985,129.295775 52.6056338,129.58001 52.6056338,129.929577 C52.6056338,130.279993 52.3071985,130.56338 51.9381751,130.56338" id="Fill-159" stroke="none" fill="#BA0613" fill-rule="evenodd"></path>
                        <path d="M68.4911361,138.802817 L44.3257653,138.802817 C43.9977035,138.802817 43.7323944,138.51943 43.7323944,138.169014 C43.7323944,137.819447 43.9977035,137.535211 44.3257653,137.535211 L68.4911361,137.535211 C68.8191979,137.535211 69.084507,137.819447 69.084507,138.169014 C69.084507,138.51943 68.8191979,138.802817 68.4911361,138.802817" id="Fill-161" stroke="none" fill="#A60206" fill-rule="evenodd"></path>
                        <path d="M58.8899585,122.937658 L59.8899347,123.296679 L60.0219246,121.923308 L58.8899585,122.937658 Z M56.4276044,137.535211 C56.0674731,137.535211 55.7746479,137.273393 55.7746479,136.949647 L55.7746479,124.3173 C55.7746479,124.162091 55.8437022,124.013152 55.9660769,123.902624 L57.2545078,122.747957 C57.2623748,122.740902 57.2702417,122.733848 57.2781087,122.727576 L60.3645738,119.960454 C60.5594992,119.786431 60.8531985,119.739397 61.1023185,119.843654 C61.3505643,119.947127 61.5000363,120.179158 61.4764354,120.424515 L61.1145559,124.183255 C61.0961997,124.368253 60.9825661,124.534437 60.8059968,124.631639 C60.6303017,124.728841 60.4135236,124.745303 60.2212205,124.676321 L57.8856117,123.838345 L57.0805609,124.559521 L57.0805609,136.949647 C57.0805609,137.273393 56.7877357,137.535211 56.4276044,137.535211 Z" id="Fill-163" stroke="none" fill="#A60206" fill-rule="evenodd"></path>
                        <path d="M52.7956274,122.16938 L52.927597,123.701321 L53.9274201,123.300848 L52.7956274,122.16938 Z M56.389397,125.492958 C56.2224685,125.492958 56.05554,125.429127 55.9279402,125.301465 L54.931613,124.305528 L52.595488,125.241132 C52.4040883,125.317204 52.1873434,125.298842 52.0116752,125.190417 C51.835133,125.081992 51.7215168,124.89662 51.7031634,124.691137 L51.3404653,120.497535 C51.3168681,120.224724 51.4663172,119.965903 51.715399,119.849608 C51.9644808,119.734188 52.2590091,119.785777 52.4521567,119.979893 L55.5425189,123.069133 C55.5477627,123.075254 55.5530066,123.0805 55.5591244,123.085746 L56.8508538,124.378103 C57.1060534,124.632552 57.1060534,125.046142 56.8508538,125.301465 C56.723254,125.429127 56.5563255,125.492958 56.389397,125.492958 Z" id="Fill-165" stroke="none" fill="#A60206" fill-rule="evenodd"></path>
                        <path d="M58.6267606,130.765855 C58.5639984,130.765855 58.5126475,130.817187 58.5126475,130.879925 C58.5126475,130.942664 58.5639984,130.993995 58.6267606,130.993995 C58.6895227,130.993995 58.7408736,130.942664 58.7408736,130.879925 C58.7408736,130.817187 58.6895227,130.765855 58.6267606,130.765855 M58.6267606,131.830986 C58.1025538,131.830986 57.6760563,131.403935 57.6760563,130.879925 C57.6760563,130.355915 58.1025538,129.929577 58.6267606,129.929577 C59.1509673,129.929577 59.5774648,130.355915 59.5774648,130.879925 C59.5774648,131.403935 59.1509673,131.830986 58.6267606,131.830986" id="Fill-167" stroke="none" fill="#BA0613" fill-rule="evenodd"></path>
                        <path d="M58.6267606,136.47008 C58.5639984,136.47008 58.5126475,136.521412 58.5126475,136.584151 C58.5126475,136.646889 58.5639984,136.698221 58.6267606,136.698221 C58.6895227,136.698221 58.7408736,136.646889 58.7408736,136.584151 C58.7408736,136.521412 58.6895227,136.47008 58.6267606,136.47008 M58.6267606,137.535211 C58.1025538,137.535211 57.6760563,137.108161 57.6760563,136.584151 C57.6760563,136.06014 58.1025538,135.633803 58.6267606,135.633803 C59.1509673,135.633803 59.5774648,136.06014 59.5774648,136.584151 C59.5774648,137.108161 59.1509673,137.535211 58.6267606,137.535211" id="Fill-169" stroke="none" fill="#BA0613" fill-rule="evenodd"></path>
                        <path d="M44.8235155,132.464789 L24.6958517,132.464789 C24.358219,132.464789 24.084507,132.192752 24.084507,131.856371 L24.084507,110.256305 C24.084507,109.919924 24.358219,109.647887 24.6958517,109.647887 L50.0920612,109.647887 C50.4296939,109.647887 50.7042254,109.919924 50.7042254,110.256305 C50.7042254,110.591872 50.4296939,110.863909 50.0920612,110.863909 L25.3080159,110.863909 L25.3080159,131.247952 L44.8235155,131.247952 C45.1619677,131.247952 45.4356797,131.520804 45.4356797,131.856371 C45.4356797,132.192752 45.1619677,132.464789 44.8235155,132.464789" id="Fill-171" stroke="none" fill="#A60206" fill-rule="evenodd"></path>
                        <path d="M43.7348552,130.56338 L25.9471343,130.56338 C25.6181598,130.56338 25.3521127,130.301455 25.3521127,129.977576 L25.3521127,112.768118 C25.3521127,112.445024 25.6181598,112.183099 25.9471343,112.183099 L48.7746166,112.183099 C49.1027945,112.183099 49.3688416,112.445024 49.3688416,112.768118 C49.3688416,113.091996 49.1027945,113.353922 48.7746166,113.353922 L26.5421559,113.353922 L26.5421559,129.391773 L43.2688745,129.391773 C45.3239692,121.748091 53.4312382,119.866775 53.7817194,119.789138 C54.1011353,119.718559 54.4197546,119.91618 54.4922405,120.231432 C54.5647264,120.546684 54.3639963,120.860367 54.0429873,120.932514 C53.9633324,120.949767 45.9946629,122.813046 44.3147424,130.106971 C44.2534082,130.374386 44.0128506,130.56338 43.7348552,130.56338" id="Fill-173" stroke="none" fill="#A60206" fill-rule="evenodd"></path>
                        <path d="M35.1763267,120.596439 C35.0973941,120.596439 35.0330587,120.660774 35.0330587,120.739707 C35.0330587,120.818639 35.0973941,120.882975 35.1763267,120.882975 C35.2552592,120.882975 35.3195946,120.818639 35.3195946,120.739707 C35.3195946,120.660774 35.2552592,120.596439 35.1763267,120.596439 M35.1763267,121.690141 C34.651912,121.690141 34.2253521,121.263581 34.2253521,120.739707 C34.2253521,120.215292 34.651912,119.788732 35.1763267,119.788732 C35.7002006,119.788732 36.1267606,120.215292 36.1267606,120.739707 C36.1267606,121.263581 35.7002006,121.690141 35.1763267,121.690141" id="Fill-175" stroke="none" fill="#770E0E" fill-rule="evenodd"></path>
                        <path d="M39.6126761,122.497847 C39.5337211,122.497847 39.4693674,122.562183 39.4693674,122.641115 C39.4693674,122.720048 39.5337211,122.784383 39.6126761,122.784383 C39.691631,122.784383 39.7559847,122.720048 39.7559847,122.641115 C39.7559847,122.562183 39.691631,122.497847 39.6126761,122.497847 M39.6126761,123.591549 C39.0881123,123.591549 38.6619718,123.164989 38.6619718,122.641115 C38.6619718,122.116701 39.0881123,121.690141 39.6126761,121.690141 C40.136699,121.690141 40.5633803,122.116701 40.5633803,122.641115 C40.5633803,123.164989 40.136699,123.591549 39.6126761,123.591549" id="Fill-177" stroke="none" fill="#770E0E" fill-rule="evenodd"></path>
                        <path d="M45.9504339,115.526016 C45.8715014,115.526016 45.807166,115.590352 45.807166,115.669284 C45.807166,115.748217 45.8715014,115.812552 45.9504339,115.812552 C46.0293664,115.812552 46.0937018,115.748217 46.0937018,115.669284 C46.0937018,115.590352 46.0293664,115.526016 45.9504339,115.526016 M45.9504339,116.619718 C45.4265599,116.619718 45,116.193158 45,115.669284 C45,115.14487 45.4265599,114.71831 45.9504339,114.71831 C46.4748485,114.71831 46.9014085,115.14487 46.9014085,115.669284 C46.9014085,116.193158 46.4748485,116.619718 45.9504339,116.619718" id="Fill-179" stroke="none" fill="#770E0E" fill-rule="evenodd"></path>
                        <path d="M30.7394366,125.666862 C30.6604817,125.666862 30.596128,125.731197 30.596128,125.810129 C30.596128,125.889062 30.6604817,125.953397 30.7394366,125.953397 C30.8183916,125.953397 30.8827453,125.889062 30.8827453,125.810129 C30.8827453,125.731197 30.8183916,125.666862 30.7394366,125.666862 M30.7394366,126.760563 C30.2148729,126.760563 29.7887324,126.334003 29.7887324,125.810129 C29.7887324,125.285715 30.2148729,124.859155 30.7394366,124.859155 C31.2640004,124.859155 31.6901408,125.285715 31.6901408,125.810129 C31.6901408,126.334003 31.2640004,126.760563 30.7394366,126.760563" id="Fill-181" stroke="none" fill="#770E0E" fill-rule="evenodd"></path>
                        <path d="M40.5747012,123.591549 C40.4321523,123.591549 40.2887395,123.54894 40.1695168,123.460564 C39.8921944,123.256194 39.8489977,122.885331 40.0727563,122.63204 L45.7539778,116.205063 C45.9777364,115.951772 46.3837848,115.912318 46.6611072,116.116687 C46.9384296,116.321057 46.9824902,116.69192 46.7578677,116.945211 L41.0775101,123.372188 C40.949648,123.516588 40.7630386,123.591549 40.5747012,123.591549" id="Fill-183" stroke="none" fill="#A60206" fill-rule="evenodd"></path>
                        <path d="M38.7234818,122.957746 C38.6055182,122.957746 38.4860227,122.928348 38.3841451,122.866424 L35.7253698,121.265784 C35.4710588,121.112538 35.417439,120.820432 35.6043423,120.612768 C35.7920115,120.404479 36.1504981,120.360694 36.4048091,120.51394 L39.0635844,122.11458 C39.3171294,122.267826 39.3715152,122.559932 39.1846119,122.767596 C39.0720104,122.89207 38.8988951,122.957746 38.7234818,122.957746" id="Fill-185" stroke="none" fill="#A60206" fill-rule="evenodd"></path>
                        <path d="M31.0690652,126.126761 C30.923596,126.126761 30.7781268,126.079497 30.6569025,125.981595 C30.3815501,125.759626 30.3434511,125.362109 30.5711796,125.094565 L34.348183,120.650975 C34.5759116,120.382587 34.9837448,120.345451 35.2582313,120.56742 C35.5335837,120.789388 35.5725487,121.186906 35.3439542,121.455294 L31.5678167,125.898884 C31.4396653,126.049114 31.2552311,126.126761 31.0690652,126.126761" id="Fill-187" stroke="none" fill="#A60206" fill-rule="evenodd"></path>
                        <path d="M306.40822,228.561897 C304.962328,228.709225 303.619199,228.078041 302.813963,227.024258 C302.25921,228.216839 301.075843,229.103909 299.633965,229.250461 C298.192088,229.397789 296.843339,228.76738 296.045329,227.712822 C295.484955,228.905404 294.307208,229.792473 292.860514,229.939801 C291.418637,230.086353 290.069084,229.455945 289.271074,228.402162 C288.716321,229.593968 287.532954,230.481813 286.08626,230.628365 C284.644382,230.774918 283.295633,230.145285 282.49682,229.090727 C281.93725,230.283308 280.7587,231.170377 279.316822,231.31693 C277.156415,231.536371 275.215179,230.018893 274.988782,227.937691 L274.439648,222.900626 C274.433226,222.84247 274.436437,222.775785 274.454902,222.713752 L276.282136,216.270093 C276.338334,216.067711 276.519773,215.918056 276.737339,215.89557 L305.600576,212.960642 C305.818142,212.938155 306.029285,213.048263 306.126427,213.235137 L309.303214,219.169352 C309.33613,219.226732 309.352186,219.291091 309.358609,219.350022 L309.907742,224.386312 C310.134942,226.467514 308.563007,228.342456 306.40822,228.561897" id="Fill-189" stroke="none" fill="#C00418" fill-rule="evenodd"></path>
                        <path d="M307.645875,229.43662 L309.2829,245.121024 C309.416519,246.398535 308.494792,247.541273 307.228218,247.675238 L282.149574,250.339206 C280.8862,250.473171 279.749244,249.549135 279.615626,248.271625 L278.239437,235.088977" id="Stroke-191" stroke="#A60206" stroke-width="1.548" fill="none" stroke-linecap="round" stroke-linejoin="round"></path>
                        <path d="M292.974602,248.894164 L285.280571,249.715346 C284.989576,249.746396 284.725182,249.529865 284.695357,249.23571 L283.31293,235.930109 C283.281493,235.630234 283.495104,235.362227 283.786099,235.331177 L291.48013,234.509995 C291.771125,234.478945 292.033907,234.696293 292.065344,234.996167 L293.447771,248.301769 C293.478402,248.595107 293.265597,248.863114 292.974602,248.894164 Z" id="Stroke-193" stroke="#A60206" stroke-width="1.548" fill="none" stroke-linecap="round" stroke-linejoin="round"></path>
                        <path d="M304.417045,240.033588 L295.954112,240.842488 C295.678261,240.869021 295.433893,240.688056 295.405408,240.439058 L294.721027,234.545445 C294.692543,234.295088 294.891186,234.076705 295.166287,234.050172 L303.62922,233.241952 C303.898325,233.2161 304.143443,233.392303 304.172677,233.64198 L304.856308,239.536274 C304.885543,239.78459 304.68615,240.007735 304.417045,240.033588 Z" id="Stroke-195" stroke="#A60206" stroke-width="1.548" fill="none" stroke-linecap="round" stroke-linejoin="round"></path>
                    </g>
                </g>
            </g>
        </g>
    </g>
</svg>