<?xml version="1.0" encoding="UTF-8"?>
<svg width="28px" height="28px" viewBox="0 0 28 28" version="1.1" xmlns="http://www.w3.org/2000/svg" xmlns:xlink="http://www.w3.org/1999/xlink">
    <!-- Generator: Sketch 60.1 (88133) - https://sketch.com -->
    <title>Group 6</title>
    <desc>Created with Sketch.</desc>
    <g id="Flujos" stroke="none" stroke-width="1" fill="none" fill-rule="evenodd">
        <g id="01.Home_slider" transform="translate(-1068.000000, -1113.000000)">
            <g id="Group-6" transform="translate(1082.000000, 1127.000000) rotate(-360.000000) translate(-1082.000000, -1127.000000) translate(1068.000000, 1113.000000)">
                <path d="M13.5998,-9.99999975e-05 C21.0998,-9.99999975e-05 27.1998,6.0999 27.1998,13.5999 C27.1998,21.0999 21.1998,27.1999 13.5998,27.1999 C6.0998,27.1999 -0.0002,21.0999 -0.0002,13.5999 C-0.0002,6.0999 6.0998,-9.99999975e-05 13.5998,-9.99999975e-05 Z" id="Fill-1" fill="#78B928"></path>
                <path d="M12.6999,18.4002 C12.4999,18.4002 12.1999,18.4002 12.0999,18.2002 C11.7999,17.9002 11.7999,17.4002 12.0999,17.1002 L15.0999,14.1002 C15.2999,13.9002 15.2999,13.6002 15.0999,13.3002 L12.0999,10.3002 C11.7999,10.0002 11.7999,9.5002 12.0999,9.2002 C12.3999,8.9002 12.8999,8.9002 13.1999,9.2002 L16.1999,12.2002 C16.9999,13.0002 16.9999,14.4002 16.1999,15.2002 L13.1999,18.2002 C13.1999,18.4002 12.9999,18.4002 12.6999,18.4002" id="Fill-4" fill="#FFFFFF"></path>
            </g>
        </g>
    </g>
</svg>