<?xml version="1.0" encoding="UTF-8"?>
<svg width="25px" height="25px" viewBox="0 0 25 25" version="1.1" xmlns="http://www.w3.org/2000/svg" xmlns:xlink="http://www.w3.org/1999/xlink">
    <!-- Generator: Sketch 53 (72520) - https://sketchapp.com -->
    <title>Group 9</title>
    <desc>Created with Sketch.</desc>
    <g id="Page-1" stroke="none" stroke-width="1" fill="none" fill-rule="evenodd">
        <g id="Desktop---muestra-de-producto-inhabilitado" transform="translate(-968.000000, -304.000000)">
            <g id="Group-9" transform="translate(969.000000, 305.000000)">
                <path d="M11.2765892,0 L11.2666432,0 L11.2573189,0 C5.0411027,0 -0.000248648649,5.04135135 -0.000248648649,11.2575676 C-0.000248648649,17.4737838 5.0411027,22.5145135 11.2573189,22.5145135 L11.2765892,22.5145135 C17.4928054,22.5145135 22.5335351,17.4737838 22.5335351,11.2575676 C22.5335351,5.04135135 17.4928054,0 11.2765892,0" id="Fill-1" fill="#FFFFFF"></path>
                <path d="M11.2765892,0 L11.2666432,0 L11.2573189,0 C5.0411027,0 -0.000248648649,5.04135135 -0.000248648649,11.2575676 C-0.000248648649,17.4737838 5.0411027,22.5145135 11.2573189,22.5145135 L11.2765892,22.5145135 C17.4928054,22.5145135 22.5335351,17.4737838 22.5335351,11.2575676 C22.5335351,5.04135135 17.4928054,0 11.2765892,0 Z" id="Stroke-3" stroke="#F04656" stroke-width="2"></path>
                <path d="M11.2765892,19.2902865 L11.2666432,19.2902865 L11.2573189,19.2902865 C10.2397243,19.2902865 9.41421081,18.4666378 9.41421081,17.4496649 C9.41421081,16.4314486 10.2397243,15.6065568 11.2573189,15.6065568 L11.2765892,15.6065568 C12.2941838,15.6065568 13.1196973,16.4314486 13.1196973,17.4496649 C13.1196973,18.4666378 12.2941838,19.2902865 11.2765892,19.2902865" id="Fill-5" fill="#F04656"></path>
                <path d="M13.9184811,5.25009189 C13.7972649,7.09071351 12.9568324,12.5566324 12.9568324,12.5566324 C12.9568324,13.4791189 12.2015622,14.2269297 11.2815622,14.2269297 L11.2523459,14.2269297 C10.3298595,14.2269297 9.57458919,13.4791189 9.57458919,12.5566324 C9.57458919,12.5566324 8.73415676,7.09071351 8.61542703,5.25009189 C8.55450811,4.32947027 9.25880541,2.62001081 11.2523459,2.62001081 C11.2573189,2.62001081 11.2622919,2.6224973 11.2666432,2.6224973 C11.2716162,2.6224973 11.2765892,2.62001081 11.2815622,2.62001081 C13.2726162,2.62001081 13.9794,4.32947027 13.9184811,5.25009189" id="Fill-7" fill="#F04656"></path>
            </g>
        </g>
    </g>
</svg>