<?xml version="1.0" standalone="no"?>
<!DOCTYPE svg PUBLIC "-//W3C//DTD SVG 20010904//EN"
 "http://www.w3.org/TR/2001/REC-SVG-20010904/DTD/svg10.dtd">
<svg version="1.0" xmlns="http://www.w3.org/2000/svg"
 width="700.000000pt" height="700.000000pt" viewBox="0 0 700.000000 700.000000"
 preserveAspectRatio="xMidYMid meet">
<metadata>
Created by potrace 1.11, written by Peter Selinger 2001-2013
</metadata>
<g transform="translate(0.000000,700.000000) scale(0.100000,-0.100000)"
fill="#000000" stroke="none">
<path d="M2514 6813 c-7 -27 2 -398 10 -448 3 -16 8 -48 10 -70 4 -36 15 -96
31 -180 6 -31 8 -37 51 -175 120 -384 390 -707 764 -915 260 -144 629 -257
980 -300 95 -12 191 -22 285 -30 39 -4 86 -10 105 -15 19 -5 55 -12 80 -15 60
-8 194 -38 365 -81 77 -20 148 -37 158 -39 50 -11 298 -100 350 -126 l59 -30
-7 83 c-4 46 -9 97 -11 113 -2 17 -6 53 -9 80 -3 28 -10 73 -15 100 -5 28 -12
66 -15 85 -9 54 -44 199 -64 265 -196 635 -624 1047 -1361 1312 -86 30 -239
79 -281 88 -9 2 -52 12 -95 24 -44 11 -113 27 -154 36 -41 9 -93 20 -115 25
-22 5 -58 12 -80 16 -22 3 -49 8 -60 9 -146 24 -218 35 -260 40 -27 4 -61 8
-75 11 -14 2 -54 9 -90 15 -36 5 -80 13 -99 16 -71 11 -289 71 -368 101 l-83
31 -6 -26z"/>
<path d="M3227 4304 c-1 -1 -69 -5 -151 -9 -83 -4 -157 -8 -165 -10 -9 -2 -54
-6 -101 -10 -111 -8 -216 -20 -290 -30 -14 -2 -47 -7 -75 -10 -27 -4 -61 -8
-75 -10 -14 -2 -45 -7 -70 -10 -90 -12 -417 -67 -473 -80 -31 -7 -60 -14 -62
-14 -3 0 -23 -4 -44 -7 l-39 -6 0 -549 c0 -302 1 -549 2 -549 2 0 47 18 101
40 223 91 503 168 765 211 97 16 170 25 285 36 105 10 399 10 499 0 354 -35
587 -178 645 -397 11 -44 15 -99 12 -173 l-1 -38 -47 6 c-27 3 -59 7 -73 10
-14 3 -41 7 -60 9 -19 3 -65 9 -101 15 -36 6 -90 13 -120 17 -30 3 -65 7 -79
9 -153 27 -623 26 -815 0 -213 -29 -205 -28 -285 -45 -240 -51 -489 -157 -635
-269 -84 -64 -205 -181 -268 -260 -170 -209 -252 -390 -302 -666 -7 -40 -7
-268 1 -325 48 -379 278 -700 619 -866 83 -40 267 -106 332 -119 179 -36 258
-44 428 -45 72 0 141 2 155 4 14 3 51 7 83 10 234 21 572 141 809 287 122 75
268 187 321 246 12 13 24 23 29 23 4 0 8 -119 8 -264 l0 -263 905 1 905 1 -1
1255 c0 690 -5 1287 -9 1325 -20 170 -44 277 -91 410 -130 371 -387 647 -782
842 -37 18 -69 33 -71 33 -2 0 -21 8 -42 17 -22 9 -43 18 -49 19 -5 2 -48 16
-95 33 -80 28 -282 82 -360 95 -19 3 -46 8 -60 11 -13 3 -42 7 -65 10 -22 3
-51 8 -65 10 -14 2 -50 7 -80 10 -30 3 -71 8 -90 10 -120 14 -701 30 -713 19z
m796 -2314 c9 -52 12 -249 4 -300 -16 -102 -56 -225 -88 -272 -11 -14 -19 -29
-19 -34 0 -11 -69 -94 -109 -133 -73 -69 -172 -124 -281 -157 -42 -13 -52 -14
-140 -19 -288 -15 -496 160 -505 425 -6 173 146 379 330 447 17 6 39 15 50 19
26 10 22 9 85 22 50 10 80 14 210 27 25 3 123 7 219 10 96 3 176 7 178 8 1 2
15 3 30 2 25 0 28 -5 36 -45z"/>
</g>
</svg>
