<?xml version="1.0" encoding="UTF-8"?>
<svg width="38px" height="38px" viewBox="0 0 38 38" version="1.1" xmlns="http://www.w3.org/2000/svg" xmlns:xlink="http://www.w3.org/1999/xlink">
    <!-- Generator: Sketch 60.1 (88133) - https://sketch.com -->
    <title>-hover</title>
    <desc>Created with Sketch.</desc>
    <g id="Flujos" stroke="none" stroke-width="1" fill="none" fill-rule="evenodd">
        <g id="-hover" transform="translate(1.000000, 1.000000)" fill-rule="nonzero">
            <rect id="Rectangle" stroke="#ED1B2F" x="-0.5" y="-0.5" width="37" height="37" rx="3"></rect>
            <path d="M10.8675,23.27625 L13.2975,20.37375 C14.85,21.61125 16.5825,22.26375 18.40545,22.26375 C19.57545,22.26375 20.20545,21.85875 20.20545,21.18375 L20.20545,21.13875 C20.20545,20.48625 19.68795,20.12625 17.55045,19.6308 C14.19795,18.8658 11.61,17.9208 11.61,14.6808 L11.61,14.6358 C11.61,11.7108 13.9275,9.59535 17.70795,9.59535 C20.3859,9.59535 22.4784,10.31535 24.1884,11.68785 L22.00545,14.77035 C20.56545,13.75785 18.99045,13.21785 17.59545,13.21785 C16.53795,13.21785 16.02045,13.66785 16.02045,14.23035 L16.02045,14.27535 C16.02045,14.99535 16.56045,15.31035 18.74295,15.80535 C22.3659,16.59285 24.6159,17.76285 24.6159,20.7108 L24.6159,20.7558 C24.6159,23.9733 22.0734,25.88625 18.24795,25.88625 C15.45795,25.88625 12.80295,25.00875 10.8675,23.27625 Z" id="Path" fill="#ED1B2F"></path>
        </g>
    </g>
</svg>