<?xml version="1.0" encoding="UTF-8"?>
<svg width="34px" height="32px" viewBox="0 0 34 32" version="1.1" xmlns="http://www.w3.org/2000/svg" xmlns:xlink="http://www.w3.org/1999/xlink">
    <!-- Generator: Sketch 60.1 (88133) - https://sketch.com -->
    <title>noun_Van_3232</title>
    <desc>Created with Sketch.</desc>
    <g id="Flujos" stroke="none" stroke-width="1" fill="none" fill-rule="evenodd">
        <g id="07.01b.Seguimiento_pedido" transform="translate(-655.000000, -682.000000)">
            <g id="noun_Van_3232" transform="translate(656.000000, 683.000000)">
                <path d="M31.527746,8.5119035 L28.4891747,8.5119035 L27.8490928,3.61883322 C27.8490928,3.61883322 27.5251007,0.832713913 27.1973156,0.482298724 C26.7876632,0.0445982968 26.2793908,0 26.2793908,0 C26.2790747,0 5.21927496,0 5.21927496,0 C5.21927496,0 4.71131863,0.0445982968 4.30135015,0.482298724 C3.9738811,0.832713913 3.64925687,3.61883322 3.64925687,3.61883322 L3.00885891,8.5119035 L0,8.5119035 L0,13.2590736 L2.33780024,13.6368849 L2.03214139,15.9722429 L2.03214139,28.8996963 C2.03214139,29.5065517 2.52050015,30 3.12359951,30 L5.11022397,30 C5.71395551,30 6.20263036,29.5065517 6.20263036,28.8996963 L6.20263036,25.8408903 L25.2969837,25.8408903 L25.2969837,28.8996963 C25.2969837,29.5065517 25.7853424,30 26.3884418,30 L28.3753823,30 C28.9784817,30 29.4668405,29.5065517 29.4668405,28.8996963 L29.4668405,15.9722429 L29.1618138,13.6419819 L31.5283782,13.2593922 L31.5283782,8.5119035 L31.527746,8.5119035 Z M6.18524542,20.4725296 C5.12602846,20.4725296 4.26784463,19.6079597 4.26784463,18.5404676 C4.26784463,17.4732941 5.12634455,16.6084057 6.18524542,16.6084057 C7.2438302,16.6084057 8.10233013,17.4736127 8.10233013,18.5404676 C8.10233013,19.6079597 7.24414629,20.4725296 6.18524542,20.4725296 Z M25.2972998,20.4725296 C24.2383989,20.4725296 23.380215,19.6079597 23.380215,18.5404676 C23.380215,17.4732941 24.238715,16.6084057 25.2972998,16.6084057 C26.3558845,16.6084057 27.2147005,17.4736127 27.2147005,18.5404676 C27.2147005,19.6079597 26.3558845,20.4725296 25.2972998,20.4725296 Z M4.09304696,11.984518 L4.97367318,4.12151974 L26.4235277,4.12151974 L27.4037223,11.984518 L4.09304696,11.984518 Z" id="Shape" stroke="#484D4F" fill="#78B928" fill-rule="nonzero" stroke-linejoin="round"></path>
                <path d="M25.2974578,25.467415 L29.3668546,25.467415 L29.3668546,27.967415 C29.3668546,29.0719845 28.4714241,29.967415 27.3668546,29.967415 L27.2974578,29.967415 C26.1928883,29.967415 25.2974578,29.0719845 25.2974578,27.967415 L25.2974578,25.467415 L25.2974578,25.467415 Z" id="Path-5" fill="#484D4F"></path>
                <path d="M2.22769036,25.467415 L6.29708713,25.467415 L6.29708713,27.967415 C6.29708713,29.0719845 5.40165663,29.967415 4.29708713,29.967415 L4.22769036,29.967415 C3.12312086,29.967415 2.22769036,29.0719845 2.22769036,27.967415 L2.22769036,25.467415 L2.22769036,25.467415 Z" id="Path-5" fill="#484D4F"></path>
                <path d="M3.72093023,0 L27.5348837,0 L27.5348837,1.75 C27.5348837,2.8545695 26.6394532,3.75 25.5348837,3.75 L5.72093023,3.75 C4.61636073,3.75 3.72093023,2.8545695 3.72093023,1.75 L3.72093023,0 L3.72093023,0 Z" id="Path-5" fill="#484D4F" transform="translate(15.627907, 1.875000) rotate(180.000000) translate(-15.627907, -1.875000) "></path>
                <line x1="10.1533002" y1="18" x2="21.1127929" y2="18" id="Line-2" stroke="#484D4F" stroke-linecap="round" stroke-linejoin="round"></line>
                <line x1="10.1533002" y1="19.5" x2="21.1127929" y2="19.5" id="Line-2" stroke="#484D4F" stroke-linecap="round" stroke-linejoin="round"></line>
            </g>
        </g>
    </g>
</svg>