<?xml version="1.0" encoding="UTF-8"?>
<svg width="30px" height="31px" viewBox="0 0 30 31" version="1.1" xmlns="http://www.w3.org/2000/svg" xmlns:xlink="http://www.w3.org/1999/xlink">
    <!-- Generator: Sketch 60 (88103) - https://sketch.com -->
    <title>weight</title>
    <desc>Created with Sketch.</desc>
    <g id="Flujos" stroke="none" stroke-width="1" fill="none" fill-rule="evenodd">
        <g id="07.Detalle_pedido" transform="translate(-456.000000, -444.000000)">
            <g id="weight" transform="translate(456.000000, 445.000000)">
                <path d="M0.672748584,27.2988565 L1.5883217,21.2068966 L1.5883217,21.2068966 L28.2996772,21.2133172 L28.9926533,27.3166107 C29.0549601,27.8653696 28.6606128,28.3607362 28.1118539,28.423043 C28.074626,28.4272699 28.03719,28.4294012 27.9997229,28.4294269 L1.66232795,28.4474792 C1.11004333,28.4478577 0.662021313,28.0004495 0.661642764,27.4481648 C0.661608509,27.3981878 0.665320851,27.3482785 0.672748584,27.2988565 Z" id="Path-2" stroke="#484D4F" fill="#78B928" stroke-linejoin="round"></path>
                <path d="M18.8510204,2.58409571 L18.8510204,6.6122449 L21.3489796,6.6122449 L21.3489796,1.29204785 C21.3489796,0.57635468 20.7918367,0 20.1,0 L9.9,0 C9.20816327,0 8.65102041,0.57635468 8.65102041,1.29204785 L8.65102041,6.6122449 L11.1489796,6.6122449 L11.1489796,2.58409571 L18.8510204,2.58409571 Z" id="Path" stroke="#484D4F" stroke-width="0.7" fill="#78B928" fill-rule="nonzero"></path>
                <path d="M29.4780232,27.602243 L26.3390047,7.74137931 L3.65267776,7.74137931 L0.510627516,27.6593089 C0.472805192,27.8901555 0.537324424,28.1295865 0.685555365,28.3065653 C0.82864774,28.4811608 1.0353055,28.5795215 1.25394108,28.5795215 L28.7559819,28.5795215 C28.9746175,28.5795215 29.1812752,28.4811608 29.3163616,28.3165937 C29.3875375,28.2250534 29.4521548,27.9823334 29.4780232,27.602243 Z" id="Shape" stroke="#484D4F" fill-rule="nonzero"></path>
                <path d="M10.142,18.5172414 L10.142,16.5912414 L10.871,15.8352414 L12.824,18.5172414 L14.489,18.5172414 L11.807,14.8902414 L14.372,12.2172414 L12.698,12.2172414 L10.142,14.9712414 L10.142,12.2172414 L8.756,12.2172414 L8.756,18.5172414 L10.142,18.5172414 Z M17.714,18.6252414 C18.866,18.6252414 19.757,18.1752414 20.405,17.6262414 L20.405,14.8902414 L17.669,14.8902414 L17.669,16.0872414 L19.064,16.0872414 L19.064,16.9872414 C18.713,17.2392414 18.263,17.3652414 17.759,17.3652414 C16.643,17.3652414 15.851,16.5192414 15.851,15.3672414 L15.851,15.3492414 C15.851,14.2782414 16.652,13.3872414 17.66,13.3872414 C18.389,13.3872414 18.821,13.6212414 19.307,14.0262414 L20.18,12.9732414 C19.523,12.4152414 18.839,12.1092414 17.705,12.1092414 C15.797,12.1092414 14.402,13.5762414 14.402,15.3672414 L14.402,15.3852414 C14.402,17.2482414 15.752,18.6252414 17.714,18.6252414 Z" id="KG" fill="#484D4F" fill-rule="nonzero"></path>
            </g>
        </g>
    </g>
</svg>