<?xml version="1.0" encoding="UTF-8"?>
<svg width="27px" height="30px" viewBox="0 0 27 30" version="1.1" xmlns="http://www.w3.org/2000/svg" xmlns:xlink="http://www.w3.org/1999/xlink">
    <!-- Generator: Sketch 60.1 (88133) - https://sketch.com -->
    <title>delivery-man</title>
    <desc>Created with Sketch.</desc>
    <g id="Flujos" stroke="none" stroke-width="1" fill="none" fill-rule="evenodd">
        <g id="07.01b.Seguimiento_pedido" transform="translate(-264.000000, -683.000000)">
            <g id="delivery-man" transform="translate(264.000000, 683.000000)">
                <path d="M13.5,0.6 L16.3033714,0.6 C18.5655857,0.6 20.4,2.36305263 20.4,4.53726316 L20.4,8.65263158 C20.4,8.65263158 19.4142857,9.6 17.9357143,9.6 C16.4571429,9.6 15.9642857,8.65263158 13.5,8.65263158 C11.0357143,8.65263158 10.5428571,9.6 9.06428571,9.6 C7.58571429,9.6 6.6,8.65263158 6.6,8.65263158 L6.6,4.53726316 C6.6,2.36305263 8.43441429,0.6 10.6966286,0.6 L13.5,0.6 Z" id="Path" fill="#78B928" fill-rule="nonzero"></path>
                <g id="Group">
                    <path d="M25.2991927,23.6003226 C24.9736734,21.6508065 23.605233,20.051129 21.7281688,19.4259677 L17.5598752,18.0382258 L17.5598752,17.4193548 L16.5910679,17.4193548 L16.5910679,18.2158065 C16.3227083,18.5119355 15.3698862,19.3548387 13.2002422,19.3548387 C11.0305982,19.3548387 10.0777761,18.5119355 9.80941651,18.2158065 L9.80941651,17.4193548 L8.84060917,17.4193548 L8.84060917,18.0382258 L4.6728,19.4259677 C2.79573578,20.051129 1.42729541,21.6508065 1.10177615,23.6003226 L0.033666055,30 L26.3663339,30 L25.2991927,23.6003226 Z M1.17782752,29.0322581 L1.3333211,28.0983871 L4.90531376,28.5445161 L5.02544587,27.5845161 L1.49268991,27.1432258 L2.05702018,23.7595161 C2.3234422,22.1641935 3.44289908,20.8558065 4.97894312,20.343871 L9.17242569,18.9474194 C9.65101651,19.4269355 10.8576661,20.3225806 13.2002422,20.3225806 C15.5428183,20.3225806 16.7494679,19.4269355 17.2275743,18.9479032 L21.4210569,20.3443548 C22.9571009,20.8558065 24.0765578,22.1646774 24.3429798,23.76 L24.9073101,27.1437097 L21.3745541,27.585 L21.4946862,28.545 L25.0666789,28.098871 L25.2226569,29.0322581 L1.17782752,29.0322581 Z" id="Shape" fill="#484D4F" fill-rule="nonzero"></path>
                    <path d="M7.11710092,13.0374194 C7.36414679,13.8866129 7.82045505,14.6651613 8.46374312,15.3077419 L10.352433,17.1948387 C10.8097101,17.6516129 11.4181211,17.9032258 12.0652844,17.9032258 L14.3352,17.9032258 C14.9823633,17.9032258 15.5907743,17.6516129 16.0480514,17.1948387 L17.9367413,15.3077419 C18.5800294,14.6651613 19.0358532,13.886129 19.2833835,13.0374194 C20.4905174,12.9009677 21.4351046,11.8867742 21.4351046,10.6451613 C21.4351046,9.88209677 21.0693798,9.16596774 20.4662972,8.71209677 L20.4662972,4.50580645 C20.4662972,2.0216129 18.4424587,0 15.9555303,0 L10.4449541,0 C7.95802569,0 5.93418716,2.0216129 5.93418716,4.50580645 L5.93418716,8.71209677 C5.33110459,9.16596774 4.96537982,9.88209677 4.96537982,10.6451613 C4.96537982,11.8867742 5.90996697,12.9009677 7.11710092,13.0374194 Z M17.5598752,9.19354839 C17.0212183,9.19354839 16.638055,9.03629032 16.153167,8.83741935 C15.4880807,8.565 14.6607193,8.22580645 13.2002422,8.22580645 C11.7397651,8.22580645 10.9124037,8.565 10.2473174,8.83741935 C9.76242936,9.03629032 9.37926606,9.19354839 8.84060917,9.19354839 C8.04860917,9.19354839 7.41694679,8.85145161 7.06526972,8.60758065 C7.60441101,7.90258065 9.26543119,6.29032258 13.2002422,6.29032258 C17.1403817,6.29032258 18.8009174,7.90741935 19.3366679,8.60903226 C18.9883817,8.85290323 18.3601101,9.19354839 17.5598752,9.19354839 Z M17.2517945,14.6235484 L15.3631046,16.5106452 C15.0884477,16.7845161 14.7236917,16.9354839 14.3352,16.9354839 L12.0652844,16.9354839 C11.6767927,16.9354839 11.3115523,16.7845161 11.0373798,16.5106452 L9.14868991,14.6235484 C8.32568807,13.8009677 7.87180183,12.7074194 7.87180183,11.5441935 L7.87180183,10.0277419 C8.16777248,10.1056452 8.48844771,10.1612903 8.84060917,10.1612903 C9.5706055,10.1612903 10.0782606,9.95322581 10.6154642,9.73306452 C11.2621431,9.46741935 11.9311046,9.19354839 13.2002422,9.19354839 C14.4693798,9.19354839 15.1383413,9.46741935 15.7850202,9.73306452 C16.3222239,9.95322581 16.8298789,10.1612903 17.5598752,10.1612903 C17.9120367,10.1612903 18.2327119,10.1056452 18.5286826,10.0277419 L18.5286826,11.5441935 C18.5286826,12.7074194 18.0747963,13.8009677 17.2517945,14.6235484 Z M19.4747229,12.0145161 C19.4882862,11.8591935 19.4974899,11.7024194 19.4974899,11.5441935 L19.4974899,9.64403226 C19.6171376,9.57822581 19.7237064,9.51241935 19.8191339,9.44903226 C20.2168294,9.71758065 20.4662972,10.1627419 20.4662972,10.6451613 C20.4662972,11.2833871 20.0487413,11.8209677 19.4747229,12.0145161 Z M10.4449541,0.967741935 L15.9550459,0.967741935 C17.9086459,0.967741935 19.4974899,2.55483871 19.4974899,4.50580645 L19.4974899,7.36790323 C18.5068844,6.45532258 16.5978495,5.32258065 13.2002422,5.32258065 C9.80263486,5.32258065 7.8936,6.45532258 6.9029945,7.36790323 L6.9029945,4.50580645 C6.9029945,2.55483871 8.49183853,0.967741935 10.4449541,0.967741935 Z M6.58135046,9.44854839 C6.67677798,9.51241935 6.78334679,9.57774194 6.9029945,9.64354839 L6.9029945,11.5437097 C6.9029945,11.7019355 6.91219817,11.8587097 6.92576147,12.0145161 C6.35174312,11.8209677 5.93418716,11.2833871 5.93418716,10.6451613 C5.93418716,10.1627419 6.18413945,9.71758065 6.58135046,9.44854839 Z" id="Shape" fill="#484D4F" fill-rule="nonzero"></path>
                    <polygon id="Path-4" stroke="#484D4F" fill="#78B928" stroke-linejoin="round" points="4.62140004 19.9985206 4.05 29.0322581 22.05 29.0322581 21.0183102 19.7692755 18.2712477 18.9140736 17.4650326 24.7252777 8.35305674 24.7252777 8.07351234 18.9140736"></polygon>
                </g>
            </g>
        </g>
    </g>
</svg>