<?xml version="1.0" encoding="UTF-8"?>
<svg width="30px" height="30px" viewBox="0 0 30 30" version="1.1" xmlns="http://www.w3.org/2000/svg" xmlns:xlink="http://www.w3.org/1999/xlink">
    <!-- Generator: Sketch 60 (88103) - https://sketch.com -->
    <title>appointment</title>
    <desc>Created with Sketch.</desc>
    <g id="Flujos" stroke="none" stroke-width="1" fill="none" fill-rule="evenodd">
        <g id="07.Detalle_pedido" transform="translate(-44.000000, -445.000000)">
            <g id="appointment" transform="translate(44.000000, 445.000000)">
                <path d="M5.5,18 C7.709139,18 9.5,19.790861 9.5,22 C9.5,24.209139 7.709139,26 5.5,26 C3.290861,26 1.5,24.209139 1.5,22 C1.5,19.790861 3.290861,18 5.5,18 Z M7.86133573,2.78873538 C8.43684035,0.814623136 7.38407783,-0.220409085 9.06929051,0.502569891 C10.7545032,1.22554887 10.7130977,0.396813878 10.6203787,2.61831593 C10.5276597,4.83981797 10.8540014,6.74634649 9.03622872,5.55820793 C7.21845599,4.37006937 7.28583112,4.76284762 7.86133573,2.78873538 Z" id="Oval-2" fill="#78B928" fill-rule="nonzero"></path>
                <path d="M22.5362287,5.55820793 C24.3540014,6.74634649 24.0276597,4.83981797 24.1203787,2.61831593 C24.2130977,0.396813878 24.2545032,1.22554887 22.5692905,0.502569891 C20.8840778,-0.220409085 21.9368403,0.814623136 21.3613357,2.78873538 C20.7858311,4.76284762 20.718456,4.37006937 22.5362287,5.55820793 Z" id="Oval" fill="#78B928" fill-rule="nonzero"></path>
                <rect id="Rectangle" fill="#78B928" x="3" y="3.75" width="26.25" height="4.5" rx="1"></rect>
                <line x1="5.28008789" y1="12" x2="25.7626758" y2="12" id="Line-2" stroke="#484D4F" stroke-linecap="round" stroke-linejoin="round"></line>
                <line x1="5.28008789" y1="15" x2="25.7626758" y2="15" id="Line-2" stroke="#484D4F" stroke-linecap="round" stroke-linejoin="round"></line>
                <line x1="11.2800879" y1="18" x2="25.7626758" y2="18" id="Line-2" stroke="#484D4F" stroke-linecap="round" stroke-linejoin="round"></line>
                <path d="M27.0703125,2.578125 L24.2773242,2.578125 L24.2773242,1.7578125 C24.2773242,0.788554687 23.4887695,0 22.5195117,0 C21.5502539,0 20.7616992,0.788554688 20.7616992,1.7578125 L20.7616992,2.578125 L10.9179492,2.578125 L10.9179492,1.7578125 C10.9179492,0.788554687 10.1293945,0 9.16013672,0 C8.19087891,0 7.40232422,0.788554688 7.40232422,1.7578125 L7.40232422,2.59980469 C7.35251953,2.58603516 7.3003125,2.578125 7.24611328,2.578125 L4.91150391,2.578125 C3.29607422,2.578125 1.98181641,3.89238281 1.98181641,5.5078125 L1.98181641,15.4882617 C1.98181641,15.811875 2.24419922,16.0741992 2.56775391,16.0741992 C2.89130859,16.0741992 3.15369141,15.811875 3.15369141,15.4882617 L3.15369141,8.61328125 L24.2773242,8.61328125 C24.6008789,8.61328125 24.8632617,8.35095703 24.8632617,8.02734375 C24.8632617,7.70373047 24.6008789,7.44140625 24.2773242,7.44140625 L3.15369141,7.44140625 L3.15369141,5.5078125 C3.15369141,4.53855469 3.94224609,3.75 4.91150391,3.75 L7.24611328,3.75 C7.3003125,3.75 7.35251953,3.74203125 7.40232422,3.72832031 L7.40232422,4.48242188 C7.40232422,5.45167969 8.19087891,6.24023438 9.16013672,6.24023438 C10.1293945,6.24023438 10.9179492,5.45167969 10.9179492,4.48242188 L10.9179492,3.75 L20.7616992,3.75 L20.7616992,4.48242188 C20.7616992,5.45167969 21.5502539,6.24023438 22.5195117,6.24023438 C23.4887695,6.24023438 24.2773242,5.45167969 24.2773242,4.48242188 L24.2773242,3.75 L27.0703125,3.75 C28.0395703,3.75 28.828125,4.53855469 28.828125,5.5078125 L28.828125,27.7730859 C28.828125,28.3548047 28.3548633,28.828125 27.7730859,28.828125 C27.1913086,28.828125 26.7180469,28.3548047 26.7180469,27.7730859 L26.7180469,26.2573242 C26.7180469,25.9337109 26.4556641,25.6713867 26.1321094,25.6713867 L19.3164258,25.6713867 C18.9928711,25.6713867 18.7304883,25.9337109 18.7304883,26.2573242 C18.7304883,26.5809375 18.9928711,26.8432617 19.3164258,26.8432617 L25.5461719,26.8432617 L25.5461719,27.7730859 C25.5461719,28.1545898 25.6427344,28.5138867 25.8124805,28.828125 L2.2265625,28.828125 C1.64501953,28.828125 1.171875,28.3549805 1.171875,27.7734375 L1.171875,26.8432617 L14.2866211,26.8432617 C14.6101758,26.8432617 14.8725586,26.5809375 14.8725586,26.2573242 C14.8725586,25.9337109 14.6101758,25.6713867 14.2866211,25.6713867 L8.43216797,25.6713867 C9.45603516,24.7896094 10.1061914,23.4853125 10.1061914,22.03125 C10.1061914,19.3819336 7.95082031,17.2265625 5.30150391,17.2265625 C2.6521875,17.2265625 0.496816406,19.3819336 0.496816406,22.03125 C0.496816406,23.4853125 1.14697266,24.7896094 2.17083984,25.6713867 L0.5859375,25.6713867 C0.262382813,25.6713867 0,25.9337109 0,26.2573242 L0,27.7734375 C0,29.0011523 0.998847656,30 2.2265625,30 L27.7730859,30 C29.0009766,30 30,29.0010352 30,27.7730859 L30,5.5078125 C30,3.89238281 28.6857422,2.578125 27.0703125,2.578125 Z M9.74607422,4.48242188 C9.74607422,4.80550781 9.48322266,5.06835938 9.16013672,5.06835938 C8.83705078,5.06835938 8.57419922,4.80550781 8.57419922,4.48242188 L8.57419922,1.7578125 C8.57419922,1.43472656 8.83705078,1.171875 9.16013672,1.171875 C9.48322266,1.171875 9.74607422,1.43472656 9.74607422,1.7578125 L9.74607422,4.48242188 Z M23.1054492,4.48242188 C23.1054492,4.80550781 22.8425977,5.06835938 22.5195117,5.06835938 C22.1964258,5.06835938 21.9335742,4.80550781 21.9335742,4.48242188 L21.9335742,1.7578125 C21.9335742,1.43472656 22.1964258,1.171875 22.5195117,1.171875 C22.8425977,1.171875 23.1054492,1.43472656 23.1054492,1.7578125 L23.1054492,4.48242188 Z M1.66869141,22.03125 C1.66869141,20.0281055 3.29835938,18.3984375 5.30150391,18.3984375 C7.30464844,18.3984375 8.93431641,20.0281055 8.93431641,22.03125 C8.93431641,24.0343945 7.30464844,25.6640625 5.30150391,25.6640625 C3.29835937,25.6640625 1.66869141,24.0343945 1.66869141,22.03125 Z" id="Shape" fill="#484D4F" fill-rule="nonzero"></path>
                <path d="M27.4399805,7.61308594 C27.3310547,7.50410156 27.1798828,7.44140625 27.0257813,7.44140625 C26.8716211,7.44140625 26.7205078,7.50410156 26.6115234,7.61308594 C26.5025391,7.72207031 26.4398438,7.87324219 26.4398438,8.02734375 C26.4398438,8.18144531 26.5024805,8.33261719 26.6115234,8.44160156 C26.7205664,8.55058594 26.8716211,8.61328125 27.0257813,8.61328125 C27.1798828,8.61328125 27.3310547,8.55058594 27.4399805,8.44160156 C27.5489648,8.33261719 27.6117188,8.18144531 27.6117188,8.02734375 C27.6117188,7.87324219 27.5490234,7.72207031 27.4399805,7.61308594 Z" id="Path" fill="#484D4F" fill-rule="nonzero"></path>
                <path d="M17.4989648,25.8427734 C17.3900391,25.7337891 17.2388672,25.6716797 17.0847656,25.6716797 C16.9306641,25.6716797 16.7794922,25.7337891 16.6705078,25.8427734 C16.5615234,25.9523437 16.4988281,26.1029297 16.4988281,26.2570312 C16.4988281,26.4117187 16.5614648,26.5623047 16.6705078,26.671875 C16.7794922,26.7808594 16.9306641,26.8429687 17.0847656,26.8429687 C17.2388672,26.8429687 17.3900391,26.7808594 17.4989648,26.671875 C17.6079492,26.5623047 17.6707031,26.4111328 17.6707031,26.2570312 C17.6707031,26.1029297 17.6080078,25.9523437 17.4989648,25.8427734 Z" id="Path" fill="#484D4F" fill-rule="nonzero"></path>
                <path d="M7.38890625,20.6032617 C7.16003906,20.3744531 6.78914063,20.3744531 6.56021484,20.6032617 L4.65205078,22.5114844 L3.99996094,21.8593945 C3.77109375,21.6305859 3.40019531,21.6305859 3.17126953,21.8593945 C2.94246094,22.0882031 2.94246094,22.4592188 3.17126953,22.6880859 L4.23773438,23.7544336 C4.34765625,23.8642969 4.49666016,23.9260547 4.65205078,23.9260547 C4.80744141,23.9260547 4.95644531,23.8642969 5.06636719,23.7544336 L7.38890625,21.4318945 C7.61771484,21.2030859 7.61771484,20.8320703 7.38890625,20.6032617 Z" id="Path" fill="#484D4F" fill-rule="nonzero"></path>
            </g>
        </g>
    </g>
</svg>