<?xml version="1.0" encoding="utf-8"?>
<!-- Generator: Adobe Illustrator 22.0.0, SVG Export Plug-In . SVG Version: 6.00 Build 0)  -->
<svg version="1.1" id="Layer_1" xmlns="http://www.w3.org/2000/svg" xmlns:xlink="http://www.w3.org/1999/xlink" x="0px" y="0px"
	 viewBox="0 0 161 40" style="enable-background:new 0 0 161 40;" xml:space="preserve">
<style type="text/css">
	.st0{fill:#219D51;}
	.st1{enable-background:new    ;}
	.st2{fill:#F9F9F9;}
	.st3{fill:#FFFFFF;}
</style>
<title>Group 2</title>
<desc>Created with Sketch.</desc>
<g id="Page-1">
	<g id="Desktop---home-sube-tus-pedidos-boton" transform="translate(-786.000000, -7.000000)">
		<g id="Group-2" transform="translate(786.000000, 4.000000)">
			<path id="Rectangle" class="st0" d="M5,3h151c2.8,0,5,2.2,5,5v30c0,2.8-2.2,5-5,5H5c-2.8,0-5-2.2-5-5V8C0,5.2,2.2,3,5,3z"/>
			<g class="st1">
				<path class="st2" d="M45.1,21.6c1.8,0.4,2.7,1.1,2.7,2.5c0,1.6-1.2,2.5-3,2.5c-1.3,0-2.5-0.4-3.5-1.3l0.9-1.1
					c0.8,0.7,1.6,1.1,2.7,1.1c0.9,0,1.5-0.4,1.5-1.1c0-0.6-0.3-0.9-1.9-1.3c-1.8-0.4-2.8-1-2.8-2.5c0-1.5,1.2-2.4,2.9-2.4
					c1.2,0,2.2,0.4,3,1.1l-0.8,1.1c-0.8-0.6-1.5-0.9-2.3-0.9c-0.9,0-1.4,0.4-1.4,1C43.1,21,43.5,21.2,45.1,21.6z"/>
				<path class="st2" d="M53.5,20.2H55v6.3h-1.5v-1c-0.4,0.6-1,1.1-2,1.1c-1.4,0-2.3-1-2.3-2.4v-4h1.5v3.6c0,1,0.5,1.5,1.4,1.5
					c0.8,0,1.4-0.6,1.4-1.6V20.2z"/>
				<path class="st2" d="M60.4,26.6c-1,0-1.7-0.5-2.1-1.1v1h-1.5v-8.8h1.5v3.5c0.5-0.7,1.1-1.2,2.1-1.2c1.5,0,3,1.2,3,3.3
					C63.3,25.4,61.9,26.6,60.4,26.6z M60,21.3c-1,0-1.8,0.8-1.8,2s0.9,2,1.8,2c1,0,1.8-0.8,1.8-2C61.9,22.1,61,21.3,60,21.3z"/>
				<path class="st2" d="M67.7,25.5c0.7,0,1.2-0.3,1.7-0.8l0.9,0.8c-0.6,0.7-1.4,1.2-2.6,1.2c-1.8,0-3.3-1.3-3.3-3.3
					c0-1.8,1.3-3.3,3.1-3.3c2,0,3,1.6,3,3.4c0,0.1,0,0.3,0,0.4h-4.7C66.1,24.9,66.8,25.5,67.7,25.5z M69.2,22.9
					c-0.1-0.9-0.6-1.7-1.6-1.7c-0.9,0-1.5,0.7-1.6,1.7H69.2z"/>
				<path class="st2" d="M77.4,24.5c0,0.6,0.3,0.8,0.8,0.8c0.3,0,0.6-0.1,0.9-0.2v1.2c-0.4,0.2-0.8,0.3-1.3,0.3
					c-1.1,0-1.8-0.5-1.8-1.9v-3.3h-0.8v-1.2H76v-1.7h1.5v1.7h1.7v1.2h-1.7V24.5z"/>
				<path class="st2" d="M84.8,20.2h1.5v6.3h-1.5v-1c-0.4,0.6-1,1.1-2,1.1c-1.4,0-2.3-1-2.3-2.4v-4H82v3.6c0,1,0.5,1.5,1.4,1.5
					c0.8,0,1.4-0.6,1.4-1.6V20.2z"/>
				<path class="st2" d="M90.2,26.6c-0.9,0-1.9-0.3-2.7-0.9l0.6-1c0.7,0.5,1.4,0.8,2.1,0.8c0.6,0,1-0.3,1-0.7v0
					c0-0.5-0.7-0.7-1.4-0.9c-0.9-0.3-2-0.6-2-1.9v0c0-1.2,1-1.9,2.3-1.9c0.8,0,1.7,0.3,2.3,0.7l-0.6,1c-0.6-0.4-1.3-0.6-1.8-0.6
					c-0.6,0-0.9,0.3-0.9,0.6v0c0,0.5,0.7,0.6,1.4,0.9c0.9,0.3,2,0.7,2,1.8v0C92.6,26,91.5,26.6,90.2,26.6z"/>
				<path class="st2" d="M101.2,26.6c-1,0-1.7-0.5-2.1-1.1v2.9h-1.5v-8.3h1.5v1.1c0.5-0.7,1.1-1.2,2.1-1.2c1.5,0,3,1.2,3,3.3
					C104.2,25.4,102.7,26.6,101.2,26.6z M100.9,21.3c-1,0-1.8,0.8-1.8,2s0.9,2,1.8,2c1,0,1.8-0.8,1.8-2
					C102.7,22.1,101.9,21.3,100.9,21.3z"/>
				<path class="st2" d="M108.6,25.5c0.7,0,1.2-0.3,1.7-0.8l0.9,0.8c-0.6,0.7-1.4,1.2-2.6,1.2c-1.8,0-3.3-1.3-3.3-3.3
					c0-1.8,1.3-3.3,3.1-3.3c2,0,3,1.6,3,3.4c0,0.1,0,0.3,0,0.4h-4.7C106.9,24.9,107.7,25.5,108.6,25.5z M110,22.9
					c-0.1-0.9-0.6-1.7-1.6-1.7c-0.9,0-1.5,0.7-1.6,1.7H110z"/>
				<path class="st2" d="M117.7,26.5v-1.1c-0.5,0.7-1.1,1.2-2.2,1.2c-1.5,0-2.9-1.2-2.9-3.3c0-2.1,1.4-3.3,2.9-3.3
					c1,0,1.7,0.5,2.2,1.1v-3.4h1.5v8.8H117.7z M115.9,21.3c-1,0-1.8,0.8-1.8,2c0,1.2,0.8,2,1.8,2c1,0,1.8-0.8,1.8-2
					S116.8,21.3,115.9,21.3z"/>
				<path class="st2" d="M121,19.2v-1.4h1.6v1.4H121z M121,26.5v-6.3h1.5v6.3H121z"/>
				<path class="st2" d="M129.2,26.5v-1.1c-0.5,0.7-1.1,1.2-2.2,1.2c-1.5,0-2.9-1.2-2.9-3.3c0-2.1,1.4-3.3,2.9-3.3
					c1,0,1.7,0.5,2.2,1.1v-3.4h1.5v8.8H129.2z M127.4,21.3c-1,0-1.8,0.8-1.8,2c0,1.2,0.8,2,1.8,2c1,0,1.8-0.8,1.8-2
					S128.3,21.3,127.4,21.3z"/>
				<path class="st2" d="M135.4,26.6c-1.9,0-3.4-1.5-3.4-3.3c0-1.8,1.4-3.3,3.4-3.3s3.4,1.5,3.4,3.3
					C138.8,25.1,137.4,26.6,135.4,26.6z M135.4,21.3c-1.2,0-1.9,0.9-1.9,2c0,1.1,0.8,2.1,1.9,2.1c1.2,0,1.9-0.9,1.9-2
					C137.4,22.2,136.6,21.3,135.4,21.3z"/>
				<path class="st2" d="M142.5,26.6c-0.9,0-1.9-0.3-2.7-0.9l0.6-1c0.7,0.5,1.4,0.8,2.1,0.8c0.6,0,1-0.3,1-0.7v0
					c0-0.5-0.7-0.7-1.4-0.9c-0.9-0.3-2-0.6-2-1.9v0c0-1.2,1-1.9,2.3-1.9c0.8,0,1.7,0.3,2.3,0.7l-0.6,1c-0.6-0.4-1.3-0.6-1.8-0.6
					c-0.6,0-0.9,0.3-0.9,0.6v0c0,0.5,0.7,0.6,1.4,0.9c0.9,0.3,2,0.7,2,1.8v0C144.8,26,143.8,26.6,142.5,26.6z"/>
			</g>
			<g id="Group-19" transform="translate(10.000000, 12.000000)">
				<g id="Group-3" transform="translate(0.000000, 0.003639)">
					<g id="Clip-2">
					</g>
					<path id="Fill-1" class="st3" d="M11.5,20.1L1.4,18.3V3.6l10.1-1.9V20.1z M12.9,0c0,0-0.6,0.1-0.9,0.1c0,0-11.8,2.2-12.1,2.3
						v16.4c0,0.2,0,0.6,0,0.6s0.4,0.1,0.6,0.1L12,21.7l0.9,0.2V21V0.9V0z"/>
				</g>
				<path id="Fill-4" class="st3" d="M23,3H12.2c-0.4,0-0.7,0.3-0.7,0.7c0,0.4,0.3,0.8,0.7,0.8h9.3v12.9h-9.3
					c-0.4,0-0.7,0.3-0.7,0.7c0,0.4,0.3,0.8,0.7,0.8H23V3z"/>
				<polygon id="Fill-6" class="st3" points="10.4,14.3 4.5,6.9 2.6,6.9 8.5,14.3 				"/>
				<polygon id="Fill-8" class="st3" points="8.5,6.9 2.7,14.3 4.5,14.4 10.3,6.9 				"/>
				<g id="Clip-11">
				</g>
				<polygon id="Fill-10" class="st3" points="17.2,7.5 19.6,7.5 19.6,6 17.2,6 				"/>
				<polygon id="Fill-12" class="st3" points="17.2,10.3 19.6,10.3 19.6,8.8 17.2,8.8 				"/>
				<polygon id="Fill-13" class="st3" points="17.2,13.1 19.6,13.1 19.6,11.7 17.2,11.7 				"/>
				<polygon id="Fill-14" class="st3" points="17.2,15.9 19.6,15.9 19.6,14.5 17.2,14.5 				"/>
				<polygon id="Fill-15" class="st3" points="12.9,7.5 15.2,7.5 15.2,6 12.9,6 				"/>
				<polygon id="Fill-16" class="st3" points="12.9,10.3 15.2,10.3 15.2,8.9 12.9,8.9 				"/>
				<polygon id="Fill-17" class="st3" points="12.9,13.1 15.2,13.1 15.2,11.7 12.9,11.7 				"/>
				<polygon id="Fill-18" class="st3" points="12.9,16 15.2,16 15.2,14.5 12.9,14.5 				"/>
			</g>
		</g>
	</g>
</g>
</svg>
