<?xml version="1.0" encoding="utf-8"?>
<!-- Generator: Adobe Illustrator 22.0.0, SVG Export Plug-In . SVG Version: 6.00 Build 0)  -->
<svg version="1.1" id="Layer_1" xmlns="http://www.w3.org/2000/svg" xmlns:xlink="http://www.w3.org/1999/xlink" x="0px" y="0px"
	 viewBox="0 0 161 40" style="enable-background:new 0 0 161 40;" xml:space="preserve">
<style type="text/css">
	.st0{fill:#219D51;}
	.st1{fill:#F9F9F9;}
	.st2{font-family:'Gotham-Medium';}
	.st3{font-size:12px;}
	.st4{filter:url(#Adobe_OpacityMaskFilter);}
	.st5{fill:#FFFFFF;}
	.st6{mask:url(#mask-2_1_);fill:#FFFFFF;}
	.st7{filter:url(#Adobe_OpacityMaskFilter_1_);}
	.st8{mask:url(#mask-4_1_);fill:#FFFFFF;}
	.st9{filter:url(#Adobe_OpacityMaskFilter_2_);}
	.st10{mask:url(#mask-4_2_);fill:#FFFFFF;}
	.st11{filter:url(#Adobe_OpacityMaskFilter_3_);}
	.st12{mask:url(#mask-4_3_);fill:#FFFFFF;}
	.st13{filter:url(#Adobe_OpacityMaskFilter_4_);}
	.st14{mask:url(#mask-4_4_);fill:#FFFFFF;}
	.st15{filter:url(#Adobe_OpacityMaskFilter_5_);}
	.st16{mask:url(#mask-4_5_);fill:#FFFFFF;}
	.st17{filter:url(#Adobe_OpacityMaskFilter_6_);}
	.st18{mask:url(#mask-4_6_);fill:#FFFFFF;}
	.st19{filter:url(#Adobe_OpacityMaskFilter_7_);}
	.st20{mask:url(#mask-4_7_);fill:#FFFFFF;}
	.st21{filter:url(#Adobe_OpacityMaskFilter_8_);}
	.st22{mask:url(#mask-4_8_);fill:#FFFFFF;}
</style>
<title>Group 2</title>
<desc>Created with Sketch.</desc>
<g id="Page-1">
	<g id="Desktop---home-sube-tus-pedidos-boton" transform="translate(-786.000000, -7.000000)">
		<g id="Group-2" transform="translate(786.000000, 4.000000)">
			<path id="Rectangle" class="st0" d="M5,3h151c2.8,0,5,2.2,5,5v30c0,2.8-2.2,5-5,5H5c-2.8,0-5-2.2-5-5V8C0,5.2,2.2,3,5,3z"/>
			<text transform="matrix(1 0 0 1 40.75 26.5)" class="st1 st2 st3">Sube tus pedidos</text>
			<g id="Group-19" transform="translate(10.000000, 12.000000)">
				<g id="Group-3" transform="translate(0.000000, 0.003639)">
					<g id="Clip-2">
					</g>
					<defs>
						<filter id="Adobe_OpacityMaskFilter" filterUnits="userSpaceOnUse" x="0" y="0" width="12.9" height="21.8">
							<feColorMatrix  type="matrix" values="1 0 0 0 0  0 1 0 0 0  0 0 1 0 0  0 0 0 1 0"/>
						</filter>
					</defs>
					<mask maskUnits="userSpaceOnUse" x="0" y="0" width="12.9" height="21.8" id="mask-2_1_">
						<g class="st4">
							<polygon id="path-1_1_" class="st5" points="0,0 12.9,0 12.9,21.9 0,21.9 							"/>
						</g>
					</mask>
					<path id="Fill-1" class="st6" d="M11.5,20.1L1.4,18.3V3.6l10.1-1.9V20.1z M12.9,0c0,0-0.6,0.1-0.9,0.1c0,0-11.8,2.2-12.1,2.3
						v16.4c0,0.2,0,0.6,0,0.6s0.4,0.1,0.6,0.1l11.5,2.2c0,0,0.9,0.2,0.9,0.2V21V0.9V0z"/>
				</g>
				<path id="Fill-4" class="st5" d="M23,3H12.2c-0.4,0-0.7,0.3-0.7,0.7c0,0.4,0.3,0.8,0.7,0.8h9.3v12.9h-9.3
					c-0.4,0-0.7,0.3-0.7,0.7c0,0.4,0.3,0.8,0.7,0.8H23V3z"/>
				<polygon id="Fill-6" class="st5" points="10.4,14.3 4.5,6.9 2.6,6.9 8.5,14.3 				"/>
				<polygon id="Fill-8" class="st5" points="8.5,6.9 2.7,14.3 4.5,14.4 10.3,6.9 				"/>
				<g id="Clip-11">
				</g>
				<defs>
					<filter id="Adobe_OpacityMaskFilter_1_" filterUnits="userSpaceOnUse" x="17.2" y="6" width="2.4" height="1.5">
						<feColorMatrix  type="matrix" values="1 0 0 0 0  0 1 0 0 0  0 0 1 0 0  0 0 0 1 0"/>
					</filter>
				</defs>
				<mask maskUnits="userSpaceOnUse" x="17.2" y="6" width="2.4" height="1.5" id="mask-4_1_">
					<g class="st7">
						<polygon id="path-3_1_" class="st5" points="0,21.9 23,21.9 23,0 0,0 						"/>
					</g>
				</mask>
				<polygon id="Fill-10" class="st8" points="17.2,7.5 19.6,7.5 19.6,6 17.2,6 				"/>
				<defs>
					<filter id="Adobe_OpacityMaskFilter_2_" filterUnits="userSpaceOnUse" x="17.2" y="8.8" width="2.4" height="1.5">
						<feColorMatrix  type="matrix" values="1 0 0 0 0  0 1 0 0 0  0 0 1 0 0  0 0 0 1 0"/>
					</filter>
				</defs>
				<mask maskUnits="userSpaceOnUse" x="17.2" y="8.8" width="2.4" height="1.5" id="mask-4_2_">
					<g class="st9">
						<polygon id="path-3_2_" class="st5" points="0,21.9 23,21.9 23,0 0,0 						"/>
					</g>
				</mask>
				<polygon id="Fill-12" class="st10" points="17.2,10.3 19.6,10.3 19.6,8.8 17.2,8.8 				"/>
				<defs>
					<filter id="Adobe_OpacityMaskFilter_3_" filterUnits="userSpaceOnUse" x="17.2" y="11.7" width="2.4" height="1.5">
						<feColorMatrix  type="matrix" values="1 0 0 0 0  0 1 0 0 0  0 0 1 0 0  0 0 0 1 0"/>
					</filter>
				</defs>
				<mask maskUnits="userSpaceOnUse" x="17.2" y="11.7" width="2.4" height="1.5" id="mask-4_3_">
					<g class="st11">
						<polygon id="path-3_3_" class="st5" points="0,21.9 23,21.9 23,0 0,0 						"/>
					</g>
				</mask>
				<polygon id="Fill-13" class="st12" points="17.2,13.1 19.6,13.1 19.6,11.7 17.2,11.7 				"/>
				<defs>
					<filter id="Adobe_OpacityMaskFilter_4_" filterUnits="userSpaceOnUse" x="17.2" y="14.5" width="2.4" height="1.5">
						<feColorMatrix  type="matrix" values="1 0 0 0 0  0 1 0 0 0  0 0 1 0 0  0 0 0 1 0"/>
					</filter>
				</defs>
				<mask maskUnits="userSpaceOnUse" x="17.2" y="14.5" width="2.4" height="1.5" id="mask-4_4_">
					<g class="st13">
						<polygon id="path-3_4_" class="st5" points="0,21.9 23,21.9 23,0 0,0 						"/>
					</g>
				</mask>
				<polygon id="Fill-14" class="st14" points="17.2,15.9 19.6,15.9 19.6,14.5 17.2,14.5 				"/>
				<defs>
					<filter id="Adobe_OpacityMaskFilter_5_" filterUnits="userSpaceOnUse" x="12.9" y="6" width="2.3" height="1.5">
						<feColorMatrix  type="matrix" values="1 0 0 0 0  0 1 0 0 0  0 0 1 0 0  0 0 0 1 0"/>
					</filter>
				</defs>
				<mask maskUnits="userSpaceOnUse" x="12.9" y="6" width="2.3" height="1.5" id="mask-4_5_">
					<g class="st15">
						<polygon id="path-3_5_" class="st5" points="0,21.9 23,21.9 23,0 0,0 						"/>
					</g>
				</mask>
				<polygon id="Fill-15" class="st16" points="12.9,7.5 15.2,7.5 15.2,6 12.9,6 				"/>
				<defs>
					<filter id="Adobe_OpacityMaskFilter_6_" filterUnits="userSpaceOnUse" x="12.9" y="8.9" width="2.3" height="1.5">
						<feColorMatrix  type="matrix" values="1 0 0 0 0  0 1 0 0 0  0 0 1 0 0  0 0 0 1 0"/>
					</filter>
				</defs>
				<mask maskUnits="userSpaceOnUse" x="12.9" y="8.9" width="2.3" height="1.5" id="mask-4_6_">
					<g class="st17">
						<polygon id="path-3_6_" class="st5" points="0,21.9 23,21.9 23,0 0,0 						"/>
					</g>
				</mask>
				<polygon id="Fill-16" class="st18" points="12.9,10.3 15.2,10.3 15.2,8.9 12.9,8.9 				"/>
				<defs>
					<filter id="Adobe_OpacityMaskFilter_7_" filterUnits="userSpaceOnUse" x="12.9" y="11.7" width="2.3" height="1.5">
						<feColorMatrix  type="matrix" values="1 0 0 0 0  0 1 0 0 0  0 0 1 0 0  0 0 0 1 0"/>
					</filter>
				</defs>
				<mask maskUnits="userSpaceOnUse" x="12.9" y="11.7" width="2.3" height="1.5" id="mask-4_7_">
					<g class="st19">
						<polygon id="path-3_7_" class="st5" points="0,21.9 23,21.9 23,0 0,0 						"/>
					</g>
				</mask>
				<polygon id="Fill-17" class="st20" points="12.9,13.1 15.2,13.1 15.2,11.7 12.9,11.7 				"/>
				<defs>
					<filter id="Adobe_OpacityMaskFilter_8_" filterUnits="userSpaceOnUse" x="12.9" y="14.5" width="2.3" height="1.5">
						<feColorMatrix  type="matrix" values="1 0 0 0 0  0 1 0 0 0  0 0 1 0 0  0 0 0 1 0"/>
					</filter>
				</defs>
				<mask maskUnits="userSpaceOnUse" x="12.9" y="14.5" width="2.3" height="1.5" id="mask-4_8_">
					<g class="st21">
						<polygon id="path-3_8_" class="st5" points="0,21.9 23,21.9 23,0 0,0 						"/>
					</g>
				</mask>
				<polygon id="Fill-18" class="st22" points="12.9,16 15.2,16 15.2,14.5 12.9,14.5 				"/>
			</g>
		</g>
	</g>
</g>
</svg>
