<?xml version="1.0" encoding="UTF-8"?>
<svg width="14px" height="15px" viewBox="0 0 14 15" version="1.1" xmlns="http://www.w3.org/2000/svg" xmlns:xlink="http://www.w3.org/1999/xlink">
    <!-- Generator: Sketch 52.5 (67469) - http://www.bohemiancoding.com/sketch -->
    <title>Group 3</title>
    <desc>Created with Sketch.</desc>
    <defs>
        <polygon id="path-1" points="0 0.0001 14 0.0001 14 15 0 15"></polygon>
    </defs>
    <g id="Symbols" stroke="none" stroke-width="1" fill="none" fill-rule="evenodd">
        <g id="Cabecera" transform="translate(-1053.000000, -20.000000)">
            <g id="Group-3" transform="translate(1053.000000, 20.000000)">
                <mask id="mask-2" fill="white">
                    <use xlink:href="#path-1"></use>
                </mask>
                <g id="Clip-2"></g>
                <path d="M7,1.7101 C8.26,1.7101 9.28,2.7401 9.28,4.0001 C9.28,5.2601 8.26,6.2901 7,6.2901 C5.75,6.2901 4.72,5.2601 4.72,4.0001 C4.72,2.7401 5.75,1.7101 7,1.7101 Z M7,8.0001 C9.22,8.0001 11,6.2101 11,4.0001 C11,1.7901 9.22,0.0001 7,0.0001 C4.79,0.0001 3.01,1.7901 3.01,4.0001 C3.01,6.2101 4.79,8.0001 7,8.0001 Z M12.29,13.2901 L1.71,13.2901 L1.71,12.5001 C1.81,12.0101 4.3,10.7101 7,10.7101 C9.7,10.7101 12.19,12.0101 12.29,12.5001 L12.29,13.2901 Z M7,9.0001 C4.67,9.0001 0,10.1701 0,12.5001 L0,15.0001 L14,15.0001 L14,12.5001 C14,10.1701 9.33,9.0001 7,9.0001 Z" id="Fill-1" fill="#FCF4D9" mask="url(#mask-2)"></path>
            </g>
        </g>
    </g>
</svg>